<?xml version="1.0" standalone="no"?>
<!DOCTYPE svg PUBLIC "-//W3C//DTD SVG 1.1//EN" "http://www.w3.org/Graphics/SVG/1.1/DTD/svg11.dtd" >
<svg xmlns="http://www.w3.org/2000/svg" xmlns:xlink="http://www.w3.org/1999/xlink" version="1.1">
<metadata>
Created by FontForge 20170910 at Thu Apr 12 18:19:54 2007
 By Jimmy Wärting
(c) Copyright 2006, 2007 Berthold LLC. All Rights Reserved. This font software computer program is the property of Berthold. You may not reproduce, modify, adapt, translate, alter nor create derivative works of the font software. You may not reverse engineer, decompile, decrypt, disassemble, nor seek to discover the source code of the font software.
</metadata>
<defs>
<font id="AkzidenzGroteskPro-MdCnIt" horiz-adv-x="333" >
  <font-face 
    font-family="Akzidenz-Grotesk Pro Med Cnd"
    font-weight="500"
    font-style="italic"
    font-stretch="condensed"
    units-per-em="1000"
    panose-1="2 0 6 6 4 0 0 9 0 4"
    ascent="750"
    descent="-250"
    x-height="533"
    cap-height="706"
    bbox="-158 -238 860 998"
    underline-thickness="50"
    underline-position="-200"
    slope="-12"
    unicode-range="U+0020-FB02"
  />
<missing-glyph horiz-adv-x="500" 
d="M0 0v706h500v-706h-500zM250 401l170 255h-340zM280 353l170 -258v516zM80 50h340l-170 258zM50 611v-516l170 258z" />
    <glyph glyph-name="fi" unicode="fi" horiz-adv-x="334" 
d="M408 706l-24 -106h-80l24 106h80zM370 533l-124 -533h-80l123 533h81zM291 702l-17 -73q-15 5 -25 5q-14 0 -20.5 -9t-12.5 -35l-14 -57h50l-14 -65h-51l-108 -468h-80l108 468h-41l15 65h41l22 96q18 81 89 81q10 0 23.5 -2t23.5 -4t11 -2z" />
    <glyph glyph-name="fl" unicode="fl" horiz-adv-x="334" 
d="M407 706l-157 -706h-82l158 706h81zM291 702l-17 -73q-15 5 -25 5q-14 0 -20.5 -9t-12.5 -35l-14 -57h50l-14 -65h-51l-108 -468h-80l108 468h-41l15 65h41l22 96q18 81 89 81q10 0 23.5 -2t23.5 -4t11 -2z" />
    <glyph glyph-name=".notdef" horiz-adv-x="500" 
d="M0 0v706h500v-706h-500zM250 401l170 255h-340zM280 353l170 -258v516zM80 50h340l-170 258zM50 611v-516l170 258z" />
    <glyph glyph-name=".null" horiz-adv-x="0" 
 />
    <glyph glyph-name="nonmarkingreturn" 
 />
    <glyph glyph-name="space" unicode=" " horiz-adv-x="187" 
 />
    <glyph glyph-name="exclam" unicode="!" horiz-adv-x="187" 
d="M275 706l-61 -262l-69 -215h-46l31 215l61 262h84zM140 127l-30 -127h-81l30 127h81z" />
    <glyph glyph-name="quotedbl" unicode="&#x22;" horiz-adv-x="255" 
d="M350 741l-90 -289h-29l41 289h78zM230 741l-90 -289h-28l41 289h77z" />
    <glyph glyph-name="numbersign" unicode="#" horiz-adv-x="537" 
d="M586 491l-18 -80h-114l-32 -101h111l-19 -82h-120l-73 -228h-84l73 228h-77l-74 -228h-85l73 228h-117l19 82h124l33 101h-122l19 80h128l70 215h86l-70 -215h77l71 215h84l-71 -215h108zM369 411h-78l-32 -101h78z" />
    <glyph glyph-name="dollar" unicode="$" 
d="M275 470l22 95q7 29 7 40q0 37 -36 37q-9 0 -16 -3t-11 -6t-8 -11.5t-5.5 -11t-5 -14t-3.5 -12.5q-16 -55 -16 -86q0 -22 35 -89q5 -8 14.5 -25t12.5 -23t10 -19t9 -18t6.5 -15t5.5 -15.5t3 -14.5t2.5 -16.5t0.5 -16.5q0 -32 -18 -113q-31 -139 -137 -139h-6l-16 -70h-43
l16 72q-43 4 -63.5 31t-20.5 68q0 23 10 67l22 94h83l-24 -106q-7 -28 -7 -43q0 -43 41 -43q32 0 46 41q8 22 16 66.5t8 66.5q0 30 -38 93q-2 4 -13 22t-14.5 24t-11.5 21.5t-11 25.5t-6 24t-3 28q0 41 16 105q16 65 46.5 97.5t90.5 35.5l13 59h43l-13 -61q80 -17 80 -91
q0 -15 -8 -53l-22 -98h-83z" />
    <glyph glyph-name="percent" unicode="%" horiz-adv-x="583" 
d="M582 706l-457 -706h-58l458 706h57zM294 587l-43 -197q-6 -29 -9.5 -43t-12.5 -34.5t-19.5 -29.5t-29 -16.5t-43.5 -7.5q-11 0 -21 2t-25 8t-24 22t-9 40q0 12 3 29.5t5 28.5l3 11l48 218q11 47 32 70.5t72 23.5q36 0 58.5 -18t22.5 -53q0 -18 -8 -54zM189 372l51 229
q6 33 6 35q0 30 -32 30q-20 0 -27 -13t-16 -53l-47 -213q-9 -39 -9 -49q0 -29 31 -29q19 0 27 14t16 49zM588 322l-43 -197q-8 -35 -13.5 -52.5t-17.5 -39t-32.5 -30t-51.5 -8.5q-79 0 -79 71q0 12 2.5 29t5.5 29l3 11l48 218q11 47 32 70.5t72 23.5q37 0 59.5 -18t22.5 -53
q0 -18 -8 -54zM482 107l52 229q6 33 6 35q0 30 -33 30q-20 0 -27 -13t-16 -53l-47 -213q-9 -39 -9 -49q0 -28 30 -28q20 0 28 13.5t16 48.5z" />
    <glyph glyph-name="ampersand" unicode="&#x26;" horiz-adv-x="458" 
d="M366 353h80q-2 -31 -30.5 -116.5t-61.5 -125.5q35 -30 68 -36l-18 -82q-64 2 -113 48q-35 -27 -63 -38.5t-68 -11.5q-63 0 -96 43.5t-33 111.5q0 38 12 73t34 64.5t39 48t41 39.5q-14 70 -14 111q0 87 44.5 150t112.5 63q45 0 73 -31.5t28 -77.5q0 -57 -45 -119
q-22 -30 -109 -117q16 -85 58 -172q21 38 33 71.5t28 103.5zM232 438q14 15 30 34.5t36 55.5t20 60q0 36 -30 36q-22 0 -40.5 -34t-18.5 -96q0 -29 3 -56zM247 102q-37 60 -70 182q-19 -16 -38.5 -52t-19.5 -78q0 -28 13.5 -53.5t47.5 -25.5q28 0 67 27z" />
    <glyph glyph-name="quotesingle" unicode="'" horiz-adv-x="135" 
d="M230 741l-90 -289h-28l41 289h77z" />
    <glyph glyph-name="parenleft" unicode="(" horiz-adv-x="250" 
d="M365 730l-14 -61q-47 -30 -92 -92q-62 -87 -105 -248t-43 -279q0 -127 51 -200l-14 -62q-63 67 -89.5 138.5t-26.5 165.5q0 125 34.5 247t112.5 230.5t186 160.5z" />
    <glyph glyph-name="parenright" unicode=")" horiz-adv-x="250" 
d="M115 668l14 62q64 -75 90 -141t26 -163q0 -267 -142 -470q-77 -108 -191 -168l14 61q55 38 99 102q59 86 100 244t41 274q0 132 -51 199z" />
    <glyph glyph-name="asterisk" unicode="*" horiz-adv-x="320" 
d="M390 555l-101 -15l42 -89l-55 -27l-43 92l-70 -69l-42 46l70 68l-85 46l28 53l88 -45l20 97l60 -12l-20 -99l100 13z" />
    <glyph glyph-name="plus" unicode="+" horiz-adv-x="558" 
d="M509 335l-18 -76h-153l-38 -168h-86l38 168h-154l18 76h154l38 168h86l-38 -168h153z" />
    <glyph glyph-name="comma" unicode="," horiz-adv-x="146" 
d="M14 131h87l-28 -123q-15 -65 -37 -92q-31 -39 -80 -50l6 45q52 22 60 89h-38z" />
    <glyph glyph-name="hyphen" unicode="-" horiz-adv-x="229" 
d="M234 333l-19 -84h-177l19 84h177z" />
    <glyph glyph-name="period" unicode="." horiz-adv-x="146" 
d="M101 131l-31 -131h-81l30 131h82z" />
    <glyph glyph-name="slash" unicode="/" horiz-adv-x="292" 
d="M384 706l-337 -706h-67l337 706h67z" />
    <glyph glyph-name="zero" unicode="0" horiz-adv-x="354" 
d="M397 517l-74 -333q-6 -29 -9.5 -42.5t-11.5 -38.5t-15.5 -37.5t-21 -29.5t-29.5 -25t-39 -14t-51 -6q-63 0 -94 31t-31 82q0 32 17 110l72 325q15 69 25.5 96.5t34.5 47.5q38 32 110 32q130 0 130 -117q0 -22 -13 -81zM236 183l79 355q10 47 10 57q0 24 -15 37.5
t-39 13.5q-34 0 -46.5 -22.5t-26.5 -85.5l-76 -342q-15 -70 -15 -80q0 -50 52 -50q35 0 48.5 24t28.5 93z" />
    <glyph glyph-name="one" unicode="1" horiz-adv-x="354" 
d="M356 718l-167 -718h-90l125 539h-70l16 68q93 8 123 111h63z" />
    <glyph glyph-name="two" unicode="2" horiz-adv-x="354" 
d="M305 85l-19 -85h-296q23 91 50.5 149.5t53 87.5t76.5 75q82 74 102.5 103.5t37.5 97.5l12 49q5 25 5 34q0 46 -47 46q-21 0 -33.5 -11.5t-18.5 -27t-13 -45.5l-16 -69h-87l25 104q15 62 46.5 92t109.5 30q46 0 75 -17q47 -27 47 -91q0 -31 -7 -57l-19 -78
q-12 -51 -38 -87t-74 -81q-67 -63 -93 -89t-47.5 -59t-31.5 -71h200z" />
    <glyph glyph-name="three" unicode="3" horiz-adv-x="354" 
d="M191 532h-82q29 106 42 128q33 55 129 55q114 0 114 -95q0 -30 -23 -113q-15 -61 -39.5 -83.5t-74.5 -25.5q78 -10 78 -78q0 -54 -45 -213q-7 -26 -15 -42.5t-24 -35.5t-43.5 -28.5t-66.5 -9.5q-127 0 -127 100q0 22 18 120h82q-16 -84 -16 -103q0 -45 49 -45q30 0 42 20
t25 75l13 55q16 65 16 82q0 23 -13 37t-34 14q-3 0 -29 -1.5t-35 -1.5l21 86q22 -2 33 -2q53 0 70.5 15.5t29.5 61.5q21 75 21 103q0 39 -43 39q-31 0 -42.5 -20t-30.5 -94z" />
    <glyph glyph-name="four" unicode="4" horiz-adv-x="354" 
d="M402 706l-109 -468h49l-17 -76h-49l-38 -162h-86l37 162h-195l18 75l268 469h122zM298 622l-204 -384h112z" />
    <glyph glyph-name="five" unicode="5" horiz-adv-x="354" 
d="M416 706l-19 -80h-165l-40 -156q22 34 71 34q9 0 19 -1.5t25 -7t26.5 -15.5t20 -29t8.5 -45q0 -37 -16 -106l-27 -118q-21 -96 -40 -128q-35 -63 -130 -63q-123 0 -123 97q0 13 13 88l8 41h81l-9 -51q-9 -51 -9 -60q0 -19 13 -30.5t35 -11.5q29 0 42 18.5t26 77.5l34 150
q13 58 13 66q0 24 -13.5 37.5t-36.5 13.5q-11 0 -20 -2.5t-16 -8.5t-11.5 -10.5t-9 -15.5t-6 -15t-5.5 -16.5t-4 -14.5h-74l93 362h246z" />
    <glyph glyph-name="six" unicode="6" horiz-adv-x="354" 
d="M394 512h-80q12 67 12 84q0 48 -52 48q-17 0 -27.5 -6t-18.5 -22.5t-12.5 -32.5t-12.5 -50l-33 -143q30 45 86 45q36 0 64 -20.5t28 -68.5q0 -33 -16 -101l-25 -106q-6 -27 -9.5 -39.5t-11.5 -34t-18 -31.5t-25.5 -22t-37.5 -16.5t-51 -4.5q-62 0 -97 27.5t-35 78.5
q0 32 16 100l77 336q7 31 11 46t11.5 38.5t14.5 34.5t19 26t26.5 21t35 11t46.5 5q130 0 130 -101q0 -24 -15 -102zM230 166l14 65q14 64 14 72q0 25 -13 41t-37 16q-32 0 -43.5 -20t-24.5 -79l-19 -84q-13 -56 -13 -69q0 -22 15 -34.5t37 -12.5q30 0 43.5 21t26.5 84z" />
    <glyph glyph-name="seven" unicode="7" horiz-adv-x="354" 
d="M440 706l-17 -74q-44 -63 -94 -160q-110 -213 -179 -472h-101q16 61 31 103q69 204 160 364q37 65 103 159h-216l19 80h294z" />
    <glyph glyph-name="eight" unicode="8" horiz-adv-x="354" 
d="M401 546l-15 -68q-15 -67 -40.5 -89.5t-72.5 -24.5q33 -9 49.5 -25t17.5 -52q0 -28 -9 -71l-21 -95q-7 -32 -14.5 -51t-23 -39.5t-44.5 -30t-72 -9.5q-69 0 -101.5 28.5t-32.5 69.5q0 21 16 108l11 58q13 67 43 90t84 23q-18 5 -30.5 10.5t-25.5 23.5t-13 45q0 29 8 64
l18 80q15 72 50 98t95 26q130 0 132 -95q0 -34 -9 -74zM295 462l19 79q11 47 11 67q0 41 -48 41q-27 0 -37 -15.5t-21 -59.5l-17 -68q-10 -43 -10 -60q0 -43 48 -43q27 0 37.5 14t17.5 45zM232 151l14 68q11 54 11 73q0 39 -50 39q-32 0 -46.5 -19.5t-27.5 -79.5l-14 -67
q-6 -25 -8 -57q0 -17 6.5 -27.5t17.5 -14.5t16.5 -5t10.5 -1q35 0 47.5 19.5t22.5 71.5z" />
    <glyph glyph-name="nine" unicode="9" horiz-adv-x="354" 
d="M36 206h83q-14 -77 -14 -98q0 -42 46 -42q34 0 47 25t34 115l28 118q-9 -14 -15.5 -22.5t-25 -19t-42.5 -10.5q-36 0 -68 20.5t-32 69.5q0 21 17 98l23 101q9 41 16.5 62.5t24 46t44 35t69.5 10.5q70 0 102.5 -31t32.5 -77q0 -34 -13 -86l-77 -337q-16 -69 -26 -99
t-26 -49q-38 -45 -122 -45q-125 0 -125 98q0 14 9 65zM287 441l20 87q12 53 12 69q0 25 -14.5 37.5t-36.5 12.5q-21 0 -33.5 -13t-18 -30t-15.5 -61l-22 -93q-10 -48 -10 -56q0 -19 12 -33.5t38 -14.5q21 0 35 13.5t19.5 30t13.5 51.5z" />
    <glyph glyph-name="colon" unicode=":" horiz-adv-x="187" 
d="M235 533l-30 -128h-81l29 128h82zM142 131l-30 -131h-82l31 131h81z" />
    <glyph glyph-name="semicolon" unicode=";" horiz-adv-x="187" 
d="M236 533l-29 -127h-85l29 127h85zM55 131h87l-28 -123q-15 -65 -37 -92q-31 -39 -80 -50l6 45q52 22 60 89h-38z" />
    <glyph glyph-name="less" unicode="&#x3c;" horiz-adv-x="559" 
d="M528 546l-22 -94l-308 -145l245 -146l-20 -83l-316 193l19 81z" />
    <glyph glyph-name="equal" unicode="=" horiz-adv-x="559" 
d="M522 425l-16 -74h-390l17 74h389zM483 254l-17 -74h-390l17 74h390z" />
    <glyph glyph-name="greater" unicode="&#x3e;" horiz-adv-x="559" 
d="M504 351l-19 -80l-402 -195l22 94l308 145l-245 146l20 84z" />
    <glyph glyph-name="question" unicode="?" 
d="M185 228h-79q8 46 19.5 71.5t41.5 65.5l66 87q23 30 32.5 44.5t18.5 40.5t9 57q0 47 -43 47q-15 0 -25.5 -5.5t-16.5 -18t-8.5 -20.5t-6.5 -25l-14 -61h-77l13 58q17 76 44.5 111t96.5 35q121 0 121 -116q0 -58 -24 -105q-11 -21 -55 -79l-56 -73q-47 -62 -57 -114z
M166 130l-30 -130h-81l30 130h81z" />
    <glyph glyph-name="at" unicode="@" horiz-adv-x="788" 
d="M546 495h62l-59 -240q-17 -68 -17 -92q0 -38 26 -38t55 34q44 52 71 128t27 150q0 105 -56 164t-156 59q-104 0 -191 -68.5t-134 -170.5t-47 -209q0 -127 74.5 -204t198.5 -77q76 0 148 31q46 19 79.5 42t86.5 73l29 -44q-54 -51 -88.5 -75t-88.5 -46q-85 -35 -168 -35
q-152 0 -242.5 91.5t-90.5 244.5q0 133 60 248t162.5 183t219.5 68q121 0 191.5 -72t70.5 -195q0 -87 -33 -174.5t-87.5 -144t-112.5 -56.5q-66 0 -69 86q-63 -85 -135 -85q-53 0 -82 39.5t-29 110.5q0 115 63.5 205t145.5 90q37 0 60 -19.5t39 -63.5zM502 350
q0 108 -66 108q-55 0 -99 -71.5t-44 -160.5q0 -45 17.5 -70.5t47.5 -25.5q54 0 99 67t45 153z" />
    <glyph glyph-name="A" unicode="A" 
d="M353 706l-72 -706h-89l17 133h-112l-52 -133h-91l284 706h115zM265 583l-137 -369h92z" />
    <glyph glyph-name="B" unicode="B" horiz-adv-x="375" 
d="M164 706h153q107 0 107 -86q0 -14 -10 -61l-24 -104q-8 -36 -25.5 -55t-32.5 -23t-41 -5q13 -2 20 -4.5t19.5 -9t18.5 -20t6 -32.5q0 -14 -10 -59l-36 -151q-13 -55 -39.5 -75.5t-82.5 -20.5h-187zM238 624l-51 -216h34q46 0 62 13.5t24 50.5l21 91q5 22 5 30
q0 31 -40 31h-55zM170 332l-57 -247h38q45 0 59 14.5t25 63.5l18 77q9 40 9 51q0 27 -12.5 34t-46.5 7h-33z" />
    <glyph glyph-name="C" unicode="C" horiz-adv-x="375" 
d="M391 466h-88l14 61q13 57 13 68q0 27 -14 36.5t-30 9.5q-10 0 -18.5 -4t-15 -12.5t-11 -16t-8.5 -22t-6.5 -23t-6 -25.5t-5.5 -24l-79 -330q-12 -48 -12 -69q0 -45 44 -45q15 0 23 4t19 24.5t22 62.5l29 109h91l-24 -100q-9 -39 -15 -59t-18.5 -47t-28.5 -40t-43 -23
t-63 -10q-57 0 -92 28.5t-35 84.5q0 42 22 134l67 280q8 33 12.5 49.5t14.5 44.5t21.5 42.5t28 30.5t40 23t52.5 7q21 0 39.5 -4t40 -14.5t34 -34t12.5 -58.5q0 -11 -1.5 -22.5t-3.5 -20t-6.5 -28t-7.5 -34.5z" />
    <glyph glyph-name="D" unicode="D" horiz-adv-x="375" 
d="M164 706h139q68 0 92 -25t24 -68q0 -35 -15 -97l-85 -370q-21 -90 -52 -118t-107 -28h-159zM237 624l-125 -540h33q46 0 59.5 15t31.5 93l75 325q12 49 12 69q0 17 -8.5 26t-18 10.5t-25.5 1.5h-34z" />
    <glyph glyph-name="E" unicode="E" horiz-adv-x="313" 
d="M390 706l-19 -83h-133l-50 -216h122l-20 -84h-121l-55 -237h154l-20 -86h-248l163 706h227z" />
    <glyph glyph-name="F" unicode="F" horiz-adv-x="313" 
d="M409 706l-20 -84h-151l-49 -210h138l-19 -84h-138l-76 -328h-95l163 706h247z" />
    <glyph glyph-name="G" unicode="G" horiz-adv-x="375" 
d="M386 484h-86l13 58q11 47 11 58q0 22 -13.5 32t-26.5 10q-8 0 -14.5 -2t-12 -7t-9.5 -10t-8 -14t-6.5 -15.5t-6 -18.5t-5 -19l-4.5 -21t-5 -21l-79 -330q-12 -48 -12 -69q0 -25 13 -35.5t29 -10.5q27 0 39 21.5t24 74.5l29 127h-59l19 82h153l-86 -374h-58l2 38l-9 -11
q-9 -11 -16 -17.5t-23.5 -13t-36.5 -6.5q-40 0 -75.5 29.5t-35.5 84.5q0 42 22 134l64 266q11 47 17.5 70t20.5 55.5t29.5 47.5t42 26.5t61.5 11.5q57 0 89.5 -27t32.5 -76q0 -19 -18 -101z" />
    <glyph glyph-name="H" unicode="H" horiz-adv-x="375" 
d="M444 706l-163 -706h-94l78 327h-96l-76 -327h-92l163 706h92l-70 -298h97l70 298h91z" />
    <glyph glyph-name="I" unicode="I" horiz-adv-x="187" 
d="M257 706l-164 -706h-92l163 706h93z" />
    <glyph glyph-name="J" unicode="J" horiz-adv-x="271" 
d="M341 706l-126 -559q-6 -28 -11 -45t-17 -41t-28 -37t-43.5 -23t-63.5 -10q-50 0 -95 17l24 74q34 -13 66 -13q33 0 50 23.5t30 82.5l119 531h95z" />
    <glyph glyph-name="K" unicode="K" horiz-adv-x="354" 
d="M447 706l-191 -337l55 -369h-96l-43 341l-79 -341h-92l163 706h93l-78 -308l176 308h92z" />
    <glyph glyph-name="L" unicode="L" horiz-adv-x="313" 
d="M270 84l-26 -84h-241l163 706h93l-143 -622h154z" />
    <glyph glyph-name="M" unicode="M" horiz-adv-x="500" 
d="M562 706l-158 -706h-86l133 575l-212 -575h-74l54 575l-133 -575h-86l171 706h118l-41 -513l192 513h122z" />
    <glyph glyph-name="N" unicode="N" horiz-adv-x="396" 
d="M465 706l-167 -706h-96q-8 497 -8 527l-106 -527h-88l163 706h96l9 -525l113 525h84z" />
    <glyph glyph-name="O" unicode="O" horiz-adv-x="396" 
d="M45 197l74 321q7 32 10.5 44t12 39t15.5 38.5t21 29.5t30 25.5t39 14t52 6.5q13 0 24.5 -1t33.5 -8t37.5 -19t27.5 -38.5t12 -62.5q0 -31 -15 -95l-68 -295q-9 -40 -16 -64t-21.5 -54.5t-32 -47t-46 -28t-66.5 -11.5q-54 0 -95 29t-41 94q0 30 12 83zM253 175l79 344
q11 47 11 66q0 26 -15.5 40t-38.5 14q-32 0 -45 -21.5t-28 -85.5l-77 -333q-13 -57 -13 -76q0 -26 14.5 -38.5t37.5 -12.5q25 0 41 17t21 33.5t13 52.5z" />
    <glyph glyph-name="P" unicode="P" horiz-adv-x="354" 
d="M165 706h145q110 0 110 -90q0 -21 -10 -66l-25 -109q-18 -79 -43 -101.5t-100 -22.5h-74l-73 -317h-93zM239 623l-52 -222h44q34 0 46 13.5t24 67.5l18 81q4 18 4 27q0 14 -7.5 22t-15.5 9.5t-22 1.5h-39z" />
    <glyph glyph-name="Q" unicode="Q" horiz-adv-x="396" 
d="M265 -49l-20 -85q-27 -10 -56 -10q-16 0 -32.5 3.5t-35.5 22t-19 51.5q0 25 13 65q-80 25 -80 120q0 36 10 79l84 365q35 153 169 153q135 0 135 -129q0 -35 -14 -95l-68 -296q-22 -97 -48 -138q-34 -54 -108 -63q-5 -15 -5 -30q0 -8 1.5 -12.5t8 -8t19.5 -3.5t46 11z
M253 174l79 345q11 47 11 66q0 26 -15.5 40t-38.5 14q-25 0 -41 -20t-32 -88l-77 -332q-13 -54 -13 -76q0 -26 14.5 -38.5t37.5 -12.5q35 0 49 24t26 78z" />
    <glyph glyph-name="R" unicode="R" horiz-adv-x="375" 
d="M164 706h153q13 0 26 -2t33 -9.5t32.5 -27.5t12.5 -50q0 -23 -8 -55l-21 -91q-15 -65 -35 -86q-23 -25 -73 -25q62 -24 62 -83q0 -12 -7 -47l-15 -65q-20 -88 -20 -165h-95q0 70 18 158l11 53q10 50 10 59q0 18 -6 30t-17 17t-20.5 6.5t-22.5 1.5h-14l-75 -325h-92z
M237 623l-51 -220h17q56 0 73.5 13t29.5 66l14 60q7 32 7 47q0 23 -14.5 28.5t-40.5 5.5h-35z" />
    <glyph glyph-name="S" unicode="S" 
d="M358 470h-83l22 95q7 29 7 40q0 37 -36 37q-20 0 -29.5 -12t-19.5 -45q-16 -55 -16 -87q0 -12 4 -25.5t7.5 -20.5t12.5 -23t11 -20q5 -8 14.5 -25t12.5 -23t10 -19t9 -18t6.5 -15t5.5 -15.5t3 -14.5t2.5 -16.5t0.5 -16.5q0 -39 -16.5 -111.5t-49.5 -104.5
q-41 -39 -104 -39q-60 0 -89 27.5t-29 76.5q0 23 10 67l21 94h84l-24 -106q-7 -35 -7 -43q0 -43 41 -43q32 0 45 40q8 23 16.5 67.5t8.5 66.5q0 20 -7.5 37.5t-29.5 54.5q-3 5 -13.5 22t-14.5 24t-12 22.5t-11 25.5t-6 24.5t-3 27.5q0 40 18 115q29 124 145 124
q62 0 87.5 -27.5t25.5 -66.5q0 -17 -8 -53z" />
    <glyph glyph-name="T" unicode="T" horiz-adv-x="313" 
d="M429 706l-25 -84h-103l-143 -622h-96l143 622h-106l26 84h304z" />
    <glyph glyph-name="U" unicode="U" horiz-adv-x="375" 
d="M448 706l-134 -579q-4 -19 -7.5 -30.5t-15.5 -34t-27.5 -36t-45 -24.5t-67.5 -11q-56 0 -91 28.5t-35 83.5q0 27 5 48l129 555h94l-131 -567q-3 -16 -3 -25q0 -8 2.5 -17.5t13.5 -19t28 -9.5q44 0 62 79l129 559h94z" />
    <glyph glyph-name="V" unicode="V" 
d="M445 706l-270 -706h-113l58 706h91l-61 -564l201 564h94z" />
    <glyph glyph-name="W" unicode="W" horiz-adv-x="479" 
d="M594 706l-248 -706h-107l66 508l-167 -508h-106l85 706h94l-87 -566l183 566h89l-78 -566l180 566h96z" />
    <glyph glyph-name="X" unicode="X" 
d="M441 706l-181 -340l25 -366h-92l-10 259l-126 -259h-98l198 373l-28 333h91l11 -230l114 230h96z" />
    <glyph glyph-name="Y" unicode="Y" 
d="M452 706l-218 -410l-71 -296h-96l65 296l-14 410h92l-3 -301l144 301h101z" />
    <glyph glyph-name="Z" unicode="Z" horiz-adv-x="313" 
d="M404 706l-12 -55l-300 -567h168l-20 -84h-271l13 62l299 564h-138l19 80h242z" />
    <glyph glyph-name="bracketleft" unicode="[" horiz-adv-x="208" 
d="M328 724l-11 -49h-84l-193 -834h85l-11 -47h-168l214 930h168z" />
    <glyph glyph-name="backslash" unicode="\" horiz-adv-x="292" 
d="M248 0h-67l-65 706h66z" />
    <glyph glyph-name="bracketright" unicode="]" horiz-adv-x="208" 
d="M289 724l-215 -930h-168l11 49h85l193 834h-85l10 47h169z" />
    <glyph glyph-name="asciicircum" unicode="^" horiz-adv-x="559" 
d="M536 356h-86l-71 270l-192 -268h-97l262 348h82z" />
    <glyph glyph-name="underscore" unicode="_" horiz-adv-x="500" 
d="M433 -143l-15 -66h-520l15 66h520z" />
    <glyph glyph-name="grave" unicode="`" horiz-adv-x="208" 
d="M177 603h-47l-99 120h99z" />
    <glyph glyph-name="a" unicode="a" horiz-adv-x="313" 
d="M241 0h-84v44q-24 -52 -76 -52q-27 0 -47 17t-20 49q0 22 8 59l11 48q12 54 26.5 77.5t49.5 42.5q7 4 57 27.5t60 28.5l18 80q4 16 4 28q0 13 -8.5 20.5t-20.5 7.5q-18 0 -24.5 -11t-13.5 -42l-14 -62h-82l15 67q5 24 11 39.5t19 35t37 29t58 9.5q47 0 74.5 -21t27.5 -63
q0 -20 -7 -51l-67 -294q-14 -61 -14 -82q0 -11 2 -31zM185 164l22 98q-49 -25 -61.5 -33.5t-20.5 -25.5q-6 -13 -16.5 -57.5t-10.5 -58.5t8.5 -21.5t17.5 -7.5q22 0 34.5 22.5t26.5 83.5z" />
    <glyph glyph-name="b" unicode="b" horiz-adv-x="313" 
d="M41 0h-45l163 706h81l-49 -212q22 48 69 48q26 0 46 -20t20 -64q0 -22 -9 -62l-63 -272q-14 -60 -40 -96.5t-77 -36.5q-54 0 -68 55zM183 152l49 211q13 54 13 72t-10 26t-21 8q-33 0 -48 -68l-54 -235q-12 -52 -12 -68q0 -14 8.5 -23.5t23.5 -9.5t24.5 12t14 26t12.5 49
z" />
    <glyph glyph-name="c" unicode="c" horiz-adv-x="292" 
d="M193 214h80l-21 -77q-20 -77 -36 -98q-33 -48 -103 -48q-49 0 -72 25t-23 62q0 19 10 69l61 255q7 30 11.5 45.5t14.5 37t22 31.5t32 18t47 8q31 0 52.5 -9t31 -24t13 -27t3.5 -25q0 -27 -22 -117h-77l5 21q17 74 17 85q0 31 -27 31q-17 0 -24.5 -15.5t-18.5 -60.5
l-57 -241q-14 -56 -14 -71q0 -12 7 -21.5t18 -9.5q19 0 27 15t25 77z" />
    <glyph glyph-name="d" unicode="d" horiz-adv-x="313" 
d="M389 706l-163 -706h-78l10 44q-9 -23 -29.5 -38t-45.5 -15q-30 0 -48 20.5t-18 57.5q0 24 9 65l69 295l7.5 30t10.5 29t17.5 28.5t25.5 17.5t37 8q46 0 70 -43l48 207h78zM182 146l53 232q10 40 10 55q0 35 -33 35q-29 0 -40 -47l-60 -256q-12 -50 -12 -68q0 -20 7 -28
t25 -8q15 0 24.5 12.5t13.5 26t12 46.5z" />
    <glyph glyph-name="e" unicode="e" horiz-adv-x="313" 
d="M293 246h-163l-25 -105q-10 -43 -10 -53q0 -31 35 -31q23 0 32.5 14t19.5 48l22 73h81l-27 -97q-29 -104 -136 -104q-59 0 -82 26.5t-23 63.5q0 19 9 59l61 255q9 38 16 58t21.5 44t39.5 34.5t62 10.5q47 0 78.5 -23.5t31.5 -69.5q0 -25 -10 -65zM147 315h81l18 77
q8 29 8 46q0 39 -35 39q-24 0 -33.5 -17.5t-22.5 -73.5z" />
    <glyph glyph-name="f" unicode="f" horiz-adv-x="167" 
d="M291 702l-17 -73q-15 5 -25 5q-14 0 -20.5 -9t-12.5 -35l-14 -57h50l-14 -65h-51l-108 -468h-80l108 468h-41l15 65h41l22 96q18 81 89 81q10 0 23.5 -2t23.5 -4t11 -2z" />
    <glyph glyph-name="g" unicode="g" horiz-adv-x="313" 
d="M348 533l-115 -501q-7 -31 -10.5 -43.5t-12 -38.5t-18 -38t-24.5 -27.5t-36 -21.5t-47 -6q-11 0 -23.5 2.5t-31 9.5t-30 25.5t-11.5 44.5q0 16 8 56h77q-7 -32 -7 -44q0 -13 8 -22t19 -9q21 0 30.5 15t17.5 49l23 99q-27 -44 -73 -44q-24 0 -45 18.5t-21 58.5
q0 36 17 103l42 168q26 103 49 130q21 25 53 25q50 0 72 -51l9 42h80zM192 205l37 157q12 45 12 67q0 17 -9.5 28t-22.5 11q-18 0 -28 -19t-22 -71l-38 -165q-12 -48 -12 -66q0 -34 32 -34q20 0 28.5 16.5t22.5 75.5z" />
    <glyph glyph-name="h" unicode="h" 
d="M79 0h-80l163 706h80l-48 -209q33 45 81 45q34 0 55 -19.5t21 -53.5q0 -19 -11 -64l-94 -405h-80l94 408q4 17 4 26q0 13 -9 24.5t-31 11.5q-21 0 -31.5 -13t-16.5 -38z" />
    <glyph glyph-name="i" unicode="i" horiz-adv-x="167" 
d="M241 706l-24 -106h-80l24 106h80zM203 533l-124 -533h-80l123 533h81z" />
    <glyph glyph-name="j" unicode="j" horiz-adv-x="167" 
d="M243 706l-25 -109h-81l26 109h80zM203 533l-128 -555q-5 -22 -8 -33t-12 -30.5t-20 -29.5t-30.5 -18.5t-45.5 -8.5q-24 0 -53 7l16 73q12 -5 24 -5q26 0 35 12.5t20 60.5l122 527h80z" />
    <glyph glyph-name="k" unicode="k" horiz-adv-x="292" 
d="M364 533l-134 -190l20 -343h-76l-18 275l-19 -23l-58 -252h-80l163 706h80l-79 -350l112 177h89z" />
    <glyph glyph-name="l" unicode="l" horiz-adv-x="167" 
d="M240 706l-157 -706h-82l158 706h81z" />
    <glyph glyph-name="m" unicode="m" horiz-adv-x="500" 
d="M121 533h80l-11 -46q29 53 86 53q61 0 75 -53q32 53 90 53q32 0 53.5 -19t21.5 -53q0 -18 -8 -54l-95 -414h-81l91 392q6 27 6 38q0 38 -37 38q-39 0 -51 -54l-95 -414h-81l91 395q6 27 6 34q0 40 -36 40q-18 0 -30 -12t-16 -23.5t-9 -31.5l-93 -402h-80z" />
    <glyph glyph-name="n" unicode="n" 
d="M121 533h80l-7 -36q33 45 81 45q34 0 55 -19.5t21 -53.5q0 -14 -11 -64l-93 -405h-81l94 405q4 19 4 29q0 13 -9 24.5t-31 11.5q-21 0 -31.5 -13t-16.5 -38l-97 -419h-80z" />
    <glyph glyph-name="o" unicode="o" 
d="M336 390l-59 -260q-8 -34 -13 -50.5t-15 -37t-23 -29.5t-35 -15.5t-53 -6.5q-62 0 -89 26.5t-27 66.5q0 14 9 59l59 260q10 42 17 63t22 41t39 27.5t62 7.5q62 0 88.5 -27t26.5 -65q0 -17 -9 -60zM200 135l54 243q11 51 11 61q0 16 -10.5 28t-32.5 12q-7 0 -12 -1
t-9.5 -3.5t-7.5 -5t-6 -8t-4.5 -8.5t-4 -11.5t-3.5 -12.5t-3.5 -15t-3.5 -16l-55 -243q-11 -51 -11 -61q0 -40 44 -40q24 0 34 17t20 64z" />
    <glyph glyph-name="p" unicode="p" horiz-adv-x="313" 
d="M119 533h81l-9 -36q24 45 72 45q31 0 48.5 -19.5t17.5 -50.5q0 -18 -12 -78l-62 -267q-14 -64 -37.5 -100t-67.5 -36q-29 0 -43.5 11.5t-20.5 38.5l-43 -186h-81zM164 392l-57 -246q-8 -40 -8 -52q0 -14 10 -22t23 -8q19 0 29 16.5t20 61.5l55 237q11 48 11 58
q0 16 -9 26t-25 10q-20 0 -28.5 -15.5t-20.5 -65.5z" />
    <glyph glyph-name="q" unicode="q" horiz-adv-x="313" 
d="M351 533l-157 -678h-81l43 185q-29 -49 -74 -49q-25 0 -46 18t-21 60q0 13 11 62l70 304q15 65 38.5 86t55.5 21q46 0 71 -44l39 35h51zM179 141l54 235q12 52 12 59q0 18 -10 27t-24 9q-19 0 -27 -17.5t-20 -68.5l-55 -238q-8 -44 -8 -47q0 -34 32 -34q20 0 28 15t18 60
z" />
    <glyph glyph-name="r" unicode="r" horiz-adv-x="229" 
d="M114 533h80l-21 -92q24 59 50 79.5t63 20.5l15 -1l-21 -94q-18 11 -39 11q-31 0 -52.5 -23t-36.5 -88l-81 -346h-80z" />
    <glyph glyph-name="s" unicode="s" horiz-adv-x="292" 
d="M304 371h-74l5 24q6 30 6 39q0 37 -34 37q-28 0 -38 -29q-14 -36 -14 -66q0 -19 16.5 -40t37 -37t37 -41t16.5 -52q0 -47 -16 -104q-7 -25 -14 -41t-20.5 -34t-37 -27t-56.5 -9q-14 0 -29 3t-35.5 12t-33.5 31t-13 55q0 28 19 104h75l-11 -49q-7 -35 -7 -46q0 -22 12 -31
t27 -9q18 0 30.5 14.5t18 36t8 38.5t2.5 31q0 24 -26 51t-52 57.5t-26 63.5q0 27 14 86q11 49 36 76t79 27q60 0 86 -27t26 -66q0 -17 -9 -58z" />
    <glyph glyph-name="t" unicode="t" horiz-adv-x="167" 
d="M256 533l-16 -65h-51l-90 -368q-3 -13 -3 -20q0 -21 21 -21q13 0 34 13l-18 -69q-30 -12 -57 -12q-31 0 -48.5 16.5t-17.5 45.5q0 10 4 26l94 389h-46l17 65h45l19 76l91 37l-29 -113h51z" />
    <glyph glyph-name="u" unicode="u" 
d="M289 533h80l-122 -533h-80l7 36q-31 -45 -81 -45q-34 0 -55 19.5t-21 53.5q0 17 12 69l92 400h81l-95 -408q-3 -13 -3 -26t8.5 -24.5t30.5 -11.5q38 0 49 51z" />
    <glyph glyph-name="v" unicode="v" horiz-adv-x="250" 
d="M329 533l-201 -533h-101l54 533h74l-53 -429l149 429h78z" />
    <glyph glyph-name="w" unicode="w" horiz-adv-x="396" 
d="M465 533l-184 -533h-97l49 338l-117 -338h-93l67 533h78l-70 -421l151 421h58l-52 -421l131 421h79z" />
    <glyph glyph-name="x" unicode="x" horiz-adv-x="292" 
d="M359 533l-144 -245l33 -288h-81l-18 198l-105 -198h-88l168 288l-24 245h77l10 -165l84 165h88z" />
    <glyph glyph-name="y" unicode="y" horiz-adv-x="271" 
d="M265 533h88l-230 -570q-10 -24 -17 -38t-21 -32t-35.5 -27t-49.5 -9q-24 0 -54 7l17 74q12 -6 34 -6q15 0 24 5.5t13.5 20.5t6 26t3.5 37l36 512h84l-47 -418z" />
    <glyph glyph-name="z" unicode="z" horiz-adv-x="292" 
d="M350 533l-17 -69l-255 -399h166l-17 -65h-253l14 59l258 409h-144l17 65h231z" />
    <glyph glyph-name="braceleft" unicode="{" horiz-adv-x="354" 
d="M439 731l-11 -47q-54 0 -79.5 -21t-43.5 -95l-28 -120q-16 -70 -25 -96.5t-22 -44.5q-28 -38 -79 -52l-1 -4q56 -24 56 -83q0 -26 -7 -54l-28 -127q-14 -64 -14 -88q0 -30 16.5 -44t56.5 -18l-11 -48q-78 0 -110.5 27.5t-32.5 89.5q0 22 11 67l26 111q15 63 15 93
q0 51 -45 62l10 43q46 9 65 44t39 124l27 117q12 53 31.5 86.5t47 50t55 22t67.5 5.5h14z" />
    <glyph glyph-name="bar" unicode="|" horiz-adv-x="229" 
d="M277 733l-217 -943h-80l217 943h80z" />
    <glyph glyph-name="braceright" unicode="}" horiz-adv-x="354" 
d="M-58 -211l11 47q54 0 79.5 21t43.5 95l28 120q16 70 25 96.5t22 44.5q28 38 79 52l1 4q-56 24 -56 83q0 19 7 54l28 127q14 64 14 88q0 30 -16.5 44t-56.5 18l11 48q78 0 110.5 -27.5t32.5 -89.5q0 -22 -11 -67l-26 -111q-15 -63 -15 -93q0 -51 45 -62l-10 -43
q-46 -9 -64.5 -43t-39.5 -125l-27 -117q-12 -53 -31 -86.5t-46.5 -50t-55 -22t-68.5 -5.5h-14z" />
    <glyph glyph-name="asciitilde" unicode="~" horiz-adv-x="559" 
d="M487 365l26 -68q-73 -69 -134 -69q-31 0 -84 27l-23 12q-41 21 -70 21q-22 0 -40 -9.5t-46 -37.5l-9 -9l-26 69q39 39 67 54.5t64 15.5q31 0 79 -24l41 -20q35 -17 54 -17q24 0 45 11t56 44z" />
    <glyph glyph-name="uni00A0" unicode="&#xa0;" horiz-adv-x="187" 
 />
    <glyph glyph-name="exclamdown" unicode="&#xa1;" horiz-adv-x="187" 
d="M227 706l-30 -127h-80l29 127h81zM157 477l-31 -215l-61 -262h-84l61 262l69 215h46z" />
    <glyph glyph-name="cent" unicode="&#xa2;" horiz-adv-x="313" 
d="M301 340h-81l9 34q13 49 13 72q0 31 -27 31q-6 0 -11 -2.5t-9 -8t-7 -10.5t-5.5 -14t-4 -14t-3.5 -15t-3 -13l-57 -240q-14 -59 -14 -71q0 -31 25 -31q7 0 12.5 2.5t10 8t7.5 11t6.5 15.5t5 16.5t5 19.5t5.5 19l18 64h80l-24 -87q-10 -36 -16 -52t-19.5 -37.5t-35 -31.5
t-55.5 -15l-16 -68h-39l17 71q-67 19 -67 85q0 28 10 68l61 254q8 34 12.5 49t13.5 35.5t20.5 29t30 16t45.5 11.5l13 58h39l-14 -61q70 -21 70 -83q0 -33 -11 -76z" />
    <glyph glyph-name="sterling" unicode="&#xa3;" horiz-adv-x="479" 
d="M393 371l-16 -68h-78q0 -1 1 -12t1 -19q0 -88 -61 -172q50 -33 70 -33q6 0 11.5 1.5t9 3t7 6t5.5 7.5t4 10t3 10t3 12.5t3 13.5l16 67h81l-18 -80q-28 -129 -114 -129q-48 0 -124 63q-60 -60 -131 -60q-31 0 -49 15.5t-21.5 29t-3.5 25.5q0 29 30 59t88 30q40 0 77 -20
q23 41 23 86q0 37 -7 87h-109l16 67h81q-13 90 -13 136q0 125 85 180q44 28 96 28q65 0 97.5 -35.5t32.5 -83.5q0 -18 -10 -61l-12 -49h-86l9 39q7 28 7 55q0 30 -15.5 42.5t-33.5 12.5q-32 0 -56 -32.5t-24 -89.5q0 -46 21 -142h104zM155 79q-38 18 -63 18q-24 0 -37 -9.5
t-13 -23.5q0 -25 32 -25q38 0 81 40z" />
    <glyph glyph-name="currency" unicode="&#xa4;" horiz-adv-x="661" 
d="M657 557l-78 -69q33 -56 33 -117q0 -108 -72 -198l64 -77l-60 -54l-64 77q-75 -42 -147 -42q-84 0 -154 56l-79 -69l-49 60l79 68q-34 64 -34 125q0 107 72 191l-63 78l59 54l63 -77q71 42 146 42q89 0 157 -55l77 67zM527 360q0 76 -43.5 122t-114.5 46
q-81 0 -134 -58.5t-53 -147.5q0 -73 43 -121t109 -48q82 0 137.5 60t55.5 147z" />
    <glyph glyph-name="yen" unicode="&#xa5;" 
d="M451 706l-149 -279h69l-26 -69h-79l-24 -46h97l-23 -69h-97l-56 -243h-96l54 243h-104l23 69h91v46h-84l23 69h59l-12 279h92l-2 -303l143 303h101z" />
    <glyph glyph-name="brokenbar" unicode="&#xa6;" horiz-adv-x="229" 
d="M277 733l-94 -407h-80l94 407h80zM154 198l-94 -408h-80l94 408h80z" />
    <glyph glyph-name="section" unicode="&#xa7;" horiz-adv-x="375" 
d="M408 547h-80q5 33 5 38q0 29 -15 50t-43 21t-45 -23t-17 -52q0 -28 17.5 -49.5t42 -37.5t49 -35t42 -50.5t17.5 -73.5q0 -54 -32 -97.5t-84 -64.5q42 -45 42 -100q0 -70 -49.5 -115t-120.5 -45q-64 0 -100.5 38.5t-36.5 102.5q0 20 3 38h84q-3 -14 -3 -26q0 -33 17 -56.5
t49 -23.5q29 0 47.5 22.5t18.5 51.5t-18 50.5t-50 43.5t-44 34q-48 50 -48 116q0 99 115 152q-51 61 -51 116q0 66 44.5 112t110.5 46q64 0 100 -39t36 -103q0 -20 -3 -41zM223 413q-75 -40 -75 -100q0 -22 11 -41.5t22 -29.5t34 -27q33 16 56 42t23 59q0 52 -71 97z" />
    <glyph glyph-name="dieresis" unicode="&#xa8;" horiz-adv-x="208" 
d="M217 723l-23 -100h-74l23 100h74zM85 723l-23 -100h-71l23 100h71z" />
    <glyph glyph-name="copyright" unicode="&#xa9;" horiz-adv-x="833" 
d="M581 412h-72l10 37q10 36 10 57q0 31 -29 31q-16 0 -25 -12.5t-17 -47.5l-48 -213q-1 -5 -4.5 -18.5t-6 -24.5t-2.5 -16q0 -28 28 -28q18 0 27 16.5t25 76.5l7 26h73l-14 -58q-17 -72 -44 -100t-78 -28q-46 0 -72.5 22t-26.5 60q0 21 13 74l46 194q18 75 30 96
q26 46 90 46q46 0 72.5 -22.5t26.5 -60.5q0 -25 -12 -76zM820 354q0 -151 -103 -254t-254 -103q-148 0 -251.5 104t-103.5 252q0 149 103.5 252.5t252.5 103.5t252.5 -103t103.5 -252zM780 352q0 135 -91.5 227.5t-224.5 92.5q-131 0 -223.5 -93.5t-92.5 -226.5t92 -225.5
t223 -92.5q132 0 224.5 92.5t92.5 225.5z" />
    <glyph glyph-name="ordfeminine" unicode="&#xaa;" horiz-adv-x="208" 
d="M219 373h-56v21q-22 -26 -43 -26q-4 0 -9.5 1t-14.5 4.5t-15 13t-6 23.5q0 10 5 37l6 30q9 42 23.5 57t60.5 35l14 6q10 4 22 12l12 48q2 10 2 18q0 16 -17 16q-5 0 -9 -2t-6 -6.5t-3 -8t-2.5 -9t-1.5 -7.5l-9 -39h-54l10 43q4 16 6.5 23.5t10.5 21.5t23.5 20.5t38.5 6.5
q34 0 50 -15.5t16 -38.5q0 -14 -5 -32l-46 -199q-5 -25 -5 -33q0 -13 2 -21zM181 481l12 54q-28 -15 -35 -20.5t-12 -14.5q-3 -8 -9.5 -35.5t-6.5 -34.5q0 -18 15 -18q14 0 21 16t15 53z" />
    <glyph glyph-name="guillemotleft" unicode="&#xab;" horiz-adv-x="375" 
d="M395 466l-26 -113l-88 -65l58 -66l-22 -95l-105 120l23 100zM228 466l-26 -113l-88 -65l58 -66l-22 -95l-105 120l23 100z" />
    <glyph glyph-name="logicalnot" unicode="&#xac;" horiz-adv-x="559" 
d="M507 334l-59 -260h-87l42 185h-329l18 75h415z" />
    <glyph glyph-name="uni00AD" unicode="&#xad;" horiz-adv-x="229" 
d="M234 333l-19 -84h-177l19 84h177z" />
    <glyph glyph-name="registered" unicode="&#xae;" horiz-adv-x="833" 
d="M523 120h-72q-1 6 -1 20q0 18 11 67l10 47q7 28 7 38q0 17 -9.5 24.5t-31.5 7.5h-15l-47 -204h-68l108 470h90q95 0 95 -70q0 -17 -4 -34l-10 -48q-8 -41 -24.5 -57t-54.5 -22q43 -13 43 -51q0 -11 -8 -46l-11 -50q-10 -48 -10 -60q0 -17 2 -32zM439 391h13
q37 0 48.5 9.5t18.5 44.5l6 31q3 17 3 21q0 27 -29 27h-29zM820 354q0 -151 -103 -254t-254 -103q-148 0 -251.5 104t-103.5 252q0 149 103.5 252.5t252.5 103.5t252.5 -103t103.5 -252zM780 352q0 135 -91.5 227.5t-224.5 92.5q-131 0 -223.5 -93.5t-92.5 -226.5t92 -225.5
t223 -92.5q132 0 224.5 92.5t92.5 225.5z" />
    <glyph glyph-name="macron" unicode="&#xaf;" horiz-adv-x="209" 
d="M213 687l-14 -64h-203l14 64h203z" />
    <glyph glyph-name="degree" unicode="&#xb0;" horiz-adv-x="354" 
d="M386 594q0 -67 -47.5 -114.5t-114.5 -47.5t-114 47.5t-47 114.5t47 114t114 47q68 0 115 -47t47 -114zM303 596q0 33 -23 56t-56 23t-56 -23t-23 -56q0 -32 23.5 -55.5t55.5 -23.5q33 0 56 23t23 56z" />
    <glyph glyph-name="plusminus" unicode="&#xb1;" horiz-adv-x="559" 
d="M512 373l-18 -75h-154l-38 -168h-84l38 168h-155l18 75h155l38 169h84l-38 -169h154zM443 76l-17 -76h-393l18 76h392z" />
    <glyph glyph-name="twosuperior" unicode="&#xb2;" horiz-adv-x="229" 
d="M225 265h-187l14 48q11 38 28.5 66.5t30.5 42t42 39.5q54 49 64.5 64.5t20.5 57.5l7 30q3 13 3 24q0 24 -27 24q-6 0 -11 -1t-8.5 -4.5t-6 -5.5t-5 -8.5t-3 -9t-2.5 -11.5t-3 -11l-11 -45h-57l15 67q9 39 28.5 58t70.5 19q78 0 78 -65q0 -10 -5 -40l-11 -48
q-3 -11 -5.5 -20t-7.5 -17.5t-8 -13.5t-11.5 -14.5t-12 -13t-17 -16t-19.5 -18.5q-54 -51 -70 -71.5t-25 -49.5h124z" />
    <glyph glyph-name="threesuperior" unicode="&#xb3;" horiz-adv-x="229" 
d="M115 593l10 37q6 21 10.5 32t15 24t28.5 18.5t45 5.5q71 0 71 -60q0 -14 -3 -27l-7 -32q-10 -46 -25.5 -63.5t-46.5 -20.5q44 -8 44 -52q0 -23 -7 -54l-10 -42q-7 -28 -11.5 -41t-15.5 -30t-29.5 -23.5t-46.5 -6.5q-80 0 -80 63q0 16 6 49l6 27h54l-6 -25q-6 -30 -6 -41
q0 -26 29 -26q27 0 34 30l16 62q8 34 8 50q0 30 -31 30q-16 0 -38 -2l14 57q2 0 10 -0.5t12 -0.5q35 0 45 11.5t18 45.5l7 32q3 16 3 21q0 22 -25 22q-17 0 -24 -11t-15 -41l-5 -18h-54z" />
    <glyph glyph-name="acute" unicode="&#xb4;" horiz-adv-x="208" 
d="M209 723l-155 -121h-55l101 121h109z" />
    <glyph glyph-name="mu" unicode="&#xb5;" 
d="M369 533l-96 -420q-15 -68 -15 -85q0 -16 3 -28h-81q-3 18 -3 27v9q-26 -42 -59 -42q-20 0 -37 16l-36 -155h-80l157 678h80l-95 -408q-3 -12 -3 -25q0 -37 40 -37q20 0 30.5 11t17.5 40l97 419h80z" />
    <glyph glyph-name="paragraph" unicode="&#xb6;" horiz-adv-x="600" 
d="M579 706l-15 -61h-34l-186 -812h-59l187 812h-90l-187 -812h-60l112 486q-87 53 -87 160q0 87 46 146q33 43 82.5 62t130.5 19h160z" />
    <glyph glyph-name="periodcentered" unicode="&#xb7;" horiz-adv-x="146" 
d="M149 355l-30 -131h-82l30 131h82z" />
    <glyph glyph-name="cedilla" unicode="&#xb8;" horiz-adv-x="208" 
d="M146 40h47l-65 -78q13 1 18 1q23 0 38.5 -13t15.5 -36q0 -32 -36 -58.5t-95 -26.5q-32 0 -61 8l6 26q10 -5 37 -5q19 0 40 9.5t21 29.5q0 26 -45 26q-8 0 -23 -3z" />
    <glyph glyph-name="onesuperior" unicode="&#xb9;" horiz-adv-x="229" 
d="M270 714l-105 -449h-59l78 334h-44l11 45q61 7 76 70h43z" />
    <glyph glyph-name="ordmasculine" unicode="&#xba;" horiz-adv-x="208" 
d="M273 616l-37 -161q-5 -24 -7.5 -32t-9 -22.5t-14.5 -19.5t-22 -9.5t-35 -4.5q-37 0 -55.5 16.5t-18.5 41.5q0 11 6 38l37 161q6 28 9.5 38.5t12.5 25.5t24.5 19.5t40.5 4.5q37 0 55.5 -16.5t18.5 -41.5q0 -18 -5 -38zM183 454l35 155q7 31 7 38q0 23 -25 23
q-14 0 -19 -7.5t-11 -31.5l-36 -161q-7 -33 -7 -38q0 -23 25 -23q15 0 20 9t11 36z" />
    <glyph glyph-name="guillemotright" unicode="&#xbb;" horiz-adv-x="375" 
d="M375 346l-23 -100l-160 -119l26 113l88 65l-58 66l22 95zM208 346l-23 -100l-160 -119l26 113l89 65l-59 66l22 95z" />
    <glyph glyph-name="onequarter" unicode="&#xbc;" horiz-adv-x="583" 
d="M591 442l-67 -291h30l-11 -51h-31l-23 -100h-58l24 100h-121l12 49l166 293h79zM270 714l-105 -449h-59l78 334h-44l11 45q61 7 76 70h43zM582 706l-457 -706h-58l458 706h57zM520 374l-119 -223h66z" />
    <glyph glyph-name="onehalf" unicode="&#xbd;" horiz-adv-x="583" 
d="M270 714l-105 -449h-59l78 334h-44l11 45q61 7 76 70h43zM582 706l-457 -706h-58l458 706h57zM518 0h-187l14 48q11 38 28.5 66.5t30.5 42t42 39.5q54 49 64.5 64.5t20.5 57.5l7 30q3 14 3 24q0 24 -27 24q-6 0 -11 -1t-8.5 -4.5t-6 -5.5t-5 -8.5t-3 -9t-2.5 -11.5
t-3 -11l-11 -45h-57l15 67q9 39 28.5 58t70.5 19q78 0 78 -65q0 -10 -5 -40l-11 -48q-3 -11 -5.5 -20t-7.5 -17.5t-8 -13.5t-11.5 -14.5t-12 -13t-17 -16t-19.5 -18.5q-54 -51 -70 -71.5t-25 -49.5h124z" />
    <glyph glyph-name="threequarters" unicode="&#xbe;" horiz-adv-x="583" 
d="M591 442l-67 -291h30l-11 -51h-31l-23 -100h-58l24 100h-121l12 49l166 293h79zM582 706l-457 -706h-58l457 706h58zM520 374l-119 -223h66zM115 593l10 37q6 21 10.5 32t15 24t28.5 18.5t45 5.5q71 0 71 -60q0 -14 -3 -27l-7 -32q-10 -46 -25.5 -63.5t-46.5 -20.5
q44 -8 44 -52q0 -23 -7 -54l-10 -42q-7 -28 -11.5 -41t-15.5 -30t-29.5 -23.5t-46.5 -6.5q-80 0 -80 63q0 16 6 49l6 27h54l-6 -25q-6 -30 -6 -41q0 -26 29 -26q27 0 34 30l16 62q8 34 8 50q0 30 -31 30q-16 0 -38 -2l14 57q2 0 10 -0.5t12 -0.5q35 0 45 11.5t18 45.5l7 32
q3 16 3 21q0 22 -25 22q-17 0 -24 -11t-15 -41l-5 -18h-54z" />
    <glyph glyph-name="questiondown" unicode="&#xbf;" 
d="M214 478h79q-8 -46 -19.5 -71.5t-41.5 -65.5l-66 -87q-23 -30 -32.5 -44.5t-18.5 -40.5t-9 -57q0 -47 43 -47q15 0 25.5 5.5t16.5 18t8.5 20.5t6.5 25l14 61h77l-13 -58q-17 -76 -44.5 -111t-96.5 -35q-121 0 -121 116q0 59 24 105q11 21 55 79l56 73q47 60 57 114z
M233 577l30 130h81l-30 -130h-81z" />
    <glyph glyph-name="Agrave" unicode="&#xc0;" 
d="M353 706l-72 -706h-89l17 133h-112l-52 -133h-91l284 706h115zM265 583l-137 -369h92zM342 774h-47l-97 119h99z" />
    <glyph glyph-name="Aacute" unicode="&#xc1;" 
d="M353 706l-72 -706h-89l17 133h-112l-52 -133h-91l284 706h115zM265 583l-137 -369h92zM473 893l-155 -120h-53l101 120h107z" />
    <glyph glyph-name="Acircumflex" unicode="&#xc2;" 
d="M353 706l-72 -706h-89l17 133h-112l-52 -133h-91l284 706h115zM265 583l-137 -369h92zM419 773h-58l-41 65l-75 -65h-61l119 120h54z" />
    <glyph glyph-name="Atilde" unicode="&#xc3;" 
d="M353 706l-72 -706h-89l17 133h-112l-52 -133h-91l284 706h115zM265 583l-137 -369h92zM399 874h32q-15 -87 -78 -87q-15 0 -52 15.5t-50 15.5q-23 0 -31 -31h-31q7 40 30 64t50 24q19 0 54.5 -15.5t47.5 -15.5q21 0 28 30z" />
    <glyph glyph-name="Adieresis" unicode="&#xc4;" 
d="M353 706l-72 -706h-89l17 133h-112l-52 -133h-91l284 706h115zM265 583l-137 -369h92zM438 893l-23 -99h-73l22 99h74zM307 893l-23 -99h-72l23 99h72z" />
    <glyph glyph-name="Aring" unicode="&#xc5;" 
d="M353 706l-72 -706h-89l17 133h-112l-52 -133h-91l284 706h115zM265 583l-137 -369h92zM396 836q0 -31 -22.5 -53t-52.5 -22q-31 0 -53 21.5t-22 53.5q0 31 22 53t53 22t53 -22.5t22 -52.5zM362 836q0 18 -12 29.5t-29 11.5q-18 0 -29.5 -12t-11.5 -29q0 -18 12 -29.5
t29 -11.5q18 0 29.5 12t11.5 29z" />
    <glyph glyph-name="AE" unicode="&#xc6;" horiz-adv-x="500" 
d="M569 706l-20 -82h-125l-50 -220h123l-18 -80h-123l-55 -238h154l-20 -86h-242l75 324h-69l-143 -324h-93l324 706h282zM342 646l-114 -245h62z" />
    <glyph glyph-name="Ccedilla" unicode="&#xc7;" horiz-adv-x="375" 
d="M261 270h91l-24 -100q-11 -47 -19.5 -72t-26 -53.5t-46 -41t-69.5 -12.5l-24 -29q13 1 18 1q23 0 38.5 -13t15.5 -36q0 -32 -36 -58.5t-95 -26.5q-32 0 -61 8l6 26q10 -5 37 -5q19 0 40 9.5t21 29.5q0 26 -45 26q-8 0 -23 -3l64 75q-41 6 -65.5 34.5t-24.5 74.5
q0 42 22 134l67 280q9 38 15.5 59t20 51.5t29.5 46.5t43 28t61 12q21 0 39.5 -4t40 -14.5t34 -34t12.5 -58.5q0 -16 -19 -105l-7 -33h-88l14 61q13 57 13 68q0 27 -14 36.5t-30 9.5q-10 0 -18.5 -4t-15 -12.5t-11 -16t-8.5 -22t-6.5 -23t-6 -25.5t-5.5 -24l-79 -330
q-12 -48 -12 -69q0 -45 44 -45q15 0 23 4t19 24.5t22 62.5z" />
    <glyph glyph-name="Egrave" unicode="&#xc8;" horiz-adv-x="313" 
d="M390 706l-19 -83h-133l-50 -216h122l-20 -84h-121l-55 -237h154l-20 -86h-248l163 706h227zM322 774h-47l-97 119h99z" />
    <glyph glyph-name="Eacute" unicode="&#xc9;" horiz-adv-x="313" 
d="M390 706l-19 -83h-133l-50 -216h122l-20 -84h-121l-55 -237h154l-20 -86h-248l163 706h227zM452 893l-155 -120h-53l101 120h107z" />
    <glyph glyph-name="Ecircumflex" unicode="&#xca;" horiz-adv-x="313" 
d="M390 706l-19 -83h-133l-50 -216h122l-20 -84h-121l-55 -237h154l-20 -86h-248l163 706h227zM404 773h-58l-41 65l-75 -65h-61l119 120h54z" />
    <glyph glyph-name="Edieresis" unicode="&#xcb;" horiz-adv-x="313" 
d="M390 706l-19 -83h-133l-50 -216h122l-20 -84h-121l-55 -237h154l-20 -86h-248l163 706h227zM416 893l-23 -99h-73l22 99h74zM285 893l-23 -99h-72l23 99h72z" />
    <glyph glyph-name="Igrave" unicode="&#xcc;" horiz-adv-x="187" 
d="M257 706l-164 -706h-92l163 706h93zM259 774h-47l-97 119h99z" />
    <glyph glyph-name="Iacute" unicode="&#xcd;" horiz-adv-x="187" 
d="M257 706l-164 -706h-92l163 706h93zM390 893l-155 -120h-53l101 120h107z" />
    <glyph glyph-name="Icircumflex" unicode="&#xce;" horiz-adv-x="187" 
d="M257 706l-164 -706h-92l163 706h93zM341 773h-58l-41 65l-75 -65h-61l119 120h54z" />
    <glyph glyph-name="Idieresis" unicode="&#xcf;" horiz-adv-x="187" 
d="M257 706l-164 -706h-92l163 706h93zM353 893l-23 -99h-73l22 99h74zM222 893l-23 -99h-72l23 99h72z" />
    <glyph glyph-name="Eth" unicode="&#xd0;" horiz-adv-x="375" 
d="M164 706h126q24 0 39 -1t34 -6.5t30 -15t18.5 -28t7.5 -44.5q0 -35 -15 -95l-84 -364q-12 -53 -26 -84.5t-35.5 -46t-41.5 -18t-57 -3.5h-159l80 352h-30l15 64h30zM237 624l-49 -208h56l-15 -65h-56l-61 -267h29q50 0 63.5 15.5t28.5 79.5l78 338q12 51 12 69
q0 38 -48 38h-38z" />
    <glyph glyph-name="Ntilde" unicode="&#xd1;" horiz-adv-x="396" 
d="M465 706l-167 -706h-96q-8 497 -8 527l-106 -527h-88l163 706h96l9 -525l113 525h84zM425 874h32q-15 -87 -78 -87q-15 0 -52 15.5t-50 15.5q-23 0 -31 -31h-31q7 40 30 64t50 24q19 0 54 -15.5t48 -15.5q21 0 28 30z" />
    <glyph glyph-name="Ograve" unicode="&#xd2;" horiz-adv-x="396" 
d="M45 197l74 321q7 32 10.5 44t12 39t15.5 38.5t21 29.5t30 25.5t39 14t52 6.5q13 0 24.5 -1t33.5 -8t37.5 -19t27.5 -38.5t12 -62.5q0 -31 -15 -95l-68 -295q-9 -40 -16 -64t-21.5 -54.5t-32 -47t-46 -28t-66.5 -11.5q-54 0 -95 29t-41 94q0 30 12 83zM253 175l79 344
q11 47 11 66q0 26 -15.5 40t-38.5 14q-32 0 -45 -21.5t-28 -85.5l-77 -333q-13 -57 -13 -76q0 -26 14.5 -38.5t37.5 -12.5q25 0 41 17t21 33.5t13 52.5zM363 774h-47l-97 119h99z" />
    <glyph glyph-name="Oacute" unicode="&#xd3;" horiz-adv-x="396" 
d="M45 197l74 321q7 32 10.5 44t12 39t15.5 38.5t21 29.5t30 25.5t39 14t52 6.5q13 0 24.5 -1t33.5 -8t37.5 -19t27.5 -38.5t12 -62.5q0 -31 -15 -95l-68 -295q-9 -40 -16 -64t-21.5 -54.5t-32 -47t-46 -28t-66.5 -11.5q-54 0 -95 29t-41 94q0 30 12 83zM253 175l79 344
q11 47 11 66q0 26 -15.5 40t-38.5 14q-32 0 -45 -21.5t-28 -85.5l-77 -333q-13 -57 -13 -76q0 -26 14.5 -38.5t37.5 -12.5q25 0 41 17t21 33.5t13 52.5zM494 893l-155 -120h-53l101 120h107z" />
    <glyph glyph-name="Ocircumflex" unicode="&#xd4;" horiz-adv-x="396" 
d="M45 197l74 321q7 32 10.5 44t12 39t15.5 38.5t21 29.5t30 25.5t39 14t52 6.5q13 0 24.5 -1t33.5 -8t37.5 -19t27.5 -38.5t12 -62.5q0 -31 -15 -95l-68 -295q-9 -40 -16 -64t-21.5 -54.5t-32 -47t-46 -28t-66.5 -11.5q-54 0 -95 29t-41 94q0 30 12 83zM253 175l79 344
q11 47 11 66q0 26 -15.5 40t-38.5 14q-32 0 -45 -21.5t-28 -85.5l-77 -333q-13 -57 -13 -76q0 -26 14.5 -38.5t37.5 -12.5q25 0 41 17t21 33.5t13 52.5zM445 773h-58l-41 65l-75 -65h-61l119 120h54z" />
    <glyph glyph-name="Otilde" unicode="&#xd5;" horiz-adv-x="396" 
d="M45 197l74 321q7 32 10.5 44t12 39t15.5 38.5t21 29.5t30 25.5t39 14t52 6.5q13 0 24.5 -1t33.5 -8t37.5 -19t27.5 -38.5t12 -62.5q0 -31 -15 -95l-68 -295q-9 -40 -16 -64t-21.5 -54.5t-32 -47t-46 -28t-66.5 -11.5q-54 0 -95 29t-41 94q0 30 12 83zM253 175l79 344
q11 47 11 66q0 26 -15.5 40t-38.5 14q-32 0 -45 -21.5t-28 -85.5l-77 -333q-13 -57 -13 -76q0 -26 14.5 -38.5t37.5 -12.5q25 0 41 17t21 33.5t13 52.5zM425 874h32q-15 -87 -78 -87q-15 0 -52 15.5t-50 15.5q-23 0 -31 -31h-31q7 40 30 64t50 24q19 0 54 -15.5t48 -15.5
q21 0 28 30z" />
    <glyph glyph-name="Odieresis" unicode="&#xd6;" horiz-adv-x="396" 
d="M45 197l74 321q7 32 10.5 44t12 39t15.5 38.5t21 29.5t30 25.5t39 14t52 6.5q13 0 24.5 -1t33.5 -8t37.5 -19t27.5 -38.5t12 -62.5q0 -31 -15 -95l-68 -295q-9 -40 -16 -64t-21.5 -54.5t-32 -47t-46 -28t-66.5 -11.5q-54 0 -95 29t-41 94q0 30 12 83zM253 175l79 344
q11 47 11 66q0 26 -15.5 40t-38.5 14q-32 0 -45 -21.5t-28 -85.5l-77 -333q-13 -57 -13 -76q0 -26 14.5 -38.5t37.5 -12.5q25 0 41 17t21 33.5t13 52.5zM456 893l-23 -99h-73l22 99h74zM325 893l-23 -99h-72l23 99h72z" />
    <glyph glyph-name="multiply" unicode="&#xd7;" horiz-adv-x="558" 
d="M483 422l-120 -127l93 -139l-66 -52l-84 131l-114 -119l-50 57l121 127l-92 137l66 51l84 -128l112 120z" />
    <glyph glyph-name="Oslash" unicode="&#xd8;" horiz-adv-x="396" 
d="M498 692l-63 -86q3 -15 3 -29q0 -28 -14 -86l-74 -302q-7 -27 -9.5 -37t-11.5 -36.5t-16.5 -39t-22 -32t-31 -29t-40.5 -17t-52 -7.5q-87 0 -121 69l-55 -76l-29 20l75 104q-2 22 -2 28q0 18 10 61l80 323l5.5 22t6 23.5t6 21t8 23.5t9 20t12 21t14.5 18q43 46 115 46
q87 0 121 -64l47 63zM154 276l187 261q9 34 9 50q0 24 -15 38t-38 14q-32 0 -46 -25t-35 -104zM324 445l-188 -259q-11 -30 -11 -63q0 -27 15 -39t35 -12q30 0 46 24.5t31 78.5z" />
    <glyph glyph-name="Ugrave" unicode="&#xd9;" horiz-adv-x="375" 
d="M448 706l-134 -579q-4 -19 -7.5 -30.5t-15.5 -34t-27.5 -36t-45 -24.5t-67.5 -11q-56 0 -91 28.5t-35 83.5q0 27 5 48l129 555h94l-131 -567q-3 -16 -3 -25q0 -8 2.5 -17.5t13.5 -19t28 -9.5q44 0 62 79l129 559h94zM353 774h-47l-97 119h99z" />
    <glyph glyph-name="Uacute" unicode="&#xda;" horiz-adv-x="375" 
d="M448 706l-134 -579q-4 -19 -7.5 -30.5t-15.5 -34t-27.5 -36t-45 -24.5t-67.5 -11q-56 0 -91 28.5t-35 83.5q0 27 5 48l129 555h94l-131 -567q-3 -16 -3 -25q0 -8 2.5 -17.5t13.5 -19t28 -9.5q44 0 62 79l129 559h94zM484 893l-155 -120h-53l101 120h107z" />
    <glyph glyph-name="Ucircumflex" unicode="&#xdb;" horiz-adv-x="375" 
d="M448 706l-134 -579q-4 -19 -7.5 -30.5t-15.5 -34t-27.5 -36t-45 -24.5t-67.5 -11q-56 0 -91 28.5t-35 83.5q0 27 5 48l129 555h94l-131 -567q-3 -16 -3 -25q0 -8 2.5 -17.5t13.5 -19t28 -9.5q44 0 62 79l129 559h94zM434 773h-58l-41 65l-75 -65h-61l119 120h54z" />
    <glyph glyph-name="Udieresis" unicode="&#xdc;" horiz-adv-x="375" 
d="M448 706l-134 -579q-4 -19 -7.5 -30.5t-15.5 -34t-27.5 -36t-45 -24.5t-67.5 -11q-56 0 -91 28.5t-35 83.5q0 27 5 48l129 555h94l-131 -567q-3 -16 -3 -25q0 -8 2.5 -17.5t13.5 -19t28 -9.5q44 0 62 79l129 559h94zM448 893l-23 -99h-73l22 99h74zM317 893l-23 -99h-72
l23 99h72z" />
    <glyph glyph-name="Yacute" unicode="&#xdd;" 
d="M452 706l-218 -410l-71 -296h-96l65 296l-14 410h92l-3 -301l144 301h101zM463 893l-155 -120h-53l101 120h107z" />
    <glyph glyph-name="Thorn" unicode="&#xde;" horiz-adv-x="354" 
d="M165 706h93l-27 -117h22q58 0 83 -6t43 -33q14 -20 14 -50q0 -26 -10 -68l-25 -109q-18 -79 -42 -101t-101 -22h-74l-46 -200h-93zM212 506l-52 -223h51q21 0 33.5 9.5t16 19.5t7.5 28l24 105q4 16 4 27q0 34 -38 34h-46z" />
    <glyph glyph-name="germandbls" unicode="&#xdf;" horiz-adv-x="313" 
d="M78 0h-79l142 615q11 49 40 75t97 26q53 0 76 -26t23 -58q0 -17 -7 -48l-15 -72q-14 -67 -71 -67q14 -4 23 -9t16.5 -17t7.5 -31q0 -12 -3 -26l-63 -273q-12 -53 -39 -73.5t-69 -20.5q-27 0 -52 11l16 71q13 -8 27 -8q11 0 17.5 2.5t15 16.5t14.5 41l52 225q3 12 3 25
q0 22 -16 30t-29 8l15 62q14 -3 18 -3q30 0 38 39l12 56q7 35 7 41q0 17 -10.5 26t-26.5 9q-7 0 -12.5 -1.5t-10 -5.5t-7 -7t-5 -10t-3.5 -10t-2.5 -11.5t-2.5 -10.5z" />
    <glyph glyph-name="agrave" unicode="&#xe0;" horiz-adv-x="313" 
d="M241 0h-84v44q-24 -52 -76 -52q-27 0 -47 17t-20 49q0 22 8 59l11 48q12 54 26.5 77.5t49.5 42.5q7 4 57 27.5t60 28.5l18 80q4 16 4 28q0 13 -8.5 20.5t-20.5 7.5q-18 0 -24.5 -11t-13.5 -42l-14 -62h-82l15 67q5 24 11 39.5t19 35t37 29t58 9.5q47 0 74.5 -21t27.5 -63
q0 -20 -7 -51l-67 -294q-14 -61 -14 -82q0 -11 2 -31zM185 164l22 98q-49 -25 -61.5 -33.5t-20.5 -25.5q-6 -13 -16.5 -57.5t-10.5 -58.5t8.5 -21.5t17.5 -7.5q22 0 34.5 22.5t26.5 83.5zM276 603h-47l-99 120h99z" />
    <glyph glyph-name="aacute" unicode="&#xe1;" horiz-adv-x="313" 
d="M241 0h-84v44q-24 -52 -76 -52q-27 0 -47 17t-20 49q0 22 8 59l11 48q12 54 26.5 77.5t49.5 42.5q7 4 57 27.5t60 28.5l18 80q4 16 4 28q0 13 -8.5 20.5t-20.5 7.5q-18 0 -24.5 -11t-13.5 -42l-14 -62h-82l15 67q5 24 11 39.5t19 35t37 29t58 9.5q47 0 74.5 -21t27.5 -63
q0 -20 -7 -51l-67 -294q-14 -61 -14 -82q0 -11 2 -31zM185 164l22 98q-49 -25 -61.5 -33.5t-20.5 -25.5q-6 -13 -16.5 -57.5t-10.5 -58.5t8.5 -21.5t17.5 -7.5q22 0 34.5 22.5t26.5 83.5zM405 723l-155 -121h-55l101 121h109z" />
    <glyph glyph-name="acircumflex" unicode="&#xe2;" horiz-adv-x="313" 
d="M241 0h-84v44q-24 -52 -76 -52q-27 0 -47 17t-20 49q0 22 8 59l11 48q12 54 26.5 77.5t49.5 42.5q7 4 57 27.5t60 28.5l18 80q4 16 4 28q0 13 -8.5 20.5t-20.5 7.5q-18 0 -24.5 -11t-13.5 -42l-14 -62h-82l15 67q5 24 11 39.5t19 35t37 29t58 9.5q47 0 74.5 -21t27.5 -63
q0 -20 -7 -51l-67 -294q-14 -61 -14 -82q0 -11 2 -31zM185 164l22 98q-49 -25 -61.5 -33.5t-20.5 -25.5q-6 -13 -16.5 -57.5t-10.5 -58.5t8.5 -21.5t17.5 -7.5q22 0 34.5 22.5t26.5 83.5zM364 603h-58l-41 65l-75 -65h-61l119 120h54z" />
    <glyph glyph-name="atilde" unicode="&#xe3;" horiz-adv-x="313" 
d="M241 0h-84v44q-24 -52 -76 -52q-27 0 -47 17t-20 49q0 22 8 59l11 48q12 54 26.5 77.5t49.5 42.5q7 4 57 27.5t60 28.5l18 80q4 16 4 28q0 13 -8.5 20.5t-20.5 7.5q-18 0 -24.5 -11t-13.5 -42l-14 -62h-82l15 67q5 24 11 39.5t19 35t37 29t58 9.5q47 0 74.5 -21t27.5 -63
q0 -20 -7 -51l-67 -294q-14 -61 -14 -82q0 -11 2 -31zM185 164l22 98q-49 -25 -61.5 -33.5t-20.5 -25.5q-6 -13 -16.5 -57.5t-10.5 -58.5t8.5 -21.5t17.5 -7.5q22 0 34.5 22.5t26.5 83.5zM337 701h32q-15 -87 -78 -87q-15 0 -47 15.5t-44 15.5q-23 0 -31 -31h-31q7 40 30 64
t50 24q19 0 48.5 -15.5t42.5 -15.5q21 0 28 30z" />
    <glyph glyph-name="adieresis" unicode="&#xe4;" horiz-adv-x="313" 
d="M241 0h-84v44q-24 -52 -76 -52q-27 0 -47 17t-20 49q0 22 8 59l11 48q12 54 26.5 77.5t49.5 42.5q7 4 57 27.5t60 28.5l18 80q4 16 4 28q0 13 -8.5 20.5t-20.5 7.5q-18 0 -24.5 -11t-13.5 -42l-14 -62h-82l15 67q5 24 11 39.5t19 35t37 29t58 9.5q47 0 74.5 -21t27.5 -63
q0 -20 -7 -51l-67 -294q-14 -61 -14 -82q0 -11 2 -31zM185 164l22 98q-49 -25 -61.5 -33.5t-20.5 -25.5q-6 -13 -16.5 -57.5t-10.5 -58.5t8.5 -21.5t17.5 -7.5q22 0 34.5 22.5t26.5 83.5zM375 723l-23 -100h-74l23 100h74zM243 723l-23 -100h-71l23 100h71z" />
    <glyph glyph-name="aring" unicode="&#xe5;" horiz-adv-x="313" 
d="M241 0h-84v44q-24 -52 -76 -52q-27 0 -47 17t-20 49q0 22 8 59l11 48q12 54 26.5 77.5t49.5 42.5q7 4 57 27.5t60 28.5l18 80q4 16 4 28q0 13 -8.5 20.5t-20.5 7.5q-18 0 -24.5 -11t-13.5 -42l-14 -62h-82l15 67q5 24 11 39.5t19 35t37 29t58 9.5q47 0 74.5 -21t27.5 -63
q0 -20 -7 -51l-67 -294q-14 -61 -14 -82q0 -11 2 -31zM185 164l22 98q-49 -25 -61.5 -33.5t-20.5 -25.5q-6 -13 -16.5 -57.5t-10.5 -58.5t8.5 -21.5t17.5 -7.5q22 0 34.5 22.5t26.5 83.5zM333 669q0 -31 -22.5 -53t-52.5 -22q-32 0 -53.5 22t-21.5 53t22 53t53 22t53 -22.5
t22 -52.5zM298 669q0 18 -11.5 29.5t-28.5 11.5q-18 0 -29 -12t-11 -29q0 -18 11.5 -29.5t28.5 -11.5q18 0 29 11.5t11 29.5z" />
    <glyph glyph-name="ae" unicode="&#xe6;" horiz-adv-x="479" 
d="M453 248h-160l-29 -126q-5 -23 -5 -33q0 -31 38 -31q19 0 28.5 13t20.5 52l21 76h80l-20 -76q-7 -27 -14 -44.5t-22.5 -40.5t-42.5 -35t-64 -12q-84 0 -107 60q-30 -59 -89 -59q-30 0 -52.5 16.5t-22.5 54.5q0 23 8 55l21 87q10 44 43 67q10 7 119 54q14 6 21 13.5t9 14
t6 23.5l12 53q3 12 3 23q0 16 -12 22.5t-21 6.5q-19 0 -28.5 -13.5t-16.5 -44.5l-15 -66h-80l17 77q5 21 10.5 35t18.5 33t39 29t63 10q53 0 84 -29q29 29 80 29q9 0 19 -1t26 -6.5t27.5 -14t20.5 -26.5t9 -42q0 -18 -4 -35zM309 315h80l23 102q4 20 4 28q-1 32 -35 32
q-16 0 -26 -9t-13 -18t-8 -28zM214 263l-53 -24q-36 -15 -48 -66l-12 -51q-4 -18 -4 -29q1 -19 11.5 -26t21.5 -7q22 0 32.5 14.5t20.5 56.5z" />
    <glyph glyph-name="ccedilla" unicode="&#xe7;" horiz-adv-x="292" 
d="M193 214h80l-21 -77q-20 -77 -36 -98q-29 -42 -94 -49l-24 -28q13 1 18 1q23 0 38.5 -13t15.5 -36q0 -32 -36 -58.5t-95 -26.5q-32 0 -61 8l6 26q10 -5 37 -5q19 0 40 9.5t21 29.5q0 26 -45 26q-8 0 -23 -3l64 75q-60 15 -60 83q0 19 10 69l61 255q7 30 11.5 45.5
t14.5 37t22 31.5t32 18t47 8q31 0 52.5 -9t31 -24t13 -27t3.5 -25q0 -27 -22 -117h-77l5 21q17 74 17 85q0 31 -27 31q-17 0 -24.5 -15.5t-18.5 -60.5l-57 -241q-14 -56 -14 -71q0 -12 7 -21.5t18 -9.5q19 0 27 15t25 77z" />
    <glyph glyph-name="egrave" unicode="&#xe8;" horiz-adv-x="313" 
d="M293 246h-163l-25 -105q-10 -43 -10 -53q0 -31 35 -31q23 0 32.5 14t19.5 48l22 73h81l-27 -97q-29 -104 -136 -104q-59 0 -82 26.5t-23 63.5q0 19 9 59l61 255q9 38 16 58t21.5 44t39.5 34.5t62 10.5q47 0 78.5 -23.5t31.5 -69.5q0 -25 -10 -65zM147 315h81l18 77
q8 29 8 46q0 39 -35 39q-24 0 -33.5 -17.5t-22.5 -73.5zM276 603h-47l-99 120h99z" />
    <glyph glyph-name="eacute" unicode="&#xe9;" horiz-adv-x="313" 
d="M293 246h-163l-25 -105q-10 -43 -10 -53q0 -31 35 -31q23 0 32.5 14t19.5 48l22 73h81l-27 -97q-29 -104 -136 -104q-59 0 -82 26.5t-23 63.5q0 19 9 59l61 255q9 38 16 58t21.5 44t39.5 34.5t62 10.5q47 0 78.5 -23.5t31.5 -69.5q0 -25 -10 -65zM147 315h81l18 77
q8 29 8 46q0 39 -35 39q-24 0 -33.5 -17.5t-22.5 -73.5zM419 723l-155 -121h-55l101 121h109z" />
    <glyph glyph-name="ecircumflex" unicode="&#xea;" horiz-adv-x="313" 
d="M293 246h-163l-25 -105q-10 -43 -10 -53q0 -31 35 -31q23 0 32.5 14t19.5 48l22 73h81l-27 -97q-29 -104 -136 -104q-59 0 -82 26.5t-23 63.5q0 19 9 59l61 255q9 38 16 58t21.5 44t39.5 34.5t62 10.5q47 0 78.5 -23.5t31.5 -69.5q0 -25 -10 -65zM147 315h81l18 77
q8 29 8 46q0 39 -35 39q-24 0 -33.5 -17.5t-22.5 -73.5zM370 603h-58l-41 65l-75 -65h-61l119 120h54z" />
    <glyph glyph-name="edieresis" unicode="&#xeb;" horiz-adv-x="313" 
d="M293 246h-163l-25 -105q-10 -43 -10 -53q0 -31 35 -31q23 0 32.5 14t19.5 48l22 73h81l-27 -97q-29 -104 -136 -104q-59 0 -82 26.5t-23 63.5q0 19 9 59l61 255q9 38 16 58t21.5 44t39.5 34.5t62 10.5q47 0 78.5 -23.5t31.5 -69.5q0 -25 -10 -65zM147 315h81l18 77
q8 29 8 46q0 39 -35 39q-24 0 -33.5 -17.5t-22.5 -73.5zM382 723l-23 -100h-74l23 100h74zM250 723l-23 -100h-71l23 100h71z" />
    <glyph glyph-name="igrave" unicode="&#xec;" horiz-adv-x="167" 
d="M203 533l-124 -533h-80l123 533h81zM204 603h-47l-99 120h99z" />
    <glyph glyph-name="iacute" unicode="&#xed;" horiz-adv-x="167" 
d="M203 533l-124 -533h-80l123 533h81zM345 723l-155 -121h-55l101 121h109z" />
    <glyph glyph-name="icircumflex" unicode="&#xee;" horiz-adv-x="167" 
d="M203 533l-124 -533h-80l123 533h81zM292 603h-58l-41 65l-75 -65h-61l119 120h54z" />
    <glyph glyph-name="idieresis" unicode="&#xef;" horiz-adv-x="167" 
d="M203 533l-124 -533h-80l123 533h81zM304 723l-23 -100h-74l23 100h74zM172 723l-23 -100h-71l23 100h71z" />
    <glyph glyph-name="eth" unicode="&#xf0;" 
d="M388 633l-48 -14l3 -8q13 -34 13 -81q0 -52 -20 -140l-59 -259q-8 -35 -12.5 -50.5t-14.5 -37t-23 -30t-35 -15.5t-54 -7q-59 0 -87.5 25t-28.5 66q0 21 9 61l59 259q18 80 43 110.5t87 30.5q24 0 42 -10t20 -25q3 23 3 36q0 32 -13 55l-100 -27l-17 49l88 25
q-14 23 -43 50l64 24q30 -26 48 -54l58 18zM200 135l54 243q11 50 11 59q0 42 -42 42q-18 0 -28 -9t-14 -19.5t-10 -37.5l-58 -258q-11 -55 -11 -63q0 -19 12.5 -28.5t30.5 -9.5t28.5 11t15 24t11.5 46z" />
    <glyph glyph-name="ntilde" unicode="&#xf1;" 
d="M121 533h80l-7 -36q33 45 81 45q34 0 55 -19.5t21 -53.5q0 -14 -11 -64l-93 -405h-81l94 405q4 19 4 29q0 13 -9 24.5t-31 11.5q-21 0 -31.5 -13t-16.5 -38l-97 -419h-80zM348 701h32q-14 -87 -78 -87q-16 0 -47 15.5t-44 15.5q-23 0 -31 -31h-31q7 40 30 64t50 24
q19 0 49 -15.5t42 -15.5q21 0 28 30z" />
    <glyph glyph-name="ograve" unicode="&#xf2;" 
d="M336 390l-59 -260q-8 -34 -13 -50.5t-15 -37t-23 -29.5t-35 -15.5t-53 -6.5q-62 0 -89 26.5t-27 66.5q0 14 9 59l59 260q10 42 17 63t22 41t39 27.5t62 7.5q62 0 88.5 -27t26.5 -65q0 -17 -9 -60zM200 135l54 243q11 51 11 61q0 16 -10.5 28t-32.5 12q-7 0 -12 -1
t-9.5 -3.5t-7.5 -5t-6 -8t-4.5 -8.5t-4 -11.5t-3.5 -12.5t-3.5 -15t-3.5 -16l-55 -243q-11 -51 -11 -61q0 -40 44 -40q24 0 34 17t20 64zM287 603h-47l-99 120h99z" />
    <glyph glyph-name="oacute" unicode="&#xf3;" 
d="M336 390l-59 -260q-8 -34 -13 -50.5t-15 -37t-23 -29.5t-35 -15.5t-53 -6.5q-62 0 -89 26.5t-27 66.5q0 14 9 59l59 260q10 42 17 63t22 41t39 27.5t62 7.5q62 0 88.5 -27t26.5 -65q0 -17 -9 -60zM200 135l54 243q11 51 11 61q0 16 -10.5 28t-32.5 12q-7 0 -12 -1
t-9.5 -3.5t-7.5 -5t-6 -8t-4.5 -8.5t-4 -11.5t-3.5 -12.5t-3.5 -15t-3.5 -16l-55 -243q-11 -51 -11 -61q0 -40 44 -40q24 0 34 17t20 64zM429 723l-155 -121h-55l101 121h109z" />
    <glyph glyph-name="ocircumflex" unicode="&#xf4;" 
d="M336 390l-59 -260q-8 -34 -13 -50.5t-15 -37t-23 -29.5t-35 -15.5t-53 -6.5q-62 0 -89 26.5t-27 66.5q0 14 9 59l59 260q10 42 17 63t22 41t39 27.5t62 7.5q62 0 88.5 -27t26.5 -65q0 -17 -9 -60zM200 135l54 243q11 51 11 61q0 16 -10.5 28t-32.5 12q-7 0 -12 -1
t-9.5 -3.5t-7.5 -5t-6 -8t-4.5 -8.5t-4 -11.5t-3.5 -12.5t-3.5 -15t-3.5 -16l-55 -243q-11 -51 -11 -61q0 -40 44 -40q24 0 34 17t20 64zM375 603h-58l-41 65l-75 -65h-61l119 120h54z" />
    <glyph glyph-name="otilde" unicode="&#xf5;" 
d="M336 390l-59 -260q-8 -34 -13 -50.5t-15 -37t-23 -29.5t-35 -15.5t-53 -6.5q-62 0 -89 26.5t-27 66.5q0 14 9 59l59 260q10 42 17 63t22 41t39 27.5t62 7.5q62 0 88.5 -27t26.5 -65q0 -17 -9 -60zM200 135l54 243q11 51 11 61q0 16 -10.5 28t-32.5 12q-7 0 -12 -1
t-9.5 -3.5t-7.5 -5t-6 -8t-4.5 -8.5t-4 -11.5t-3.5 -12.5t-3.5 -15t-3.5 -16l-55 -243q-11 -51 -11 -61q0 -40 44 -40q24 0 34 17t20 64zM348 701h32q-14 -87 -78 -87q-16 0 -47 15.5t-44 15.5q-23 0 -31 -31h-31q7 40 30 64t50 24q19 0 49 -15.5t42 -15.5q21 0 28 30z" />
    <glyph glyph-name="odieresis" unicode="&#xf6;" 
d="M336 390l-59 -260q-8 -34 -13 -50.5t-15 -37t-23 -29.5t-35 -15.5t-53 -6.5q-62 0 -89 26.5t-27 66.5q0 14 9 59l59 260q10 42 17 63t22 41t39 27.5t62 7.5q62 0 88.5 -27t26.5 -65q0 -17 -9 -60zM200 135l54 243q11 51 11 61q0 16 -10.5 28t-32.5 12q-7 0 -12 -1
t-9.5 -3.5t-7.5 -5t-6 -8t-4.5 -8.5t-4 -11.5t-3.5 -12.5t-3.5 -15t-3.5 -16l-55 -243q-11 -51 -11 -61q0 -40 44 -40q24 0 34 17t20 64zM383 723l-23 -100h-74l23 100h74zM251 723l-23 -100h-71l23 100h71z" />
    <glyph glyph-name="divide" unicode="&#xf7;" horiz-adv-x="559" 
d="M395 504l-25 -110h-92l25 110h92zM510 335l-17 -75h-402l18 75h401zM326 201l-25 -111h-92l25 111h92z" />
    <glyph glyph-name="oslash" unicode="&#xf8;" 
d="M384 527l-42 -58q4 -22 4 -30q-1 -29 -8 -49l-64 -260q-20 -79 -47.5 -109t-90.5 -30q-65 0 -101 46l-35 -48l-23 16l47 65q-2 22 -2 23q0 21 7 50l63 260q7 28 10.5 41t14.5 35.5t24 33.5t36.5 20t54.5 9q65 0 96 -43l33 46zM197 135l50 200l-140 -196q-8 -27 -8 -47
q0 -17 11.5 -27.5t30.5 -10.5q25 0 34.5 16t21.5 65zM123 212l139 193q6 24 6 37q0 15 -10.5 26t-31.5 11q-24 0 -33.5 -16t-22.5 -65z" />
    <glyph glyph-name="ugrave" unicode="&#xf9;" 
d="M289 533h80l-122 -533h-80l7 36q-31 -45 -81 -45q-34 0 -55 19.5t-21 53.5q0 17 12 69l92 400h81l-95 -408q-3 -13 -3 -26t8.5 -24.5t30.5 -11.5q38 0 49 51zM288 603h-47l-99 120h99z" />
    <glyph glyph-name="uacute" unicode="&#xfa;" 
d="M289 533h80l-122 -533h-80l7 36q-31 -45 -81 -45q-34 0 -55 19.5t-21 53.5q0 17 12 69l92 400h81l-95 -408q-3 -13 -3 -26t8.5 -24.5t30.5 -11.5q38 0 49 51zM428 723l-155 -121h-55l101 121h109z" />
    <glyph glyph-name="ucircumflex" unicode="&#xfb;" 
d="M289 533h80l-122 -533h-80l7 36q-31 -45 -81 -45q-34 0 -55 19.5t-21 53.5q0 17 12 69l92 400h81l-95 -408q-3 -13 -3 -26t8.5 -24.5t30.5 -11.5q38 0 49 51zM375 603h-58l-41 65l-75 -65h-61l119 120h54z" />
    <glyph glyph-name="udieresis" unicode="&#xfc;" 
d="M289 533h80l-122 -533h-80l7 36q-31 -45 -81 -45q-34 0 -55 19.5t-21 53.5q0 17 12 69l92 400h81l-95 -408q-3 -13 -3 -26t8.5 -24.5t30.5 -11.5q38 0 49 51zM385 723l-23 -100h-74l23 100h74zM253 723l-23 -100h-71l23 100h71z" />
    <glyph glyph-name="yacute" unicode="&#xfd;" horiz-adv-x="271" 
d="M265 533h88l-230 -570q-10 -24 -17 -38t-21 -32t-35.5 -27t-49.5 -9q-24 0 -54 7l17 74q12 -6 34 -6q15 0 24 5.5t13.5 20.5t6 26t3.5 37l36 512h84l-47 -418zM398 723l-155 -121h-55l101 121h109z" />
    <glyph glyph-name="thorn" unicode="&#xfe;" horiz-adv-x="313" 
d="M158 706h82l-49 -209q20 45 69 45q32 0 50 -19t18 -51q0 -11 -2 -25t-4 -24t-4 -19.5t-2 -10.5l-59 -258q-6 -25 -8.5 -36t-12 -36t-19.5 -37.5t-27.5 -23.5t-39.5 -11q-53 0 -64 50l-43 -186h-80zM163 391l-56 -245q-9 -36 -9 -51q0 -13 7.5 -20.5t14 -9t12.5 -1.5
q21 0 30.5 18.5t18.5 59.5l54 237q11 46 11 59q0 15 -10 25t-24 10q-7 0 -13 -2t-10.5 -7t-7 -8.5t-5.5 -13t-4.5 -14.5t-4.5 -18t-4 -19z" />
    <glyph glyph-name="ydieresis" unicode="&#xff;" horiz-adv-x="271" 
d="M265 533h88l-230 -570q-10 -24 -17 -38t-21 -32t-35.5 -27t-49.5 -9q-24 0 -54 7l17 74q12 -6 34 -6q15 0 24 5.5t13.5 20.5t6 26t3.5 37l36 512h84l-47 -418zM356 723l-23 -100h-74l23 100h74zM224 723l-23 -100h-71l23 100h71z" />
    <glyph glyph-name="Amacron" unicode="&#x100;" 
d="M353 706l-72 -706h-89l17 133h-112l-52 -133h-91l284 706h115zM265 583l-137 -369h92zM426 858l-14 -64h-203l14 64h203z" />
    <glyph glyph-name="amacron" unicode="&#x101;" horiz-adv-x="313" 
d="M241 0h-84v44q-24 -52 -76 -52q-27 0 -47 17t-20 49q0 22 8 59l11 48q12 54 26.5 77.5t49.5 42.5q7 4 57 27.5t60 28.5l18 80q4 16 4 28q0 13 -8.5 20.5t-20.5 7.5q-18 0 -24.5 -11t-13.5 -42l-14 -62h-82l15 67q5 24 11 39.5t19 35t37 29t58 9.5q47 0 74.5 -21t27.5 -63
q0 -20 -7 -51l-67 -294q-14 -61 -14 -82q0 -11 2 -31zM185 164l22 98q-49 -25 -61.5 -33.5t-20.5 -25.5q-6 -13 -16.5 -57.5t-10.5 -58.5t8.5 -21.5t17.5 -7.5q22 0 34.5 22.5t26.5 83.5zM369 687l-14 -64h-203l14 64h203z" />
    <glyph glyph-name="Abreve" unicode="&#x102;" 
d="M353 706l-72 -706h-89l17 133h-112l-52 -133h-91l284 706h115zM265 583l-137 -369h92zM399 893h39l-3 -11q-28 -110 -123 -110q-12 0 -24.5 2.5t-29 10.5t-27 27.5t-10.5 47.5q0 22 3 33h33q5 -64 65 -64q58 0 77 64z" />
    <glyph glyph-name="abreve" unicode="&#x103;" horiz-adv-x="313" 
d="M241 0h-84v44q-24 -52 -76 -52q-27 0 -47 17t-20 49q0 22 8 59l11 48q12 54 26.5 77.5t49.5 42.5q7 4 57 27.5t60 28.5l18 80q4 16 4 28q0 13 -8.5 20.5t-20.5 7.5q-18 0 -24.5 -11t-13.5 -42l-14 -62h-82l15 67q5 24 11 39.5t19 35t37 29t58 9.5q47 0 74.5 -21t27.5 -63
q0 -20 -7 -51l-67 -294q-14 -61 -14 -82q0 -11 2 -31zM185 164l22 98q-49 -25 -61.5 -33.5t-20.5 -25.5q-6 -13 -16.5 -57.5t-10.5 -58.5t8.5 -21.5t17.5 -7.5q22 0 34.5 22.5t26.5 83.5zM333 722h39l-3 -11q-28 -110 -123 -110q-18 0 -35.5 4t-37.5 25.5t-20 58.5
q0 18 5 33h33q2 -29 19 -46.5t46 -17.5q20 0 34 6t23 18t12 19.5t8 20.5z" />
    <glyph glyph-name="Aogonek" unicode="&#x104;" 
d="M213 0h-21l17 133h-112l-52 -133h-91l284 706h115l-72 -706q-28 -4 -64.5 -34t-36.5 -55q0 -26 40 -26q13 0 23 4l-7 -29q-53 -16 -77 -16q-26 0 -45.5 13t-19.5 40q0 10 3 19.5t7 16.5t13 14.5t15 12t19 11.5t19 10t22 10t21 9zM265 583l-137 -369h92z" />
    <glyph glyph-name="aogonek" unicode="&#x105;" horiz-adv-x="313" 
d="M175 0h-18v44q-24 -52 -76 -52q-27 0 -47 17t-20 49q0 22 8 59l11 48q12 54 26.5 77.5t49.5 42.5q7 4 57 27.5t60 28.5l18 80q4 16 4 28q0 13 -8.5 20.5t-20.5 7.5q-18 0 -24.5 -11t-13.5 -42l-14 -62h-82l15 67q5 24 11 39.5t19 35t37 29t58 9.5q47 0 74.5 -21t27.5 -63
q0 -20 -7 -51l-67 -294q-14 -61 -14 -82q0 -11 2 -31q-31 -8 -65 -36t-34 -53q0 -26 40 -26q13 0 23 4l-7 -29q-53 -16 -77 -16q-26 0 -45.5 13t-19.5 40q0 10 3 19.5t7 16.5t13 14.5t15 12t19 11.5t19 10t22 10t21 9zM185 164l22 98q-49 -25 -61.5 -33.5t-20.5 -25.5
q-6 -13 -16.5 -57.5t-10.5 -58.5t8.5 -21.5t17.5 -7.5q22 0 34.5 22.5t26.5 83.5z" />
    <glyph glyph-name="Cacute" unicode="&#x106;" horiz-adv-x="375" 
d="M391 466h-88l14 61q13 57 13 68q0 27 -14 36.5t-30 9.5q-10 0 -18.5 -4t-15 -12.5t-11 -16t-8.5 -22t-6.5 -23t-6 -25.5t-5.5 -24l-79 -330q-12 -48 -12 -69q0 -45 44 -45q15 0 23 4t19 24.5t22 62.5l29 109h91l-24 -100q-9 -39 -15 -59t-18.5 -47t-28.5 -40t-43 -23
t-63 -10q-57 0 -92 28.5t-35 84.5q0 42 22 134l67 280q8 33 12.5 49.5t14.5 44.5t21.5 42.5t28 30.5t40 23t52.5 7q21 0 39.5 -4t40 -14.5t34 -34t12.5 -58.5q0 -11 -1.5 -22.5t-3.5 -20t-6.5 -28t-7.5 -34.5zM476 893l-155 -120h-53l101 120h107z" />
    <glyph glyph-name="cacute" unicode="&#x107;" horiz-adv-x="292" 
d="M193 214h80l-21 -77q-20 -77 -36 -98q-33 -48 -103 -48q-49 0 -72 25t-23 62q0 19 10 69l61 255q7 30 11.5 45.5t14.5 37t22 31.5t32 18t47 8q31 0 52.5 -9t31 -24t13 -27t3.5 -25q0 -27 -22 -117h-77l5 21q17 74 17 85q0 31 -27 31q-17 0 -24.5 -15.5t-18.5 -60.5
l-57 -241q-14 -56 -14 -71q0 -12 7 -21.5t18 -9.5q19 0 27 15t25 77zM399 723l-155 -121h-55l101 121h109z" />
    <glyph glyph-name="Ccircumflex" unicode="&#x108;" horiz-adv-x="375" 
d="M391 466h-88l14 61q13 57 13 68q0 27 -14 36.5t-30 9.5q-10 0 -18.5 -4t-15 -12.5t-11 -16t-8.5 -22t-6.5 -23t-6 -25.5t-5.5 -24l-79 -330q-12 -48 -12 -69q0 -45 44 -45q15 0 23 4t19 24.5t22 62.5l29 109h91l-24 -100q-9 -39 -15 -59t-18.5 -47t-28.5 -40t-43 -23
t-63 -10q-57 0 -92 28.5t-35 84.5q0 42 22 134l67 280q8 33 12.5 49.5t14.5 44.5t21.5 42.5t28 30.5t40 23t52.5 7q21 0 39.5 -4t40 -14.5t34 -34t12.5 -58.5q0 -11 -1.5 -22.5t-3.5 -20t-6.5 -28t-7.5 -34.5zM440 773h-58l-41 65l-75 -65h-61l119 120h54z" />
    <glyph glyph-name="ccircumflex" unicode="&#x109;" horiz-adv-x="292" 
d="M193 214h80l-21 -77q-20 -77 -36 -98q-33 -48 -103 -48q-49 0 -72 25t-23 62q0 19 10 69l61 255q7 30 11.5 45.5t14.5 37t22 31.5t32 18t47 8q31 0 52.5 -9t31 -24t13 -27t3.5 -25q0 -27 -22 -117h-77l5 21q17 74 17 85q0 31 -27 31q-17 0 -24.5 -15.5t-18.5 -60.5
l-57 -241q-14 -56 -14 -71q0 -12 7 -21.5t18 -9.5q19 0 27 15t25 77zM352 603h-58l-41 65l-75 -65h-61l119 120h54z" />
    <glyph glyph-name="Cdotaccent" unicode="&#x10a;" horiz-adv-x="375" 
d="M391 466h-88l14 61q13 57 13 68q0 27 -14 36.5t-30 9.5q-10 0 -18.5 -4t-15 -12.5t-11 -16t-8.5 -22t-6.5 -23t-6 -25.5t-5.5 -24l-79 -330q-12 -48 -12 -69q0 -45 44 -45q15 0 23 4t19 24.5t22 62.5l29 109h91l-24 -100q-9 -39 -15 -59t-18.5 -47t-28.5 -40t-43 -23
t-63 -10q-57 0 -92 28.5t-35 84.5q0 42 22 134l67 280q8 33 12.5 49.5t14.5 44.5t21.5 42.5t28 30.5t40 23t52.5 7q21 0 39.5 -4t40 -14.5t34 -34t12.5 -58.5q0 -11 -1.5 -22.5t-3.5 -20t-6.5 -28t-7.5 -34.5zM383 893l-23 -99h-72l23 99h72z" />
    <glyph glyph-name="cdotaccent" unicode="&#x10b;" horiz-adv-x="292" 
d="M193 214h80l-21 -77q-20 -77 -36 -98q-33 -48 -103 -48q-49 0 -72 25t-23 62q0 19 10 69l61 255q7 30 11.5 45.5t14.5 37t22 31.5t32 18t47 8q31 0 52.5 -9t31 -24t13 -27t3.5 -25q0 -27 -22 -117h-77l5 21q17 74 17 85q0 31 -27 31q-17 0 -24.5 -15.5t-18.5 -60.5
l-57 -241q-14 -56 -14 -71q0 -12 7 -21.5t18 -9.5q19 0 27 15t25 77zM308 723l-23 -100h-72l23 100h72z" />
    <glyph glyph-name="Ccaron" unicode="&#x10c;" horiz-adv-x="375" 
d="M391 466h-88l14 61q13 57 13 68q0 27 -14 36.5t-30 9.5q-10 0 -18.5 -4t-15 -12.5t-11 -16t-8.5 -22t-6.5 -23t-6 -25.5t-5.5 -24l-79 -330q-12 -48 -12 -69q0 -45 44 -45q15 0 23 4t19 24.5t22 62.5l29 109h91l-24 -100q-9 -39 -15 -59t-18.5 -47t-28.5 -40t-43 -23
t-63 -10q-57 0 -92 28.5t-35 84.5q0 42 22 134l67 280q8 33 12.5 49.5t14.5 44.5t21.5 42.5t28 30.5t40 23t52.5 7q21 0 39.5 -4t40 -14.5t34 -34t12.5 -58.5q0 -11 -1.5 -22.5t-3.5 -20t-6.5 -28t-7.5 -34.5zM221 895h58l41 -65l75 65h61l-119 -120h-54z" />
    <glyph glyph-name="ccaron" unicode="&#x10d;" horiz-adv-x="292" 
d="M193 214h80l-21 -77q-20 -77 -36 -98q-33 -48 -103 -48q-49 0 -72 25t-23 62q0 19 10 69l61 255q7 30 11.5 45.5t14.5 37t22 31.5t32 18t47 8q31 0 52.5 -9t31 -24t13 -27t3.5 -25q0 -27 -22 -117h-77l5 21q17 74 17 85q0 31 -27 31q-17 0 -24.5 -15.5t-18.5 -60.5
l-57 -241q-14 -56 -14 -71q0 -12 7 -21.5t18 -9.5q19 0 27 15t25 77zM150 724h58l41 -65l75 65h61l-119 -120h-54z" />
    <glyph glyph-name="Dcaron" unicode="&#x10e;" horiz-adv-x="375" 
d="M164 706h139q68 0 92 -25t24 -68q0 -35 -15 -97l-85 -370q-21 -90 -52 -118t-107 -28h-159zM237 624l-125 -540h33q46 0 59.5 15t31.5 93l75 325q12 49 12 69q0 17 -8.5 26t-18 10.5t-25.5 1.5h-34zM200 895h58l41 -65l75 65h61l-119 -120h-54z" />
    <glyph glyph-name="dcaron" unicode="&#x10f;" horiz-adv-x="313" 
d="M389 706l-163 -706h-78l10 44q-9 -23 -29.5 -38t-45.5 -15q-30 0 -48 20.5t-18 57.5q0 24 9 65l69 295l7.5 30t10.5 29t17.5 28.5t25.5 17.5t37 8q46 0 70 -43l48 207h78zM182 146l53 232q10 40 10 55q0 35 -33 35q-29 0 -40 -47l-60 -256q-12 -50 -12 -68q0 -20 7 -28
t25 -8q15 0 24.5 12.5t13.5 26t12 46.5zM416 706h76l-11 -50q-10 -47 -31.5 -71t-68.5 -32l8 33q14 3 22.5 10t11.5 13.5t7 20.5h-31z" />
    <glyph glyph-name="Dcroat" unicode="&#x110;" horiz-adv-x="375" 
d="M164 706h126q24 0 39 -1t34 -6.5t30 -15t18.5 -28t7.5 -44.5q0 -35 -15 -95l-84 -364q-12 -53 -26 -84.5t-35.5 -46t-41.5 -18t-57 -3.5h-159l80 352h-30l15 64h30zM237 624l-49 -208h56l-15 -65h-56l-61 -267h29q50 0 63.5 15.5t28.5 79.5l78 338q12 51 12 69
q0 38 -48 38h-38z" />
    <glyph glyph-name="dcroat" unicode="&#x111;" horiz-adv-x="313" 
d="M359 576l-133 -576h-78l10 44q-9 -23 -29.5 -38t-45.5 -15q-30 0 -48 20.5t-18 57.5q0 24 9 65l69 295l7.5 30t10.5 29t17.5 28.5t25.5 17.5t37 8q46 0 70 -43l18 77h-74l16 68h73l15 62h78l-15 -62h42l-16 -68h-41zM182 146l53 232q10 40 10 55q0 35 -33 35
q-29 0 -40 -47l-60 -256q-12 -50 -12 -68q0 -20 7 -28t25 -8q15 0 24.5 12.5t13.5 26t12 46.5z" />
    <glyph glyph-name="Emacron" unicode="&#x112;" horiz-adv-x="313" 
d="M390 706l-19 -83h-133l-50 -216h122l-20 -84h-121l-55 -237h154l-20 -86h-248l163 706h227zM403 858l-14 -64h-203l14 64h203z" />
    <glyph glyph-name="emacron" unicode="&#x113;" horiz-adv-x="313" 
d="M293 246h-163l-25 -105q-10 -43 -10 -53q0 -31 35 -31q23 0 32.5 14t19.5 48l22 73h81l-27 -97q-29 -104 -136 -104q-59 0 -82 26.5t-23 63.5q0 19 9 59l61 255q9 38 16 58t21.5 44t39.5 34.5t62 10.5q47 0 78.5 -23.5t31.5 -69.5q0 -25 -10 -65zM147 315h81l18 77
q8 29 8 46q0 39 -35 39q-24 0 -33.5 -17.5t-22.5 -73.5zM372 687l-14 -64h-203l14 64h203z" />
    <glyph glyph-name="Ebreve" unicode="&#x114;" horiz-adv-x="313" 
d="M390 706l-19 -83h-133l-50 -216h122l-20 -84h-121l-55 -237h154l-20 -86h-248l163 706h227zM367 893h39l-3 -11q-28 -110 -123 -110q-12 0 -24.5 2.5t-29 10.5t-27 27.5t-10.5 47.5q0 22 3 33h33q5 -64 65 -64q58 0 77 64z" />
    <glyph glyph-name="ebreve" unicode="&#x115;" horiz-adv-x="313" 
d="M293 246h-163l-25 -105q-10 -43 -10 -53q0 -31 35 -31q23 0 32.5 14t19.5 48l22 73h81l-27 -97q-29 -104 -136 -104q-59 0 -82 26.5t-23 63.5q0 19 9 59l61 255q9 38 16 58t21.5 44t39.5 34.5t62 10.5q47 0 78.5 -23.5t31.5 -69.5q0 -25 -10 -65zM147 315h81l18 77
q8 29 8 46q0 39 -35 39q-24 0 -33.5 -17.5t-22.5 -73.5zM339 722h39l-3 -11q-28 -110 -123 -110q-18 0 -35.5 4t-37.5 25.5t-20 58.5q0 18 5 33h33q2 -29 19 -46.5t46 -17.5q20 0 34 6t23 18t12 19.5t8 20.5z" />
    <glyph glyph-name="Edotaccent" unicode="&#x116;" horiz-adv-x="313" 
d="M390 706l-19 -83h-133l-50 -216h122l-20 -84h-121l-55 -237h154l-20 -86h-248l163 706h227zM347 893l-23 -99h-72l23 99h72z" />
    <glyph glyph-name="edotaccent" unicode="&#x117;" horiz-adv-x="313" 
d="M293 246h-163l-25 -105q-10 -43 -10 -53q0 -31 35 -31q23 0 32.5 14t19.5 48l22 73h81l-27 -97q-29 -104 -136 -104q-59 0 -82 26.5t-23 63.5q0 19 9 59l61 255q9 38 16 58t21.5 44t39.5 34.5t62 10.5q47 0 78.5 -23.5t31.5 -69.5q0 -25 -10 -65zM147 315h81l18 77
q8 29 8 46q0 39 -35 39q-24 0 -33.5 -17.5t-22.5 -73.5zM308 723l-23 -100h-72l23 100h72z" />
    <glyph glyph-name="Eogonek" unicode="&#x118;" horiz-adv-x="313" 
d="M186 0h-186l163 706h227l-19 -83h-133l-50 -216h122l-20 -84h-121l-55 -237h154l-20 -86q-30 -10 -62.5 -37t-32.5 -52q0 -26 40 -26q13 0 23 4l-7 -29q-53 -16 -77 -16q-26 0 -45.5 13t-19.5 40q0 10 3 19.5t7 16.5t13 14.5t15 12t19 11.5t19 10t22 10t21 9z" />
    <glyph glyph-name="eogonek" unicode="&#x119;" horiz-adv-x="313" 
d="M293 246h-163l-25 -105q-10 -43 -10 -53q0 -31 35 -31q23 0 32.5 14t19.5 48l22 73h81l-27 -97q-20 -69 -81 -103q-75 -42 -75 -81q0 -26 40 -26q13 0 23 4l-7 -29q-53 -16 -77 -16q-26 0 -45.5 13t-19.5 40q0 31 26 52.5t73 41.5q-55 2 -76.5 28t-21.5 62q0 19 9 59
l61 255q9 38 16 58t21.5 44t39.5 34.5t62 10.5q47 0 78.5 -23.5t31.5 -69.5q0 -25 -10 -65zM147 315h81l18 77q8 29 8 46q0 39 -35 39q-24 0 -33.5 -17.5t-22.5 -73.5z" />
    <glyph glyph-name="Ecaron" unicode="&#x11a;" horiz-adv-x="313" 
d="M390 706l-19 -83h-133l-50 -216h122l-20 -84h-121l-55 -237h154l-20 -86h-248l163 706h227zM194 895h58l41 -65l75 65h61l-119 -120h-54z" />
    <glyph glyph-name="ecaron" unicode="&#x11b;" horiz-adv-x="313" 
d="M293 246h-163l-25 -105q-10 -43 -10 -53q0 -31 35 -31q23 0 32.5 14t19.5 48l22 73h81l-27 -97q-29 -104 -136 -104q-59 0 -82 26.5t-23 63.5q0 19 9 59l61 255q9 38 16 58t21.5 44t39.5 34.5t62 10.5q47 0 78.5 -23.5t31.5 -69.5q0 -25 -10 -65zM147 315h81l18 77
q8 29 8 46q0 39 -35 39q-24 0 -33.5 -17.5t-22.5 -73.5zM156 724h58l41 -65l75 65h61l-119 -120h-54z" />
    <glyph glyph-name="Gcircumflex" unicode="&#x11c;" horiz-adv-x="375" 
d="M386 484h-86l13 58q11 47 11 58q0 22 -13.5 32t-26.5 10q-8 0 -14.5 -2t-12 -7t-9.5 -10t-8 -14t-6.5 -15.5t-6 -18.5t-5 -19l-4.5 -21t-5 -21l-79 -330q-12 -48 -12 -69q0 -25 13 -35.5t29 -10.5q27 0 39 21.5t24 74.5l29 127h-59l19 82h153l-86 -374h-58l2 38l-9 -11
q-9 -11 -16 -17.5t-23.5 -13t-36.5 -6.5q-40 0 -75.5 29.5t-35.5 84.5q0 42 22 134l64 266q11 47 17.5 70t20.5 55.5t29.5 47.5t42 26.5t61.5 11.5q57 0 89.5 -27t32.5 -76q0 -19 -18 -101zM432 773h-58l-41 65l-75 -65h-61l119 120h54z" />
    <glyph glyph-name="gcircumflex" unicode="&#x11d;" horiz-adv-x="313" 
d="M348 533l-115 -501q-7 -31 -10.5 -43.5t-12 -38.5t-18 -38t-24.5 -27.5t-36 -21.5t-47 -6q-11 0 -23.5 2.5t-31 9.5t-30 25.5t-11.5 44.5q0 16 8 56h77q-7 -32 -7 -44q0 -13 8 -22t19 -9q21 0 30.5 15t17.5 49l23 99q-27 -44 -73 -44q-24 0 -45 18.5t-21 58.5
q0 36 17 103l42 168q26 103 49 130q21 25 53 25q50 0 72 -51l9 42h80zM192 205l37 157q12 45 12 67q0 17 -9.5 28t-22.5 11q-18 0 -28 -19t-22 -71l-38 -165q-12 -48 -12 -66q0 -34 32 -34q20 0 28.5 16.5t22.5 75.5zM362 603h-58l-41 65l-75 -65h-61l119 120h54z" />
    <glyph glyph-name="Gbreve" unicode="&#x11e;" horiz-adv-x="375" 
d="M386 484h-86l13 58q11 47 11 58q0 22 -13.5 32t-26.5 10q-8 0 -14.5 -2t-12 -7t-9.5 -10t-8 -14t-6.5 -15.5t-6 -18.5t-5 -19l-4.5 -21t-5 -21l-79 -330q-12 -48 -12 -69q0 -25 13 -35.5t29 -10.5q27 0 39 21.5t24 74.5l29 127h-59l19 82h153l-86 -374h-58l2 38l-9 -11
q-9 -11 -16 -17.5t-23.5 -13t-36.5 -6.5q-40 0 -75.5 29.5t-35.5 84.5q0 42 22 134l64 266q11 47 17.5 70t20.5 55.5t29.5 47.5t42 26.5t61.5 11.5q57 0 89.5 -27t32.5 -76q0 -19 -18 -101zM402 893h39l-3 -11q-28 -110 -123 -110q-12 0 -24.5 2.5t-29 10.5t-27 27.5
t-10.5 47.5q0 22 3 33h33q5 -64 65 -64q58 0 77 64z" />
    <glyph glyph-name="gbreve" unicode="&#x11f;" horiz-adv-x="313" 
d="M348 533l-115 -501q-7 -31 -10.5 -43.5t-12 -38.5t-18 -38t-24.5 -27.5t-36 -21.5t-47 -6q-11 0 -23.5 2.5t-31 9.5t-30 25.5t-11.5 44.5q0 16 8 56h77q-7 -32 -7 -44q0 -13 8 -22t19 -9q21 0 30.5 15t17.5 49l23 99q-27 -44 -73 -44q-24 0 -45 18.5t-21 58.5
q0 36 17 103l42 168q26 103 49 130q21 25 53 25q50 0 72 -51l9 42h80zM192 205l37 157q12 45 12 67q0 17 -9.5 28t-22.5 11q-18 0 -28 -19t-22 -71l-38 -165q-12 -48 -12 -66q0 -34 32 -34q20 0 28.5 16.5t22.5 75.5zM338 722h39l-3 -11q-28 -110 -123 -110q-18 0 -35.5 4
t-37.5 25.5t-20 58.5q0 18 5 33h33q2 -29 19 -46.5t46 -17.5q20 0 34 6t23 18t12 19.5t8 20.5z" />
    <glyph glyph-name="Gdotaccent" unicode="&#x120;" horiz-adv-x="375" 
d="M386 484h-86l13 58q11 47 11 58q0 22 -13.5 32t-26.5 10q-8 0 -14.5 -2t-12 -7t-9.5 -10t-8 -14t-6.5 -15.5t-6 -18.5t-5 -19l-4.5 -21t-5 -21l-79 -330q-12 -48 -12 -69q0 -25 13 -35.5t29 -10.5q27 0 39 21.5t24 74.5l29 127h-59l19 82h153l-86 -374h-58l2 38l-9 -11
q-9 -11 -16 -17.5t-23.5 -13t-36.5 -6.5q-40 0 -75.5 29.5t-35.5 84.5q0 42 22 134l64 266q11 47 17.5 70t20.5 55.5t29.5 47.5t42 26.5t61.5 11.5q57 0 89.5 -27t32.5 -76q0 -19 -18 -101zM380 893l-23 -99h-72l23 99h72z" />
    <glyph glyph-name="gdotaccent" unicode="&#x121;" horiz-adv-x="313" 
d="M348 533l-115 -501q-7 -31 -10.5 -43.5t-12 -38.5t-18 -38t-24.5 -27.5t-36 -21.5t-47 -6q-11 0 -23.5 2.5t-31 9.5t-30 25.5t-11.5 44.5q0 16 8 56h77q-7 -32 -7 -44q0 -13 8 -22t19 -9q21 0 30.5 15t17.5 49l23 99q-27 -44 -73 -44q-24 0 -45 18.5t-21 58.5
q0 36 17 103l42 168q26 103 49 130q21 25 53 25q50 0 72 -51l9 42h80zM192 205l37 157q12 45 12 67q0 17 -9.5 28t-22.5 11q-18 0 -28 -19t-22 -71l-38 -165q-12 -48 -12 -66q0 -34 32 -34q20 0 28.5 16.5t22.5 75.5zM309 723l-23 -100h-72l23 100h72z" />
    <glyph glyph-name="Gcommaaccent" unicode="&#x122;" horiz-adv-x="375" 
d="M386 484h-86l13 58q11 47 11 58q0 22 -13.5 32t-26.5 10q-8 0 -14.5 -2t-12 -7t-9.5 -10t-8 -14t-6.5 -15.5t-6 -18.5t-5 -19l-4.5 -21t-5 -21l-79 -330q-12 -48 -12 -69q0 -25 13 -35.5t29 -10.5q27 0 39 21.5t24 74.5l29 127h-59l19 82h153l-86 -374h-58l2 38l-9 -11
q-9 -11 -16 -17.5t-23.5 -13t-36.5 -6.5q-40 0 -75.5 29.5t-35.5 84.5q0 42 22 134l64 266q11 47 17.5 70t20.5 55.5t29.5 47.5t42 26.5t61.5 11.5q57 0 89.5 -27t32.5 -76q0 -19 -18 -101zM112 -30h68l-10 -44q-9 -38 -27 -55.5t-60 -23.5l6 25q29 8 35 33h-27z" />
    <glyph glyph-name="gcommaaccent" unicode="&#x123;" horiz-adv-x="313" 
d="M348 533l-115 -501q-7 -31 -10.5 -43.5t-12 -38.5t-18 -38t-24.5 -27.5t-36 -21.5t-47 -6q-11 0 -23.5 2.5t-31 9.5t-30 25.5t-11.5 44.5q0 16 8 56h77q-7 -32 -7 -44q0 -13 8 -22t19 -9q21 0 30.5 15t17.5 49l23 99q-27 -44 -73 -44q-24 0 -45 18.5t-21 58.5
q0 36 17 103l42 168q26 103 49 130q21 25 53 25q50 0 72 -51l9 42h80zM192 205l37 157q12 45 12 67q0 17 -9.5 28t-22.5 11q-18 0 -28 -19t-22 -71l-38 -165q-12 -48 -12 -66q0 -34 32 -34q20 0 28.5 16.5t22.5 75.5zM269 603h-68l10 44q9 38 27 55.5t60 23.5l-6 -25
q-29 -8 -35 -33h27z" />
    <glyph glyph-name="Hcircumflex" unicode="&#x124;" horiz-adv-x="375" 
d="M444 706l-163 -706h-94l78 327h-96l-76 -327h-92l163 706h92l-70 -298h97l70 298h91zM429 773h-58l-41 65l-75 -65h-61l119 120h54z" />
    <glyph glyph-name="hcircumflex" unicode="&#x125;" 
d="M79 0h-80l163 706h80l-48 -209q33 45 81 45q34 0 55 -19.5t21 -53.5q0 -19 -11 -64l-94 -405h-80l94 408q4 17 4 26q0 13 -9 24.5t-31 11.5q-21 0 -31.5 -13t-16.5 -38zM327 773h-58l-41 65l-75 -65h-61l119 120h54z" />
    <glyph glyph-name="Hbar" unicode="&#x126;" horiz-adv-x="375" 
d="M81 523l19 78h39l25 105h92l-25 -105h97l25 105h91l-25 -105h41l-18 -78h-41l-120 -523h-94l78 327h-96l-76 -327h-92l120 523h-40zM186 408h97l27 115h-97z" />
    <glyph glyph-name="hbar" unicode="&#x127;" 
d="M288 576h-76l-18 -79q33 45 81 45q34 0 55 -19.5t21 -53.5q0 -19 -11 -64l-94 -405h-80l94 408q4 17 4 26q0 13 -9 24.5t-31 11.5q-21 0 -31.5 -13t-16.5 -38l-97 -419h-80l133 576h-41l16 68h40l15 62h80l-15 -62h77z" />
    <glyph glyph-name="Itilde" unicode="&#x128;" horiz-adv-x="187" 
d="M257 706l-164 -706h-92l163 706h93zM317 874h32q-15 -87 -78 -87q-15 0 -52 15.5t-50 15.5q-23 0 -31 -31h-31q7 40 30 64t50 24q19 0 54 -15.5t48 -15.5q21 0 28 30z" />
    <glyph glyph-name="itilde" unicode="&#x129;" horiz-adv-x="167" 
d="M203 533l-124 -533h-80l123 533h81zM276 701h32q-14 -87 -78 -87q-16 0 -47 15.5t-44 15.5q-23 0 -31 -31h-31q7 40 30 64t50 24q19 0 49 -15.5t42 -15.5q21 0 28 30z" />
    <glyph glyph-name="uni012A" unicode="&#x12a;" horiz-adv-x="187" 
d="M257 706l-164 -706h-92l163 706h93zM335 858l-14 -64h-187l14 64h187z" />
    <glyph glyph-name="imacron" unicode="&#x12b;" horiz-adv-x="167" 
d="M203 533l-124 -533h-80l123 533h81zM291 687l-14 -64h-187l14 64h187z" />
    <glyph glyph-name="Ibreve" unicode="&#x12c;" horiz-adv-x="187" 
d="M257 706l-164 -706h-92l163 706h93zM306 893h39l-3 -11q-28 -110 -123 -110q-12 0 -24.5 2.5t-29 10.5t-27 27.5t-10.5 47.5q0 22 3 33h33q5 -64 65 -64q58 0 77 64z" />
    <glyph glyph-name="uni012D" unicode="&#x12d;" horiz-adv-x="167" 
d="M203 533l-124 -533h-80l123 533h81zM261 722h39l-3 -11q-28 -110 -123 -110q-18 0 -35.5 4t-37.5 25.5t-20 58.5q0 18 5 33h33q2 -29 19 -46.5t46 -17.5q20 0 34 6t23 18t12 19.5t8 20.5z" />
    <glyph glyph-name="Iogonek" unicode="&#x12e;" horiz-adv-x="187" 
d="M257 706l-164 -706q-29 -11 -60 -38t-31 -51q0 -26 40 -26q13 0 23 4l-7 -29q-53 -16 -77 -16q-26 0 -45.5 13t-19.5 40q0 19 9.5 34t30.5 28.5t36 21t43 19.5h-34l163 706h93z" />
    <glyph glyph-name="iogonek" unicode="&#x12f;" horiz-adv-x="167" 
d="M203 533l-124 -533q-29 -11 -60 -38t-31 -51q0 -26 40 -26q13 0 23 4l-7 -29q-53 -16 -77 -16q-26 0 -45.5 13t-19.5 40q0 10 3 19.5t7 16.5t13 14.5t15 12t19 11.5t19 10t22 10t21 9h-22l123 533h81zM241 706l-24 -106h-80l24 106h80z" />
    <glyph glyph-name="Idotaccent" unicode="&#x130;" horiz-adv-x="187" 
d="M257 706l-164 -706h-92l163 706h93zM289 893l-23 -99h-72l23 99h72z" />
    <glyph glyph-name="dotlessi" unicode="&#x131;" horiz-adv-x="167" 
d="M203 533l-124 -533h-80l123 533h81z" />
    <glyph glyph-name="IJ" unicode="&#x132;" horiz-adv-x="458" 
d="M257 706l-164 -706h-92l163 706h93zM528 706l-126 -559q-6 -28 -11 -45t-17 -41t-28 -37t-43.5 -23t-63.5 -10q-50 0 -95 17l24 74q34 -13 66 -13q33 0 50 23.5t30 82.5l119 531h95z" />
    <glyph glyph-name="ij" unicode="&#x133;" horiz-adv-x="334" 
d="M241 706l-24 -106h-80l24 106h80zM203 533l-124 -533h-80l123 533h81zM410 706l-25 -109h-81l26 109h80zM370 533l-128 -555q-5 -22 -8 -33t-12 -30.5t-20 -29.5t-30.5 -18.5t-45.5 -8.5q-24 0 -53 7l16 73q13 -5 24 -5q26 0 35 12.5t20 60.5l122 527h80z" />
    <glyph glyph-name="Jcircumflex" unicode="&#x134;" horiz-adv-x="271" 
d="M341 706l-126 -559q-6 -28 -11 -45t-17 -41t-28 -37t-43.5 -23t-63.5 -10q-50 0 -95 17l24 74q34 -13 66 -13q33 0 50 23.5t30 82.5l119 531h95zM417 773h-58l-41 65l-75 -65h-61l119 120h54z" />
    <glyph glyph-name="jcircumflex" unicode="&#x135;" horiz-adv-x="167" 
d="M203 533l-128 -555q-5 -22 -8 -33t-12 -30.5t-20 -29.5t-30.5 -18.5t-45.5 -8.5q-24 0 -53 7l16 73q12 -5 24 -5q26 0 35 12.5t20 60.5l122 527h80zM289 603h-55l-45 71l-81 -71h-55l120 120h54z" />
    <glyph glyph-name="Kcommaaccent" unicode="&#x136;" horiz-adv-x="354" 
d="M447 706l-191 -337l55 -369h-96l-43 341l-79 -341h-92l163 706h93l-78 -308l176 308h92zM109 -30h68l-10 -44q-9 -38 -27 -55.5t-60 -23.5l6 25q29 8 35 33h-27z" />
    <glyph glyph-name="kcommaaccent" unicode="&#x137;" horiz-adv-x="292" 
d="M364 533l-134 -190l20 -343h-76l-18 275l-19 -23l-58 -252h-80l163 706h80l-79 -350l112 177h89zM85 -30h68l-10 -44q-9 -38 -27 -55.5t-60 -23.5l6 25q29 8 35 33h-27z" />
    <glyph glyph-name="kgreenlandic" unicode="&#x138;" horiz-adv-x="292" 
d="M364 533l-134 -190l20 -343h-76l-18 275l-19 -23l-58 -252h-80l123 533h80l-39 -177l112 177h89z" />
    <glyph glyph-name="Lacute" unicode="&#x139;" horiz-adv-x="313" 
d="M270 84l-26 -84h-241l163 706h93l-143 -622h154zM398 893l-155 -120h-53l101 120h107z" />
    <glyph glyph-name="lacute" unicode="&#x13a;" horiz-adv-x="167" 
d="M240 706l-157 -706h-82l158 706h81zM390 893l-155 -120h-53l101 120h107z" />
    <glyph glyph-name="Lcommaaccent" unicode="&#x13b;" horiz-adv-x="313" 
d="M270 84l-26 -84h-241l163 706h93l-143 -622h154zM91 -30h68l-10 -44q-9 -38 -27 -55.5t-60 -23.5l6 25q29 8 35 33h-27z" />
    <glyph glyph-name="lcommaaccent" unicode="&#x13c;" horiz-adv-x="167" 
d="M240 706l-157 -706h-82l158 706h81zM0 -30h68l-10 -44q-9 -38 -27 -55.5t-60 -23.5l6 25q29 8 35 33h-27z" />
    <glyph glyph-name="Lcaron" unicode="&#x13d;" horiz-adv-x="313" 
d="M270 84l-26 -84h-241l163 706h93l-143 -622h154zM286 706h76l-11 -50q-10 -47 -31.5 -71t-68.5 -32l8 33q14 3 22.5 10t11.5 13.5t7 20.5h-31z" />
    <glyph glyph-name="lcaron" unicode="&#x13e;" horiz-adv-x="167" 
d="M240 706l-157 -706h-82l158 706h81zM267 706h76l-11 -50q-10 -47 -31.5 -71t-68.5 -32l8 33q14 3 22.5 10t11.5 13.5t7 20.5h-31z" />
    <glyph glyph-name="Ldot" unicode="&#x13f;" horiz-adv-x="313" 
d="M270 84l-26 -84h-241l163 706h93l-143 -622h154zM317 316h-89l28 121h89z" />
    <glyph glyph-name="ldot" unicode="&#x140;" horiz-adv-x="238" 
d="M240 706l-157 -706h-82l158 706h81zM271 308h-83l26 118h83z" />
    <glyph glyph-name="Lslash" unicode="&#x141;" horiz-adv-x="313" 
d="M316 568l-23 -90l-109 -97l-68 -297h154l-26 -84h-241l63 276l-45 -39l22 88l43 38l80 343h93l-55 -237z" />
    <glyph glyph-name="lslash" unicode="&#x142;" horiz-adv-x="167" 
d="M243 538l-18 -79l-55 -46l-91 -413h-82l73 328l-49 -44l19 79l47 41l68 302h81l-48 -215z" />
    <glyph glyph-name="Nacute" unicode="&#x143;" horiz-adv-x="396" 
d="M465 706l-167 -706h-96q-8 497 -8 527l-106 -527h-88l163 706h96l9 -525l113 525h84zM483 893l-155 -120h-53l101 120h107z" />
    <glyph glyph-name="nacute" unicode="&#x144;" 
d="M121 533h80l-7 -36q33 45 81 45q34 0 55 -19.5t21 -53.5q0 -14 -11 -64l-93 -405h-81l94 405q4 19 4 29q0 13 -9 24.5t-31 11.5q-21 0 -31.5 -13t-16.5 -38l-97 -419h-80zM412 723l-155 -121h-55l101 121h109z" />
    <glyph glyph-name="Ncommaaccent" unicode="&#x145;" horiz-adv-x="396" 
d="M465 706l-167 -706h-96q-8 497 -8 527l-106 -527h-88l163 706h96l9 -525l113 525h84zM118 -30h68l-10 -44q-9 -38 -27 -55.5t-60 -23.5l6 25q29 8 35 33h-27z" />
    <glyph glyph-name="ncommaaccent" unicode="&#x146;" 
d="M121 533h80l-7 -36q33 45 81 45q34 0 55 -19.5t21 -53.5q0 -14 -11 -64l-93 -405h-81l94 405q4 19 4 29q0 13 -9 24.5t-31 11.5q-21 0 -31.5 -13t-16.5 -38l-97 -419h-80zM83 -30h68l-10 -44q-9 -38 -27 -55.5t-60 -23.5l6 25q29 8 35 33h-27z" />
    <glyph glyph-name="Ncaron" unicode="&#x147;" horiz-adv-x="396" 
d="M465 706l-167 -706h-96q-8 497 -8 527l-106 -527h-88l163 706h96l9 -525l113 525h84zM237 895h58l41 -65l75 65h61l-119 -120h-54z" />
    <glyph glyph-name="ncaron" unicode="&#x148;" 
d="M121 533h80l-7 -36q33 45 81 45q34 0 55 -19.5t21 -53.5q0 -14 -11 -64l-93 -405h-81l94 405q4 19 4 29q0 13 -9 24.5t-31 11.5q-21 0 -31.5 -13t-16.5 -38l-97 -419h-80zM160 724h58l41 -65l75 65h61l-119 -120h-54z" />
    <glyph glyph-name="napostrophe" unicode="&#x149;" 
d="M121 533h80l-7 -36q33 45 81 45q34 0 55 -19.5t21 -53.5q0 -14 -11 -64l-93 -405h-81l94 405q4 19 4 29q0 13 -9 24.5t-31 11.5q-21 0 -31.5 -13t-16.5 -38l-97 -419h-80zM105 706h76l-11 -50q-10 -47 -31.5 -71t-68.5 -32l8 33q14 3 22.5 10t11.5 13.5t7 20.5h-31z" />
    <glyph glyph-name="Eng" unicode="&#x14a;" horiz-adv-x="396" 
d="M465 706l-175 -744q-18 -75 -42 -102.5t-87 -27.5q-19 0 -37 4l18 79q15 -4 29 -4q26 0 34 33l9 39q-20 514 -20 544l-106 -527h-88l163 706h96l14 -500l108 500h84z" />
    <glyph glyph-name="eng" unicode="&#x14b;" 
d="M79 0h-80l122 533h80l-7 -36q33 45 81 45q34 0 55 -19.5t21 -53.5q0 -14 -11 -64l-101 -442q-17 -77 -46 -102.5t-89 -25.5q-19 0 -31 4l16 72q15 -5 26 -5q17 0 25 8t13 31l107 460q4 19 4 29q0 13 -9 24.5t-31 11.5q-21 0 -31.5 -13t-16.5 -38z" />
    <glyph glyph-name="Omacron" unicode="&#x14c;" horiz-adv-x="396" 
d="M45 197l74 321q7 32 10.5 44t12 39t15.5 38.5t21 29.5t30 25.5t39 14t52 6.5q13 0 24.5 -1t33.5 -8t37.5 -19t27.5 -38.5t12 -62.5q0 -31 -15 -95l-68 -295q-9 -40 -16 -64t-21.5 -54.5t-32 -47t-46 -28t-66.5 -11.5q-54 0 -95 29t-41 94q0 30 12 83zM253 175l79 344
q11 47 11 66q0 26 -15.5 40t-38.5 14q-32 0 -45 -21.5t-28 -85.5l-77 -333q-13 -57 -13 -76q0 -26 14.5 -38.5t37.5 -12.5q25 0 41 17t21 33.5t13 52.5zM441 858l-14 -64h-203l14 64h203z" />
    <glyph glyph-name="omacron" unicode="&#x14d;" 
d="M336 390l-59 -260q-8 -34 -13 -50.5t-15 -37t-23 -29.5t-35 -15.5t-53 -6.5q-62 0 -89 26.5t-27 66.5q0 14 9 59l59 260q10 42 17 63t22 41t39 27.5t62 7.5q62 0 88.5 -27t26.5 -65q0 -17 -9 -60zM200 135l54 243q11 51 11 61q0 16 -10.5 28t-32.5 12q-7 0 -12 -1
t-9.5 -3.5t-7.5 -5t-6 -8t-4.5 -8.5t-4 -11.5t-3.5 -12.5t-3.5 -15t-3.5 -16l-55 -243q-11 -51 -11 -61q0 -40 44 -40q24 0 34 17t20 64zM369 687l-14 -64h-203l14 64h203z" />
    <glyph glyph-name="Obreve" unicode="&#x14e;" horiz-adv-x="396" 
d="M45 197l74 321q7 32 10.5 44t12 39t15.5 38.5t21 29.5t30 25.5t39 14t52 6.5q13 0 24.5 -1t33.5 -8t37.5 -19t27.5 -38.5t12 -62.5q0 -31 -15 -95l-68 -295q-9 -40 -16 -64t-21.5 -54.5t-32 -47t-46 -28t-66.5 -11.5q-54 0 -95 29t-41 94q0 30 12 83zM253 175l79 344
q11 47 11 66q0 26 -15.5 40t-38.5 14q-32 0 -45 -21.5t-28 -85.5l-77 -333q-13 -57 -13 -76q0 -26 14.5 -38.5t37.5 -12.5q25 0 41 17t21 33.5t13 52.5zM411 893h39l-3 -11q-28 -110 -123 -110q-12 0 -24.5 2.5t-29 10.5t-27 27.5t-10.5 47.5q0 22 3 33h33q5 -64 65 -64
q58 0 77 64z" />
    <glyph glyph-name="obreve" unicode="&#x14f;" 
d="M336 390l-59 -260q-8 -34 -13 -50.5t-15 -37t-23 -29.5t-35 -15.5t-53 -6.5q-62 0 -89 26.5t-27 66.5q0 14 9 59l59 260q10 42 17 63t22 41t39 27.5t62 7.5q62 0 88.5 -27t26.5 -65q0 -17 -9 -60zM200 135l54 243q11 51 11 61q0 16 -10.5 28t-32.5 12q-7 0 -12 -1
t-9.5 -3.5t-7.5 -5t-6 -8t-4.5 -8.5t-4 -11.5t-3.5 -12.5t-3.5 -15t-3.5 -16l-55 -243q-11 -51 -11 -61q0 -40 44 -40q24 0 34 17t20 64zM343 722h39l-3 -11q-28 -110 -123 -110q-18 0 -35.5 4t-37.5 25.5t-20 58.5q0 18 5 33h33q2 -29 19 -46.5t46 -17.5q20 0 34 6t23 18
t12 19.5t8 20.5z" />
    <glyph glyph-name="Ohungarumlaut" unicode="&#x150;" horiz-adv-x="396" 
d="M45 197l74 321q7 32 10.5 44t12 39t15.5 38.5t21 29.5t30 25.5t39 14t52 6.5q13 0 24.5 -1t33.5 -8t37.5 -19t27.5 -38.5t12 -62.5q0 -31 -15 -95l-68 -295q-9 -40 -16 -64t-21.5 -54.5t-32 -47t-46 -28t-66.5 -11.5q-54 0 -95 29t-41 94q0 30 12 83zM253 175l79 344
q11 47 11 66q0 26 -15.5 40t-38.5 14q-32 0 -45 -21.5t-28 -85.5l-77 -333q-13 -57 -13 -76q0 -26 14.5 -38.5t37.5 -12.5q25 0 41 17t21 33.5t13 52.5zM420 893l-155 -120h-43l100 120h98zM561 893l-155 -120h-43l100 120h98z" />
    <glyph glyph-name="ohungarumlaut" unicode="&#x151;" 
d="M336 390l-59 -260q-8 -34 -13 -50.5t-15 -37t-23 -29.5t-35 -15.5t-53 -6.5q-62 0 -89 26.5t-27 66.5q0 14 9 59l59 260q10 42 17 63t22 41t39 27.5t62 7.5q62 0 88.5 -27t26.5 -65q0 -17 -9 -60zM200 135l54 243q11 51 11 61q0 16 -10.5 28t-32.5 12q-7 0 -12 -1
t-9.5 -3.5t-7.5 -5t-6 -8t-4.5 -8.5t-4 -11.5t-3.5 -12.5t-3.5 -15t-3.5 -16l-55 -243q-11 -51 -11 -61q0 -40 44 -40q24 0 34 17t20 64zM499 723l-155 -121h-45l100 121h100zM358 723l-155 -121h-45l100 121h100z" />
    <glyph glyph-name="OE" unicode="&#x152;" horiz-adv-x="521" 
d="M580 706l-20 -83h-132l-49 -216h120l-20 -84h-120l-55 -237h153l-21 -86h-214q-30 -10 -65 -10q-18 0 -36.5 4.5t-39.5 16t-34 35.5t-13 57q0 47 21 135l71 307q6 27 11 43.5t17.5 43.5t27.5 42.5t41.5 28t60.5 12.5q33 0 60 -9h236zM235 177l76 341q14 66 14 75
q0 26 -12.5 37t-29.5 11q-22 0 -36 -20t-26 -72l-84 -365q-12 -51 -12 -69q0 -25 13 -35.5t29 -10.5q21 0 35 17.5t19.5 36t13.5 54.5z" />
    <glyph glyph-name="oe" unicode="&#x153;" horiz-adv-x="500" 
d="M306 251l-24 -104q-11 -48 -11 -54q0 -15 9.5 -24t17 -10.5t14.5 -1.5q27 0 37.5 18t28.5 81l12 41h79l-18 -69q-8 -32 -15.5 -50.5t-24.5 -41.5t-46.5 -34t-72.5 -11q-59 0 -79 32q-36 -33 -85 -33q-47 0 -76.5 24t-29.5 71q0 25 8 58l60 261q5 20 7 29t8 27t12 26.5
t16.5 21.5t23.5 19t31.5 10.5t41.5 4.5q69 0 97 -30q26 29 82 29q47 0 77.5 -22.5t30.5 -67.5q0 -22 -9 -62l-32 -138h-170zM200 138l57 249q9 41 9 49q0 22 -13 31.5t-27 9.5q-26 0 -36 -15t-20 -57l-61 -263q-8 -35 -8 -48q0 -15 10.5 -24t18.5 -10.5t15 -1.5q8 0 14 1.5
t10.5 3.5t8.5 7t6 8.5t4.5 12t3.5 13t4 16.5t4 18zM321 318h93l16 70q8 36 8 54q0 35 -41 35q-26 0 -35.5 -15t-21.5 -65z" />
    <glyph glyph-name="Racute" unicode="&#x154;" horiz-adv-x="375" 
d="M164 706h153q13 0 26 -2t33 -9.5t32.5 -27.5t12.5 -50q0 -23 -8 -55l-21 -91q-15 -65 -35 -86q-23 -25 -73 -25q62 -24 62 -83q0 -12 -7 -47l-15 -65q-20 -88 -20 -165h-95q0 70 18 158l11 53q10 50 10 59q0 18 -6 30t-17 17t-20.5 6.5t-22.5 1.5h-14l-75 -325h-92z
M237 623l-51 -220h17q56 0 73.5 13t29.5 66l14 60q7 32 7 47q0 23 -14.5 28.5t-40.5 5.5h-35zM473 893l-155 -120h-53l101 120h107z" />
    <glyph glyph-name="racute" unicode="&#x155;" horiz-adv-x="229" 
d="M114 533h80l-21 -92q24 59 50 79.5t63 20.5l15 -1l-21 -94q-18 11 -39 11q-31 0 -52.5 -23t-36.5 -88l-81 -346h-80zM351 723l-155 -121h-55l101 121h109z" />
    <glyph glyph-name="Rcommaaccent" unicode="&#x156;" horiz-adv-x="375" 
d="M164 706h153q13 0 26 -2t33 -9.5t32.5 -27.5t12.5 -50q0 -23 -8 -55l-21 -91q-15 -65 -35 -86q-23 -25 -73 -25q62 -24 62 -83q0 -12 -7 -47l-15 -65q-20 -88 -20 -165h-95q0 70 18 158l11 53q10 50 10 59q0 18 -6 30t-17 17t-20.5 6.5t-22.5 1.5h-14l-75 -325h-92z
M237 623l-51 -220h17q56 0 73.5 13t29.5 66l14 60q7 32 7 47q0 23 -14.5 28.5t-40.5 5.5h-35zM116 -30h68l-10 -44q-9 -38 -27 -55.5t-60 -23.5l6 25q29 8 35 33h-27z" />
    <glyph glyph-name="rcommaaccent" unicode="&#x157;" horiz-adv-x="229" 
d="M114 533h80l-21 -92q24 59 50 79.5t63 20.5l15 -1l-21 -94q-18 11 -39 11q-31 0 -52.5 -23t-36.5 -88l-81 -346h-80zM-6 -30h68l-10 -44q-9 -38 -27 -55.5t-60 -23.5l6 25q29 8 35 33h-27z" />
    <glyph glyph-name="Rcaron" unicode="&#x158;" horiz-adv-x="375" 
d="M164 706h153q13 0 26 -2t33 -9.5t32.5 -27.5t12.5 -50q0 -23 -8 -55l-21 -91q-15 -65 -35 -86q-23 -25 -73 -25q62 -24 62 -83q0 -12 -7 -47l-15 -65q-20 -88 -20 -165h-95q0 70 18 158l11 53q10 50 10 59q0 18 -6 30t-17 17t-20.5 6.5t-22.5 1.5h-14l-75 -325h-92z
M237 623l-51 -220h17q56 0 73.5 13t29.5 66l14 60q7 32 7 47q0 23 -14.5 28.5t-40.5 5.5h-35zM201 895h58l41 -65l75 65h61l-119 -120h-54z" />
    <glyph glyph-name="rcaron" unicode="&#x159;" horiz-adv-x="229" 
d="M114 533h80l-21 -92q24 59 50 79.5t63 20.5l15 -1l-21 -94q-18 11 -39 11q-31 0 -52.5 -23t-36.5 -88l-81 -346h-80zM118 724h58l41 -65l75 65h61l-119 -120h-54z" />
    <glyph glyph-name="Sacute" unicode="&#x15a;" 
d="M358 470h-83l22 95q7 29 7 40q0 37 -36 37q-20 0 -29.5 -12t-19.5 -45q-16 -55 -16 -87q0 -12 4 -25.5t7.5 -20.5t12.5 -23t11 -20q5 -8 14.5 -25t12.5 -23t10 -19t9 -18t6.5 -15t5.5 -15.5t3 -14.5t2.5 -16.5t0.5 -16.5q0 -39 -16.5 -111.5t-49.5 -104.5
q-41 -39 -104 -39q-60 0 -89 27.5t-29 76.5q0 23 10 67l21 94h84l-24 -106q-7 -35 -7 -43q0 -43 41 -43q32 0 45 40q8 23 16.5 67.5t8.5 66.5q0 20 -7.5 37.5t-29.5 54.5q-3 5 -13.5 22t-14.5 24t-12 22.5t-11 25.5t-6 24.5t-3 27.5q0 40 18 115q29 124 145 124
q62 0 87.5 -27.5t25.5 -66.5q0 -17 -8 -53zM462 893l-155 -120h-53l101 120h107z" />
    <glyph glyph-name="sacute" unicode="&#x15b;" horiz-adv-x="292" 
d="M304 371h-74l5 24q6 30 6 39q0 37 -34 37q-28 0 -38 -29q-14 -36 -14 -66q0 -19 16.5 -40t37 -37t37 -41t16.5 -52q0 -47 -16 -104q-7 -25 -14 -41t-20.5 -34t-37 -27t-56.5 -9q-14 0 -29 3t-35.5 12t-33.5 31t-13 55q0 28 19 104h75l-11 -49q-7 -35 -7 -46q0 -22 12 -31
t27 -9q18 0 30.5 14.5t18 36t8 38.5t2.5 31q0 24 -26 51t-52 57.5t-26 63.5q0 27 14 86q11 49 36 76t79 27q60 0 86 -27t26 -66q0 -17 -9 -58zM391 723l-155 -121h-55l101 121h109z" />
    <glyph glyph-name="Scircumflex" unicode="&#x15c;" 
d="M358 470h-83l22 95q7 29 7 40q0 37 -36 37q-20 0 -29.5 -12t-19.5 -45q-16 -55 -16 -87q0 -12 4 -25.5t7.5 -20.5t12.5 -23t11 -20q5 -8 14.5 -25t12.5 -23t10 -19t9 -18t6.5 -15t5.5 -15.5t3 -14.5t2.5 -16.5t0.5 -16.5q0 -39 -16.5 -111.5t-49.5 -104.5
q-41 -39 -104 -39q-60 0 -89 27.5t-29 76.5q0 23 10 67l21 94h84l-24 -106q-7 -35 -7 -43q0 -43 41 -43q32 0 45 40q8 23 16.5 67.5t8.5 66.5q0 20 -7.5 37.5t-29.5 54.5q-3 5 -13.5 22t-14.5 24t-12 22.5t-11 25.5t-6 24.5t-3 27.5q0 40 18 115q29 124 145 124
q62 0 87.5 -27.5t25.5 -66.5q0 -17 -8 -53zM416 773h-58l-41 65l-75 -65h-61l119 120h54z" />
    <glyph glyph-name="scircumflex" unicode="&#x15d;" horiz-adv-x="292" 
d="M304 371h-74l5 24q6 30 6 39q0 37 -34 37q-28 0 -38 -29q-14 -36 -14 -66q0 -19 16.5 -40t37 -37t37 -41t16.5 -52q0 -47 -16 -104q-7 -25 -14 -41t-20.5 -34t-37 -27t-56.5 -9q-14 0 -29 3t-35.5 12t-33.5 31t-13 55q0 28 19 104h75l-11 -49q-7 -35 -7 -46q0 -22 12 -31
t27 -9q18 0 30.5 14.5t18 36t8 38.5t2.5 31q0 24 -26 51t-52 57.5t-26 63.5q0 27 14 86q11 49 36 76t79 27q60 0 86 -27t26 -66q0 -17 -9 -58zM345 603h-58l-41 65l-75 -65h-61l119 120h54z" />
    <glyph glyph-name="Scedilla" unicode="&#x15e;" 
d="M358 470h-83l22 95q7 29 7 40q0 37 -36 37q-20 0 -29.5 -12t-19.5 -45q-16 -55 -16 -87q0 -12 4 -25.5t7.5 -20.5t12.5 -23t11 -20q5 -8 14.5 -25t12.5 -23t10 -19t9 -18t6.5 -15t5.5 -15.5t3 -14.5t2.5 -16.5t0.5 -16.5q0 -39 -16.5 -111.5t-49.5 -104.5
q-39 -37 -98 -39l-24 -29q13 1 18 1q23 0 38.5 -13t15.5 -36q0 -32 -36 -58.5t-95 -26.5q-32 0 -61 8l6 26q10 -5 37 -5q19 0 40 9.5t21 29.5q0 26 -45 26q-8 0 -23 -3l63 75q-79 16 -79 100q0 23 10 67l21 94h84l-24 -106q-7 -35 -7 -43q0 -43 41 -43q32 0 45 40
q8 23 16.5 67.5t8.5 66.5q0 20 -7.5 37.5t-29.5 54.5q-3 5 -13.5 22t-14.5 24t-12 22.5t-11 25.5t-6 24.5t-3 27.5q0 40 18 115q29 124 145 124q62 0 87.5 -27.5t25.5 -66.5q0 -17 -8 -53z" />
    <glyph glyph-name="scedilla" unicode="&#x15f;" horiz-adv-x="292" 
d="M304 371h-74l5 24q6 30 6 39q0 37 -34 37q-28 0 -38 -29q-14 -36 -14 -66q0 -19 16.5 -40t37 -37t37 -41t16.5 -52q0 -47 -16 -104q-7 -24 -14 -40t-20.5 -34t-36 -27t-53.5 -10l-24 -29q13 1 18 1q23 0 38.5 -13t15.5 -36q0 -32 -36 -58.5t-95 -26.5q-32 0 -61 8l6 26
q10 -5 37 -5q19 0 40 9.5t21 29.5q0 26 -45 26q-8 0 -23 -3l64 76q-71 19 -71 96q0 28 19 104h75l-11 -49q-7 -35 -7 -46q0 -22 12 -31t27 -9q18 0 30.5 14.5t18 36t8 38.5t2.5 31q0 24 -26 51t-52 57.5t-26 63.5q0 27 14 86q11 49 36 76t79 27q60 0 86 -27t26 -66
q0 -17 -9 -58z" />
    <glyph glyph-name="Scaron" unicode="&#x160;" 
d="M358 470h-83l22 95q7 29 7 40q0 37 -36 37q-20 0 -29.5 -12t-19.5 -45q-16 -55 -16 -87q0 -12 4 -25.5t7.5 -20.5t12.5 -23t11 -20q5 -8 14.5 -25t12.5 -23t10 -19t9 -18t6.5 -15t5.5 -15.5t3 -14.5t2.5 -16.5t0.5 -16.5q0 -39 -16.5 -111.5t-49.5 -104.5
q-41 -39 -104 -39q-60 0 -89 27.5t-29 76.5q0 23 10 67l21 94h84l-24 -106q-7 -35 -7 -43q0 -43 41 -43q32 0 45 40q8 23 16.5 67.5t8.5 66.5q0 20 -7.5 37.5t-29.5 54.5q-3 5 -13.5 22t-14.5 24t-12 22.5t-11 25.5t-6 24.5t-3 27.5q0 40 18 115q29 124 145 124
q62 0 87.5 -27.5t25.5 -66.5q0 -17 -8 -53zM207 895h58l41 -65l75 65h61l-119 -120h-54z" />
    <glyph glyph-name="scaron" unicode="&#x161;" horiz-adv-x="292" 
d="M304 371h-74l5 24q6 30 6 39q0 37 -34 37q-28 0 -38 -29q-14 -36 -14 -66q0 -19 16.5 -40t37 -37t37 -41t16.5 -52q0 -47 -16 -104q-7 -25 -14 -41t-20.5 -34t-37 -27t-56.5 -9q-14 0 -29 3t-35.5 12t-33.5 31t-13 55q0 28 19 104h75l-11 -49q-7 -35 -7 -46q0 -22 12 -31
t27 -9q18 0 30.5 14.5t18 36t8 38.5t2.5 31q0 24 -26 51t-52 57.5t-26 63.5q0 27 14 86q11 49 36 76t79 27q60 0 86 -27t26 -66q0 -17 -9 -58zM149 724h58l41 -65l75 65h61l-119 -120h-54z" />
    <glyph glyph-name="Tcommaaccent" unicode="&#x162;" horiz-adv-x="313" 
d="M429 706l-25 -84h-103l-143 -622h-96l143 622h-106l26 84h304zM70 -30h68l-10 -44q-9 -38 -27 -55.5t-60 -23.5l6 25q29 8 35 33h-27z" />
    <glyph glyph-name="tcommaaccent" unicode="&#x163;" horiz-adv-x="167" 
d="M256 533l-16 -65h-51l-90 -368q-3 -13 -3 -20q0 -21 21 -21q13 0 34 13l-18 -69q-30 -12 -57 -12q-31 0 -48.5 16.5t-17.5 45.5q0 10 4 26l94 389h-46l17 65h45l19 76l91 37l-29 -113h51zM16 -30h68l-10 -44q-9 -38 -27 -55.5t-60 -23.5l6 25q29 8 35 33h-27z" />
    <glyph glyph-name="Tcaron" unicode="&#x164;" horiz-adv-x="313" 
d="M429 706l-25 -84h-103l-143 -622h-96l143 622h-106l26 84h304zM188 895h58l41 -65l75 65h61l-119 -120h-54z" />
    <glyph glyph-name="tcaron" unicode="&#x165;" horiz-adv-x="167" 
d="M256 533l-16 -65h-51l-90 -368q-3 -13 -3 -20q0 -21 21 -21q13 0 34 13l-18 -69q-30 -12 -57 -12q-31 0 -48.5 16.5t-17.5 45.5q0 10 4 26l94 389h-46l17 65h45l19 76l91 37l-29 -113h51zM273 706h76l-11 -50q-10 -47 -31.5 -71t-68.5 -32l8 33q14 3 22.5 10t11.5 13.5
t7 20.5h-31z" />
    <glyph glyph-name="Tbar" unicode="&#x166;" horiz-adv-x="313" 
d="M85 443l20 78h77l23 101h-106l26 84h304l-25 -84h-103l-23 -101h78l-18 -78h-78l-102 -443h-96l102 443h-79z" />
    <glyph glyph-name="tbar" unicode="&#x167;" horiz-adv-x="167" 
d="M46 374h39l23 94h-46l17 65h45l19 76l91 37l-29 -113h51l-16 -65h-51l-23 -94h48l-16 -65h-48l-51 -209q-3 -13 -3 -20q0 -21 21 -21q13 0 34 13l-18 -69q-30 -12 -57 -12q-31 0 -48.5 16.5t-17.5 45.5q0 10 4 26l55 230h-40z" />
    <glyph glyph-name="Utilde" unicode="&#x168;" horiz-adv-x="375" 
d="M448 706l-134 -579q-4 -19 -7.5 -30.5t-15.5 -34t-27.5 -36t-45 -24.5t-67.5 -11q-56 0 -91 28.5t-35 83.5q0 27 5 48l129 555h94l-131 -567q-3 -16 -3 -25q0 -8 2.5 -17.5t13.5 -19t28 -9.5q44 0 62 79l129 559h94zM419 874h32q-15 -87 -78 -87q-15 0 -52 15.5t-50 15.5
q-23 0 -31 -31h-31q7 40 30 64t50 24q18 0 53.5 -15.5t48.5 -15.5q21 0 28 30z" />
    <glyph glyph-name="utilde" unicode="&#x169;" 
d="M289 533h80l-122 -533h-80l7 36q-31 -45 -81 -45q-34 0 -55 19.5t-21 53.5q0 17 12 69l92 400h81l-95 -408q-3 -13 -3 -26t8.5 -24.5t30.5 -11.5q38 0 49 51zM360 701h32q-14 -87 -78 -87q-16 0 -47 15.5t-44 15.5q-23 0 -31 -31h-31q7 40 30 64t50 24q19 0 49 -15.5
t42 -15.5q21 0 28 30z" />
    <glyph glyph-name="Umacron" unicode="&#x16a;" horiz-adv-x="375" 
d="M448 706l-134 -579q-4 -19 -7.5 -30.5t-15.5 -34t-27.5 -36t-45 -24.5t-67.5 -11q-56 0 -91 28.5t-35 83.5q0 27 5 48l129 555h94l-131 -567q-3 -16 -3 -25q0 -8 2.5 -17.5t13.5 -19t28 -9.5q44 0 62 79l129 559h94zM439 858l-14 -64h-203l14 64h203z" />
    <glyph glyph-name="umacron" unicode="&#x16b;" 
d="M289 533h80l-122 -533h-80l7 36q-31 -45 -81 -45q-34 0 -55 19.5t-21 53.5q0 17 12 69l92 400h81l-95 -408q-3 -13 -3 -26t8.5 -24.5t30.5 -11.5q38 0 49 51zM382 687l-14 -64h-203l14 64h203z" />
    <glyph glyph-name="Ubreve" unicode="&#x16c;" horiz-adv-x="375" 
d="M448 706l-134 -579q-4 -19 -7.5 -30.5t-15.5 -34t-27.5 -36t-45 -24.5t-67.5 -11q-56 0 -91 28.5t-35 83.5q0 27 5 48l129 555h94l-131 -567q-3 -16 -3 -25q0 -8 2.5 -17.5t13.5 -19t28 -9.5q44 0 62 79l129 559h94zM404 893h39l-3 -11q-28 -110 -123 -110
q-12 0 -24.5 2.5t-29 10.5t-27 27.5t-10.5 47.5q0 22 3 33h33q5 -64 65 -64q58 0 77 64z" />
    <glyph glyph-name="ubreve" unicode="&#x16d;" 
d="M289 533h80l-122 -533h-80l7 36q-31 -45 -81 -45q-34 0 -55 19.5t-21 53.5q0 17 12 69l92 400h81l-95 -408q-3 -13 -3 -26t8.5 -24.5t30.5 -11.5q38 0 49 51zM352 722h39l-3 -11q-28 -110 -123 -110q-18 0 -35.5 4t-37.5 25.5t-20 58.5q0 18 5 33h33q2 -29 19 -46.5
t46 -17.5q20 0 34 6t23 18t12 19.5t8 20.5z" />
    <glyph glyph-name="Uring" unicode="&#x16e;" horiz-adv-x="375" 
d="M448 706l-134 -579q-4 -19 -7.5 -30.5t-15.5 -34t-27.5 -36t-45 -24.5t-67.5 -11q-56 0 -91 28.5t-35 83.5q0 27 5 48l129 555h94l-131 -567q-3 -16 -3 -25q0 -8 2.5 -17.5t13.5 -19t28 -9.5q44 0 62 79l129 559h94zM402 836q0 -31 -22.5 -53t-52.5 -22q-31 0 -53 21.5
t-22 53.5q0 31 22 53t53 22t53 -22.5t22 -52.5zM368 836q0 18 -12 29.5t-29 11.5q-18 0 -29.5 -12t-11.5 -29q0 -18 12 -29.5t29 -11.5q18 0 29.5 12t11.5 29z" />
    <glyph glyph-name="uring" unicode="&#x16f;" 
d="M289 533h80l-122 -533h-80l7 36q-31 -45 -81 -45q-34 0 -55 19.5t-21 53.5q0 17 12 69l92 400h81l-95 -408q-3 -13 -3 -26t8.5 -24.5t30.5 -11.5q38 0 49 51zM348 669q0 -31 -22.5 -53t-52.5 -22q-31 0 -53 22t-22 53t22 53t53 22t53 -22.5t22 -52.5zM313 669
q0 18 -11.5 29.5t-28.5 11.5q-18 0 -29 -12t-11 -29q0 -18 11.5 -29.5t28.5 -11.5q18 0 29 11.5t11 29.5z" />
    <glyph glyph-name="Uhungarumlaut" unicode="&#x170;" horiz-adv-x="375" 
d="M448 706l-134 -579q-4 -19 -7.5 -30.5t-15.5 -34t-27.5 -36t-45 -24.5t-67.5 -11q-56 0 -91 28.5t-35 83.5q0 27 5 48l129 555h94l-131 -567q-3 -16 -3 -25q0 -8 2.5 -17.5t13.5 -19t28 -9.5q44 0 62 79l129 559h94zM409 893l-155 -120h-43l100 120h98zM550 893
l-155 -120h-43l100 120h98z" />
    <glyph glyph-name="uhungarumlaut" unicode="&#x171;" 
d="M289 533h80l-122 -533h-80l7 36q-31 -45 -81 -45q-34 0 -55 19.5t-21 53.5q0 17 12 69l92 400h81l-95 -408q-3 -13 -3 -26t8.5 -24.5t30.5 -11.5q38 0 49 51zM487 723l-155 -121h-45l100 121h100zM346 723l-155 -121h-45l100 121h100z" />
    <glyph glyph-name="Uogonek" unicode="&#x172;" horiz-adv-x="375" 
d="M448 706l-134 -579q-21 -100 -97 -126q-29 -10 -62.5 -38t-33.5 -52q0 -26 40 -26q13 0 23 4l-7 -29q-53 -16 -77 -16q-26 0 -45.5 13t-19.5 40q0 18 7.5 32t24.5 26t30 19t38 18q-50 4 -80 32.5t-30 78.5q0 27 5 48l129 555h94l-131 -567q-3 -16 -3 -25q0 -8 2.5 -17.5
t13.5 -19t28 -9.5q44 0 62 79l129 559h94z" />
    <glyph glyph-name="uogonek" unicode="&#x173;" 
d="M289 533h80l-122 -533q-30 -11 -61.5 -38t-31.5 -51q0 -26 40 -26q13 0 23 4l-7 -29q-53 -16 -77 -16q-26 0 -45.5 13t-19.5 40q0 19 9.5 34.5t30.5 28.5t36 20.5t44 19.5h-21l7 36q-31 -45 -81 -45q-34 0 -55 19.5t-21 53.5q0 17 12 69l92 400h81l-95 -408
q-3 -13 -3 -26t8.5 -24.5t30.5 -11.5q38 0 49 51z" />
    <glyph glyph-name="Wcircumflex" unicode="&#x174;" horiz-adv-x="479" 
d="M594 706l-248 -706h-107l66 508l-167 -508h-106l85 706h94l-87 -566l183 566h89l-78 -566l180 566h96zM477 773h-58l-41 65l-75 -65h-61l119 120h54z" />
    <glyph glyph-name="wcircumflex" unicode="&#x175;" horiz-adv-x="396" 
d="M465 533l-184 -533h-97l49 338l-117 -338h-93l67 533h78l-70 -421l151 421h58l-52 -421l131 421h79zM405 603h-58l-41 65l-75 -65h-61l119 120h54z" />
    <glyph glyph-name="Ycircumflex" unicode="&#x176;" 
d="M452 706l-218 -410l-71 -296h-96l65 296l-14 410h92l-3 -301l144 301h101zM411 773h-58l-41 65l-75 -65h-61l119 120h54z" />
    <glyph glyph-name="ycircumflex" unicode="&#x177;" horiz-adv-x="271" 
d="M265 533h88l-230 -570q-10 -24 -17 -38t-21 -32t-35.5 -27t-49.5 -9q-24 0 -54 7l17 74q12 -6 34 -6q15 0 24 5.5t13.5 20.5t6 26t3.5 37l36 512h84l-47 -418zM344 603h-58l-41 65l-75 -65h-61l119 120h54z" />
    <glyph glyph-name="Ydieresis" unicode="&#x178;" 
d="M452 706l-218 -410l-71 -296h-96l65 296l-14 410h92l-3 -301l144 301h101zM426 893l-23 -99h-73l22 99h74zM295 893l-23 -99h-72l23 99h72z" />
    <glyph glyph-name="Zacute" unicode="&#x179;" horiz-adv-x="313" 
d="M404 706l-12 -55l-300 -567h168l-20 -84h-271l13 62l299 564h-138l19 80h242zM453 893l-155 -120h-53l101 120h107z" />
    <glyph glyph-name="zacute" unicode="&#x17a;" horiz-adv-x="292" 
d="M350 533l-17 -69l-255 -399h166l-17 -65h-253l14 59l258 409h-144l17 65h231zM405 723l-155 -121h-55l101 121h109z" />
    <glyph glyph-name="Zdotaccent" unicode="&#x17b;" horiz-adv-x="313" 
d="M404 706l-12 -55l-300 -567h168l-20 -84h-271l13 62l299 564h-138l19 80h242zM355 893l-23 -99h-72l23 99h72z" />
    <glyph glyph-name="zdotaccent" unicode="&#x17c;" horiz-adv-x="292" 
d="M350 533l-17 -69l-255 -399h166l-17 -65h-253l14 59l258 409h-144l17 65h231zM304 723l-23 -100h-72l23 100h72z" />
    <glyph glyph-name="Zcaron" unicode="&#x17d;" horiz-adv-x="313" 
d="M404 706l-12 -55l-300 -567h168l-20 -84h-271l13 62l299 564h-138l19 80h242zM197 895h58l41 -65l75 65h61l-119 -120h-54z" />
    <glyph glyph-name="zcaron" unicode="&#x17e;" horiz-adv-x="292" 
d="M350 533l-17 -69l-255 -399h166l-17 -65h-253l14 59l258 409h-144l17 65h231zM148 724h58l41 -65l75 65h61l-119 -120h-54z" />
    <glyph glyph-name="longs" unicode="&#x17f;" horiz-adv-x="167" 
d="M291 702l-17 -73q-15 5 -25 5q-14 0 -20.5 -9t-12.5 -35l-137 -590h-80l108 468h-41l15 65h41l22 96q18 81 89 81q10 0 23.5 -2t23.5 -4t11 -2z" />
    <glyph glyph-name="florin" unicode="&#x192;" horiz-adv-x="208" 
d="M309 702l-17 -74q-10 5 -25 5q-17 0 -22.5 -8.5t-11.5 -34.5l-13 -57h50l-15 -65h-50l-118 -515q-19 -82 -88 -82q-4 0 -60 8l17 74q18 -6 25 -6q15 0 21.5 10t12.5 34l109 477h-41l15 65h41l22 95q3 13 6.5 22.5t13 25.5t27 25t41.5 9q12 0 24.5 -1.5t23 -4t12.5 -2.5z
" />
    <glyph glyph-name="Aringacute" unicode="&#x1fa;" 
d="M353 706l-72 -706h-89l17 133h-112l-52 -133h-91l284 706h115zM265 583l-137 -369h92zM442 998l-138 -109h-64l93 109h109zM366 809q0 -27 -18.5 -45t-44.5 -18q-25 0 -43.5 18t-18.5 45t18.5 45t44.5 18t44 -18t18 -45zM333 809q0 14 -8 22.5t-22 8.5q-12 0 -20.5 -8.5
t-8.5 -22.5q0 -30 30 -30q12 0 20.5 8t8.5 22z" />
    <glyph glyph-name="aringacute" unicode="&#x1fb;" horiz-adv-x="313" 
d="M241 0h-84v44q-24 -52 -76 -52q-27 0 -47 17t-20 49q0 22 8 59l11 48q12 54 26.5 77.5t49.5 42.5q7 4 57 27.5t60 28.5l18 80q4 16 4 28q0 13 -8.5 20.5t-20.5 7.5q-18 0 -24.5 -11t-13.5 -42l-14 -62h-82l15 67q5 24 11 39.5t19 35t37 29t58 9.5q47 0 74.5 -21t27.5 -63
q0 -20 -7 -51l-67 -294q-14 -61 -14 -82q0 -11 2 -31zM185 164l22 98q-49 -25 -61.5 -33.5t-20.5 -25.5q-6 -13 -16.5 -57.5t-10.5 -58.5t8.5 -21.5t17.5 -7.5q22 0 34.5 22.5t26.5 83.5zM385 837l-133 -107h-58l85 107h106zM313 643q0 -27 -20.5 -47.5t-48.5 -20.5
t-47.5 20t-19.5 48q0 29 19.5 49t47.5 20q32 0 50.5 -20.5t18.5 -48.5zM274 644q0 13 -8.5 22t-20.5 9q-13 0 -21.5 -9.5t-8.5 -21.5t9 -21t21 -9t20.5 9t8.5 21z" />
    <glyph glyph-name="AEacute" unicode="&#x1fc;" horiz-adv-x="500" 
d="M569 706l-20 -82h-125l-50 -220h123l-18 -80h-123l-55 -238h154l-20 -86h-242l75 324h-69l-143 -324h-93l324 706h282zM342 646l-114 -245h62zM577 893l-155 -120h-53l101 120h107z" />
    <glyph glyph-name="aeacute" unicode="&#x1fd;" horiz-adv-x="479" 
d="M453 248h-160l-29 -126q-5 -23 -5 -33q0 -31 38 -31q19 0 28.5 13t20.5 52l21 76h80l-20 -76q-7 -27 -14 -44.5t-22.5 -40.5t-42.5 -35t-64 -12q-84 0 -107 60q-30 -59 -89 -59q-30 0 -52.5 16.5t-22.5 54.5q0 23 8 55l21 87q10 44 43 67q10 7 119 54q14 6 21 13.5t9 14
t6 23.5l12 53q3 12 3 23q0 16 -12 22.5t-21 6.5q-19 0 -28.5 -13.5t-16.5 -44.5l-15 -66h-80l17 77q5 21 10.5 35t18.5 33t39 29t63 10q53 0 84 -29q29 29 80 29q9 0 19 -1t26 -6.5t27.5 -14t20.5 -26.5t9 -42q0 -18 -4 -35zM309 315h80l23 102q4 20 4 28q-1 32 -35 32
q-16 0 -26 -9t-13 -18t-8 -28zM214 263l-53 -24q-36 -15 -48 -66l-12 -51q-4 -18 -4 -29q1 -19 11.5 -26t21.5 -7q22 0 32.5 14.5t20.5 56.5zM483 723l-155 -121h-55l101 121h109z" />
    <glyph glyph-name="Oslashacute" unicode="&#x1fe;" horiz-adv-x="396" 
d="M498 692l-63 -86q3 -15 3 -29q0 -28 -14 -86l-74 -302q-7 -27 -9.5 -37t-11.5 -36.5t-16.5 -39t-22 -32t-31 -29t-40.5 -17t-52 -7.5q-87 0 -121 69l-55 -76l-29 20l75 104q-2 22 -2 28q0 18 10 61l80 323l5.5 22t6 23.5t6 21t8 23.5t9 20t12 21t14.5 18q43 46 115 46
q87 0 121 -64l47 63zM154 276l187 261q9 34 9 50q0 24 -15 38t-38 14q-32 0 -46 -25t-35 -104zM324 445l-188 -259q-11 -30 -11 -63q0 -27 15 -39t35 -12q30 0 46 24.5t31 78.5zM485 893l-155 -120h-53l101 120h107z" />
    <glyph glyph-name="oslashacute" unicode="&#x1ff;" 
d="M384 527l-42 -58q4 -22 4 -30q-1 -29 -8 -49l-64 -260q-20 -79 -47.5 -109t-90.5 -30q-65 0 -101 46l-35 -48l-23 16l47 65q-2 22 -2 23q0 21 7 50l63 260q7 28 10.5 41t14.5 35.5t24 33.5t36.5 20t54.5 9q65 0 96 -43l33 46zM197 135l50 200l-140 -196q-8 -27 -8 -47
q0 -17 11.5 -27.5t30.5 -10.5q25 0 34.5 16t21.5 65zM123 212l139 193q6 24 6 37q0 15 -10.5 26t-31.5 11q-24 0 -33.5 -16t-22.5 -65zM418 723l-155 -121h-55l101 121h109z" />
    <glyph glyph-name="Scommaaccent" unicode="&#x218;" 
d="M358 470h-83l22 95q7 29 7 40q0 37 -36 37q-20 0 -29.5 -12t-19.5 -45q-16 -55 -16 -87q0 -12 4 -25.5t7.5 -20.5t12.5 -23t11 -20q5 -8 14.5 -25t12.5 -23t10 -19t9 -18t6.5 -15t5.5 -15.5t3 -14.5t2.5 -16.5t0.5 -16.5q0 -39 -16.5 -111.5t-49.5 -104.5
q-41 -39 -104 -39q-60 0 -89 27.5t-29 76.5q0 23 10 67l21 94h84l-24 -106q-7 -35 -7 -43q0 -43 41 -43q32 0 45 40q8 23 16.5 67.5t8.5 66.5q0 20 -7.5 37.5t-29.5 54.5q-3 5 -13.5 22t-14.5 24t-12 22.5t-11 25.5t-6 24.5t-3 27.5q0 40 18 115q29 124 145 124
q62 0 87.5 -27.5t25.5 -66.5q0 -17 -8 -53zM86 -30h68l-10 -44q-9 -38 -27 -55.5t-60 -23.5l6 25q29 8 35 33h-27z" />
    <glyph glyph-name="scommaaccent" unicode="&#x219;" horiz-adv-x="292" 
d="M304 371h-74l5 24q6 30 6 39q0 37 -34 37q-28 0 -38 -29q-14 -36 -14 -66q0 -19 16.5 -40t37 -37t37 -41t16.5 -52q0 -47 -16 -104q-7 -25 -14 -41t-20.5 -34t-37 -27t-56.5 -9q-14 0 -29 3t-35.5 12t-33.5 31t-13 55q0 28 19 104h75l-11 -49q-7 -35 -7 -46q0 -22 12 -31
t27 -9q18 0 30.5 14.5t18 36t8 38.5t2.5 31q0 24 -26 51t-52 57.5t-26 63.5q0 27 14 86q11 49 36 76t79 27q60 0 86 -27t26 -66q0 -17 -9 -58zM72 -30h68l-10 -44q-9 -38 -27 -55.5t-60 -23.5l6 25q29 8 35 33h-27z" />
    <glyph glyph-name="uni021A" unicode="&#x21a;" horiz-adv-x="313" 
d="M429 706l-25 -84h-103l-143 -622h-96l143 622h-106l26 84h304zM70 -30h68l-10 -44q-9 -38 -27 -55.5t-60 -23.5l6 25q29 8 35 33h-27z" />
    <glyph glyph-name="uni021B" unicode="&#x21b;" horiz-adv-x="167" 
d="M256 533l-16 -65h-51l-90 -368q-3 -13 -3 -20q0 -21 21 -21q13 0 34 13l-18 -69q-30 -12 -57 -12q-31 0 -48.5 16.5t-17.5 45.5q0 10 4 26l94 389h-46l17 65h45l19 76l91 37l-29 -113h51zM16 -30h68l-10 -44q-9 -38 -27 -55.5t-60 -23.5l6 25q29 8 35 33h-27z" />
    <glyph glyph-name="circumflex" unicode="&#x2c6;" horiz-adv-x="208" 
d="M222 603h-58l-41 65l-75 -65h-61l119 120h54z" />
    <glyph glyph-name="caron" unicode="&#x2c7;" horiz-adv-x="208" 
d="M-13 724h58l41 -65l75 65h61l-119 -120h-54z" />
    <glyph glyph-name="uni02C9" unicode="&#x2c9;" horiz-adv-x="209" 
d="M213 687l-14 -64h-203l14 64h203z" />
    <glyph glyph-name="breve" unicode="&#x2d8;" horiz-adv-x="209" 
d="M175 722h39l-3 -11q-28 -110 -123 -110q-18 0 -35.5 4t-37.5 25.5t-20 58.5q0 18 5 33h33q2 -29 19 -46.5t46 -17.5q20 0 34 6t23 18t12 19.5t8 20.5z" />
    <glyph glyph-name="dotaccent" unicode="&#x2d9;" horiz-adv-x="209" 
d="M152 723l-23 -100h-72l23 100h72z" />
    <glyph glyph-name="ring" unicode="&#x2da;" horiz-adv-x="209" 
d="M179 669q0 -31 -22.5 -53t-52.5 -22q-32 0 -53.5 22t-21.5 53t22 53t53 22t53 -22.5t22 -52.5zM144 669q0 18 -11.5 29.5t-28.5 11.5q-18 0 -29 -12t-11 -29q0 -18 11.5 -29.5t28.5 -11.5q18 0 29 11.5t11 29.5z" />
    <glyph glyph-name="ogonek" unicode="&#x2db;" horiz-adv-x="209" 
d="M134 0h60q-30 -11 -61.5 -38t-31.5 -51q0 -26 40 -26q13 0 23 4l-7 -29q-53 -16 -77 -16q-26 0 -45.5 13t-19.5 40q0 10 3 19.5t7 16.5t13 14.5t15 12t19 11.5t19 10t22 10t21 9z" />
    <glyph glyph-name="tilde" unicode="&#x2dc;" horiz-adv-x="208" 
d="M187 701h32q-15 -87 -78 -87q-15 0 -47 15.5t-44 15.5q-23 0 -31 -31h-31q7 40 30 64t50 24q18 0 48 -15.5t43 -15.5q21 0 28 30z" />
    <glyph glyph-name="hungarumlaut" unicode="&#x2dd;" horiz-adv-x="209" 
d="M275 723l-155 -121h-45l100 121h100zM134 723l-155 -121h-45l100 121h100z" />
    <glyph glyph-name="uni037E" unicode="&#x37e;" horiz-adv-x="187" 
d="M236 533l-29 -127h-85l29 127h85zM55 131h87l-28 -123q-15 -65 -37 -92q-31 -39 -80 -50l6 45q52 22 60 89h-38z" />
    <glyph glyph-name="tonos" unicode="&#x384;" horiz-adv-x="208" 
d="M293 698l-133 -121h-47l80 121h100z" />
    <glyph glyph-name="dieresistonos" unicode="&#x385;" horiz-adv-x="270" 
d="M367 589h-73l24 100h73zM166 589h-69l24 100h69zM319 722l-85 -133h-49l54 133h80z" />
    <glyph glyph-name="Alphatonos" unicode="&#x386;" 
d="M353 706l-72 -706h-89l17 133h-112l-52 -133h-91l284 706h115zM265 583l-137 -369h92zM193 706l-133 -121h-47l80 121h100z" />
    <glyph glyph-name="anoteleia" unicode="&#x387;" horiz-adv-x="146" 
d="M155 533l-30 -131h-82l30 131h82z" />
    <glyph glyph-name="Epsilontonos" unicode="&#x388;" horiz-adv-x="313" 
d="M390 706l-19 -83h-133l-50 -216h122l-20 -84h-121l-55 -237h154l-20 -86h-248l163 706h227zM133 706l-133 -121h-47l80 121h100z" />
    <glyph glyph-name="Etatonos" unicode="&#x389;" horiz-adv-x="375" 
d="M444 706l-163 -706h-94l78 327h-96l-76 -327h-92l163 706h92l-70 -298h97l70 298h91zM133 706l-133 -121h-47l80 121h100z" />
    <glyph glyph-name="Iotatonos" unicode="&#x38a;" horiz-adv-x="187" 
d="M257 706l-164 -706h-92l163 706h93zM133 706l-133 -121h-47l80 121h100z" />
    <glyph glyph-name="Omicrontonos" unicode="&#x38c;" horiz-adv-x="396" 
d="M45 197l74 321q7 32 10.5 44t12 39t15.5 38.5t21 29.5t30 25.5t39 14t52 6.5q13 0 24.5 -1t33.5 -8t37.5 -19t27.5 -38.5t12 -62.5q0 -31 -15 -95l-68 -295q-9 -40 -16 -64t-21.5 -54.5t-32 -47t-46 -28t-66.5 -11.5q-54 0 -95 29t-41 94q0 30 12 83zM253 175l79 344
q11 47 11 66q0 26 -15.5 40t-38.5 14q-32 0 -45 -21.5t-28 -85.5l-77 -333q-13 -57 -13 -76q0 -26 14.5 -38.5t37.5 -12.5q25 0 41 17t21 33.5t13 52.5zM153 706l-133 -121h-47l80 121h100z" />
    <glyph glyph-name="Upsilontonos" unicode="&#x38e;" 
d="M452 706l-218 -410l-71 -296h-96l65 296l-14 410h92l-3 -301l144 301h101zM103 706l-133 -121h-47l80 121h100z" />
    <glyph glyph-name="Omegatonos" unicode="&#x38f;" horiz-adv-x="396" 
d="M419 491l-62 -270q-13 -54 -32 -87.5t-58 -61.5h61l-17 -72h-134l18 79q22 11 36 39t28 87l73 314q11 47 11 66q0 26 -15.5 40t-38.5 14q-32 0 -45 -21.5t-28 -85.5l-76 -327q-12 -52 -12 -79q0 -30 18 -47l-18 -79h-128l16 72h60q-34 27 -34 82q0 25 12 80l65 284
q7 32 10.5 44t12 39t15.5 38.5t21 29.5t30 25.5t39 14t52 6.5q13 0 24.5 -1t33.5 -8t37.5 -19t27.5 -38.5t12 -62.5q0 -31 -15 -95zM153 706l-133 -121h-47l80 121h100z" />
    <glyph glyph-name="iotadieresistonos" unicode="&#x390;" horiz-adv-x="174" 
d="M203 533l-101 -434q-3 -13 -3 -21q0 -18 25 -18h6l-15 -60q-13 -6 -38 -6q-64 0 -64 57q0 12 6 36l103 446h81zM322 589h-73l24 100h73zM121 589h-69l24 100h69zM274 722l-85 -133h-49l54 133h80z" />
    <glyph glyph-name="Alpha" unicode="&#x391;" 
d="M353 706l-72 -706h-89l17 133h-112l-52 -133h-91l284 706h115zM265 583l-137 -369h92z" />
    <glyph glyph-name="Beta" unicode="&#x392;" horiz-adv-x="375" 
d="M164 706h153q107 0 107 -86q0 -14 -10 -61l-24 -104q-8 -36 -25.5 -55t-32.5 -23t-41 -5q13 -2 20 -4.5t19.5 -9t18.5 -20t6 -32.5q0 -14 -10 -59l-36 -151q-13 -55 -39.5 -75.5t-82.5 -20.5h-187zM238 624l-51 -216h34q46 0 62 13.5t24 50.5l21 91q5 22 5 30
q0 31 -40 31h-55zM170 332l-57 -247h38q45 0 59 14.5t25 63.5l18 77q9 40 9 51q0 27 -12.5 34t-46.5 7h-33z" />
    <glyph glyph-name="Gamma" unicode="&#x393;" horiz-adv-x="277" 
d="M373 619h-138l-142 -619h-94l162 706h232z" />
    <glyph glyph-name="uni0394" unicode="&#x394;" horiz-adv-x="445" 
d="M399 0h-444l336 706h99zM92 83h214l8 507z" />
    <glyph glyph-name="Epsilon" unicode="&#x395;" horiz-adv-x="313" 
d="M390 706l-19 -83h-133l-50 -216h122l-20 -84h-121l-55 -237h154l-20 -86h-248l163 706h227z" />
    <glyph glyph-name="Zeta" unicode="&#x396;" horiz-adv-x="313" 
d="M404 706l-12 -55l-300 -567h168l-20 -84h-271l13 62l299 564h-138l19 80h242z" />
    <glyph glyph-name="Eta" unicode="&#x397;" horiz-adv-x="375" 
d="M444 706l-163 -706h-94l78 327h-96l-76 -327h-92l163 706h92l-70 -298h97l70 298h91z" />
    <glyph glyph-name="Theta" unicode="&#x398;" horiz-adv-x="396" 
d="M210 417h79l-23 -98h-79zM45 197l74 321q7 32 10.5 44t12 39t15.5 38.5t21 29.5t30 25.5t39 14t52 6.5q13 0 24.5 -1t33.5 -8t37.5 -19t27.5 -38.5t12 -62.5q0 -31 -15 -95l-68 -295q-9 -40 -16 -64t-21.5 -54.5t-32 -47t-46 -28t-66.5 -11.5q-54 0 -95 29t-41 94
q0 30 12 83zM253 175l79 344q11 47 11 66q0 26 -15.5 40t-38.5 14q-32 0 -45 -21.5t-28 -85.5l-77 -333q-13 -57 -13 -76q0 -26 14.5 -38.5t37.5 -12.5q25 0 41 17t21 33.5t13 52.5z" />
    <glyph glyph-name="Iota" unicode="&#x399;" horiz-adv-x="187" 
d="M257 706l-164 -706h-92l163 706h93z" />
    <glyph glyph-name="Kappa" unicode="&#x39a;" horiz-adv-x="354" 
d="M447 706l-191 -337l55 -369h-96l-43 341l-79 -341h-92l163 706h93l-78 -308l176 308h92z" />
    <glyph glyph-name="Lambda" unicode="&#x39b;" horiz-adv-x="326" 
d="M258 580l-206 -580h-90l269 706h115l-72 -706h-89z" />
    <glyph glyph-name="Mu" unicode="&#x39c;" horiz-adv-x="500" 
d="M562 706l-158 -706h-86l133 575l-212 -575h-74l54 575l-133 -575h-86l171 706h118l-41 -513l192 513h122z" />
    <glyph glyph-name="Nu" unicode="&#x39d;" horiz-adv-x="396" 
d="M465 706l-167 -706h-96q-8 497 -8 527l-106 -527h-88l163 706h96l9 -525l113 525h84z" />
    <glyph glyph-name="Xi" unicode="&#x39e;" horiz-adv-x="324" 
d="M99 416h224l-23 -98h-224zM150 706h251l-23 -98h-251zM244 0h-252l23 99h252z" />
    <glyph glyph-name="Omicron" unicode="&#x39f;" horiz-adv-x="396" 
d="M45 197l74 321q7 32 10.5 44t12 39t15.5 38.5t21 29.5t30 25.5t39 14t52 6.5q13 0 24.5 -1t33.5 -8t37.5 -19t27.5 -38.5t12 -62.5q0 -31 -15 -95l-68 -295q-9 -40 -16 -64t-21.5 -54.5t-32 -47t-46 -28t-66.5 -11.5q-54 0 -95 29t-41 94q0 30 12 83zM253 175l79 344
q11 47 11 66q0 26 -15.5 40t-38.5 14q-32 0 -45 -21.5t-28 -85.5l-77 -333q-13 -57 -13 -76q0 -26 14.5 -38.5t37.5 -12.5q25 0 41 17t21 33.5t13 52.5z" />
    <glyph glyph-name="Pi" unicode="&#x3a0;" horiz-adv-x="365" 
d="M271 0h-94l144 615h-86l-142 -615h-92l163 706h270z" />
    <glyph glyph-name="Rho" unicode="&#x3a1;" horiz-adv-x="354" 
d="M165 706h145q110 0 110 -90q0 -21 -10 -66l-25 -109q-18 -79 -43 -101.5t-100 -22.5h-74l-73 -317h-93zM239 623l-52 -222h44q34 0 46 13.5t24 67.5l18 81q4 18 4 27q0 14 -7.5 22t-15.5 9.5t-22 1.5h-39z" />
    <glyph glyph-name="Sigma" unicode="&#x3a3;" horiz-adv-x="312" 
d="M156 376l-17 267l15 63h235l-19 -82h-137l16 -255l-152 -280h140l-21 -89h-244l14 62z" />
    <glyph glyph-name="Tau" unicode="&#x3a4;" horiz-adv-x="313" 
d="M429 706l-25 -84h-103l-143 -622h-96l143 622h-106l26 84h304z" />
    <glyph glyph-name="Upsilon" unicode="&#x3a5;" 
d="M452 706l-218 -410l-71 -296h-96l65 296l-14 410h92l-3 -301l144 301h101z" />
    <glyph glyph-name="Phi" unicode="&#x3a6;" horiz-adv-x="442" 
d="M355 583l-105 -451q55 7 70 72l67 292q6 24 6 42q0 39 -38 45zM383 706l-12 -52q113 -9 113 -115q0 -24 -9 -64l-60 -257q-21 -88 -64 -125.5t-119 -39.5l-12 -53h-92l12 53q-111 14 -111 121q0 29 7 57l60 258q22 92 62 125.5t121 39.5l12 52h92zM158 132l105 451
q-29 -2 -45 -17t-25 -55l-68 -294q-4 -22 -4 -31q0 -48 37 -54z" />
    <glyph glyph-name="Chi" unicode="&#x3a7;" 
d="M441 706l-181 -340l25 -366h-92l-10 259l-126 -259h-98l198 373l-28 333h91l11 -230l114 230h96z" />
    <glyph glyph-name="Psi" unicode="&#x3a8;" horiz-adv-x="454" 
d="M532 706l-91 -394q-17 -74 -58 -106t-119 -34l-40 -172h-92l40 172q-56 5 -84.5 34.5t-28.5 79.5q0 24 6 51l85 369h92l-88 -380q-4 -22 -4 -28q0 -42 39 -53l106 461h93l-107 -461q54 4 73 88l86 373h92z" />
    <glyph glyph-name="uni03A9" unicode="&#x3a9;" horiz-adv-x="361" 
d="M306 72l-16 -72h-140l17 73q25 19 47 75t51 181l46 200q12 51 12 70q0 41 -50 41q-30 0 -44.5 -21t-29.5 -86l-47 -204q-34 -146 -34 -202q0 -35 14 -54l-17 -73h-136l16 72h78q-34 44 -34 105q0 51 27 168l46 198q23 98 60 135.5t107 37.5q64 0 98.5 -28.5t34.5 -81.5
q0 -24 -14 -86l-40 -175q-26 -113 -52 -174.5t-74 -98.5h74z" />
    <glyph glyph-name="Iotadieresis" unicode="&#x3aa;" horiz-adv-x="187" 
d="M257 706l-164 -706h-92l163 706h93zM353 893l-23 -99h-73l22 99h74zM222 893l-23 -99h-72l23 99h72z" />
    <glyph glyph-name="Upsilondieresis" unicode="&#x3ab;" 
d="M452 706l-218 -410l-71 -296h-96l65 296l-14 410h92l-3 -301l144 301h101zM426 893l-23 -99h-73l22 99h74zM295 893l-23 -99h-72l23 99h72z" />
    <glyph glyph-name="alphatonos" unicode="&#x3ac;" horiz-adv-x="322" 
d="M179 141l54 235q12 52 12 59q0 18 -10 27t-24 9q-19 0 -27 -17.5t-20 -68.5l-55 -238q-8 -44 -8 -47q0 -34 32 -34q20 0 28 15t18 60zM82 -9q-25 0 -46 18t-21 60q0 13 11 62l70 304q15 65 38.5 86t55.5 21q46 0 71 -44l39 35h51l-100 -434q-3 -13 -3 -21q0 -18 24 -18h6
l-14 -60q-14 -6 -30 -6q-59 0 -60 51q-40 -54 -92 -54zM393 698l-133 -121h-47l80 121h100z" />
    <glyph glyph-name="epsilontonos" unicode="&#x3ad;" horiz-adv-x="301" 
d="M194 203h80l-20 -88q-14 -61 -45.5 -92.5t-95.5 -31.5q-103 0 -103 90q0 19 8 55l11 46q24 100 84 113q-35 10 -35 51q0 17 4 34l15 60q5 23 11 37t18.5 31t36.5 25.5t59 8.5q43 0 73 -18t30 -59q0 -18 -19 -96h-79q16 63 16 80q0 28 -28 28q-20 0 -28 -11t-13 -35
l-13 -58q-4 -20 -4 -26q0 -20 14.5 -24.5t55.5 -4.5l-15 -66q-54 0 -73.5 -11.5t-31.5 -64.5l-16 -69q-2 -10 -2 -17q0 -33 34 -33q25 0 34.5 12t16.5 44zM401 698l-133 -121h-47l80 121h100z" />
    <glyph glyph-name="etatonos" unicode="&#x3ae;" horiz-adv-x="343" 
d="M196 490q38 52 89 52q34 0 55 -19.5t21 -53.5q0 -14 -11 -64l-126 -550h-81l127 550q4 19 4 29q0 13 -9 24.5t-31 11.5q-21 0 -31.5 -13t-16.5 -38l-97 -419h-80l100 438q3 12 3 18q0 8 -5 10.5t-19 2.5l16 65q16 6 32 6q57 0 60 -50zM413 698l-133 -121h-47l80 121h100z
" />
    <glyph glyph-name="iotatonos" unicode="&#x3af;" horiz-adv-x="174" 
d="M203 533l-101 -434q-3 -13 -3 -21q0 -18 25 -18h6l-15 -60q-13 -6 -38 -6q-64 0 -64 57q0 12 6 36l103 446h81zM323 698l-133 -121h-47l80 121h100z" />
    <glyph glyph-name="upsilondieresistonos" unicode="&#x3b0;" 
d="M127 -9q-104 0 -104 92q0 19 5 44l93 406h81l-98 -422q-3 -12 -3 -23q0 -31 36 -31q26 0 37 13.5t17 40.5l98 422h80l-95 -415q-13 -58 -46 -92.5t-101 -34.5zM406 589h-73l24 100h73zM205 589h-69l24 100h69zM358 722l-85 -133h-49l54 133h80z" />
    <glyph glyph-name="alpha" unicode="&#x3b1;" horiz-adv-x="322" 
d="M179 141l54 235q12 52 12 59q0 18 -10 27t-24 9q-19 0 -27 -17.5t-20 -68.5l-55 -238q-8 -44 -8 -47q0 -34 32 -34q20 0 28 15t18 60zM82 -9q-25 0 -46 18t-21 60q0 13 11 62l70 304q15 65 38.5 86t55.5 21q46 0 71 -44l39 35h51l-100 -434q-3 -13 -3 -21q0 -18 24 -18h6
l-14 -60q-14 -6 -30 -6q-59 0 -60 51q-40 -54 -92 -54z" />
    <glyph glyph-name="beta" unicode="&#x3b2;" horiz-adv-x="315" 
d="M303 324l-45 -197q-14 -64 -37.5 -100t-67.5 -36q-29 0 -43.5 11.5t-20.5 38.5l-43 -186h-80l170 740q4 19 7.5 30.5t13 30.5t22.5 30.5t35.5 20.5t51.5 9q94 0 94 -76q0 -16 -4 -32l-27 -120q-8 -37 -17.5 -51t-33.5 -27q31 -11 31 -42q0 -16 -6 -44zM184 142l40 176
q4 16 4 29q0 20 -9.5 26t-28.5 6h-4l14 60h5q24 0 34 14t17 45l24 104q4 16 4 22q0 24 -29 24t-38 -40l-107 -462q-8 -40 -8 -52q0 -14 10 -22t23 -8q19 0 29 16.5t20 61.5z" />
    <glyph glyph-name="gamma" unicode="&#x3b3;" horiz-adv-x="265" 
d="M20 -145l31 136l27 444v4q0 19 -23 19l17 75h19q66 0 66 -55v-10l-29 -321l138 386h78l-210 -535l-33 -143h-81z" />
    <glyph glyph-name="delta" unicode="&#x3b4;" 
d="M328 353l-51 -223q-8 -34 -13 -50.5t-15 -37t-23 -29.5t-35 -15.5t-53 -6.5q-62 0 -89 26.5t-27 66.5q0 15 9 60l45 198q14 62 37 93t67 40q-42 32 -42 78q0 15 5 33l8 29q29 101 132 101q94 0 94 -88q0 -32 -14 -85h-79q14 53 14 77q0 28 -27 28q-31 0 -46 -58
q-4 -16 -4 -31q0 -29 17.5 -49.5t38.5 -31t38.5 -32.5t17.5 -54q0 -14 -5 -39zM200 135l50 223q3 10 3 21q0 37 -35 37q-45 0 -60 -65l-45 -196q-11 -51 -11 -61q0 -40 44 -40q24 0 34 17t20 64z" />
    <glyph glyph-name="epsilon" unicode="&#x3b5;" horiz-adv-x="301" 
d="M194 203h80l-20 -88q-14 -61 -45.5 -92.5t-95.5 -31.5q-103 0 -103 90q0 19 8 55l11 46q24 100 84 113q-35 10 -35 51q0 17 4 34l15 60q5 23 11 37t18.5 31t36.5 25.5t59 8.5q43 0 73 -18t30 -59q0 -18 -19 -96h-79q16 63 16 80q0 28 -28 28q-20 0 -28 -11t-13 -35
l-13 -58q-4 -20 -4 -26q0 -20 14.5 -24.5t55.5 -4.5l-15 -66q-54 0 -73.5 -11.5t-31.5 -64.5l-16 -69q-2 -10 -2 -17q0 -33 34 -33q25 0 34.5 12t16.5 44z" />
    <glyph glyph-name="zeta" unicode="&#x3b6;" horiz-adv-x="265" 
d="M23 128l20 90q54 231 232 413h-129l18 75h226l-16 -69q-75 -67 -147 -174t-101 -234l-20 -89q-6 -24 -6 -38q0 -34 33 -34q80 0 80 -57q0 -25 -26 -126h-79q21 80 21 97q0 18 -21 18q-91 0 -91 83q0 19 6 45z" />
    <glyph glyph-name="eta" unicode="&#x3b7;" horiz-adv-x="343" 
d="M196 490q38 52 89 52q34 0 55 -19.5t21 -53.5q0 -14 -11 -64l-126 -550h-81l127 550q4 19 4 29q0 13 -9 24.5t-31 11.5q-21 0 -31.5 -13t-16.5 -38l-97 -419h-80l100 438q3 12 3 18q0 8 -5 10.5t-19 2.5l16 65q16 6 32 6q57 0 60 -50z" />
    <glyph glyph-name="theta" unicode="&#x3b8;" horiz-adv-x="337" 
d="M262 408l32 144q11 51 11 61q0 16 -10.5 28t-32.5 12q-7 0 -12 -1t-9.5 -3.5t-7.5 -5t-6 -8t-4.5 -8.5t-4 -11.5t-3.5 -12.5t-3.5 -15t-3.5 -16l-37 -164h91zM200 135l45 198h-91l-41 -178q-11 -51 -11 -61q0 -40 44 -40q24 0 34 17t20 64zM376 564l-99 -434
q-8 -34 -13 -50.5t-15 -37t-23 -29.5t-35 -15.5t-53 -6.5q-62 0 -89 26.5t-27 66.5q0 15 9 60l99 433q10 42 17 63t22 41t39 27.5t62 7.5q62 0 88.5 -27t26.5 -65q0 -17 -9 -60z" />
    <glyph glyph-name="iota" unicode="&#x3b9;" horiz-adv-x="174" 
d="M203 533l-101 -434q-3 -13 -3 -21q0 -18 25 -18h6l-15 -60q-13 -6 -38 -6q-64 0 -64 57q0 12 6 36l103 446h81z" />
    <glyph glyph-name="kappa" unicode="&#x3ba;" horiz-adv-x="297" 
d="M331 533h30l-17 -75h-12q-15 0 -38 -35l-65 -92l14 -331h-79l-9 249l-29 -45l-47 -204h-80l123 533h81l-46 -204l76 120q34 55 51.5 69.5t46.5 14.5z" />
    <glyph glyph-name="lambda" unicode="&#x3bb;" horiz-adv-x="305" 
d="M294 68l-17 -67q-23 -10 -52 -10q-27 0 -42 11t-15 42l12 283l-142 -327h-84l228 485q4 97 4 129q0 20 -18 20q-13 0 -30 -5l18 76q25 5 42 5q62 0 62 -61q0 -17 -2 -117.5t-5 -239t-4 -220.5q0 -13 15 -13q10 0 30 9z" />
    <glyph glyph-name="uni03BC" unicode="&#x3bc;" 
d="M369 533l-96 -420q-15 -68 -15 -85q0 -16 3 -28h-81q-3 18 -3 27v9q-26 -42 -59 -42q-20 0 -37 16l-36 -155h-80l157 678h80l-95 -408q-3 -12 -3 -25q0 -37 40 -37q20 0 30.5 11t17.5 40l97 419h80z" />
    <glyph glyph-name="nu" unicode="&#x3bd;" horiz-adv-x="255" 
d="M242 533h77q-1 -41 -20 -92l-171 -441h-101l54 533h74l-53 -429l119 334q16 44 21 95z" />
    <glyph glyph-name="xi" unicode="&#x3be;" horiz-adv-x="277" 
d="M277 349h-40q-40 0 -59 -12.5t-29 -54.5l-34 -147q-6 -24 -6 -33q0 -34 33 -34q80 0 80 -57q0 -25 -26 -126h-79q21 80 21 97q0 18 -21 18q-91 0 -91 83q0 19 6 45l38 158q24 100 106 106q-45 14 -45 56q0 11 4 29l22 98q10 46 61 62h-54l16 69h217l-18 -75h-58
q-33 0 -56.5 -18t-31.5 -52l-22 -98q-1 -4 -1 -11q0 -33 48 -33h35z" />
    <glyph glyph-name="omicron" unicode="&#x3bf;" 
d="M336 390l-59 -260q-8 -34 -13 -50.5t-15 -37t-23 -29.5t-35 -15.5t-53 -6.5q-62 0 -89 26.5t-27 66.5q0 14 9 59l59 260q9 42 16.5 63t22 41t39 27.5t62.5 7.5q62 0 88.5 -27t26.5 -65q0 -17 -9 -60zM200 135l54 243q11 51 11 61q0 16 -10.5 28t-32.5 12
q-18 0 -28.5 -11.5t-14.5 -24.5t-11 -45l-55 -243q-11 -51 -11 -61q0 -40 44 -40q24 0 34 17t20 64z" />
    <glyph glyph-name="pi" unicode="&#x3c0;" horiz-adv-x="403" 
d="M438 533l-15 -66h-34l-81 -355q-6 -27 -6 -29q0 -22 24 -22q7 0 11 1l-14 -62q-9 -1 -22 -1q-80 0 -80 67q0 12 8 48l81 353h-94l-107 -467h-80l106 467h-32l15 66h320z" />
    <glyph glyph-name="rho" unicode="&#x3c1;" horiz-adv-x="315" 
d="M183 142l64 275q3 15 3 30q0 32 -30 32q-21 0 -31 -14t-17 -46l-63 -273q-8 -32 -8 -52q0 -30 33 -30q15 0 25.5 14t14 26.5t9.5 37.5zM233 541q97 0 97 -82q0 -15 -5 -38l-74 -318q-26 -112 -99 -112q-53 0 -64 50l-43 -186h-81l129 556q13 59 43 94.5t97 35.5z" />
    <glyph glyph-name="sigma1" unicode="&#x3c2;" horiz-adv-x="291" 
d="M168 401l-61 -266q-6 -24 -6 -33q0 -34 33 -34q80 0 80 -57q0 -25 -26 -126h-79q21 80 21 97q0 18 -21 18q-91 0 -91 83q0 19 6 45l64 274q7 30 11.5 45.5t14.5 37t22 31.5t32 18t47 8q31 0 52.5 -9t31 -24t13 -27t3.5 -25q0 -27 -22 -117h-77l5 21q17 74 17 85
q0 31 -27 31q-17 0 -24.5 -15.5t-18.5 -60.5z" />
    <glyph glyph-name="sigma" unicode="&#x3c3;" horiz-adv-x="340" 
d="M333 378l-56 -248q-8 -34 -13 -50.5t-15 -37t-23 -29.5t-35 -15.5t-53 -6.5q-62 0 -89 26.5t-27 66.5q0 14 9 59l59 257q13 59 44.5 96t98.5 37h167l-17 -75h-78q31 -16 31 -57q0 -11 -3 -23zM200 135l61 272q2 10 2 13q0 16 -10 27t-27 11q-24 0 -37 -14t-20 -44
l-56 -245q-11 -51 -11 -61q0 -40 44 -40q24 0 34 17t20 64z" />
    <glyph glyph-name="tau" unicode="&#x3c4;" horiz-adv-x="265" 
d="M149 458h-43q-18 0 -46 -8l17 75q27 8 57 8h200l-17 -75h-87l-87 -358q-3 -13 -3 -20q0 -21 21 -21q13 0 34 13l-18 -69q-30 -12 -57 -12q-31 0 -48.5 16.5t-17.5 45.5q0 10 4 26z" />
    <glyph glyph-name="upsilon" unicode="&#x3c5;" 
d="M127 -9q-104 0 -104 92q0 19 5 44l93 406h81l-98 -422q-3 -12 -3 -23q0 -31 36 -31q26 0 37 13.5t17 40.5l98 422h80l-95 -415q-13 -58 -46 -92.5t-101 -34.5z" />
    <glyph glyph-name="phi" unicode="&#x3c6;" horiz-adv-x="448" 
d="M153 52l97 429q-46 -3 -62.5 -26.5t-29.5 -77.5l-51 -226q-7 -29 -7 -51q0 -24 12 -35t41 -13zM321 140l53 235q8 35 8 54q0 25 -12 37.5t-40 14.5l-97 -429q46 4 61 21.5t27 66.5zM450 365l-50 -217q-8 -33 -12.5 -48.5t-13.5 -37.5t-20 -31t-29.5 -20t-44.5 -15t-62 -5
l-31 -136h-80l31 136q-63 5 -89.5 28.5t-26.5 69.5q0 34 10 74l51 223q10 44 20 69.5t29.5 47t51.5 30.5t81 9l15 67l89 37l-24 -104q115 -7 115 -105q0 -29 -10 -72z" />
    <glyph glyph-name="chi" unicode="&#x3c7;" horiz-adv-x="279" 
d="M171 -147q-52 0 -52 58l9 230l-129 -286h-79l178 364q-5 219 -5 239q0 13 -13 13q-3 0 -11 -2l16 65q22 6 33 6q10 0 15.5 -1t14.5 -5.5t13.5 -17t4.5 -31.5l-8 -205l106 253h82l-154 -312q5 -276 5 -287q0 -13 13 -13q10 0 30 9l-17 -67q-23 -10 -52 -10z" />
    <glyph glyph-name="psi" unicode="&#x3c8;" horiz-adv-x="448" 
d="M484 533l-87 -378q-10 -44 -20.5 -70t-30 -48.5t-51.5 -32.5t-80 -13l-31 -136h-80l31 136q-61 4 -86.5 30.5t-25.5 74.5q0 34 11 81l82 356h80l-86 -373q-8 -32 -8 -53q0 -49 48 -53l127 555l89 37l-136 -592q36 3 56 29.5t32 75.5l86 374h80z" />
    <glyph glyph-name="omega" unicode="&#x3c9;" horiz-adv-x="465" 
d="M273 -9q-57 0 -76 39q-32 -39 -86 -39q-89 0 -89 86q0 20 5 40l66 290q18 80 49.5 103t91.5 23h16l-15 -66q-27 0 -40 -11t-22 -51l-66 -286q-4 -22 -4 -28q0 -37 31 -37q16 0 26.5 16t18.5 53l63 273h78l-63 -273q-4 -16 -4 -32q0 -37 31 -37q30 0 42 55l67 296
q5 23 5 35q0 15 -9.5 21t-32.5 6l15 66h4q102 0 102 -86q0 -24 -7 -52l-64 -284q-6 -24 -12 -40t-19.5 -37t-39.5 -32t-62 -11z" />
    <glyph glyph-name="iotadieresis" unicode="&#x3ca;" horiz-adv-x="174" 
d="M203 533l-101 -434q-3 -13 -3 -21q0 -18 25 -18h6l-15 -60q-13 -6 -38 -6q-64 0 -64 57q0 12 6 36l103 446h81zM306 723l-23 -100h-74l23 100h74zM174 723l-23 -100h-71l23 100h71z" />
    <glyph glyph-name="upsilondieresis" unicode="&#x3cb;" 
d="M127 -9q-104 0 -104 92q0 19 5 44l93 406h81l-98 -422q-3 -12 -3 -23q0 -31 36 -31q26 0 37 13.5t17 40.5l98 422h80l-95 -415q-13 -58 -46 -92.5t-101 -34.5zM386 723l-23 -100h-74l23 100h74zM254 723l-23 -100h-71l23 100h71z" />
    <glyph glyph-name="omicrontonos" unicode="&#x3cc;" 
d="M336 390l-59 -260q-8 -34 -13 -50.5t-15 -37t-23 -29.5t-35 -15.5t-53 -6.5q-62 0 -89 26.5t-27 66.5q0 14 9 59l59 260q9 42 16.5 63t22 41t39 27.5t62.5 7.5q62 0 88.5 -27t26.5 -65q0 -17 -9 -60zM200 135l54 243q11 51 11 61q0 16 -10.5 28t-32.5 12
q-18 0 -28.5 -11.5t-14.5 -24.5t-11 -45l-55 -243q-11 -51 -11 -61q0 -40 44 -40q24 0 34 17t20 64zM405 698l-133 -121h-47l80 121h100z" />
    <glyph glyph-name="upsilontonos" unicode="&#x3cd;" 
d="M127 -9q-104 0 -104 92q0 19 5 44l93 406h81l-98 -422q-3 -12 -3 -23q0 -31 36 -31q26 0 37 13.5t17 40.5l98 422h80l-95 -415q-13 -58 -46 -92.5t-101 -34.5zM410 698l-133 -121h-47l80 121h100z" />
    <glyph glyph-name="omegatonos" unicode="&#x3ce;" horiz-adv-x="465" 
d="M273 -9q-57 0 -76 39q-32 -39 -86 -39q-89 0 -89 86q0 20 5 40l66 290q18 80 49.5 103t91.5 23h16l-15 -66q-27 0 -40 -11t-22 -51l-66 -286q-4 -22 -4 -28q0 -37 31 -37q16 0 26.5 16t18.5 53l63 273h78l-63 -273q-4 -16 -4 -32q0 -37 31 -37q30 0 42 55l67 296
q5 23 5 35q0 15 -9.5 21t-32.5 6l15 66h4q102 0 102 -86q0 -24 -7 -52l-64 -284q-6 -24 -12 -40t-19.5 -37t-39.5 -32t-62 -11zM476 698l-133 -121h-47l80 121h100z" />
    <glyph glyph-name="afii10023" unicode="&#x401;" horiz-adv-x="313" 
d="M390 706l-19 -83h-133l-50 -216h122l-20 -84h-121l-55 -237h154l-20 -86h-248l163 706h227zM416 893l-23 -99h-73l22 99h74zM285 893l-23 -99h-72l23 99h72z" />
    <glyph glyph-name="afii10051" unicode="&#x402;" horiz-adv-x="409" 
d="M204 76q33 0 50 23.5t30 82.5l28 119q4 20 4 29q0 27 -32 27q-27 0 -47 -13l-80 -344h-95l143 622h-106l26 84h304l-25 -84h-103l-45 -195q29 11 65 11q42 0 66 -21t24 -62q0 -18 -7 -53l-35 -148q-7 -31 -11 -45.5t-16 -40t-27 -37.5t-42.5 -22.5t-63.5 -10.5
q-12 0 -32 2l18 76h9z" />
    <glyph glyph-name="afii10052" unicode="&#x403;" horiz-adv-x="313" 
d="M409 706l-20 -84h-151l-144 -622h-95l163 706h247zM432 893l-155 -120h-53l101 120h107z" />
    <glyph glyph-name="afii10053" unicode="&#x404;" horiz-adv-x="375" 
d="M391 466h-88l14 61q13 57 13 68q0 27 -14 36.5t-30 9.5q-10 0 -18.5 -4t-15 -12.5t-11 -16t-8.5 -22t-6.5 -23t-6 -25.5t-5.5 -24l-25 -102h113l-19 -84h-114l-34 -144q-12 -48 -12 -69q0 -45 44 -45q15 0 23 4t19 24.5t22 62.5l29 109h91l-24 -100q-9 -39 -15 -59
t-18.5 -47t-28.5 -40t-43 -23t-63 -10q-57 0 -92 28.5t-35 84.5q0 42 22 134l67 280q8 33 12.5 49.5t14.5 44.5t21.5 42.5t28 30.5t40 23t52.5 7q21 0 39.5 -4t40 -14.5t34 -34t12.5 -58.5q0 -11 -1.5 -22.5t-3.5 -20t-6.5 -28t-7.5 -34.5z" />
    <glyph glyph-name="afii10054" unicode="&#x405;" 
d="M358 470h-83l22 95q7 29 7 40q0 37 -36 37q-20 0 -29.5 -12t-19.5 -45q-16 -55 -16 -87q0 -12 4 -25.5t7.5 -20.5t12.5 -23t11 -20q5 -8 14.5 -25t12.5 -23t10 -19t9 -18t6.5 -15t5.5 -15.5t3 -14.5t2.5 -16.5t0.5 -16.5q0 -39 -16.5 -111.5t-49.5 -104.5
q-41 -39 -104 -39q-60 0 -89 27.5t-29 76.5q0 23 10 67l21 94h84l-24 -106q-7 -35 -7 -43q0 -43 41 -43q32 0 45 40q8 23 16.5 67.5t8.5 66.5q0 20 -7.5 37.5t-29.5 54.5q-3 5 -13.5 22t-14.5 24t-12 22.5t-11 25.5t-6 24.5t-3 27.5q0 40 18 115q29 124 145 124
q62 0 87.5 -27.5t25.5 -66.5q0 -17 -8 -53z" />
    <glyph glyph-name="afii10055" unicode="&#x406;" horiz-adv-x="187" 
d="M257 706l-164 -706h-92l163 706h93z" />
    <glyph glyph-name="afii10056" unicode="&#x407;" horiz-adv-x="187" 
d="M257 706l-164 -706h-92l163 706h93zM348 893l-23 -99h-73l22 99h74zM227 893l-23 -99h-72l23 99h72z" />
    <glyph glyph-name="afii10057" unicode="&#x408;" horiz-adv-x="271" 
d="M341 706l-126 -559q-6 -28 -11 -45t-17 -41t-28 -37t-43.5 -23t-63.5 -10q-50 0 -95 17l24 74q34 -13 66 -13q33 0 50 23.5t30 82.5l119 531h95z" />
    <glyph glyph-name="afii10058" unicode="&#x409;" horiz-adv-x="553" 
d="M457 706l-69 -292h53q110 0 110 -90q0 -21 -10 -66l-30 -134q-18 -79 -43 -101.5t-100 -22.5h-167l143 624h-85l-100 -432q-15 -65 -32.5 -104t-44.5 -58t-54.5 -24.5t-73.5 -5.5l18 82q39 0 59 22t35 88l118 514h273zM370 331l-57 -247h44q34 0 46 13.5t24 67.5l23 106
q4 18 4 27q0 14 -7.5 22t-15.5 9.5t-22 1.5h-39z" />
    <glyph glyph-name="afii10059" unicode="&#x40a;" horiz-adv-x="540" 
d="M445 706l-70 -296h53q110 0 110 -90q0 -21 -10 -66l-29 -130q-18 -79 -43 -101.5t-100 -22.5h-169l77 327h-95l-76 -327h-92l163 706h92l-70 -298h97l69 298h93zM357 327l-56 -243h44q34 0 46 13.5t24 67.5l22 102q4 18 4 27q0 14 -7.5 22t-15.5 9.5t-22 1.5h-39z" />
    <glyph glyph-name="afii10060" unicode="&#x40b;" horiz-adv-x="409" 
d="M429 706l-25 -84h-103l-45 -195q29 11 65 11q42 0 66 -21t24 -62q0 -18 -7 -53l-70 -302h-91l69 301q4 20 4 29q0 27 -32 27q-27 0 -47 -13l-79 -344h-96l143 622h-106l26 84h304z" />
    <glyph glyph-name="afii10061" unicode="&#x40c;" horiz-adv-x="388" 
d="M163 706h93l-67 -292h37q33 0 45 19t27 82l22 94q12 53 39.5 75t75.5 22h37l-19 -82q-24 0 -33 -12.5t-20 -57.5l-15 -64q-14 -60 -31.5 -84t-51.5 -29q22 -4 35 -22t13 -41q0 -25 -6 -51l-28 -121q-5 -18 -5 -31q0 -29 29 -29l-19 -82h-32q-38 0 -57.5 17.5t-19.5 47.5
q0 23 10 69l24 102q7 29 7 53q-1 44 -46 44h-37l-77 -333h-92zM472 893l-155 -120h-53l101 120h107z" />
    <glyph glyph-name="afii10062" unicode="&#x40e;" 
d="M213 344l146 362h94l-268 -603q-15 -35 -32.5 -57t-37.5 -31.5t-35.5 -12t-38.5 -2.5h-28l18 82h19q31 0 49.5 23.5t44.5 89.5l-26 511h95v-362zM268 860q-4 -20 -4 -25q0 -28 32 -28q22 0 32 11.5t17 41.5h74q-11 -55 -40 -84.5t-93 -29.5q-97 0 -97 76q0 15 5 38h74z
" />
    <glyph glyph-name="afii10145" unicode="&#x40f;" horiz-adv-x="373" 
d="M1 0l161 706h92l-144 -624h96l144 624h92l-163 -706h-93l-32 -140h-92l32 140h-93z" />
    <glyph glyph-name="afii10017" unicode="&#x410;" 
d="M353 706l-72 -706h-89l17 133h-112l-52 -133h-91l284 706h115zM265 583l-137 -369h92z" />
    <glyph glyph-name="afii10018" unicode="&#x411;" horiz-adv-x="365" 
d="M408 706l-20 -84h-151l-49 -208h53q110 0 110 -90q0 -21 -10 -66l-30 -134q-18 -79 -43 -101.5t-100 -22.5h-167l163 706h244zM170 331l-57 -247h44q34 0 46 13.5t24 67.5l23 106q4 18 4 27q0 14 -7.5 22t-15.5 9.5t-22 1.5h-39z" />
    <glyph glyph-name="afii10019" unicode="&#x412;" horiz-adv-x="375" 
d="M164 706h153q107 0 107 -86q0 -14 -10 -61l-24 -104q-8 -36 -25.5 -55t-32.5 -23t-41 -5q13 -2 20 -4.5t19.5 -9t18.5 -20t6 -32.5q0 -14 -10 -59l-36 -151q-13 -55 -39.5 -75.5t-82.5 -20.5h-187zM238 624l-51 -216h34q46 0 62 13.5t24 50.5l21 91q5 22 5 30
q0 31 -40 31h-55zM170 332l-57 -247h38q45 0 59 14.5t25 63.5l18 77q9 40 9 51q0 27 -12.5 34t-46.5 7h-33z" />
    <glyph glyph-name="afii10020" unicode="&#x413;" horiz-adv-x="313" 
d="M409 706l-20 -84h-151l-144 -622h-95l163 706h247z" />
    <glyph glyph-name="afii10021" unicode="&#x414;" horiz-adv-x="401" 
d="M-30 82q37 0 60.5 32.5t40.5 107.5l111 484h271l-143 -624h62l-51 -222h-92l32 140h-217l-32 -140h-92zM164 221q-20 -104 -48 -139h102l124 542h-85z" />
    <glyph glyph-name="afii10022" unicode="&#x415;" horiz-adv-x="313" 
d="M390 706l-19 -83h-133l-50 -216h122l-20 -84h-121l-55 -237h154l-20 -86h-248l163 706h227z" />
    <glyph glyph-name="afii10024" unicode="&#x416;" horiz-adv-x="585" 
d="M360 706h93l-67 -292h37q33 0 45 19t27 82l22 94q12 53 39.5 75t75.5 22h37l-19 -82q-24 0 -33 -12.5t-20 -57.5l-15 -64q-14 -60 -31.5 -84t-51.5 -29q22 -4 35 -22t13 -41q0 -25 -6 -51l-28 -121q-5 -18 -5 -31q0 -29 29 -29l-19 -82h-32q-38 0 -57.5 17.5t-19.5 47.5
q0 23 10 69l24 102q7 29 7 53q-1 44 -46 44h-37l-77 -333h-93l77 333h-49q-33 0 -45 -19t-27 -82l-31 -135q-12 -53 -39.5 -75t-75.5 -22h-37l19 82q24 0 33 12.5t20 57.5l26 113q14 57 36.5 82t58.5 31q-37 16 -37 63q0 25 6 51l16 72q5 18 5 31q0 29 -29 29l19 82h32
q38 0 57.5 -17.5t19.5 -47.5q0 -23 -10 -69l-14 -61q-7 -29 -7 -53q1 -44 46 -44h26z" />
    <glyph glyph-name="afii10025" unicode="&#x417;" horiz-adv-x="380" 
d="M58 272h88l-21 -93q-13 -57 -13 -68q0 -27 14.5 -36.5t30.5 -9.5q15 0 27.5 9t20 19.5t14.5 31.5t10 32t8 35l11 47q7 33 7 48q0 20 -9.5 30.5t-34.5 10.5h-58l19 84h43q42 0 59.5 13t27.5 58l9 39q12 48 12 69q0 45 -38 45q-17 0 -26 -4t-21 -24.5t-23 -62.5l-22 -82
h-91l17 73q9 39 15 59t18.5 47t28.5 40t43 23t63 10q57 0 92 -28.5t35 -84.5q0 -51 -22 -134q-8 -29 -14.5 -45.5t-25 -32t-48.5 -18.5q45 -17 45 -77q0 -34 -18 -106q-9 -36 -16 -59t-21 -52.5t-31 -46t-44.5 -28.5t-62.5 -12q-21 0 -40.5 4t-41.5 14.5t-35.5 34
t-13.5 58.5q0 16 19 105z" />
    <glyph glyph-name="afii10026" unicode="&#x418;" horiz-adv-x="385" 
d="M291 0h-92l90 388l-178 -310l-18 -78h-92l163 706h92l-87 -377l178 310l15 67h92z" />
    <glyph glyph-name="afii10027" unicode="&#x419;" horiz-adv-x="385" 
d="M291 0h-92l90 388l-178 -310l-18 -78h-92l163 706h92l-87 -377l178 310l15 67h92zM298 860q-4 -20 -4 -25q0 -28 32 -28q22 0 32 11.5t17 41.5h74q-11 -55 -40 -84.5t-93 -29.5q-97 0 -97 76q0 15 5 38h74z" />
    <glyph glyph-name="afii10028" unicode="&#x41a;" horiz-adv-x="388" 
d="M163 706h93l-67 -292h37q33 0 45 19t27 82l22 94q12 53 39.5 75t75.5 22h37l-19 -82q-24 0 -33 -12.5t-20 -57.5l-15 -64q-14 -60 -31.5 -84t-51.5 -29q22 -4 35 -22t13 -41q0 -25 -6 -51l-28 -121q-5 -18 -5 -31q0 -29 29 -29l-19 -82h-32q-38 0 -57.5 17.5t-19.5 47.5
q0 23 10 69l24 102q7 29 7 53q-1 44 -46 44h-37l-77 -333h-92z" />
    <glyph glyph-name="afii10029" unicode="&#x41b;" horiz-adv-x="386" 
d="M455 706l-162 -706h-92l143 624h-85l-100 -432q-15 -65 -32.5 -104t-44.5 -58t-54.5 -24.5t-73.5 -5.5l18 82q39 0 59 22t35 88l118 514h271z" />
    <glyph glyph-name="afii10030" unicode="&#x41c;" horiz-adv-x="500" 
d="M562 706l-158 -706h-86l133 575l-212 -575h-74l54 575l-133 -575h-86l171 706h118l-41 -513l192 513h122z" />
    <glyph glyph-name="afii10031" unicode="&#x41d;" horiz-adv-x="375" 
d="M444 706l-163 -706h-94l78 327h-96l-76 -327h-92l163 706h92l-70 -298h97l70 298h91z" />
    <glyph glyph-name="afii10032" unicode="&#x41e;" horiz-adv-x="396" 
d="M45 197l74 321q7 32 10.5 44t12 39t15.5 38.5t21 29.5t30 25.5t39 14t52 6.5q13 0 24.5 -1t33.5 -8t37.5 -19t27.5 -38.5t12 -62.5q0 -31 -15 -95l-68 -295q-9 -40 -16 -64t-21.5 -54.5t-32 -47t-46 -28t-66.5 -11.5q-54 0 -95 29t-41 94q0 30 12 83zM253 175l79 344
q11 47 11 66q0 26 -15.5 40t-38.5 14q-32 0 -45 -21.5t-28 -85.5l-77 -333q-13 -57 -13 -76q0 -26 14.5 -38.5t37.5 -12.5q25 0 41 17t21 33.5t13 52.5z" />
    <glyph glyph-name="afii10033" unicode="&#x41f;" horiz-adv-x="375" 
d="M444 706l-163 -706h-94l146 624h-96l-144 -624h-92l163 706h280z" />
    <glyph glyph-name="afii10034" unicode="&#x420;" horiz-adv-x="354" 
d="M165 706h145q110 0 110 -90q0 -21 -10 -66l-25 -109q-18 -79 -43 -101.5t-100 -22.5h-74l-73 -317h-93zM239 623l-52 -222h44q34 0 46 13.5t24 67.5l18 81q4 18 4 27q0 14 -7.5 22t-15.5 9.5t-22 1.5h-39z" />
    <glyph glyph-name="afii10035" unicode="&#x421;" horiz-adv-x="375" 
d="M391 466h-88l14 61q13 57 13 68q0 27 -14 36.5t-30 9.5q-10 0 -18.5 -4t-15 -12.5t-11 -16t-8.5 -22t-6.5 -23t-6 -25.5t-5.5 -24l-79 -330q-12 -48 -12 -69q0 -45 44 -45q15 0 23 4t19 24.5t22 62.5l29 109h91l-24 -100q-9 -39 -15 -59t-18.5 -47t-28.5 -40t-43 -23
t-63 -10q-57 0 -92 28.5t-35 84.5q0 42 22 134l67 280q8 33 12.5 49.5t14.5 44.5t21.5 42.5t28 30.5t40 23t52.5 7q21 0 39.5 -4t40 -14.5t34 -34t12.5 -58.5q0 -11 -1.5 -22.5t-3.5 -20t-6.5 -28t-7.5 -34.5z" />
    <glyph glyph-name="afii10036" unicode="&#x422;" horiz-adv-x="313" 
d="M429 706l-25 -84h-103l-143 -622h-96l143 622h-106l26 84h304z" />
    <glyph glyph-name="afii10037" unicode="&#x423;" 
d="M213 344l146 362h94l-268 -603q-15 -35 -32.5 -57t-37.5 -31.5t-35.5 -12t-38.5 -2.5h-28l18 82h19q31 0 49.5 23.5t44.5 89.5l-26 511h95v-362z" />
    <glyph glyph-name="afii10038" unicode="&#x424;" horiz-adv-x="497" 
d="M273 114l-29 -124h-91l28 123h-10q-57 0 -81.5 6t-42.5 33q-14 20 -14 50q0 26 10 68l49 209q18 79 42 101t101 22h59l28 118h91l-26 -117h8q58 0 83 -6t43 -33q14 -20 14 -50q0 -26 -10 -68l-49 -209q-18 -79 -42 -101t-101 -22h-60zM367 522l-75 -328h39q21 0 33.5 9.5
t16 19.5t7.5 28l45 200q6 28 6 37q0 34 -38 34h-34zM200 194l76 328h-39q-21 0 -33.5 -9.5t-16 -19.5t-7.5 -28l-46 -200q-6 -28 -6 -37q0 -34 38 -34h34z" />
    <glyph glyph-name="afii10039" unicode="&#x425;" 
d="M441 706l-181 -340l25 -366h-92l-10 259l-126 -259h-98l198 373l-28 333h91l11 -230l114 230h96z" />
    <glyph glyph-name="afii10040" unicode="&#x426;" horiz-adv-x="390" 
d="M1 0l161 706h92l-144 -624h96l144 624h92l-144 -624h62l-51 -222h-92l32 140h-248z" />
    <glyph glyph-name="afii10041" unicode="&#x427;" horiz-adv-x="343" 
d="M249 0h-92l76 328q-29 -11 -65 -11q-42 0 -66 21t-24 62q0 18 7 53l59 253h91l-58 -252q-4 -20 -4 -29q0 -27 32 -27q26 0 48 13l67 295h92z" />
    <glyph glyph-name="afii10042" unicode="&#x428;" horiz-adv-x="509" 
d="M1 0l161 706h92l-144 -624h70l144 624h92l-144 -624h70l144 624h92l-163 -706h-414z" />
    <glyph glyph-name="afii10043" unicode="&#x429;" horiz-adv-x="526" 
d="M1 0l161 706h92l-144 -624h70l144 624h92l-144 -624h70l144 624h92l-144 -624h62l-51 -222h-92l32 140h-384z" />
    <glyph glyph-name="afii10044" unicode="&#x42a;" horiz-adv-x="399" 
d="M303 706l-69 -292h53q110 0 110 -90q0 -21 -10 -66l-30 -134q-18 -79 -43 -101.5t-100 -22.5h-167l143 622h-96l19 84h190zM216 331l-57 -247h44q34 0 46 13.5t24 67.5l23 106q4 18 4 27q0 14 -7.5 22t-15.5 9.5t-22 1.5h-39z" />
    <glyph glyph-name="afii10045" unicode="&#x42b;" horiz-adv-x="517" 
d="M257 706l-69 -292h53q110 0 110 -90q0 -21 -10 -66l-30 -134q-18 -79 -43 -101.5t-100 -22.5h-167l163 706h93zM170 331l-57 -247h44q34 0 46 13.5t24 67.5l23 106q4 18 4 27q0 14 -7.5 22t-15.5 9.5t-22 1.5h-39zM586 706l-164 -706h-92l163 706h93z" />
    <glyph glyph-name="afii10046" unicode="&#x42c;" horiz-adv-x="353" 
d="M257 706l-69 -292h53q110 0 110 -90q0 -21 -10 -66l-30 -134q-18 -79 -43 -101.5t-100 -22.5h-167l163 706h93zM170 331l-57 -247h44q34 0 46 13.5t24 67.5l23 106q4 18 4 27q0 14 -7.5 22t-15.5 9.5t-22 1.5h-39z" />
    <glyph glyph-name="afii10047" unicode="&#x42d;" horiz-adv-x="375" 
d="M58 272h88l-21 -93q-13 -57 -13 -68q0 -27 14 -36.5t30 -9.5q10 0 18.5 4t15 12.5t11 16t8.5 22t6.5 23t6 25.5t5.5 24l34 136h-113l19 84h114l25 110q12 48 12 69q0 45 -38 45q-17 0 -26 -4t-21 -24.5t-23 -62.5l-22 -82h-91l17 73q9 39 15 59t18.5 47t28.5 40t43 23
t63 10q57 0 92 -28.5t35 -84.5q0 -42 -22 -134l-67 -280q-8 -33 -12.5 -49.5t-14.5 -44.5t-21.5 -42.5t-28 -30.5t-40 -23t-52.5 -7q-21 0 -39.5 4t-40 14.5t-34 34t-12.5 58.5q0 11 1.5 22.5t3.5 20t6.5 28t7.5 34.5z" />
    <glyph glyph-name="afii10048" unicode="&#x42e;" horiz-adv-x="557" 
d="M206 197l30 130h-67l-76 -327h-92l163 706h92l-70 -298h68l26 110q7 32 10.5 44t12 39t15.5 38.5t21 29.5t30 25.5t39 14t52 6.5q13 0 24.5 -1t33.5 -8t37.5 -19t27.5 -38.5t12 -62.5q0 -31 -15 -95l-68 -295q-9 -40 -16 -64t-21.5 -54.5t-32 -47t-46 -28t-66.5 -11.5
q-54 0 -95 29t-41 94q0 30 12 83zM414 175l79 344q11 47 11 66q0 26 -15.5 40t-38.5 14q-32 0 -45 -21.5t-28 -85.5l-77 -333q-13 -57 -13 -76q0 -26 14.5 -38.5t37.5 -12.5q25 0 41 17t21 33.5t13 52.5z" />
    <glyph glyph-name="afii10049" unicode="&#x42f;" horiz-adv-x="373" 
d="M442 706l-164 -706h-92l75 327h-38q-33 0 -45 -19t-27 -82l-29 -129q-12 -53 -39.5 -75t-75.5 -22h-37l19 82q24 0 33.5 13t19.5 57l24 112q11 53 31.5 76t53.5 30q-41 21 -41 77q0 21 10 66l16 69q18 78 47 101t106 23h153zM200 441q0 -14 7.5 -22t15.5 -9.5t22 -1.5h34
l51 215h-40q-34 0 -46 -13.5t-24 -67.5l-16 -74q-4 -18 -4 -27z" />
    <glyph glyph-name="afii10065" unicode="&#x430;" horiz-adv-x="313" 
d="M241 0h-84v44q-24 -52 -76 -52q-27 0 -47 17t-20 49q0 22 8 59l11 48q12 54 26.5 77.5t49.5 42.5q7 4 57 27.5t60 28.5l18 80q4 16 4 28q0 13 -8.5 20.5t-20.5 7.5q-18 0 -24.5 -11t-13.5 -42l-14 -62h-82l15 67q5 24 11 39.5t19 35t37 29t58 9.5q47 0 74.5 -21t27.5 -63
q0 -20 -7 -51l-67 -294q-14 -61 -14 -82q0 -11 2 -31zM185 164l22 98q-49 -25 -61.5 -33.5t-20.5 -25.5q-6 -13 -16.5 -57.5t-10.5 -58.5t8.5 -21.5t17.5 -7.5q22 0 34.5 22.5t26.5 83.5z" />
    <glyph glyph-name="afii10066" unicode="&#x431;" 
d="M328 355l-51 -225q-8 -34 -13 -50.5t-15 -37t-23 -29.5t-35 -15.5t-53 -6.5q-62 0 -89 26.5t-27 66.5q0 14 9 59l49 215q29 126 55 181t91 95q7 4 22.5 13t23.5 14.5t18.5 13t15 15.5t5.5 16h79q-3 -17 -10 -31t-12 -22t-19 -18.5t-19 -13.5t-24.5 -13.5t-24.5 -13.5
q-53 -30 -79 -59t-38 -74q40 46 88 46q42 0 63.5 -25t21.5 -67q0 -17 -9 -60zM200 135l46 208q11 51 11 61q0 16 -10.5 28t-32.5 12q-7 0 -12 -1t-9.5 -3.5t-7.5 -5t-6 -8t-4.5 -8.5t-4 -11.5t-3.5 -12.5t-3.5 -15t-3.5 -16l-47 -208q-11 -51 -11 -61q0 -40 44 -40
q24 0 34 17t20 64z" />
    <glyph glyph-name="afii10067" unicode="&#x432;" horiz-adv-x="326" 
d="M-1 0l120 533h139q86 0 86 -75q0 -23 -12 -73q-13 -52 -32 -75t-58 -28q52 -11 52 -71q0 -23 -20 -104q-15 -63 -45 -85t-95 -22h-135zM135 247l-41 -178h45q28 0 39 11.5t22 55.5q17 67 17 83q0 28 -39 28h-43zM185 467l-35 -154h40q29 0 40 11.5t21 55.5q11 45 11 59
q0 28 -39 28h-38z" />
    <glyph glyph-name="afii10068" unicode="&#x433;" horiz-adv-x="258" 
d="M330 533l-15 -65h-127l-109 -468h-80l123 533h208z" />
    <glyph glyph-name="afii10069" unicode="&#x434;" horiz-adv-x="356" 
d="M272 65h48l-47 -203h-80l32 138h-190l-32 -138h-80l47 203h6q58 0 82 107l83 361h239zM192 65l93 403h-79l-68 -296q-18 -80 -40 -107h94z" />
    <glyph glyph-name="afii10070" unicode="&#x435;" horiz-adv-x="313" 
d="M293 246h-163l-25 -105q-10 -43 -10 -53q0 -31 35 -31q23 0 32.5 14t19.5 48l22 73h81l-27 -97q-29 -104 -136 -104q-59 0 -82 26.5t-23 63.5q0 19 9 59l61 255q9 38 16 58t21.5 44t39.5 34.5t62 10.5q47 0 78.5 -23.5t31.5 -69.5q0 -25 -10 -65zM147 315h81l18 77
q8 29 8 46q0 39 -35 39q-24 0 -33.5 -17.5t-22.5 -73.5z" />
    <glyph glyph-name="afii10072" unicode="&#x436;" horiz-adv-x="502" 
d="M289 533h79l-50 -221h21q33 0 47 15t24 62l12 53q12 55 39 73t74 18h20l-14 -65h-4q-17 0 -25 -8t-13 -29l-12 -52q-12 -54 -25.5 -74t-45.5 -27q40 -15 40 -64q0 -15 -8 -55l-8 -31q-8 -32 -8 -42q0 -21 27 -21l-14 -65q-23 0 -36.5 1.5t-29 7t-23 18.5t-7.5 34
q0 18 6 42l10 41q7 35 7 54q0 24 -10 34.5t-33 10.5h-27l-56 -243h-79l56 243h-32q-32 0 -46 -15t-25 -62l-18 -75q-12 -55 -39 -73t-74 -18h-20l14 65h4q17 0 25 8t13 29l18 74q12 51 29.5 72t51.5 29q-30 11 -30 54q0 22 11 69q9 36 9 47q0 21 -27 21l14 65
q23 0 36.5 -1.5t29 -7t23 -18.5t7.5 -34q0 -18 -6 -42l-6 -26q-8 -36 -8 -53q0 -39 45 -39h17z" />
    <glyph glyph-name="afii10073" unicode="&#x437;" horiz-adv-x="292" 
d="M116 55q28 0 39 44l20 82q4 15 4 30q0 35 -35 35h-46l16 65h49q23 0 34 12.5t19 48.5l11 48q3 12 3 24q0 30 -25 30q-29 0 -40 -44l-20 -81h-80l16 68q14 64 45.5 94t86.5 30q45 0 71 -22t26 -64q0 -24 -4 -41l-14 -64q-8 -33 -24.5 -48.5t-49.5 -18.5q45 -5 45 -57
q0 -7 -4 -29l-22 -92q-13 -57 -42 -86t-83 -29q-50 0 -77.5 22.5t-27.5 61.5q0 18 5 41l21 93h77l-23 -95q-3 -15 -3 -26q0 -15 9 -23.5t23 -8.5z" />
    <glyph glyph-name="afii10074" unicode="&#x438;" horiz-adv-x="344" 
d="M256 0h-80l68 297l-148 -225l-17 -72h-80l123 533h81l-66 -282l149 228l13 54h81z" />
    <glyph glyph-name="afii10075" unicode="&#x439;" horiz-adv-x="344" 
d="M256 0h-80l68 297l-148 -225l-17 -72h-80l123 533h81l-66 -282l149 228l13 54h81zM240 670q-3 -14 -3 -22q0 -25 27 -25q19 0 28 10t15 37h65q-9 -48 -35 -74t-81 -26q-85 0 -85 67q0 17 4 33h65z" />
    <glyph glyph-name="afii10076" unicode="&#x43a;" horiz-adv-x="334" 
d="M121 533h79l-49 -216h21q34 0 47 11t22 56l13 58q12 55 39 73t74 18h20l-14 -65h-5q-16 0 -24 -8t-13 -29l-11 -47q-12 -54 -25.5 -74t-45.5 -27q40 -15 40 -64q0 -23 -8 -55l-9 -36q-8 -32 -8 -42q0 -21 27 -21l-14 -65q-23 0 -36.5 1.5t-29 7t-23 18.5t-7.5 34
q0 18 6 42l11 46q7 35 7 54q0 24 -10 34.5t-33 10.5h-27l-57 -248h-79z" />
    <glyph glyph-name="afii10077" unicode="&#x43b;" horiz-adv-x="339" 
d="M375 533l-123 -533h-80l108 468h-79l-83 -360q-13 -56 -42.5 -84t-84.5 -28q-18 0 -38 4l17 71l6 -1h9q22 0 36 12t22 47l93 404h239z" />
    <glyph glyph-name="afii10078" unicode="&#x43c;" horiz-adv-x="443" 
d="M356 0h-74q78 340 95 429l-166 -429h-68l29 429l-99 -429h-74l122 533h115l-18 -353l142 353h119z" />
    <glyph glyph-name="afii10079" unicode="&#x43d;" horiz-adv-x="334" 
d="M370 533l-124 -533h-80l57 249h-86l-58 -249h-80l123 533h81l-51 -219h86l51 219h81z" />
    <glyph glyph-name="afii10080" unicode="&#x43e;" 
d="M336 390l-59 -260q-8 -34 -13 -50.5t-15 -37t-23 -29.5t-35 -15.5t-53 -6.5q-62 0 -89 26.5t-27 66.5q0 14 9 59l59 260q10 42 17 63t22 41t39 27.5t62 7.5q62 0 88.5 -27t26.5 -65q0 -17 -9 -60zM200 135l54 243q11 51 11 61q0 16 -10.5 28t-32.5 12q-7 0 -12 -1
t-9.5 -3.5t-7.5 -5t-6 -8t-4.5 -8.5t-4 -11.5t-3.5 -12.5t-3.5 -15t-3.5 -16l-55 -243q-11 -51 -11 -61q0 -40 44 -40q24 0 34 17t20 64z" />
    <glyph glyph-name="afii10081" unicode="&#x43f;" horiz-adv-x="334" 
d="M370 533l-124 -533h-80l108 468h-86l-109 -468h-80l123 533h248z" />
    <glyph glyph-name="afii10082" unicode="&#x440;" horiz-adv-x="313" 
d="M119 533h81l-9 -36q24 45 72 45q31 0 48.5 -19.5t17.5 -50.5q0 -18 -12 -78l-62 -267q-14 -64 -37.5 -100t-67.5 -36q-29 0 -43.5 11.5t-20.5 38.5l-43 -186h-81zM164 392l-57 -246q-8 -40 -8 -52q0 -14 10 -22t23 -8q19 0 29 16.5t20 61.5l55 237q11 48 11 58
q0 16 -9 26t-25 10q-20 0 -28.5 -15.5t-20.5 -65.5z" />
    <glyph glyph-name="afii10083" unicode="&#x441;" horiz-adv-x="292" 
d="M193 214h80l-21 -77q-20 -77 -36 -98q-33 -48 -103 -48q-49 0 -72 25t-23 62q0 19 10 69l61 255q7 30 11.5 45.5t14.5 37t22 31.5t32 18t47 8q31 0 52.5 -9t31 -24t13 -27t3.5 -25q0 -27 -22 -117h-77l5 21q17 74 17 85q0 31 -27 31q-17 0 -24.5 -15.5t-18.5 -60.5
l-57 -241q-14 -56 -14 -71q0 -12 7 -21.5t18 -9.5q19 0 27 15t25 77z" />
    <glyph glyph-name="afii10084" unicode="&#x442;" horiz-adv-x="280" 
d="M350 533l-15 -65h-91l-109 -468h-80l108 468h-92l15 65h264z" />
    <glyph glyph-name="afii10085" unicode="&#x443;" horiz-adv-x="271" 
d="M265 533h88l-230 -570q-10 -24 -17 -38t-21 -32t-35.5 -27t-49.5 -9q-24 0 -54 7l17 74q12 -6 34 -6q15 0 24 5.5t13.5 20.5t6 26t3.5 37l36 512h84l-47 -418z" />
    <glyph glyph-name="afii10086" unicode="&#x444;" horiz-adv-x="493" 
d="M212 -145h-82l32 145h-24q-62 0 -89 27t-27 66q0 14 9 59l56 242q10 42 17 63t22 41t39 27.5t62 7.5h55l39 173h81l-39 -173h26q63 0 89.5 -26.5t26.5 -66.5q0 -14 -9 -59l-56 -242q-10 -42 -17 -63t-22 -41t-39 -27.5t-62 -7.5h-56zM349 470l-91 -407h50q7 0 12 1
t9.5 3.5t7.5 5t6 8t4.5 8.5t4 11.5t3.5 12.5t3.5 15t3.5 16l52 225q11 51 11 61q0 40 -44 40h-32zM146 63h31l91 407h-49q-7 0 -12 -1t-9.5 -3.5t-7.5 -5t-6 -8t-4.5 -8.5t-4 -11.5t-3.5 -12.5t-3.5 -15t-3.5 -16l-52 -225q-11 -51 -11 -61q0 -40 44 -40z" />
    <glyph glyph-name="afii10087" unicode="&#x445;" horiz-adv-x="292" 
d="M359 533l-144 -245l33 -288h-81l-18 198l-105 -198h-88l168 288l-24 245h77l10 -165l84 165h88z" />
    <glyph glyph-name="afii10088" unicode="&#x446;" horiz-adv-x="346" 
d="M-1 0l124 533h80l-108 -468h86l109 468h80l-108 -468h48l-47 -203h-80l32 138h-216z" />
    <glyph glyph-name="afii10089" unicode="&#x447;" horiz-adv-x="304" 
d="M186 533l-44 -188q-5 -21 -5 -31q0 -22 29 -22q18 0 41 10l53 231h80l-124 -533h-79l54 236q-33 -13 -72 -13q-28 0 -47.5 12.5t-19.5 40.5q0 12 13 70l43 187h78z" />
    <glyph glyph-name="afii10090" unicode="&#x448;" horiz-adv-x="443" 
d="M-1 0l124 533h80l-108 -468h57l109 468h80l-108 -468h57l109 468h80l-123 -533h-357z" />
    <glyph glyph-name="afii10091" unicode="&#x449;" horiz-adv-x="455" 
d="M-1 0l124 533h80l-108 -468h57l109 468h80l-108 -468h57l109 468h80l-108 -468h48l-47 -203h-80l32 138h-325z" />
    <glyph glyph-name="afii10092" unicode="&#x44a;" horiz-adv-x="339" 
d="M237 533l-49 -209h53q86 0 86 -75q0 -23 -8 -55l-20 -87q-15 -63 -45 -85t-95 -22h-124l106 468h-88l16 65h168zM172 255l-42 -186h34q29 0 40.5 11.5t20.5 55.5l13 58q5 17 5 33q0 28 -39 28h-32z" />
    <glyph glyph-name="afii10093" unicode="&#x44b;" horiz-adv-x="449" 
d="M201 533l-49 -209h53q86 0 86 -75q0 -23 -8 -55l-20 -87q-15 -63 -45 -85t-95 -22h-124l121 533h81zM136 255l-42 -186h34q29 0 40.5 11.5t20.5 55.5l13 58q5 17 5 33q0 28 -39 28h-32zM485 533l-124 -533h-80l123 533h81z" />
    <glyph glyph-name="afii10094" unicode="&#x44c;" horiz-adv-x="303" 
d="M201 533l-49 -209h53q86 0 86 -75q0 -23 -8 -55l-20 -87q-15 -63 -45 -85t-95 -22h-124l121 533h81zM136 255l-42 -186h34q29 0 40.5 11.5t20.5 55.5l13 58q5 17 5 33q0 28 -39 28h-32z" />
    <glyph glyph-name="afii10095" unicode="&#x44d;" horiz-adv-x="292" 
d="M98 246l16 65h89l13 61q14 67 14 71q0 12 -7 21.5t-18 9.5q-19 0 -28.5 -16.5t-23.5 -75.5l-8 -33h-80l11 46q17 73 36 98q33 48 103 48q49 0 72 -25t23 -62q0 -19 -10 -69l-61 -255q-7 -30 -11.5 -45.5t-14.5 -37t-22 -31.5t-32 -18t-47 -8q-31 0 -52.5 9t-31 24t-13 27
t-3.5 25q0 27 26 133h77l-9 -37q-17 -69 -17 -85q0 -31 27 -31q17 0 24.5 15.5t18.5 60.5l28 115h-89z" />
    <glyph glyph-name="afii10096" unicode="&#x44e;" horiz-adv-x="469" 
d="M472 390l-59 -260q-8 -34 -13 -50.5t-15 -37t-23 -29.5t-35 -15.5t-53 -6.5q-62 0 -89 26.5t-27 66.5q0 14 9 59l24 106h-54l-58 -249h-80l123 533h81l-51 -219h54l20 89q10 42 17 63t22 41t39 27.5t62 7.5q62 0 88.5 -27t26.5 -65q0 -17 -9 -60zM336 135l54 243
q11 51 11 61q0 16 -10.5 28t-32.5 12q-7 0 -12 -1t-9.5 -3.5t-7.5 -5t-6 -8t-4.5 -8.5t-4 -11.5t-3.5 -12.5t-3.5 -15t-3.5 -16l-55 -243q-11 -51 -11 -61q0 -40 44 -40q24 0 34 17t20 64z" />
    <glyph glyph-name="afii10097" unicode="&#x44f;" 
d="M167 0l54 235h-31q-32 0 -45.5 -15t-25.5 -62l-17 -67q-14 -55 -40.5 -73t-72.5 -18h-20l14 65h5q16 0 24 8t13 29l17 66q13 50 30 71.5t50 29.5q-34 17 -34 65q0 15 8 55l9 37q15 63 45 85t95 22h124l-121 -533h-81zM238 305l36 159h-34q-29 0 -40 -11.5t-21 -55.5
l-7 -32q-5 -25 -5 -32q0 -28 39 -28h32z" />
    <glyph glyph-name="afii10071" unicode="&#x451;" horiz-adv-x="313" 
d="M293 246h-163l-25 -105q-10 -43 -10 -53q0 -31 35 -31q23 0 32.5 14t19.5 48l22 73h81l-27 -97q-29 -104 -136 -104q-59 0 -82 26.5t-23 63.5q0 19 9 59l61 255q9 38 16 58t21.5 44t39.5 34.5t62 10.5q47 0 78.5 -23.5t31.5 -69.5q0 -25 -10 -65zM147 315h81l18 77
q8 29 8 46q0 39 -35 39q-24 0 -33.5 -17.5t-22.5 -73.5zM382 723l-23 -100h-74l23 100h74zM250 723l-23 -100h-71l23 100h71z" />
    <glyph glyph-name="afii10099" unicode="&#x452;" 
d="M337 395l-97 -417q-5 -22 -8 -33t-12 -30.5t-20 -29.5t-30.5 -18.5t-45.5 -8.5q-24 0 -53 7l16 73q13 -5 24 -5q26 0 35 12.5t20 60.5l91 392q4 17 4 26q0 13 -9 24.5t-31 11.5q-21 0 -31.5 -13t-16.5 -38l-95 -409h-80l133 576h-45l17 65h43l15 65h80l-15 -65h87
l-16 -65h-86l-20 -89q33 45 81 45q34 0 55 -19.5t21 -53.5q0 -19 -11 -64z" />
    <glyph glyph-name="afii10100" unicode="&#x453;" horiz-adv-x="258" 
d="M330 533l-15 -65h-127l-109 -468h-80l123 533h208zM378 723l-155 -121h-55l101 121h109z" />
    <glyph glyph-name="afii10101" unicode="&#x454;" horiz-adv-x="292" 
d="M244 311l-16 -65h-96l-20 -86q-14 -56 -14 -71q0 -12 7 -21.5t18 -9.5q19 0 27 15t25 77l16 58h80l-19 -71q-20 -77 -36 -98q-33 -48 -103 -48q-49 0 -72 25t-23 62q0 19 10 69l61 255q7 30 11.5 45.5t14.5 37t22 31.5t32 18t47 8q31 0 52.5 -9t31 -24t13 -27t3.5 -25
q0 -26 -20 -108h-77l3 12q17 74 17 85q0 31 -27 31q-17 0 -24.5 -15.5t-18.5 -60.5l-21 -90h96z" />
    <glyph glyph-name="afii10102" unicode="&#x455;" horiz-adv-x="292" 
d="M304 371h-74l5 24q6 30 6 39q0 37 -34 37q-28 0 -38 -29q-14 -36 -14 -66q0 -19 16.5 -40t37 -37t37 -41t16.5 -52q0 -47 -16 -104q-7 -25 -14 -41t-20.5 -34t-37 -27t-56.5 -9q-14 0 -29 3t-35.5 12t-33.5 31t-13 55q0 28 19 104h75l-11 -49q-7 -35 -7 -46q0 -22 12 -31
t27 -9q18 0 30.5 14.5t18 36t8 38.5t2.5 31q0 24 -26 51t-52 57.5t-26 63.5q0 27 14 86q11 49 36 76t79 27q60 0 86 -27t26 -66q0 -17 -9 -58z" />
    <glyph glyph-name="afii10103" unicode="&#x456;" horiz-adv-x="167" 
d="M241 706l-24 -106h-80l24 106h80zM203 533l-124 -533h-80l123 533h81z" />
    <glyph glyph-name="afii10104" unicode="&#x457;" horiz-adv-x="167" 
d="M203 533l-124 -533h-80l123 533h81zM290 706l-24 -106h-74l24 106h74zM178 706l-24 -106h-71l24 106h71z" />
    <glyph glyph-name="afii10105" unicode="&#x458;" horiz-adv-x="167" 
d="M243 706l-25 -109h-81l26 109h80zM203 533l-128 -555q-5 -22 -8 -33t-12 -30.5t-20 -29.5t-30.5 -18.5t-45.5 -8.5q-24 0 -53 7l16 73q12 -5 24 -5q26 0 35 12.5t20 60.5l122 527h80z" />
    <glyph glyph-name="afii10106" unicode="&#x459;" horiz-adv-x="478" 
d="M376 533l-49 -209h53q86 0 86 -75q0 -23 -8 -55l-20 -87q-15 -63 -45 -85t-95 -22h-126l108 468h-79l-83 -360q-13 -56 -42.5 -84t-84.5 -28q-18 0 -38 4l17 71l6 -1h9q22 0 36 12t22 47l93 404h240zM311 255l-43 -186h35q29 0 40.5 11.5t20.5 55.5l13 58q5 18 5 33
q0 28 -39 28h-32z" />
    <glyph glyph-name="afii10107" unicode="&#x45a;" horiz-adv-x="470" 
d="M370 533l-51 -219h53q86 0 86 -75q0 -19 -8 -55l-18 -77q-15 -63 -45 -85t-95 -22h-126l57 249h-86l-58 -249h-80l123 533h81l-51 -219h86l51 219h81zM336 249h-32l-42 -180h35q29 0 40.5 11.5t20.5 55.5l12 52q5 22 5 33q0 28 -39 28z" />
    <glyph glyph-name="afii10108" unicode="&#x45b;" 
d="M313 641l-16 -65h-86l-20 -89q33 45 81 45q34 0 55 -19.5t21 -53.5q0 -19 -11 -64l-92 -395h-80l92 398q4 17 4 26q0 13 -9 24.5t-31 11.5q-21 0 -31.5 -13t-16.5 -38l-95 -409h-80l133 576h-45l17 65h43l15 65h80l-15 -65h87z" />
    <glyph glyph-name="afii10109" unicode="&#x45c;" horiz-adv-x="334" 
d="M121 533h79l-49 -216h21q34 0 47 11t22 56l13 58q12 55 39 73t74 18h20l-14 -65h-5q-16 0 -24 -8t-13 -29l-11 -47q-12 -54 -25.5 -74t-45.5 -27q40 -15 40 -64q0 -23 -8 -55l-9 -36q-8 -32 -8 -42q0 -21 27 -21l-14 -65q-23 0 -36.5 1.5t-29 7t-23 18.5t-7.5 34
q0 18 6 42l11 46q7 35 7 54q0 24 -10 34.5t-33 10.5h-27l-57 -248h-79zM401 723l-155 -121h-55l101 121h109z" />
    <glyph glyph-name="afii10110" unicode="&#x45e;" horiz-adv-x="271" 
d="M265 533h88l-230 -570q-10 -24 -17 -38t-21 -32t-35.5 -27t-49.5 -9q-24 0 -54 7l17 74q12 -6 34 -6q15 0 24 5.5t13.5 20.5t6 26t3.5 37l36 512h84l-47 -418zM205 670q-3 -14 -3 -22q0 -25 27 -25q19 0 28 10t15 37h65q-9 -48 -35 -74t-81 -26q-85 0 -85 67q0 17 4 33
h65z" />
    <glyph glyph-name="afii10193" unicode="&#x45f;" horiz-adv-x="334" 
d="M-1 0l124 533h80l-108 -468h86l109 468h80l-123 -533h-84l-32 -138h-80l32 138h-84z" />
    <glyph glyph-name="afii10050" unicode="&#x490;" horiz-adv-x="313" 
d="M350 846h92l-53 -224h-151l-144 -622h-95l163 706h155z" />
    <glyph glyph-name="afii10098" unicode="&#x491;" horiz-adv-x="258" 
d="M281 666h80l-46 -198h-127l-109 -468h-80l123 533h128z" />
    <glyph glyph-name="Wgrave" unicode="&#x1e80;" horiz-adv-x="479" 
d="M594 706l-248 -706h-107l66 508l-167 -508h-106l85 706h94l-87 -566l183 566h89l-78 -566l180 566h96zM408 774h-47l-97 119h99z" />
    <glyph glyph-name="wgrave" unicode="&#x1e81;" horiz-adv-x="396" 
d="M465 533l-184 -533h-97l49 338l-117 -338h-93l67 533h78l-70 -421l151 421h58l-52 -421l131 421h79zM335 603h-47l-99 120h99z" />
    <glyph glyph-name="Wacute" unicode="&#x1e82;" horiz-adv-x="479" 
d="M594 706l-248 -706h-107l66 508l-167 -508h-106l85 706h94l-87 -566l183 566h89l-78 -566l180 566h96zM521 893l-155 -120h-53l101 120h107z" />
    <glyph glyph-name="wacute" unicode="&#x1e83;" horiz-adv-x="396" 
d="M465 533l-184 -533h-97l49 338l-117 -338h-93l67 533h78l-70 -421l151 421h58l-52 -421l131 421h79zM451 723l-155 -121h-55l101 121h109z" />
    <glyph glyph-name="Wdieresis" unicode="&#x1e84;" horiz-adv-x="479" 
d="M594 706l-248 -706h-107l66 508l-167 -508h-106l85 706h94l-87 -566l183 566h89l-78 -566l180 566h96zM493 893l-23 -99h-73l22 99h74zM362 893l-23 -99h-72l23 99h72z" />
    <glyph glyph-name="wdieresis" unicode="&#x1e85;" horiz-adv-x="396" 
d="M465 533l-184 -533h-97l49 338l-117 -338h-93l67 533h78l-70 -421l151 421h58l-52 -421l131 421h79zM418 723l-23 -100h-74l23 100h74zM286 723l-23 -100h-71l23 100h71z" />
    <glyph glyph-name="Ygrave" unicode="&#x1ef2;" 
d="M452 706l-218 -410l-71 -296h-96l65 296l-14 410h92l-3 -301l144 301h101zM328 774h-47l-97 119h99z" />
    <glyph glyph-name="ygrave" unicode="&#x1ef3;" horiz-adv-x="271" 
d="M265 533h88l-230 -570q-10 -24 -17 -38t-21 -32t-35.5 -27t-49.5 -9q-24 0 -54 7l17 74q12 -6 34 -6q15 0 24 5.5t13.5 20.5t6 26t3.5 37l36 512h84l-47 -418zM262 603h-47l-99 120h99z" />
    <glyph glyph-name="endash" unicode="&#x2013;" horiz-adv-x="348" 
d="M353 333l-19 -84h-296l19 84h296z" />
    <glyph glyph-name="emdash" unicode="&#x2014;" horiz-adv-x="494" 
d="M499 333l-19 -84h-443l19 84h443z" />
    <glyph glyph-name="quoteleft" unicode="&#x2018;" horiz-adv-x="146" 
d="M176 447h-88l31 137q25 111 115 128l-6 -44q-51 -24 -60 -90h38z" />
    <glyph glyph-name="quoteright" unicode="&#x2019;" horiz-adv-x="146" 
d="M233 706l-33 -141q-25 -106 -113 -123l7 44q50 22 59 89h-38l31 131h87z" />
    <glyph glyph-name="quotesinglbase" unicode="&#x201a;" horiz-adv-x="146" 
d="M102 131l-25 -107q-8 -33 -15 -53.5t-20.5 -45t-34.5 -39t-51 -20.5l6 45q25 9 41 34.5t19 54.5h-38l30 131h88z" />
    <glyph glyph-name="quotedblleft" unicode="&#x201c;" horiz-adv-x="292" 
d="M321 447h-88l25 108q7 31 13.5 51t20 45t35.5 40t52 21l-7 -44q-24 -10 -41.5 -36.5t-17.5 -52.5h38zM175 447h-88l25 108q7 31 13.5 51t20 45t35.5 40t52 21l-7 -44q-24 -10 -41.5 -36.5t-17.5 -52.5h38z" />
    <glyph glyph-name="quotedblright" unicode="&#x201d;" horiz-adv-x="292" 
d="M380 706l-25 -107q-8 -34 -15 -54.5t-20 -44.5t-34.5 -38t-51.5 -20l6 44q24 6 42 34.5t18 54.5h-38l30 131h88zM234 706l-25 -107q-8 -34 -15 -54.5t-20 -44.5t-34.5 -38t-51.5 -20l6 44q24 6 42 34.5t18 54.5h-38l30 131h88z" />
    <glyph glyph-name="quotedblbase" unicode="&#x201e;" horiz-adv-x="292" 
d="M248 131l-25 -107q-1 -3 -5 -21t-5.5 -22t-5.5 -18t-8 -20.5t-10.5 -16.5t-14.5 -19q-29 -32 -72 -41l6 45q47 19 60 89h-39l31 131h88zM102 131l-25 -107q-1 -3 -5 -21t-5.5 -22t-5.5 -18t-8 -20.5t-10.5 -16.5t-14.5 -19q-29 -32 -72 -41l6 45q47 19 60 89h-38l30 131
h88z" />
    <glyph glyph-name="dagger" unicode="&#x2020;" 
d="M368 404h-113l-120 -517h-79l120 517h-114l17 73h114l52 229h79l-52 -229h113z" />
    <glyph glyph-name="daggerdbl" unicode="&#x2021;" horiz-adv-x="354" 
d="M306 121h-111l-54 -234h-78l54 234h-112l17 73h112l58 248h-112l16 72h112l44 192h78l-44 -192h111l-16 -72h-111l-58 -248h111z" />
    <glyph glyph-name="bullet" unicode="&#x2022;" 
d="M339 488l-61 -264h-212l61 264h212z" />
    <glyph glyph-name="ellipsis" unicode="&#x2026;" horiz-adv-x="1000" 
d="M860 111l-26 -111h-98l26 111h98zM527 111l-26 -111h-98l26 111h98zM193 111l-25 -111h-98l25 111h98z" />
    <glyph glyph-name="perthousand" unicode="&#x2030;" horiz-adv-x="812" 
d="M582 706l-457 -706h-58l458 706h57zM294 587l-43 -197q-6 -29 -9.5 -43t-12.5 -34.5t-19.5 -29.5t-29 -16.5t-43.5 -7.5q-11 0 -21 2t-25 8t-24 22t-9 40q0 12 3 29.5t5 28.5l3 11l48 218q5 23 10.5 37t16.5 28.5t30 21.5t47 7q36 0 58.5 -18t22.5 -53q0 -18 -8 -54z
M189 372l51 229q6 33 6 35q0 30 -32 30q-20 0 -27 -13t-16 -53l-47 -213q-9 -39 -9 -49q0 -29 31 -29q19 0 27 14t16 49zM588 322l-43 -197q-8 -35 -13.5 -52.5t-17.5 -39t-32.5 -30t-51.5 -8.5q-79 0 -79 71q0 12 2.5 29t5.5 29l3 11l48 218q5 23 10.5 37t16.5 28.5
t30 21.5t47 7q37 0 59.5 -18t22.5 -53q0 -18 -8 -54zM482 107l52 229q6 33 6 35q0 30 -33 30q-20 0 -27 -13t-16 -53l-47 -213q-9 -39 -9 -49q0 -28 30 -28q20 0 28 13.5t16 48.5zM817 322l-43 -197q-8 -35 -13.5 -52.5t-17.5 -39t-32.5 -30t-51.5 -8.5q-79 0 -79 71
q0 12 3 29t5 29l3 11l48 218q5 23 10.5 37t16.5 28.5t30 21.5t47 7q37 0 59.5 -18t22.5 -53q0 -18 -8 -54zM711 107l52 229q6 33 6 35q0 30 -33 30q-20 0 -27 -13t-16 -53l-47 -213q-9 -39 -9 -49q0 -28 30 -28q20 0 28 13.5t16 48.5z" />
    <glyph glyph-name="guilsinglleft" unicode="&#x2039;" horiz-adv-x="208" 
d="M232 466l-26 -113l-89 -65l59 -66l-22 -95l-106 120l24 100z" />
    <glyph glyph-name="guilsinglright" unicode="&#x203a;" horiz-adv-x="208" 
d="M208 346l-23 -100l-160 -119l26 113l89 65l-59 66l22 95z" />
    <glyph glyph-name="fraction" unicode="&#x2044;" horiz-adv-x="125" 
d="M358 706l-458 -706h-58l458 706h58z" />
    <glyph glyph-name="zero.superior" unicode="&#x2070;" horiz-adv-x="229" 
d="M332 736l-54 -216q-13 -57 -27 -75q-28 -37 -83 -37q-83 0 -83 70q0 17 10 59l55 221q14 56 37.5 79t71.5 23q38 0 60 -18t22 -49q0 -21 -9 -57zM221 520l60 243q3 11 3 21q0 30 -32 30q-20 0 -28.5 -11t-17.5 -47l-54 -216q-10 -41 -10 -51q0 -31 32 -31q17 0 27.5 12
t19.5 50z" />
    <glyph glyph-name="four.superior" unicode="&#x2074;" horiz-adv-x="229" 
d="M338 857l-67 -291h30l-11 -51h-31l-23 -100h-58l24 100h-121l12 49l166 293h79zM267 789l-119 -223h66z" />
    <glyph glyph-name="five.superior" unicode="&#x2075;" horiz-adv-x="229" 
d="M346 854l-12 -50h-109l-26 -97q18 21 48 21q29 0 47 -17.5t18 -45.5q0 -14 -7 -42l-29 -122q-13 -52 -35.5 -72.5t-68.5 -20.5q-82 0 -82 62q0 18 8 55l5 24h54l-7 -35q-5 -24 -5 -32q0 -12 8.5 -19.5t22.5 -7.5q18 0 26.5 10t15.5 37l28 116q6 22 6 31q0 14 -9 22t-25 8
q-18 0 -28.5 -11t-17.5 -40h-49l61 226h162z" />
    <glyph glyph-name="six.superior" unicode="&#x2076;" horiz-adv-x="229" 
d="M183 657q20 28 59 28q30 0 46.5 -15.5t16.5 -43.5q0 -16 -6 -39l-24 -95q-12 -46 -35 -65t-67 -19q-92 0 -92 69q0 16 11 60l62 240q12 47 35 65t70 18q87 0 87 -62q0 -17 -6 -45l-4 -20h-57l6 27q3 12 3 23q0 29 -34 29q-17 0 -26.5 -9.5t-16.5 -35.5zM168 598l-21 -81
q-7 -26 -7 -35q0 -27 32 -27q19 0 29 9t18 41l19 72q6 24 6 35q0 26 -31 26q-34 0 -45 -40z" />
    <glyph glyph-name="seven.superior" unicode="&#x2077;" horiz-adv-x="229" 
d="M165 856h186l-10 -46q-47 -71 -79 -139q-51 -109 -91 -256h-66q38 129 80 216q40 83 103 175h-135z" />
    <glyph glyph-name="eight.superior" unicode="&#x2078;" horiz-adv-x="229" 
d="M333 762l-16 -63q-8 -31 -21.5 -43t-47.5 -16q44 -6 46 -45q0 -12 -5 -40l-14 -66q-10 -45 -32 -63t-67 -18q-42 0 -66.5 16.5t-24.5 46.5q0 22 5 42l18 75q8 31 25 44t53 13q-47 12 -47 50q0 14 5 32l18 71q9 34 29.5 48t57.5 14q42 0 66 -15.5t24 -43.5q0 -17 -6 -39z
M264 706l16 62q4 15 4 28q0 24 -28 24q-12 0 -18 -2t-12.5 -11t-11.5 -27l-16 -63q-4 -16 -4 -26q0 -25 29 -25q18 0 26.5 8t14.5 32zM164 586l-18 -82q-3 -12 -3 -23q0 -30 36 -30q33 0 41 40l16 84q2 10 2 19q0 26 -33 26q-20 0 -27.5 -7t-13.5 -27z" />
    <glyph glyph-name="nine.superior" unicode="&#x2079;" horiz-adv-x="229" 
d="M238 611q-20 -28 -59 -28q-30 0 -46.5 15.5t-16.5 43.5q0 16 6 39l24 95q12 46 35 65t67 19q92 0 92 -69q0 -16 -11 -60l-62 -240q-12 -47 -35 -65t-70 -18q-87 0 -87 62q0 17 6 45l5 20h57l-7 -27q-3 -12 -3 -23q0 -29 34 -29q17 0 26.5 9.5t16.5 35.5zM253 670l21 81
q7 26 7 35q0 27 -32 27q-19 0 -29 -9t-18 -41l-19 -72q-6 -24 -6 -35q0 -26 31 -26q34 0 45 40z" />
    <glyph glyph-name="parenleft.superior" unicode="&#x207d;" horiz-adv-x="157" 
d="M321 918l-10 -47q-70 -50 -109.5 -158.5t-39.5 -207.5q0 -86 34 -133l-11 -45q-79 85 -79 197q0 119 56.5 230.5t158.5 163.5z" />
    <glyph glyph-name="parenright.superior" unicode="&#x207e;" horiz-adv-x="157" 
d="M31 327l10 47q70 50 109.5 158.5t39.5 207.5q0 86 -34 133l11 45q79 -85 79 -197q0 -119 -56.5 -230.5t-158.5 -163.5z" />
    <glyph glyph-name="zero.inferior" unicode="&#x2080;" horiz-adv-x="229" 
d="M207 172l-54 -217q-13 -57 -27 -75q-28 -37 -83 -37q-83 0 -83 70q0 17 10 59l55 222q14 56 37.5 79t71.5 23q38 0 60 -18t22 -49q0 -21 -9 -57zM96 -48l60 244q3 10 3 21q0 30 -32 30q-20 0 -28.5 -11t-17.5 -47l-54 -217q-10 -41 -10 -51q0 -31 32 -31q17 0 27.5 12
t19.5 50z" />
    <glyph glyph-name="one.inferior" unicode="&#x2081;" horiz-adv-x="229" 
d="M182 299l-105 -449h-59l78 334h-44l11 45q61 7 76 70h43z" />
    <glyph glyph-name="two.inferior" unicode="&#x2082;" horiz-adv-x="229" 
d="M127 -150h-187l14 48q11 38 28.5 66.5t30.5 42t42 39.5q54 49 64.5 64.5t20.5 57.5l7 30q3 14 3 24q0 24 -27 24q-6 0 -11 -1t-8.5 -4.5t-6 -5.5t-5 -8.5t-3 -9t-2.5 -11.5t-3 -11l-11 -45h-57l15 67q9 39 28.5 58t70.5 19q78 0 78 -65q0 -10 -5 -40l-11 -48
q-3 -11 -5.5 -20t-7.5 -17.5t-8 -13.5t-11.5 -14.5t-12 -13t-17 -16t-19.5 -18.5q-54 -51 -70 -71.5t-25 -49.5h124z" />
    <glyph glyph-name="three.inferior" unicode="&#x2083;" horiz-adv-x="229" 
d="M23 178l10 37q6 21 10.5 32t15 24t28.5 18.5t45 5.5q71 0 71 -60q0 -13 -3 -27l-7 -32q-10 -46 -25.5 -63.5t-46.5 -20.5q44 -8 44 -52q0 -23 -7 -54l-10 -42q-7 -28 -11.5 -41t-15.5 -30t-29.5 -23.5t-46.5 -6.5q-80 0 -80 63q0 16 6 49l6 27h54l-6 -25q-6 -30 -6 -41
q0 -26 29 -26q27 0 34 30l16 62q8 34 8 50q0 30 -31 30q-16 0 -38 -2l14 57q2 0 10 -0.5t12 -0.5q35 0 45 11.5t18 45.5l7 32q3 17 3 21q0 22 -25 22q-17 0 -24 -11t-15 -41l-5 -18h-54z" />
    <glyph glyph-name="four.inferior" unicode="&#x2084;" horiz-adv-x="229" 
d="M213 292l-67 -291h30l-11 -51h-31l-23 -100h-58l24 100h-121l12 49l166 293h79zM142 224l-119 -223h66z" />
    <glyph glyph-name="five.inferior" unicode="&#x2085;" horiz-adv-x="229" 
d="M223 289l-12 -50h-109l-26 -97q18 21 48 21q29 0 47 -17.5t18 -45.5q0 -14 -7 -42l-29 -122q-13 -52 -35.5 -72.5t-68.5 -20.5q-82 0 -82 62q0 18 8 55l5 24h54l-7 -35q-5 -24 -5 -32q0 -12 8.5 -19.5t22.5 -7.5q18 0 26.5 10t15.5 37l28 116q6 22 6 31q0 14 -9 22t-25 8
q-18 0 -28.5 -11t-17.5 -40h-49l61 226h162z" />
    <glyph glyph-name="six.inferior" unicode="&#x2086;" horiz-adv-x="229" 
d="M60 93q20 28 59 28q30 0 46.5 -15.5t16.5 -43.5q0 -16 -6 -39l-24 -95q-12 -46 -35 -65t-67 -19q-92 0 -92 69q0 16 11 60l62 240q12 47 35 65t70 18q87 0 87 -62q0 -17 -6 -45l-4 -20h-57l6 27q3 12 3 23q0 29 -34 29q-17 0 -26.5 -9.5t-16.5 -35.5zM45 34l-21 -81
q-7 -26 -7 -35q0 -27 32 -27q19 0 29 9t18 41l19 72q6 24 6 35q0 26 -31 26q-34 0 -45 -40z" />
    <glyph glyph-name="seven.inferior" unicode="&#x2087;" horiz-adv-x="229" 
d="M40 291h186l-10 -46q-47 -71 -79 -139q-51 -109 -91 -256h-66q38 129 80 216q40 83 103 175h-135z" />
    <glyph glyph-name="eight.inferior" unicode="&#x2088;" horiz-adv-x="229" 
d="M207 197l-16 -63q-8 -31 -21.5 -43t-47.5 -16q44 -6 46 -45q0 -12 -5 -40l-14 -66q-10 -45 -32 -63t-67 -18q-42 0 -66.5 16.5t-24.5 46.5q0 22 5 42l18 75q8 31 25 44t53 13q-47 12 -47 50q0 14 5 32l18 71q9 34 29.5 48t57.5 14q42 0 66 -15.5t24 -43.5q0 -16 -6 -39z
M138 141l16 62q4 15 4 28q0 24 -28 24q-12 0 -18 -2t-12.5 -11t-11.5 -27l-16 -63q-4 -16 -4 -26q0 -25 29 -25q18 0 26.5 8t14.5 32zM38 21l-18 -82q-3 -12 -3 -23q0 -30 36 -30q33 0 41 40l16 84q2 10 2 19q0 26 -33 26q-20 0 -27.5 -7t-13.5 -27z" />
    <glyph glyph-name="nine.inferior" unicode="&#x2089;" horiz-adv-x="229" 
d="M114 46q-20 -28 -59 -28q-30 0 -46.5 15.5t-16.5 43.5q0 17 6 39l24 95q12 46 35 65t67 19q92 0 92 -69q0 -16 -11 -60l-62 -240q-12 -47 -35 -65t-70 -18q-87 0 -87 62q0 17 6 45l5 20h57l-7 -27q-3 -12 -3 -23q0 -29 34 -29q17 0 26.5 9.5t16.5 35.5zM129 105l21 81
q7 26 7 35q0 27 -32 27q-19 0 -29 -9t-18 -41l-19 -72q-6 -24 -6 -35q0 -26 31 -26q34 0 45 40z" />
    <glyph glyph-name="parenleft.inferior" unicode="&#x208d;" horiz-adv-x="157" 
d="M195 353l-10 -47q-70 -50 -109.5 -158.5t-39.5 -207.5q0 -86 34 -133l-11 -45q-79 85 -79 197q0 119 56.5 230.5t158.5 163.5z" />
    <glyph glyph-name="parenright.inferior" unicode="&#x208e;" horiz-adv-x="157" 
d="M-99 -238l10 47q70 50 109.5 158.5t39.5 207.5q0 86 -34 133l11 45q79 -85 79 -197q0 -119 -56.5 -230.5t-158.5 -163.5z" />
    <glyph glyph-name="Euro" unicode="&#x20ac;" horiz-adv-x="409" 
d="M481 646l-40 -77q-38 68 -94 68q-15 0 -26.5 -4t-20 -13.5t-14.5 -17t-11.5 -23.5t-7.5 -23.5t-6.5 -26.5t-5.5 -23l-14 -60h146l-31 -59h-131l-12 -51h121l-30 -57h-104q-30 -128 -30 -148q0 -66 71 -66q59 0 112 50l-22 -99q-54 -25 -123 -25q-60 0 -97 27.5t-37 85.5
q0 47 32 175h-66l30 57h50l12 51h-62l30 59h46l14 58q9 36 11.5 46.5t12 41t16.5 41.5t21 31t29 28t38 15t50 7q50 0 81.5 -15t61.5 -53z" />
    <glyph glyph-name="afii61289" unicode="&#x2113;" horiz-adv-x="414" 
d="M342 150l46 -48q-54 -60 -96.5 -85.5t-93.5 -25.5q-55 0 -85.5 30.5t-30.5 86.5q0 18 10 71q-29 -21 -42 -29l-28 65q63 39 95 60l54 207q34 129 75 181t109 52q49 0 77 -29t28 -79q0 -82 -56 -163q-36 -53 -82 -96.5t-131 -110.5q-20 -83 -20 -104q0 -66 50 -66
q30 0 56.5 18.5t64.5 64.5zM214 331q172 163 172 270q0 43 -39 43q-28 0 -48 -29.5t-40 -108.5z" />
    <glyph glyph-name="afii61352" unicode="&#x2116;" horiz-adv-x="614" 
d="M465 706l-167 -706h-96q-8 497 -8 527l-106 -527h-88l163 706h96l9 -525l113 525h84zM675 587l-43 -197q-6 -29 -9.5 -43t-12.5 -34.5t-19.5 -29.5t-29 -16.5t-43.5 -7.5q-11 0 -21 2t-25 8t-24 22t-9 40q0 12 2.5 29.5t5.5 28.5l3 11l48 218q11 47 32 70.5t72 23.5
q36 0 58.5 -18t22.5 -53q0 -18 -8 -54zM570 372l51 229q6 33 6 35q0 30 -32 30q-20 0 -27 -13t-16 -53l-47 -213q-9 -39 -9 -49q0 -29 31 -29q19 0 27 14t16 49zM387 124l17 71h184l-17 -71h-184z" />
    <glyph glyph-name="trademark" unicode="&#x2122;" horiz-adv-x="567" 
d="M645 706l-77 -332h-62l66 268l-122 -268h-68l3 271l-59 -271h-60l76 332h96l-4 -251l113 251h98zM316 706l-14 -57h-67l-63 -275h-65l64 275h-65l13 57h197z" />
    <glyph glyph-name="Omega" unicode="&#x2126;" horiz-adv-x="361" 
d="M306 72l-16 -72h-140l17 73q25 19 47 75t51 181l46 200q12 51 12 70q0 41 -50 41q-30 0 -44.5 -21t-29.5 -86l-47 -204q-34 -146 -34 -202q0 -35 14 -54l-17 -73h-136l16 72h78q-34 44 -34 105q0 51 27 168l46 198q23 98 60 135.5t107 37.5q64 0 98.5 -28.5t34.5 -81.5
q0 -24 -14 -86l-40 -175q-26 -113 -52 -174.5t-74 -98.5h74z" />
    <glyph glyph-name="estimated" unicode="&#x212e;" horiz-adv-x="693" 
d="M700 332h-540q-4 -36 -4 -56q0 -100 54 -154.5t152 -54.5q75 0 130.5 36.5t100.5 122.5l90 -17q-34 -65 -65 -101q-101 -118 -267 -118q-136 0 -212.5 77.5t-76.5 214.5q0 189 104.5 311t265.5 122q131 0 203 -75t72 -212q0 -42 -7 -96zM173 408h440q1 15 1 35
q0 94 -49.5 146t-139.5 52q-97 0 -161.5 -59.5t-90.5 -173.5z" />
    <glyph glyph-name="onethird" unicode="&#x2153;" horiz-adv-x="583" 
d="M274 714l-105 -449h-59l78 334h-44l11 45q61 7 76 70h43zM566 706l-457 -706h-58l458 706h57zM401 328l10 37q6 21 10.5 32t15 24t28.5 18.5t45 5.5q71 0 71 -60q0 -13 -3 -27l-7 -32q-10 -46 -25.5 -63.5t-46.5 -20.5q44 -8 44 -52q0 -23 -7 -54l-10 -42
q-7 -28 -11.5 -41t-15.5 -30t-29.5 -23.5t-46.5 -6.5q-80 0 -80 63q0 16 6 49l6 27h54l-6 -25q-6 -30 -6 -41q0 -26 29 -26q27 0 34 30l16 62q8 34 8 50q0 30 -31 30q-16 0 -38 -2l14 57q2 0 10 -0.5t12 -0.5q35 0 45 11.5t18 45.5l7 32q3 17 3 21q0 22 -25 22
q-17 0 -24 -11t-15 -41l-5 -18h-54z" />
    <glyph glyph-name="twothirds" unicode="&#x2154;" horiz-adv-x="583" 
d="M587 706l-457 -706h-58l458 706h57zM222 265h-187l14 48q11 38 28 67t31.5 44t42.5 40q53 48 63.5 64t20.5 58l7 30q3 14 3 21q0 27 -28 27q-7 0 -12.5 -2.5t-9 -4.5t-6.5 -8.5t-4 -9.5t-3 -13t-3 -13l-11 -45h-57l15 67q9 39 28.5 58t70.5 19q43 0 60.5 -20.5
t17.5 -48.5q0 -16 -5 -36l-11 -48q-2 -10 -5 -18.5t-5 -14.5t-7.5 -13.5t-8 -11.5t-10.5 -12.5t-11.5 -12t-15.5 -14.5t-17 -16q-53 -50 -70 -72t-26 -52h124zM413 328l10 37q6 21 10.5 32t15 24t28.5 18.5t45 5.5q71 0 71 -60q0 -13 -3 -27l-7 -32q-10 -46 -25.5 -63.5
t-46.5 -20.5q44 -8 44 -52q0 -23 -7 -54l-10 -42q-7 -28 -11.5 -41t-15.5 -30t-29.5 -23.5t-46.5 -6.5q-80 0 -80 63q0 16 6 49l6 27h54l-6 -25q-6 -30 -6 -41q0 -26 29 -26q27 0 34 30l16 62q8 34 8 50q0 30 -31 30q-16 0 -38 -2l14 57q2 0 10 -0.5t12 -0.5q35 0 45 11.5
t18 45.5l7 32q3 17 3 21q0 22 -25 22q-17 0 -24 -11t-15 -41l-5 -18h-54z" />
    <glyph glyph-name="oneeighth" unicode="&#x215b;" horiz-adv-x="583" 
d="M270 714l-105 -449h-59l78 334h-44l11 45q61 7 76 70h43zM562 706l-457 -706h-58l458 706h57zM576 347l-16 -63q-8 -31 -21.5 -43t-47.5 -16q44 -6 46 -45q0 -12 -5 -40l-14 -66q-10 -45 -32 -63t-67 -18q-42 0 -66.5 16.5t-24.5 46.5q0 22 5 42l18 75q8 31 25 44t53 13
q-47 12 -47 50q0 14 5 32l18 71q9 34 29.5 48t57.5 14q42 0 66 -15.5t24 -43.5q0 -16 -6 -39zM507 291l16 62q4 15 4 28q0 24 -28 24q-12 0 -18 -2t-12.5 -11t-11.5 -27l-16 -63q-4 -16 -4 -26q0 -25 29 -25q18 0 26.5 8t14.5 32zM407 171l-18 -82q-3 -12 -3 -23
q0 -30 36 -30q33 0 41 40l16 84q2 10 2 19q0 26 -33 26q-20 0 -27.5 -7t-13.5 -27z" />
    <glyph glyph-name="threeeighths" unicode="&#x215c;" horiz-adv-x="583" 
d="M580 706l-457 -706h-58l458 706h57zM593 347l-16 -63q-8 -31 -21.5 -43t-47.5 -16q44 -6 46 -45q0 -12 -5 -40l-14 -66q-10 -45 -32 -63t-67 -18q-42 0 -66.5 16.5t-24.5 46.5q0 22 5 42l18 75q8 31 25 44t53 13q-47 12 -47 50q0 14 5 32l18 71q9 34 29.5 48t57.5 14
q42 0 66 -15.5t24 -43.5q0 -16 -6 -39zM524 291l16 62q4 15 4 28q0 24 -28 24q-12 0 -18 -2t-12.5 -11t-11.5 -27l-16 -63q-4 -16 -4 -26q0 -25 29 -25q18 0 26.5 8t14.5 32zM424 171l-18 -82q-3 -12 -3 -23q0 -30 36 -30q33 0 41 40l16 84q2 10 2 19q0 26 -33 26
q-20 0 -27.5 -7t-13.5 -27zM110 593l10 37q6 21 10.5 32t15 24t28.5 18.5t45 5.5q71 0 71 -60q0 -14 -3 -27l-7 -32q-10 -46 -25.5 -63.5t-46.5 -20.5q44 -8 44 -52q0 -23 -7 -54l-10 -42q-7 -28 -11.5 -41t-15.5 -30t-29.5 -23.5t-46.5 -6.5q-80 0 -80 63q0 16 6 49l6 27
h54l-6 -25q-6 -30 -6 -41q0 -26 29 -26q27 0 34 30l16 62q8 34 8 50q0 30 -31 30q-16 0 -38 -2l14 57q2 0 10 -0.5t12 -0.5q35 0 45 11.5t18 45.5l7 32q3 16 3 21q0 22 -25 22q-17 0 -24 -11t-15 -41l-5 -18h-54z" />
    <glyph glyph-name="fiveeighths" unicode="&#x215d;" horiz-adv-x="583" 
d="M584 706l-457 -706h-58l458 706h57zM306 704l-12 -50h-109l-26 -97q18 21 48 21q29 0 47 -17.5t18 -45.5q0 -14 -7 -42l-29 -122q-13 -52 -35.5 -72.5t-68.5 -20.5q-82 0 -82 62q0 18 8 55l5 24h54l-7 -35q-5 -24 -5 -32q0 -12 8.5 -19.5t22.5 -7.5q18 0 26.5 10t15.5 37
l28 116q6 22 6 31q0 14 -9 22t-25 8q-18 0 -28.5 -11t-17.5 -40h-49l61 226h162zM595 347l-16 -63q-8 -31 -21.5 -43t-47.5 -16q44 -6 46 -45q0 -12 -5 -40l-14 -66q-10 -45 -32 -63t-67 -18q-42 0 -66.5 16.5t-24.5 46.5q0 22 5 42l18 75q8 31 25 44t53 13q-47 12 -47 50
q0 14 5 32l18 71q9 34 29.5 48t57.5 14q42 0 66 -15.5t24 -43.5q0 -16 -6 -39zM526 291l16 62q4 15 4 28q0 24 -28 24q-12 0 -18 -2t-12.5 -11t-11.5 -27l-16 -63q-4 -16 -4 -26q0 -25 29 -25q18 0 26.5 8t14.5 32zM426 171l-18 -82q-3 -12 -3 -23q0 -30 36 -30q33 0 41 40
l16 84q2 10 2 19q0 26 -33 26q-20 0 -27.5 -7t-13.5 -27z" />
    <glyph glyph-name="seveneighths" unicode="&#x215e;" horiz-adv-x="583" 
d="M558 706l-457 -706h-58l458 706h57zM139 706h186l-10 -46q-47 -71 -79 -139q-51 -109 -91 -256h-66q38 129 80 216q40 83 103 175h-135zM587 347l-16 -63q-8 -31 -21.5 -43t-47.5 -16q44 -6 46 -45q0 -12 -5 -40l-14 -66q-10 -45 -32 -63t-67 -18q-42 0 -66.5 16.5
t-24.5 46.5q0 22 5 42l18 75q8 31 25 44t53 13q-47 12 -47 50q0 14 5 32l18 71q9 34 29.5 48t57.5 14q42 0 66 -15.5t24 -43.5q0 -16 -6 -39zM518 291l16 62q4 15 4 28q0 24 -28 24q-12 0 -18 -2t-12.5 -11t-11.5 -27l-16 -63q-4 -16 -4 -26q0 -25 29 -25q18 0 26.5 8
t14.5 32zM418 171l-18 -82q-3 -12 -3 -23q0 -30 36 -30q33 0 41 40l16 84q2 10 2 19q0 26 -33 26q-20 0 -27.5 -7t-13.5 -27z" />
    <glyph glyph-name="partialdiff" unicode="&#x2202;" horiz-adv-x="447" 
d="M199 631l3 72q46 12 86 12q79 0 115.5 -49.5t36.5 -157.5q0 -147 -52 -311q-67 -208 -203 -208q-69 0 -109.5 46.5t-40.5 126.5q0 110 58.5 189t140.5 79q64 0 108 -56q12 67 12 131q0 74 -20 105.5t-67 31.5q-24 0 -68 -11zM323 298q-36 60 -90 60q-47 0 -80 -57
t-33 -140q0 -49 18.5 -75.5t52.5 -26.5q94 0 132 239z" />
    <glyph glyph-name="Delta" unicode="&#x2206;" horiz-adv-x="445" 
d="M399 0h-444l336 706h99zM92 83h214l8 507z" />
    <glyph glyph-name="product" unicode="&#x220f;" horiz-adv-x="403" 
d="M472 706l-191 -828h-90l172 745h-126l-172 -745h-90l191 828h306z" />
    <glyph glyph-name="summation" unicode="&#x2211;" horiz-adv-x="354" 
d="M442 706l-21 -84h-198l89 -328l-228 -330h194l-22 -86h-301l18 78l241 349l-87 321l19 80h296z" />
    <glyph glyph-name="minus" unicode="&#x2212;" horiz-adv-x="559" 
d="M519 334l-16 -75h-422l18 75h420z" />
    <glyph glyph-name="uni2215" unicode="&#x2215;" horiz-adv-x="125" 
d="M358 706l-458 -706h-58l458 706h58z" />
    <glyph glyph-name="uni2219" unicode="&#x2219;" horiz-adv-x="146" 
d="M149 355l-30 -131h-82l30 131h82z" />
    <glyph glyph-name="radical" unicode="&#x221a;" horiz-adv-x="559" 
d="M604 706l-355 -891h-82l-52 296l-61 -23l-17 67l140 52l41 -263l300 762h86z" />
    <glyph glyph-name="infinity" unicode="&#x221e;" horiz-adv-x="559" 
d="M287 229l-7 -10q-47 -56 -75 -75.5t-65 -19.5q-48 0 -75 35t-27 98q0 86 47 148t110 62q40 0 67 -25t50 -82q42 59 74.5 83t74.5 24q48 0 74 -35.5t26 -96.5q0 -88 -44 -149.5t-108 -61.5q-43 0 -69.5 23t-52.5 82zM344 294q22 -54 37 -73.5t37 -19.5q28 0 48.5 35.5
t20.5 83.5q0 69 -41 69q-18 0 -37.5 -16.5t-64.5 -78.5zM255 295q-21 54 -35.5 74t-36.5 20q-29 0 -49.5 -36t-20.5 -85q0 -31 11 -49t31 -18q11 0 20 4t30.5 26t49.5 64z" />
    <glyph glyph-name="integral" unicode="&#x222b;" horiz-adv-x="274" 
d="M371 705l-19 -82q-22 19 -43 19q-20 0 -31.5 -16.5t-21.5 -59.5l-133 -594q-18 -80 -52 -114t-92 -34q-32 0 -61 12l20 84q21 -18 42 -18q23 0 35.5 16.5t22.5 59.5l123 552q24 109 47 141q33 47 106 47q26 0 57 -13z" />
    <glyph glyph-name="approxequal" unicode="&#x2248;" horiz-adv-x="559" 
d="M509 446l24 -63q-77 -66 -134 -66q-29 0 -84 26l-23 11q-41 20 -70 20q-20 0 -35.5 -9t-50.5 -36l-9 -7l-24 63q39 37 66 51.5t63 14.5q33 0 79 -22l41 -19q38 -17 54 -17q41 0 103 53zM471 281l25 -63q-77 -66 -134 -66q-29 0 -84 26l-23 11q-41 20 -70 20q-21 0 -38 -9
t-48 -36l-9 -8l-24 64q36 36 64.5 51t64.5 15q33 0 79 -22l41 -19q38 -17 54 -17q40 0 102 53z" />
    <glyph glyph-name="notequal" unicode="&#x2260;" horiz-adv-x="550" 
d="M522 424l-17 -73h-137l-65 -98h179l-17 -74h-210l-92 -139h-72l92 139h-106l17 74h137l65 98h-179l16 73h211l85 129h72l-86 -129h107z" />
    <glyph glyph-name="lessequal" unicode="&#x2264;" horiz-adv-x="559" 
d="M533 581l-22 -94l-308 -145l245 -146l-20 -83l-316 193l19 81zM420 76l-17 -76h-362l17 76h362z" />
    <glyph glyph-name="greaterequal" unicode="&#x2265;" horiz-adv-x="559" 
d="M514 388l-19 -80l-403 -195l22 94l308 145l-244 145l20 83zM441 76l-18 -76h-361l17 76h362z" />
    <glyph glyph-name="dotmath" unicode="&#x22c5;" horiz-adv-x="146" 
d="M155 533l-30 -131h-82l30 131h82z" />
    <glyph glyph-name="lozenge" unicode="&#x25ca;" horiz-adv-x="559" 
d="M516 355l-237 -355h-78l-83 356l236 350h79zM428 357l-53 265l-168 -268l51 -270z" />
    <glyph glyph-name="uniF6C1" unicode="&#xf6c1;" 
d="M358 470h-83l22 95q7 29 7 40q0 37 -36 37q-20 0 -29.5 -12t-19.5 -45q-16 -55 -16 -87q0 -12 4 -25.5t7.5 -20.5t12.5 -23t11 -20q5 -8 14.5 -25t12.5 -23t10 -19t9 -18t6.5 -15t5.5 -15.5t3 -14.5t2.5 -16.5t0.5 -16.5q0 -39 -16.5 -111.5t-49.5 -104.5
q-39 -37 -98 -39l-24 -29q13 1 18 1q23 0 38.5 -13t15.5 -36q0 -32 -36 -58.5t-95 -26.5q-32 0 -61 8l6 26q10 -5 37 -5q19 0 40 9.5t21 29.5q0 26 -45 26q-8 0 -23 -3l63 75q-79 16 -79 100q0 23 10 67l21 94h84l-24 -106q-7 -35 -7 -43q0 -43 41 -43q32 0 45 40
q8 23 16.5 67.5t8.5 66.5q0 20 -7.5 37.5t-29.5 54.5q-3 5 -13.5 22t-14.5 24t-12 22.5t-11 25.5t-6 24.5t-3 27.5q0 40 18 115q29 124 145 124q62 0 87.5 -27.5t25.5 -66.5q0 -17 -8 -53z" />
    <glyph glyph-name="uniF6C2" unicode="&#xf6c2;" horiz-adv-x="292" 
d="M304 371h-74l5 24q6 30 6 39q0 37 -34 37q-28 0 -38 -29q-14 -36 -14 -66q0 -19 16.5 -40t37 -37t37 -41t16.5 -52q0 -47 -16 -104q-7 -24 -14 -40t-20.5 -34t-36 -27t-53.5 -10l-24 -29q13 1 18 1q23 0 38.5 -13t15.5 -36q0 -32 -36 -58.5t-95 -26.5q-32 0 -61 8l6 26
q10 -5 37 -5q19 0 40 9.5t21 29.5q0 26 -45 26q-8 0 -23 -3l64 76q-71 19 -71 96q0 28 19 104h75l-11 -49q-7 -35 -7 -46q0 -22 12 -31t27 -9q18 0 30.5 14.5t18 36t8 38.5t2.5 31q0 24 -26 51t-52 57.5t-26 63.5q0 27 14 86q11 49 36 76t79 27q60 0 86 -27t26 -66
q0 -17 -9 -58z" />
    <glyph glyph-name="acute.cap" horiz-adv-x="208" 
d="M208 893l-155 -120h-53l101 120h107z" />
    <glyph glyph-name="breve.cap" horiz-adv-x="209" 
d="M174 893h39l-3 -11q-28 -110 -123 -110q-12 0 -24.5 2.5t-29 10.5t-27 27.5t-10.5 47.5q0 22 3 33h33q5 -64 65 -64q58 0 77 64z" />
    <glyph glyph-name="caron.cap" horiz-adv-x="208" 
d="M-14 895h58l41 -65l75 65h61l-119 -120h-54z" />
    <glyph glyph-name="cedilla.cap" horiz-adv-x="208" 
d="M146 40h47l-65 -78q13 1 18 1q23 0 38.5 -13t15.5 -36q0 -32 -36 -58.5t-95 -26.5q-32 0 -61 8l6 26q10 -5 37 -5q19 0 40 9.5t21 29.5q0 26 -45 26q-8 0 -23 -3z" />
    <glyph glyph-name="circumflex.cap" horiz-adv-x="208" 
d="M222 773h-58l-41 65l-75 -65h-61l119 120h54z" />
    <glyph glyph-name="commaaccent" horiz-adv-x="208" 
d="M84 -30h68l-10 -44q-9 -38 -27 -55.5t-60 -23.5l6 25q29 8 35 33h-27z" />
    <glyph glyph-name="dieresis.cap" horiz-adv-x="208" 
d="M217 893l-23 -99h-73l22 99h74zM86 893l-23 -99h-72l23 99h72z" />
    <glyph glyph-name="dotaccent.cap" horiz-adv-x="209" 
d="M152 893l-23 -99h-72l23 99h72z" />
    <glyph glyph-name="grave.cap" horiz-adv-x="208" 
d="M176 774h-47l-97 119h99z" />
    <glyph glyph-name="hungarumlaut.cap" horiz-adv-x="209" 
d="M133 893l-155 -120h-43l100 120h98zM274 893l-155 -120h-43l100 120h98z" />
    <glyph glyph-name="macron.cap" horiz-adv-x="209" 
d="M213 858l-14 -64h-203l14 64h203z" />
    <glyph glyph-name="ring.cap" horiz-adv-x="209" 
d="M179 836q0 -31 -22.5 -53t-52.5 -22q-32 0 -53.5 21.5t-21.5 53.5q0 31 22 53t53 22t53 -22.5t22 -52.5zM145 836q0 18 -12 29.5t-29 11.5q-18 0 -29.5 -12t-11.5 -29q0 -18 12 -29.5t29 -11.5q18 0 29.5 12t11.5 29z" />
    <glyph glyph-name="tilde.cap" horiz-adv-x="208" 
d="M192 874h32q-14 -87 -78 -87q-16 0 -53 15.5t-49 15.5q-23 0 -31 -31h-31q7 40 30 64t50 24q18 0 53.5 -15.5t48.5 -15.5q21 0 28 30z" />
    <glyph glyph-name="caron.alt" horiz-adv-x="208" 
d="M83 706h76l-11 -50q-10 -47 -31.5 -71t-68.5 -32l8 33q14 3 22.5 10t11.5 13.5t7 20.5h-31z" />
    <glyph glyph-name="zero.tab" horiz-adv-x="354" 
d="M397 517l-74 -333q-6 -29 -9.5 -42.5t-11.5 -38.5t-15.5 -37.5t-21 -29.5t-29.5 -25t-39 -14t-51 -6q-63 0 -94 31t-31 82q0 32 17 110l72 325q15 69 25.5 96.5t34.5 47.5q38 32 110 32q130 0 130 -117q0 -22 -13 -81zM236 183l79 355q10 47 10 57q0 24 -15 37.5
t-39 13.5q-34 0 -46.5 -22.5t-26.5 -85.5l-76 -342q-15 -70 -15 -80q0 -50 52 -50q35 0 48.5 24t28.5 93z" />
    <glyph glyph-name="one.tab" horiz-adv-x="354" 
d="M356 718l-167 -718h-90l125 539h-70l16 68q93 8 123 111h63z" />
    <glyph glyph-name="two.tab" horiz-adv-x="354" 
d="M305 85l-19 -85h-296q23 91 50.5 149.5t53 87.5t76.5 75q82 74 102.5 103.5t37.5 97.5l12 49q5 25 5 34q0 46 -47 46q-21 0 -33.5 -11.5t-18.5 -27t-13 -45.5l-16 -69h-87l25 104q15 62 46.5 92t109.5 30q46 0 75 -17q47 -27 47 -91q0 -31 -7 -57l-19 -78
q-12 -51 -38 -87t-74 -81q-67 -63 -93 -89t-47.5 -59t-31.5 -71h200z" />
    <glyph glyph-name="three.tab" horiz-adv-x="354" 
d="M191 532h-82q29 106 42 128q33 55 129 55q114 0 114 -95q0 -30 -23 -113q-15 -61 -39.5 -83.5t-74.5 -25.5q78 -10 78 -78q0 -54 -45 -213q-7 -26 -15 -42.5t-24 -35.5t-43.5 -28.5t-66.5 -9.5q-127 0 -127 100q0 22 18 120h82q-16 -84 -16 -103q0 -45 49 -45q30 0 42 20
t25 75l13 55q16 65 16 82q0 23 -13 37t-34 14q-3 0 -29 -1.5t-35 -1.5l21 86q22 -2 33 -2q53 0 70.5 15.5t29.5 61.5q21 75 21 103q0 39 -43 39q-31 0 -42.5 -20t-30.5 -94z" />
    <glyph glyph-name="four.tab" horiz-adv-x="354" 
d="M402 706l-109 -468h49l-17 -76h-49l-38 -162h-86l37 162h-195l18 75l268 469h122zM298 622l-204 -384h112z" />
    <glyph glyph-name="five.tab" horiz-adv-x="354" 
d="M416 706l-19 -80h-165l-40 -156q22 34 71 34q9 0 19 -1.5t25 -7t26.5 -15.5t20 -29t8.5 -45q0 -37 -16 -106l-27 -118q-21 -96 -40 -128q-35 -63 -130 -63q-123 0 -123 97q0 13 13 88l8 41h81l-9 -51q-9 -51 -9 -60q0 -19 13 -30.5t35 -11.5q29 0 42 18.5t26 77.5l34 150
q13 58 13 66q0 24 -13.5 37.5t-36.5 13.5q-11 0 -20 -2.5t-16 -8.5t-11.5 -10.5t-9 -15.5t-6 -15t-5.5 -16.5t-4 -14.5h-74l93 362h246z" />
    <glyph glyph-name="six.tab" horiz-adv-x="354" 
d="M394 512h-80q12 67 12 84q0 48 -52 48q-17 0 -27.5 -6t-18.5 -22.5t-12.5 -32.5t-12.5 -50l-33 -143q30 45 86 45q36 0 64 -20.5t28 -68.5q0 -33 -16 -101l-25 -106q-6 -27 -9.5 -39.5t-11.5 -34t-18 -31.5t-25.5 -22t-37.5 -16.5t-51 -4.5q-62 0 -97 27.5t-35 78.5
q0 32 16 100l77 336q7 31 11 46t11.5 38.5t14.5 34.5t19 26t26.5 21t35 11t46.5 5q130 0 130 -101q0 -24 -15 -102zM230 166l14 65q14 64 14 72q0 25 -13 41t-37 16q-32 0 -43.5 -20t-24.5 -79l-19 -84q-13 -56 -13 -69q0 -22 15 -34.5t37 -12.5q30 0 43.5 21t26.5 84z" />
    <glyph glyph-name="seven.tab" horiz-adv-x="354" 
d="M440 706l-17 -74q-44 -63 -94 -160q-110 -213 -179 -472h-101q16 61 31 103q69 204 160 364q37 65 103 159h-216l19 80h294z" />
    <glyph glyph-name="eight.tab" horiz-adv-x="354" 
d="M401 546l-15 -68q-15 -67 -40.5 -89.5t-72.5 -24.5q33 -9 49.5 -25t17.5 -52q0 -28 -9 -71l-21 -95q-7 -32 -14.5 -51t-23 -39.5t-44.5 -30t-72 -9.5q-69 0 -101.5 28.5t-32.5 69.5q0 21 16 108l11 58q13 67 43 90t84 23q-18 5 -30.5 10.5t-25.5 23.5t-13 45q0 29 8 64
l18 80q15 72 50 98t95 26q130 0 132 -95q0 -34 -9 -74zM295 462l19 79q11 47 11 67q0 41 -48 41q-27 0 -37 -15.5t-21 -59.5l-17 -68q-10 -43 -10 -60q0 -43 48 -43q27 0 37.5 14t17.5 45zM232 151l14 68q11 54 11 73q0 39 -50 39q-32 0 -46.5 -19.5t-27.5 -79.5l-14 -67
q-6 -25 -8 -57q0 -17 6.5 -27.5t17.5 -14.5t16.5 -5t10.5 -1q35 0 47.5 19.5t22.5 71.5z" />
    <glyph glyph-name="nine.tab" horiz-adv-x="354" 
d="M36 206h83q-14 -77 -14 -98q0 -42 46 -42q34 0 47 25t34 115l28 118q-9 -14 -15.5 -22.5t-25 -19t-42.5 -10.5q-36 0 -68 20.5t-32 69.5q0 21 17 98l23 101q9 41 16.5 62.5t24 46t44 35t69.5 10.5q70 0 102.5 -31t32.5 -77q0 -34 -13 -86l-77 -337q-16 -69 -26 -99
t-26 -49q-38 -45 -122 -45q-125 0 -125 98q0 14 9 65zM287 441l20 87q12 53 12 69q0 25 -14.5 37.5t-36.5 12.5q-21 0 -33.5 -13t-18 -30t-15.5 -61l-22 -93q-10 -48 -10 -56q0 -19 12 -33.5t38 -14.5q21 0 35 13.5t19.5 30t13.5 51.5z" />
    <glyph glyph-name="i.dot" horiz-adv-x="167" 
d="M241 706l-24 -106h-80l24 106h80zM203 533l-124 -533h-80l123 533h81z" />
    <glyph glyph-name="zero.numerator" horiz-adv-x="229" 
d="M299 586l-54 -216q-13 -57 -27 -75q-28 -37 -83 -37q-83 0 -83 70q0 17 10 59l55 221q14 56 37.5 79t71.5 23q38 0 60 -18t22 -49q0 -21 -9 -57zM188 370l60 243q3 11 3 21q0 30 -32 30q-20 0 -28.5 -11t-17.5 -47l-54 -216q-10 -41 -10 -51q0 -31 32 -31q17 0 27.5 12
t19.5 50z" />
    <glyph glyph-name="one.numerator" horiz-adv-x="229" 
d="M266 714l-105 -449h-59l78 334h-44l11 45q61 7 76 70h43z" />
    <glyph glyph-name="two.numerator" horiz-adv-x="229" 
d="M220 265h-187l14 48q11 38 28.5 66.5t30.5 42t42 39.5q54 49 64.5 64.5t20.5 57.5l7 30q3 13 3 24q0 24 -27 24q-6 0 -11 -1t-8.5 -4.5t-6 -5.5t-5 -8.5t-3 -9t-2.5 -11.5t-3 -11l-11 -45h-57l15 67q9 39 28.5 58t70.5 19q78 0 78 -65q0 -10 -5 -40l-11 -48
q-3 -11 -5.5 -20t-7.5 -17.5t-8 -13.5t-11.5 -14.5t-12 -13t-17 -16t-19.5 -18.5q-54 -51 -70 -71.5t-25 -49.5h124z" />
    <glyph glyph-name="three.numerator" horiz-adv-x="229" 
d="M110 593l10 37q6 21 10.5 32t15 24t28.5 18.5t45 5.5q71 0 71 -60q0 -14 -3 -27l-7 -32q-10 -46 -25.5 -63.5t-46.5 -20.5q44 -8 44 -52q0 -23 -7 -54l-10 -42q-7 -28 -11.5 -41t-15.5 -30t-29.5 -23.5t-46.5 -6.5q-80 0 -80 63q0 16 6 49l6 27h54l-6 -25q-6 -30 -6 -41
q0 -26 29 -26q27 0 34 30l16 62q8 34 8 50q0 30 -31 30q-16 0 -38 -2l14 57q2 0 10 -0.5t12 -0.5q35 0 45 11.5t18 45.5l7 32q3 16 3 21q0 22 -25 22q-17 0 -24 -11t-15 -41l-5 -18h-54z" />
    <glyph glyph-name="four.numerator" horiz-adv-x="229" 
d="M300 705l-67 -289h30l-11 -51h-31l-23 -100h-58l24 100h-121l12 49l166 291h79zM229 637l-119 -221h66z" />
    <glyph glyph-name="five.numerator" horiz-adv-x="229" 
d="M313 703l-12 -50h-109l-26 -97q18 21 48 21q29 0 47 -17.5t18 -45.5q0 -14 -7 -42l-29 -121q-13 -52 -35.5 -72.5t-68.5 -20.5q-82 0 -82 62q0 18 8 55l5 24h54l-7 -35q-5 -24 -5 -32q0 -12 8.5 -19.5t22.5 -7.5q18 0 26.5 10t15.5 37l28 115q6 22 6 31q0 14 -9 22t-25 8
q-18 0 -28.5 -11t-17.5 -40h-49l61 226h162z" />
    <glyph glyph-name="six.numerator" horiz-adv-x="229" 
d="M151 507q20 28 59 28q30 0 46.5 -15.5t16.5 -43.5q0 -16 -6 -39l-24 -95q-12 -46 -35 -65t-67 -19q-92 0 -92 69q0 16 11 60l62 240q12 47 35 65t70 18q87 0 87 -62q0 -17 -6 -45l-4 -20h-57l6 27q3 12 3 23q0 29 -34 29q-17 0 -26.5 -9.5t-16.5 -35.5zM136 448l-21 -81
q-7 -26 -7 -35q0 -27 32 -27q19 0 29 9t18 41l19 72q6 24 6 35q0 26 -31 26q-34 0 -45 -40z" />
    <glyph glyph-name="seven.numerator" horiz-adv-x="229" 
d="M129 706h186l-10 -46q-47 -71 -79 -139q-51 -109 -91 -256h-66q38 129 80 216q40 83 103 175h-135z" />
    <glyph glyph-name="eight.numerator" horiz-adv-x="229" 
d="M299 612l-16 -63q-8 -31 -21.5 -43t-47.5 -16q44 -6 46 -45q0 -12 -5 -40l-14 -66q-10 -45 -32 -63t-67 -18q-42 0 -66.5 16.5t-24.5 46.5q0 22 5 42l18 75q8 31 25 44t53 13q-47 12 -47 50q0 14 5 32l18 71q9 34 29.5 48t57.5 14q42 0 66 -15.5t24 -43.5q0 -17 -6 -39z
M230 556l16 62q4 15 4 28q0 24 -28 24q-12 0 -18 -2t-12.5 -11t-11.5 -27l-16 -63q-4 -16 -4 -26q0 -25 29 -25q18 0 26.5 8t14.5 32zM130 436l-18 -82q-3 -12 -3 -23q0 -30 36 -30q33 0 41 40l16 84q2 10 2 19q0 26 -33 26q-20 0 -27.5 -7t-13.5 -27z" />
    <glyph glyph-name="nine.numerator" horiz-adv-x="229" 
d="M205 461q-20 -28 -59 -28q-30 0 -46.5 15.5t-16.5 43.5q0 16 6 39l24 95q12 46 35 65t67 19q92 0 92 -69q0 -16 -11 -60l-62 -240q-12 -47 -35 -65t-70 -18q-87 0 -87 62q0 17 6 45l5 20h57l-7 -27q-3 -12 -3 -23q0 -29 34 -29q17 0 26.5 9.5t16.5 35.5zM220 520l21 81
q7 26 7 35q0 27 -32 27q-19 0 -29 -9t-18 -41l-19 -72q-6 -24 -6 -35q0 -26 31 -26q34 0 45 40z" />
    <glyph glyph-name="period.numerator" horiz-adv-x="92" 
d="M109 355l-21 -90h-57l21 90h57z" />
    <glyph glyph-name="comma.numerator" horiz-adv-x="92" 
d="M52 355h57l-19 -85q-10 -42 -21 -57q-20 -25 -57 -32l8 33q15 6 22 16.5t13 34.5h-24z" />
    <glyph glyph-name="hyphen.numerator" horiz-adv-x="148" 
d="M194 483l-13 -56h-116l13 56h116z" />
    <glyph glyph-name="parenleft.numerator" horiz-adv-x="157" 
d="M286 768l-10 -47q-70 -50 -109.5 -158.5t-39.5 -207.5q0 -86 34 -133l-11 -45q-79 85 -79 197q0 119 56.5 230.5t158.5 163.5z" />
    <glyph glyph-name="parenright.numerator" horiz-adv-x="157" 
d="M-4 177l10 47q70 50 109.5 158.5t39.5 207.5q0 86 -34 133l11 45q79 -85 79 -197q0 -119 -56.5 -230.5t-158.5 -163.5z" />
    <glyph glyph-name="dollar.numerator" horiz-adv-x="209" 
d="M215 560l13 55q5 22 5 28q0 21 -23 21q-13 0 -19.5 -8t-11.5 -30q-9 -36 -9 -49q0 -17 22 -56q25 -44 32.5 -61.5t7.5 -40.5q0 -25 -12 -76q-11 -45 -29 -63.5t-55 -18.5l-12 -51h-37l12 52q-47 6 -47 56q0 18 7 49l14 59h52l-12 -51q-7 -30 -7 -43q0 -22 26 -22
q21 0 29 26q14 50 14 78q0 18 -24 59q-2 3 -8.5 14t-9 14.5t-7.5 13.5t-6.5 16t-3.5 15t-2 17q0 29 10 66q11 43 26.5 62.5t52.5 21.5l10 47h37l-10 -49q46 -10 46 -53q0 -17 -5 -37l-14 -61h-52z" />
    <glyph glyph-name="cent.numerator" horiz-adv-x="200" 
d="M241 478h-54q12 44 12 62q0 16 -15 16q-10 0 -15.5 -6.5t-10.5 -28.5l-39 -164q-6 -24 -6 -34q0 -14 15 -14q13 0 18.5 8.5t16.5 48.5l8 33h55l-14 -55q-11 -46 -26.5 -64.5t-51.5 -20.5l-12 -49h-36l11 51q-41 8 -41 54q0 16 6 42l39 159q12 47 28 67t48 22l10 48h37
l-11 -50q41 -9 41 -52q0 -27 -13 -73z" />
    <glyph glyph-name="sterling.numerator" horiz-adv-x="297" 
d="M286 498l-10 -43h-57q3 -15 3 -30q0 -50 -35 -95q27 -19 40 -19q14 0 22 14t16 64h51l-10 -50q-4 -18 -8 -30t-12 -25t-21 -19.5t-32 -6.5q-36 0 -76 35q-39 -33 -81 -33q-26 0 -39 14t-13 34q0 26 18.5 41.5t50.5 15.5q26 0 56 -13q15 21 15 49q0 21 -5 55h-60l10 42h43
q-11 63 -11 87q0 77 47 109q29 19 65 19q43 0 63.5 -20.5t20.5 -53.5q0 -24 -11 -69h-55q10 34 10 59q0 34 -33 34q-48 0 -48 -74q0 -33 13 -91h73zM123 314q-22 12 -40 12q-22 0 -22 -18q0 -17 19 -17q20 0 43 23z" />
    <glyph glyph-name="yen.numerator" horiz-adv-x="244" 
d="M346 706l-97 -180h42l-11 -37h-53l-17 -32h63l-10 -37h-66l-35 -155h-56l34 155h-65l10 37h62l-2 32h-54l10 37h43l-10 180h61l-1 -184l85 184h67z" />
    <glyph glyph-name="florin.numerator" horiz-adv-x="155" 
d="M256 708l-11 -46q-9 3 -20 3q-16 0 -21 -23l-9 -40h36l-9 -42h-36l-74 -321q-13 -52 -60 -52q-20 0 -42 5l10 47q12 -4 21 -4q15 0 21 27l69 298h-26l9 42h26l14 60q13 51 59 51q23 0 43 -5z" />
    <glyph glyph-name="Euro.numerator" horiz-adv-x="256" 
d="M355 671l-26 -49q-23 42 -56 42q-26 0 -37.5 -15.5t-22.5 -60.5l-10 -40h92l-20 -37h-81l-8 -32h75l-18 -37h-66q-17 -71 -17 -90q0 -41 44 -41q37 0 70 31l-14 -65q-35 -16 -78 -16q-36 0 -59 19t-23 56q0 34 18 106h-41l19 37h31l8 32h-39l19 37h29l8 35q8 34 14 52.5
t18 39t32 29.5t48 9q55 0 91 -42z" />
    <glyph glyph-name="zero.denominator" horiz-adv-x="229" 
d="M239 321l-54 -216q-13 -57 -27 -75q-28 -37 -83 -37q-83 0 -83 70q0 17 10 59l55 221q14 56 37.5 79t71.5 23q38 0 60 -18t22 -49q0 -21 -9 -57zM128 105l60 243q3 10 3 21q0 30 -32 30q-20 0 -28.5 -11t-17.5 -47l-54 -216q-10 -41 -10 -51q0 -31 32 -31q17 0 27.5 12
t19.5 50z" />
    <glyph glyph-name="one.denominator" horiz-adv-x="229" 
d="M206 449l-105 -449h-59l78 334h-44l11 45q61 7 76 70h43z" />
    <glyph glyph-name="two.denominator" horiz-adv-x="229" 
d="M160 0h-187l14 48q11 38 28.5 66.5t30.5 42t42 39.5q54 49 64.5 64.5t20.5 57.5l7 30q3 14 3 24q0 24 -27 24q-6 0 -11 -1t-8.5 -4.5t-6 -5.5t-5 -8.5t-3 -9t-2.5 -11.5t-3 -11l-11 -45h-57l15 67q9 39 28.5 58t70.5 19q78 0 78 -65q0 -10 -5 -40l-11 -48
q-3 -11 -5.5 -20t-7.5 -17.5t-8 -13.5t-11.5 -14.5t-12 -13t-17 -16t-19.5 -18.5q-54 -51 -70 -71.5t-25 -49.5h124z" />
    <glyph glyph-name="three.denominator" horiz-adv-x="229" 
d="M50 328l10 37q6 21 10.5 32t15 24t28.5 18.5t45 5.5q71 0 71 -60q0 -13 -3 -27l-7 -32q-10 -46 -25.5 -63.5t-46.5 -20.5q44 -8 44 -52q0 -23 -7 -54l-10 -42q-7 -28 -11.5 -41t-15.5 -30t-29.5 -23.5t-46.5 -6.5q-80 0 -80 63q0 16 6 49l6 27h54l-6 -25q-6 -30 -6 -41
q0 -26 29 -26q27 0 34 30l16 62q8 34 8 50q0 30 -31 30q-16 0 -38 -2l14 57q2 0 10 -0.5t12 -0.5q35 0 45 11.5t18 45.5l7 32q3 17 3 21q0 22 -25 22q-17 0 -24 -11t-15 -41l-5 -18h-54z" />
    <glyph glyph-name="four.denominator" horiz-adv-x="229" 
d="M240 440l-67 -289h30l-11 -51h-31l-23 -100h-58l24 100h-121l12 49l166 291h79zM169 372l-119 -221h66z" />
    <glyph glyph-name="five.denominator" horiz-adv-x="229" 
d="M253 438l-12 -50h-109l-26 -97q18 21 48 21q29 0 47 -17.5t18 -45.5q0 -14 -7 -42l-29 -121q-13 -52 -35.5 -72.5t-68.5 -20.5q-82 0 -82 62q0 18 8 55l5 24h54l-7 -35q-5 -24 -5 -32q0 -12 8.5 -19.5t22.5 -7.5q18 0 26.5 10t15.5 37l28 115q6 22 6 31q0 14 -9 22t-25 8
q-18 0 -28.5 -11t-17.5 -40h-49l61 226h162z" />
    <glyph glyph-name="six.denominator" horiz-adv-x="229" 
d="M91 242q20 28 59 28q30 0 46.5 -15.5t16.5 -43.5q0 -17 -6 -39l-24 -95q-12 -46 -35 -65t-67 -19q-92 0 -92 69q0 16 11 60l62 240q12 47 35 65t70 18q87 0 87 -62q0 -17 -6 -45l-4 -20h-57l6 27q3 12 3 23q0 29 -34 29q-17 0 -26.5 -9.5t-16.5 -35.5zM76 183l-21 -81
q-7 -26 -7 -35q0 -27 32 -27q19 0 29 9t18 41l19 72q6 24 6 35q0 26 -31 26q-34 0 -45 -40z" />
    <glyph glyph-name="seven.denominator" horiz-adv-x="229" 
d="M69 441h186l-10 -46q-47 -71 -79 -139q-51 -109 -91 -256h-66q38 129 80 216q40 83 103 175h-135z" />
    <glyph glyph-name="eight.denominator" horiz-adv-x="229" 
d="M239 347l-16 -63q-8 -31 -21.5 -43t-47.5 -16q44 -6 46 -45q0 -12 -5 -40l-14 -66q-10 -45 -32 -63t-67 -18q-42 0 -66.5 16.5t-24.5 46.5q0 22 5 42l18 75q8 31 25 44t53 13q-47 12 -47 50q0 14 5 32l18 71q9 34 29.5 48t57.5 14q42 0 66 -15.5t24 -43.5q0 -16 -6 -39z
M170 291l16 62q4 15 4 28q0 24 -28 24q-12 0 -18 -2t-12.5 -11t-11.5 -27l-16 -63q-4 -16 -4 -26q0 -25 29 -25q18 0 26.5 8t14.5 32zM70 171l-18 -82q-3 -12 -3 -23q0 -30 36 -30q33 0 41 40l16 84q2 10 2 19q0 26 -33 26q-20 0 -27.5 -7t-13.5 -27z" />
    <glyph glyph-name="nine.denominator" horiz-adv-x="229" 
d="M145 196q-20 -28 -59 -28q-30 0 -46.5 15.5t-16.5 43.5q0 17 6 39l24 95q12 46 35 65t67 19q92 0 92 -69q0 -16 -11 -60l-62 -240q-12 -47 -35 -65t-70 -18q-87 0 -87 62q0 17 6 45l5 20h57l-7 -27q-3 -12 -3 -23q0 -29 34 -29q17 0 26.5 9.5t16.5 35.5zM160 255l21 81
q7 26 7 35q0 27 -32 27q-19 0 -29 -9t-18 -41l-19 -72q-6 -24 -6 -35q0 -26 31 -26q34 0 45 40z" />
    <glyph glyph-name="period.denominator" horiz-adv-x="92" 
d="M51 90l-21 -90h-57l21 90h57z" />
    <glyph glyph-name="comma.denominator" horiz-adv-x="92" 
d="M-6 90h57l-19 -85q-10 -42 -21 -57q-20 -25 -57 -32l8 33q15 6 22 16.5t13 34.5h-24z" />
    <glyph glyph-name="hyphen.denominator" horiz-adv-x="148" 
d="M138 218l-13 -56h-116l13 56h116z" />
    <glyph glyph-name="parenleft.denominator" horiz-adv-x="157" 
d="M230 503l-10 -47q-70 -50 -109.5 -158.5t-39.5 -207.5q0 -86 34 -133l-11 -45q-79 85 -79 197q0 119 56.5 230.5t158.5 163.5z" />
    <glyph glyph-name="parenright.denominator" horiz-adv-x="157" 
d="M-64 -88l10 47q70 50 109.5 158.5t39.5 207.5q0 86 -34 133l11 45q79 -85 79 -197q0 -119 -56.5 -230.5t-158.5 -163.5z" />
    <glyph glyph-name="dollar.denominator" horiz-adv-x="209" 
d="M157 295l13 55q5 22 5 28q0 21 -23 21q-13 0 -19.5 -8t-11.5 -30q-9 -36 -9 -49q0 -17 22 -56q25 -44 32.5 -61.5t7.5 -40.5q0 -25 -12 -76q-11 -45 -29 -63.5t-55 -18.5l-12 -51h-37l12 52q-47 6 -47 56q0 18 7 49l14 59h52l-12 -51q-7 -30 -7 -43q0 -22 26 -22
q21 0 29 26q14 50 14 78q0 18 -24 59q-2 3 -8.5 14t-9 14.5t-7.5 13.5t-6.5 16t-3.5 15t-2 17q0 28 10 66q11 43 26.5 62.5t52.5 21.5l10 47h37l-10 -49q46 -10 46 -53q0 -17 -5 -37l-14 -61h-52z" />
    <glyph glyph-name="cent.denominator" horiz-adv-x="200" 
d="M184 213h-54q12 44 12 62q0 16 -15 16q-10 0 -15.5 -6.5t-10.5 -28.5l-39 -164q-6 -24 -6 -34q0 -14 15 -14q13 0 18.5 8.5t16.5 48.5l8 33h55l-14 -55q-11 -46 -26.5 -64.5t-51.5 -20.5l-12 -49h-36l11 51q-41 8 -41 54q0 16 6 42l39 159q12 47 28 67t48 22l10 48h37
l-11 -50q41 -9 41 -52q0 -27 -13 -73z" />
    <glyph glyph-name="sterling.denominator" horiz-adv-x="297" 
d="M235 233l-10 -43h-57q3 -15 3 -30q0 -50 -35 -95q27 -19 40 -19q14 0 22 14t16 64h51l-10 -50q-4 -18 -8 -30t-12 -25t-21 -19.5t-32 -6.5q-36 0 -76 35q-39 -33 -81 -33q-26 0 -39 14t-13 34q0 26 18.5 41.5t50.5 15.5q26 0 56 -13q15 21 15 49q0 21 -5 55h-60l10 42h43
q-11 63 -11 87q0 77 47 109q28 19 65 19q43 0 63.5 -20.5t20.5 -53.5q0 -24 -11 -69h-55q10 34 10 59q0 34 -33 34q-48 0 -48 -74q0 -33 13 -91h73zM72 49q-22 12 -40 12q-22 0 -22 -18q0 -17 19 -17q20 0 43 23z" />
    <glyph glyph-name="yen.denominator" horiz-adv-x="244" 
d="M291 441l-97 -180h42l-11 -37h-53l-17 -32h63l-10 -37h-66l-35 -155h-56l34 155h-65l10 37h62l-2 32h-54l10 37h43l-10 180h61l-1 -184l85 184h67z" />
    <glyph glyph-name="florin.denominator" horiz-adv-x="155" 
d="M197 443l-11 -46q-9 3 -20 3q-16 0 -21 -23l-9 -40h36l-9 -42h-36l-74 -321q-13 -52 -60 -52q-20 0 -42 5l10 47q12 -4 21 -4q15 0 21 27l69 298h-26l9 42h26l14 60q13 51 59 51q23 0 43 -5z" />
    <glyph glyph-name="Euro.denominator" horiz-adv-x="256" 
d="M297 406l-26 -49q-23 42 -56 42q-26 0 -37.5 -15.5t-22.5 -60.5l-10 -40h92l-20 -37h-81l-8 -32h75l-18 -37h-66q-17 -71 -17 -90q0 -41 44 -41q37 0 70 31l-14 -65q-35 -16 -78 -16q-36 0 -59 19t-23 56q0 34 18 106h-41l19 37h31l8 32h-39l19 37h29l8 35q8 34 14 52.5
t18 39t32 29.5t48 9q55 0 91 -42z" />
    <glyph glyph-name="one.superior" horiz-adv-x="229" 
d="M302 864l-105 -449h-59l78 334h-44l11 45q61 7 76 70h43z" />
    <glyph glyph-name="two.superior" horiz-adv-x="229" 
d="M257 415h-187l14 48q11 38 28.5 66.5t30.5 42t42 39.5q54 49 64.5 64.5t20.5 57.5l7 30q3 13 3 24q0 24 -27 24q-6 0 -11 -1t-8.5 -4.5t-6 -5.5t-5 -8.5t-3 -9t-2.5 -11.5t-3 -11l-11 -45h-57l15 67q9 39 28.5 58t70.5 19q78 0 78 -65q0 -10 -5 -40l-11 -48
q-3 -11 -5.5 -20t-7.5 -17.5t-8 -13.5t-11.5 -14.5t-12 -13t-17 -16t-19.5 -18.5q-54 -51 -70 -71.5t-25 -49.5h124z" />
    </font>
</defs>
</svg>
