<?xml version="1.0" encoding="utf-8"?>
<!-- Generator: Adobe Illustrator 19.2.0, SVG Export Plug-In . SVG Version: 6.00 Build 0)  -->
<svg version="1.1" id="Слой_1" xmlns="http://www.w3.org/2000/svg" xmlns:xlink="http://www.w3.org/1999/xlink" x="0px" y="0px"
	 viewBox="0 0 698.1 243.8" style="enable-background:new 0 0 698.1 243.8;" xml:space="preserve">
<style type="text/css">
	.st0{display:none;fill:#015673;}
	.st1{fill:#015673;}
</style>
<g>
	<g>
		<rect x="-176.5" y="-67.3" class="st0" width="1047.2" height="370.2"/>
		<g>
			<g>
				<path class="st1" d="M24.3,236.5c-6.7-4-12-9.6-15.7-17C4.9,212.2,3,203.7,3,194.2c0-9.7,2.2-18,6.6-24.9s10.2-12.1,17.4-15.7
					s14.9-5.3,23-5.3c6.3,0,12.3,0.6,17.9,1.7c5.6,1.1,10.5,2.7,14.7,4.7c-1,5.2-1.5,12.2-1.5,21c-2.2,0.8-4.6,1.2-7.2,1.2
					c-0.3-8.8-2.4-14.8-6.3-18.1s-9.4-5-16.5-5c-7.4,0-13.7,1.7-18.7,5.2c-5.1,3.4-8.8,8-11.3,13.6c-2.5,5.7-3.7,11.8-3.7,18.5
					c0,8.4,1.2,16,3.7,22.7s6.2,12.1,11.1,16s11,5.9,18.1,5.9c2.9,0,5.4-0.2,7.5-0.5s4.2-0.9,6.2-1.7c1.7-0.7,2.9-1.8,3.6-3.2
					c0.7-1.4,1-3.7,1-7v-6.8c0-4.3-0.3-7.4-0.7-9.2c-0.5-1.8-1.5-2.9-3.1-3.5c-1.5-0.5-4.2-0.9-7.9-0.9c-0.5-1.4-0.8-3.4-0.8-6.2
					c3.4,0.3,9,0.4,16.6,0.4c6.8,0,12.1-0.1,15.9-0.3c0,2.6-0.3,4.7-0.8,6.1c-2,0.1-3.4,0.4-4.2,1c-0.8,0.6-1.4,1.8-1.7,3.6
					c-0.3,1.8-0.5,4.8-0.5,9v6.1c0,2.1,0.1,3.9,0.3,5.4c0.2,1.5,0.7,2.9,1.4,4.1c-4.2,3.1-9.3,5.5-15.4,7.4s-12.8,2.8-20.2,2.8
					C38.8,242.5,31,240.5,24.3,236.5z"/>
			</g>
			<g>
				<path class="st1" d="M125.4,219.1c2-0.8,3.7-2,4.9-3.6c1.2-1.7,2.4-4.1,3.5-7.3c1.8,0.6,3.3,1.3,4.2,2.3
					c-1.2,3.8-2.2,8.5-3,14.3c-5-0.1-11.2-0.2-18.6-0.2c-11.7,0-20,0.1-24.8,0.3c0-1.8,0.2-3.2,0.5-4.1c1.8-0.1,3.1-0.4,4.1-1
					c0.9-0.5,1.6-1.4,2-2.7s0.6-3.2,0.6-5.7v-39.3c0-3.2-0.5-5.3-1.4-6.5c-0.9-1.1-2.7-1.7-5.2-1.9c-0.3-0.9-0.5-2.3-0.5-4.1
					c3.7,0.2,7.6,0.3,11.6,0.3c3.9,0,7.8-0.1,11.6-0.3c0,1.9-0.2,3.2-0.5,4.1c-1.8,0.1-3.1,0.4-4.1,0.9c-0.9,0.5-1.6,1.3-2,2.5
					s-0.6,2.9-0.6,5.2v39c0,2.5,0.2,4.3,0.7,5.6c0.4,1.2,1.3,2.1,2.5,2.6s3,0.8,5.5,0.8h0.6C120.5,220.3,123.3,219.9,125.4,219.1z"
					/>
			</g>
			<g>
				<path class="st1" d="M189.7,210.5c-1.2,3.8-2.2,8.5-3,14.3c-5-0.1-11.8-0.2-20.5-0.2c-11.7,0-20,0.1-24.8,0.3
					c0-1.8,0.2-3.2,0.5-4.1c1.8-0.1,3.1-0.4,4.1-1c0.9-0.5,1.6-1.4,2-2.7s0.6-3.2,0.6-5.7v-39.3c0-3.2-0.5-5.3-1.4-6.5
					c-0.9-1.1-2.7-1.7-5.2-1.9c-0.3-0.9-0.5-2.3-0.5-4.1c3.8,0.2,9.1,0.3,16.1,0.3c11.6,0,20.6-0.1,26.9-0.3c0.6,7,1.3,12.1,2,15.1
					c-1,0.8-2.4,1.1-4.3,1.1c-0.3-3.6-1.6-6.5-3.9-8.8c-2.3-2.3-6.2-3.4-11.8-3.4h-8.9V190h6c4,0,6.8-0.5,8.3-1.6s2.3-3.1,2.3-6.2
					c1.5-0.4,3.1-0.7,4.6-0.7c-0.1,2.2-0.2,5.6-0.2,10.4c0,5.2,0.1,8.9,0.2,11.1c-1.7,0-3.2-0.2-4.4-0.5c-0.3-3.3-1.1-5.6-2.6-6.7
					c-1.5-1.2-4.2-1.8-8.2-1.8h-6v17.3c0,2.4,0.2,4.3,0.7,5.5c0.4,1.2,1.3,2.1,2.5,2.6s3.1,0.8,5.5,0.8h0.6c4.4,0,7.8-0.4,10.1-1.3
					c2.4-0.9,4.1-2.1,5.2-3.7c1.1-1.6,2.2-3.9,3.3-7C187.3,208.8,188.7,209.6,189.7,210.5z"/>
			</g>
			<g>
				<path class="st1" d="M200.8,165.6c-0.9-1.1-2.7-1.7-5.2-1.9c-0.3-0.9-0.5-2.3-0.5-4.1c3.5,0.2,7.4,0.3,11.6,0.3
					c3.9,0,7.8-0.1,11.6-0.3c0,1.9-0.2,3.2-0.5,4.1c-2.6,0.1-4.3,0.8-5.2,1.9c-0.9,1.1-1.4,3.3-1.4,6.5v40.4c0,3.2,0.5,5.3,1.4,6.5
					c0.9,1.1,2.7,1.7,5.2,1.9c0.3,0.9,0.5,2.3,0.5,4.1c-3.8-0.2-7.7-0.3-11.6-0.3c-4.5,0-8.3,0.1-11.6,0.3c0-1.8,0.2-3.2,0.5-4.1
					c2.6-0.1,4.3-0.7,5.2-1.9c0.9-1.1,1.4-3.3,1.4-6.5v-40.4C202.2,168.9,201.7,166.7,200.8,165.6z"/>
			</g>
			<g>
				<path class="st1" d="M305.6,224.9c-2.9-0.2-6.8-0.3-11.5-0.3c-4.5,0-8.4,0.1-11.7,0.3c0-1.5,0.2-2.9,0.6-4.1
					c2.4-0.3,4.1-0.8,4.9-1.6s1.2-2.4,1.2-4.6c0-1.3-0.1-2.9-0.3-4.8l-3.4-32.8l-19.8,47.9c-1.1,0.4-2.4,0.7-3.9,0.7L239.3,177
					l-3.1,30.7c-0.2,1.9-0.3,3.6-0.3,5c0,2.9,0.5,5,1.5,6.1s2.7,1.8,5,2c0.3,1.1,0.5,2.5,0.5,4.1c-3.1-0.2-6.5-0.3-10.2-0.3
					c-3.8,0-7,0.1-9.6,0.3c0-1.7,0.2-3,0.5-4.1c1.8-0.2,3.2-0.6,4.1-1.3c1-0.7,1.7-2,2.2-3.9s1-4.8,1.4-8.7l3.1-34.1
					c0.1-0.6,0.1-1.3,0.1-2.3c0-2.5-0.5-4.2-1.5-5.3c-1-1-2.7-1.5-5-1.5c-0.3-1-0.5-2.4-0.5-4.1c1.9,0.2,4.3,0.3,7.3,0.3
					c2.4,0,4.8-0.1,7.3-0.3l23.9,52.9l20.9-52.9c2.2,0.2,4.7,0.3,7.5,0.3c2.3,0,4.7-0.1,7.3-0.3c0,1.5-0.2,2.9-0.5,4.1
					c-2.2,0-3.8,0.5-4.9,1.6s-1.7,3-1.7,5.6c0,1,0,1.8,0.1,2.4l3.4,35.1c0.3,3.2,0.7,5.6,1.2,7.3s1.2,2.9,2.1,3.6
					c0.9,0.7,2.1,1.1,3.6,1.2C305.4,221.8,305.6,223.2,305.6,224.9z"/>
			</g>
			<g>
				<path class="st1" d="M338.4,221.2c-4.6-2.8-8.2-6.8-10.8-11.9c-2.6-5.1-3.9-10.9-3.9-17.5c0-7,1.5-13,4.5-17.9
					s6.9-8.6,11.8-11.1s10.1-3.7,15.7-3.7c3.9,0,7.5,0.4,10.8,1.2s6.8,2.1,10.4,3.8c-0.7,3.3-1.1,8.3-1.1,14.8
					c-1.4,0.6-3.1,0.9-5.1,0.9c-0.3-6.4-1.6-10.8-3.9-13.2c-2.4-2.4-5.8-3.6-10.4-3.6c-5.2,0-9.4,1.2-12.8,3.6
					c-3.4,2.4-5.9,5.6-7.5,9.6s-2.4,8.3-2.4,13c0,5.7,1,10.9,2.9,15.6c1.9,4.6,4.8,8.3,8.5,10.9c3.7,2.6,8,4,13,4
					c3,0,6.1-0.5,9.3-1.5c3.2-1,6.2-2.4,8.9-4.1c0.4,0.3,0.8,0.8,1.1,1.4c0.4,0.6,0.6,1.1,0.6,1.6c-3.9,3-7.7,5.2-11.3,6.5
					c-3.7,1.3-7.9,2-12.6,2C348.3,225.5,343.1,224,338.4,221.2z"/>
			</g>
			<g>
				<path class="st1" d="M442.1,224.9c-3.8-0.2-7.5-0.3-10.9-0.3s-7,0.1-10.8,0.3c0-1.8,0.2-3.2,0.7-4.1c1.8-0.2,3-0.5,3.8-0.9
					c0.7-0.4,1.1-1,1.1-1.9c0-0.8-0.5-2.3-1.4-4.7l-4.2-9.8c-10.1,0-18.6,0.1-25.3,0.4l-2.6,6.6c-1,2.7-1.5,4.8-1.5,6.3
					c0,1.3,0.4,2.2,1.2,2.8c0.8,0.6,2.1,1,3.8,1.1c0.4,1.1,0.7,2.5,0.7,4.1c-2.2-0.2-5.2-0.3-9.1-0.3c-1.7,0-4.3,0.1-7.9,0.3
					c0-1.6,0.2-2.9,0.7-4c1.7-0.3,3-1.1,3.9-2.5s2.2-4,3.7-7.8l19.8-50.8c1.1-0.3,2.3-0.4,3.7-0.4l22.8,52.3
					c1.6,3.6,2.9,5.9,3.8,7.1c0.9,1.1,2.1,1.9,3.6,2.1C441.9,222,442.1,223.4,442.1,224.9z M418.5,199.2l-7.3-17
					c-1.9-4.4-3.3-7.9-4.2-10.4c-0.7,2.2-1.9,5.6-3.6,10.3l-6.6,17.1L418.5,199.2L418.5,199.2z"/>
			</g>
			<g>
				<path class="st1" d="M487.7,164.9c3.5,3.5,5.3,7.9,5.3,13.4c0,3.8-0.8,7.4-2.5,10.8c-1.7,3.3-4.1,6.1-7.4,8.2
					c-3.3,2.1-7.2,3.2-11.8,3.2c-2.7,0-4.9-0.3-6.7-1.1c-0.1-0.8-0.2-1.4-0.2-1.8c0-0.8,0.1-1.5,0.3-2.1c1.6,0.4,3.3,0.6,5.1,0.6
					c9,0,13.5-5,13.5-14.9c0-5.4-1.3-9.6-3.9-12.6s-6.7-4.5-12.2-4.5c-1.4,0-3,0.2-4.9,0.6v46c0,2.7,0.3,4.8,0.9,6.3s1.5,2.4,2.6,3
					c1.2,0.5,2.9,0.9,5,1c0.3,0.9,0.5,2.3,0.5,4.1c-2.9-0.2-7-0.3-12.1-0.3c-6.2,0-10.5,0.1-13,0.3c0-1.8,0.2-3.2,0.5-4.1
					c2.6-0.1,4.3-0.7,5.2-1.9c0.9-1.1,1.4-3.3,1.4-6.5v-40.4c0-3.2-0.5-5.3-1.4-6.5c-0.9-1.1-2.7-1.7-5.2-1.9
					c-0.3-0.9-0.5-2.3-0.5-4.1c3.3,0.2,7.7,0.3,13,0.3l12.2-0.2C478.7,159.7,484.2,161.4,487.7,164.9z"/>
			</g>
			<g>
				<path class="st1" d="M503.5,165.6c-0.9-1.1-2.7-1.7-5.2-1.9c-0.3-0.9-0.5-2.3-0.5-4.1c3.5,0.2,7.4,0.3,11.6,0.3
					c3.9,0,7.8-0.1,11.6-0.3c0,1.9-0.2,3.2-0.5,4.1c-2.6,0.1-4.3,0.8-5.2,1.9c-0.9,1.1-1.4,3.3-1.4,6.5v40.4c0,3.2,0.5,5.3,1.4,6.5
					c0.9,1.1,2.7,1.7,5.2,1.9c0.3,0.9,0.5,2.3,0.5,4.1c-3.8-0.2-7.7-0.3-11.6-0.3c-4.5,0-8.3,0.1-11.6,0.3c0-1.8,0.2-3.2,0.5-4.1
					c2.6-0.1,4.3-0.7,5.2-1.9c0.9-1.1,1.4-3.3,1.4-6.5v-40.4C504.9,168.9,504.4,166.7,503.5,165.6z"/>
			</g>
			<g>
				<path class="st1" d="M572.9,163.1c0,2.6,0.2,6.5,0.7,11.9c-1.3,0.6-2.9,0.9-4.8,0.9c-0.1-3.8-1.1-6.7-2.8-8.7s-4.4-3-8-3h-5.1
					v48.3c0,2.2,0.2,3.9,0.6,5c0.4,1.1,1.1,1.9,2.2,2.4s2.6,0.8,4.7,0.9c0.3,0.9,0.5,2.3,0.5,4.1c-4.1-0.2-8.3-0.3-12.5-0.3
					c-4.8,0-9,0.1-12.5,0.3c0-1.8,0.2-3.2,0.5-4.1c2.1-0.1,3.7-0.4,4.8-0.9s1.8-1.3,2.2-2.4c0.4-1.1,0.6-2.8,0.6-5v-48.3h-5
					c-2.9,0-5.2,0.5-6.8,1.4s-2.7,2.2-3.4,3.7c-0.7,1.6-1.3,3.7-1.8,6.6c-2.1,0-3.6-0.3-4.6-0.9c1-5.7,1.5-10.8,1.5-15.3
					c3.6,0.2,11.7,0.3,24.4,0.3c12.9,0,21.1-0.1,24.6-0.3V163.1z"/>
			</g>
			<g>
				<path class="st1" d="M630.5,224.9c-3.8-0.2-7.5-0.3-10.9-0.3s-7,0.1-10.8,0.3c0-1.8,0.2-3.2,0.7-4.1c1.8-0.2,3-0.5,3.8-0.9
					c0.7-0.4,1.1-1,1.1-1.9c0-0.8-0.5-2.3-1.4-4.7l-4.2-9.8c-10.1,0-18.6,0.1-25.3,0.4l-2.6,6.6c-1,2.7-1.5,4.8-1.5,6.3
					c0,1.3,0.4,2.2,1.2,2.8s2.1,1,3.8,1.1c0.4,1.1,0.7,2.5,0.7,4.1c-2.2-0.2-5.2-0.3-9.1-0.3c-1.7,0-4.3,0.1-7.9,0.3
					c0-1.6,0.2-2.9,0.7-4c1.7-0.3,3-1.1,3.9-2.5s2.2-4,3.7-7.8l19.8-50.8c1.1-0.3,2.3-0.4,3.7-0.4l22.8,52.3
					c1.6,3.6,2.9,5.9,3.8,7.1c0.9,1.1,2.1,1.9,3.6,2.1C630.3,222,630.5,223.4,630.5,224.9z M606.8,199.2l-7.3-17
					c-1.9-4.4-3.3-7.9-4.2-10.4c-0.7,2.2-1.9,5.6-3.6,10.3l-6.6,17.1L606.8,199.2L606.8,199.2z"/>
			</g>
			<g>
				<path class="st1" d="M676.1,233.5c2.9-1.1,5.2-2.8,6.9-5.2s3.4-5.8,5-10.3c2.6,0.8,4.6,1.9,6,3.3c-1.7,5.3-3.1,12.1-4.2,20.2
					c-7.1-0.2-15.8-0.3-26.3-0.3c-16.6,0-28.4,0.1-35.1,0.4c0-2.6,0.2-4.6,0.7-5.8c2.5-0.2,4.5-0.6,5.8-1.4c1.3-0.7,2.3-2,2.8-3.9
					c0.6-1.9,0.9-4.5,0.9-8.1v-55.8c0-4.5-0.7-7.6-2-9.2c-1.3-1.6-3.8-2.5-7.4-2.6c-0.5-1.3-0.7-3.2-0.7-5.8
					c5.2,0.3,10.7,0.4,16.4,0.4c5.5,0,11-0.1,16.4-0.4c0,2.6-0.2,4.6-0.7,5.8c-2.5,0.2-4.5,0.6-5.8,1.3s-2.2,1.9-2.8,3.6
					c-0.5,1.7-0.8,4.2-0.8,7.3v55.4c0,3.5,0.3,6.2,0.9,7.9c0.6,1.7,1.8,2.9,3.5,3.7c1.7,0.7,4.3,1.1,7.7,1.1h0.8
					C669.3,235.1,673.2,234.6,676.1,233.5z"/>
			</g>
		</g>
		<g>
			<path class="st1" d="M206.1,232.8v10.5h-0.6v-10.5H206.1z"/>
			<path class="st1" d="M224.7,242.2v-9.4h0.6v10.5h-0.6l-6-9.4v9.4h-0.6v-10.5h0.6L224.7,242.2z"/>
			<path class="st1" d="M236.3,232.8h0.7l3.5,9.6l3.5-9.6h0.7l-3.8,10.5h-0.7L236.3,232.8z"/>
			<path class="st1" d="M256.3,233.4v4.3h4.8v0.6h-4.8v4.3h5.7v0.6h-6.3v-10.5h6.3v0.6L256.3,233.4L256.3,233.4z"/>
			<path class="st1" d="M280.1,235.6c-0.3-0.8-0.8-1.5-1.5-1.9c-0.5-0.3-1.2-0.5-1.8-0.5c-0.6,0-1.2,0.1-1.7,0.4c-0.6,0.3-1,1-1,1.6
				c0,0.5,0.2,0.9,0.5,1.2c0.4,0.4,1,0.6,1.6,0.8l1.9,0.6c0.7,0.2,1.3,0.5,1.9,1c0.5,0.5,0.8,1.1,0.8,1.8c0,0.8-0.4,1.7-1.1,2.2
				s-1.7,0.7-2.6,0.7c-1.3,0-2.5-0.5-3.3-1.5c-0.4-0.6-0.6-1.2-0.8-1.8l0.6-0.2c0.1,0.6,0.3,1.2,0.7,1.6c0.6,0.9,1.7,1.2,2.8,1.2
				c0.8,0,1.7-0.2,2.2-0.6c0.6-0.4,0.8-1.1,0.8-1.7c0-0.5-0.2-1-0.6-1.3c-0.4-0.4-1-0.7-1.6-0.9l-1.9-0.6c-0.6-0.2-1.3-0.4-1.9-1
				c-0.5-0.5-0.7-1.1-0.7-1.7c0-0.9,0.6-1.7,1.4-2.1c0.6-0.3,1.3-0.5,2-0.5c0.8,0,1.6,0.2,2.2,0.6c0.8,0.5,1.4,1.3,1.7,2.3
				L280.1,235.6z"/>
			<path class="st1" d="M299.5,233.4h-3.9v9.9H295v-9.9h-3.9v-0.6h8.3v0.6H299.5z"/>
			<path class="st1" d="M320.7,243.3h-0.6v-9l-4.1,9h-0.7l-4.1-9v9h-0.6v-10.5h0.6l4.5,9.8l4.4-9.8h0.6L320.7,243.3L320.7,243.3z"/>
			<path class="st1" d="M333.4,233.4v4.3h4.8v0.6h-4.8v4.3h5.7v0.6h-6.3v-10.5h6.3v0.6L333.4,233.4L333.4,233.4z"/>
			<path class="st1" d="M357.5,242.2v-9.4h0.6v10.5h-0.6l-6-9.4v9.4h-0.6v-10.5h0.6L357.5,242.2z"/>
			<path class="st1" d="M377.5,233.4h-3.9v9.9H373v-9.9h-3.9v-0.6h8.3v0.6H377.5z"/>
			<path class="st1" d="M415.4,233.4v4.3h4.3v0.6h-4.3v4.9h-0.6v-10.5h5.8v0.6L415.4,233.4L415.4,233.4z"/>
			<path class="st1" d="M439.9,239.6c0,0.8-0.4,1.8-0.9,2.5c-0.7,0.9-1.9,1.5-3.1,1.4c-1.2,0-2.4-0.5-3.1-1.4
				c-0.5-0.6-0.9-1.6-0.9-2.5v-6.8h0.6v6.1c0,1.2,0,1.9,0.8,2.8c0.6,0.8,1.6,1.3,2.6,1.3s2-0.5,2.6-1.3c0.7-0.9,0.8-1.7,0.8-2.8
				v-6.1h0.6V239.6z"/>
			<path class="st1" d="M458.6,242.2v-9.4h0.6v10.5h-0.6l-6-9.4v9.4H452v-10.5h0.6L458.6,242.2z"/>
			<path class="st1" d="M479.3,238c0,0.9-0.2,1.8-0.6,2.6c-0.8,1.6-2.5,2.7-4.3,2.7h-3v-10.5h3c1.9,0,3.5,1,4.3,2.7
				C479.1,236.3,479.2,237.2,479.3,238z M478.6,238c0-0.8-0.1-1.6-0.5-2.3c-0.7-1.4-2.1-2.3-3.8-2.3H472v9.2h2.3
				c1.7,0,3.1-0.9,3.8-2.3C478.5,239.6,478.6,238.8,478.6,238z"/>
		</g>
	</g>
	<g>
		<g>
			<path class="st1" d="M419.4,91.5c-1.7,7.3-5.1,14.3-9.8,20.6c-10.1,13.4-25.8,19.7-43.2,19.7c-17.4,0-32.4-6.3-43-19.7
				c-10.1-13.2-13.6-30-13.2-45.7c0.3-15.7,3.1-32.2,13.2-45.5C333.5,7.5,349.2,1,366.5,1c17.2,0,33.5,6.6,43.2,19.9
				c5.4,7.1,8.7,15.2,10.6,23.5l-7.7,1.2c-1.6-7.3-4.5-14.3-8.9-20.2c-8.5-11.3-22.8-16.7-37.3-16.9c-14.3-0.2-28.6,5.6-36.9,16.9
				c-8.7,11.3-11.3,26.3-11.3,41s2.6,29.6,11.3,41.1c8.4,11.3,22.7,16.7,36.9,16.9c14.5,0.2,28.7-5.6,37.3-16.9
				c3.8-5.4,6.6-11.7,8.4-18.1L419.4,91.5z"/>
		</g>
	</g>
	<g>
		<g>
			<path class="st1" d="M304.6,123.4c-9.4-5.5-16.7-13.4-21.8-23.6c-5.2-10.2-7.8-22-7.8-35.4c0-13.5,3.1-25.1,9.3-34.7
				c6.2-9.6,14.3-16.9,24.3-21.8s20.7-7.4,32.1-7.4c8.8,0,17.1,0.8,25,2.4s14.6,3.7,20.4,6.5c-1.4,7.2-2.1,17-2.1,29.3
				c-3,1.1-6.4,1.7-10,1.7c-0.4-12.2-3.3-20.6-8.8-25.2s-13.1-6.9-23-6.9c-10.3,0-19,2.4-26.1,7.2s-12.3,11.1-15.8,19
				s-5.2,16.5-5.2,25.8c0,11.7,1.7,22.3,5.2,31.7s8.6,16.8,15.5,22.3s15.3,8.2,25.2,8.2c4,0,7.5-0.2,10.4-0.7
				c2.9-0.4,5.8-1.2,8.7-2.4c2.4-1,4.1-2.5,5-4.4s1.4-5.2,1.4-9.7v-9.5c0-6.1-0.3-10.3-1-12.8s-2.1-4.1-4.3-4.8
				c-2.1-0.8-5.8-1.2-11-1.3c-0.8-1.9-1.1-4.8-1.1-8.7c4.8,0.4,12.5,0.6,23.1,0.6c9.5,0,16.8-0.1,22.1-0.4c0,3.7-0.4,6.5-1.1,8.5
				c-2.8,0.1-4.7,0.6-5.9,1.4c-1.1,0.8-1.9,2.5-2.4,5c-0.4,2.5-0.7,6.7-0.7,12.5v8.5c0,2.9,0.2,5.4,0.5,7.5s1,4,2,5.8
				c-5.8,4.3-13,7.7-21.5,10.3c-8.5,2.6-17.9,3.9-28.1,3.9C324.9,131.7,314,129,304.6,123.4z"/>
		</g>
	</g>
</g>
</svg>
