<?xml version="1.0" encoding="utf-8"?>
<!-- Generator: Adobe Illustrator 16.0.0, SVG Export Plug-In . SVG Version: 6.00 Build 0)  -->
<!DOCTYPE svg PUBLIC "-//W3C//DTD SVG 1.1//EN" "http://www.w3.org/Graphics/SVG/1.1/DTD/svg11.dtd">
<svg version="1.1" id="Слой_1" xmlns="http://www.w3.org/2000/svg" xmlns:xlink="http://www.w3.org/1999/xlink" x="0px" y="0px"
	 width="13.958px" height="20.154px" viewBox="0 0 13.958 20.154" enable-background="new 0 0 13.958 20.154" xml:space="preserve">
<path fill="#A7001E" d="M13.175,19.983c-0.223,0-0.445-0.088-0.667-0.266l-11.3-7.748c-0.333-0.223-0.578-0.445-0.733-0.668
	C0.32,11.08,0.242,10.813,0.242,10.5V9.7c0-0.312,0.072-0.579,0.217-0.802s0.395-0.456,0.75-0.701l11.3-7.714
	c0.244-0.2,0.467-0.301,0.667-0.301s0.361,0.062,0.483,0.184c0.122,0.123,0.183,0.296,0.183,0.518v2.571
	c0,0.29-0.066,0.518-0.199,0.685c-0.134,0.167-0.345,0.351-0.634,0.551L4.942,10.1l8.066,5.409c0.289,0.201,0.5,0.385,0.634,0.553
	c0.133,0.166,0.199,0.383,0.199,0.65v2.604c0,0.201-0.066,0.363-0.199,0.484C13.508,19.923,13.353,19.983,13.175,19.983
	L13.175,19.983z"/>
</svg>
