<?xml version="1.0" encoding="utf-8"?>
<!-- Generator: Adobe Illustrator 16.0.0, SVG Export Plug-In . SVG Version: 6.00 Build 0)  -->
<!DOCTYPE svg PUBLIC "-//W3C//DTD SVG 1.1//EN" "http://www.w3.org/Graphics/SVG/1.1/DTD/svg11.dtd">
<svg version="1.1" id="Слой_1" xmlns="http://www.w3.org/2000/svg" xmlns:xlink="http://www.w3.org/1999/xlink" x="0px" y="0px"
	 width="13.958px" height="20.154px" viewBox="0 0 13.958 20.154" enable-background="new 0 0 13.958 20.154" xml:space="preserve">
<path fill="#A7001E" d="M0.908,19.983c-0.178,0-0.333-0.061-0.467-0.184c-0.133-0.121-0.199-0.283-0.199-0.484v-2.604
	c0-0.268,0.066-0.484,0.199-0.65c0.134-0.168,0.345-0.352,0.634-0.553L9.141,10.1L1.075,4.69c-0.289-0.2-0.5-0.384-0.634-0.551
	C0.308,3.972,0.242,3.745,0.242,3.455V0.883c0-0.222,0.061-0.395,0.183-0.518c0.122-0.122,0.283-0.184,0.483-0.184
	s0.423,0.101,0.667,0.301l11.3,7.714c0.355,0.245,0.605,0.479,0.75,0.701s0.217,0.49,0.217,0.802V10.5
	c0,0.313-0.078,0.579-0.233,0.801c-0.155,0.223-0.4,0.445-0.733,0.668l-11.3,7.748C1.353,19.896,1.13,19.983,0.908,19.983
	L0.908,19.983z"/>
</svg>
