<?xml version="1.0" encoding="utf-8"?>
<!-- Generator: Adobe Illustrator 16.0.0, SVG Export Plug-In . SVG Version: 6.00 Build 0)  -->
<!DOCTYPE svg PUBLIC "-//W3C//DTD SVG 1.1//EN" "http://www.w3.org/Graphics/SVG/1.1/DTD/svg11.dtd">
<svg version="1.1" id="Слой_1" xmlns="http://www.w3.org/2000/svg" xmlns:xlink="http://www.w3.org/1999/xlink" x="0px" y="0px"
	 width="512px" height="512px" viewBox="0 0 512 512" enable-background="new 0 0 512 512" xml:space="preserve">
<g id="XMLID_348_">
	<g>
		<path fill="#A7001E" d="M443.173,84.956V3.746H68.823v81.21L7.311,140.612v297.383h172.165l76.524,70.26l76.525-70.26H504.69
			V140.612l0,0L443.173,84.956z M370.359,34.198l-87.933,49.993h-52.857l-87.932-49.993H370.359z M412.725,45.143v39.815
			l-71.973,65.126l-32.196-45.722L412.725,45.143z M301.212,146.831l-23.667,33.611h-43.092l-23.669-33.611l22.664-32.191h45.101
			L301.212,146.831z M99.271,45.143L99.271,45.143l104.171,59.219l-32.194,45.722L99.271,84.958V45.143z M172.69,407.541H37.763
			V154.123l46.284-41.877l92.287,83.507l15.829-22.478l18.272,25.946L172.69,407.541z M255.999,466.915l-54.118-49.687
			l37.386-206.334h33.465l37.388,206.334L255.999,466.915z M339.309,407.541l-37.742-208.317l18.27-25.949l15.828,22.48
			l92.287-83.507l46.283,41.878v253.415H339.309z"/>
	</g>
</g>
</svg>
