<?xml version="1.0" encoding="utf-8"?>
<!-- Generator: Adobe Illustrator 16.0.0, SVG Export Plug-In . SVG Version: 6.00 Build 0)  -->
<!DOCTYPE svg PUBLIC "-//W3C//DTD SVG 1.1//EN" "http://www.w3.org/Graphics/SVG/1.1/DTD/svg11.dtd">
<svg version="1.1" id="Слой_1" xmlns="http://www.w3.org/2000/svg" xmlns:xlink="http://www.w3.org/1999/xlink" x="0px" y="0px"
	 width="512px" height="512px" viewBox="0 0 512 512" enable-background="new 0 0 512 512" xml:space="preserve">
<g>
	<path fill="#A7001E" d="M492.004,391.996c-0.004,0-0.004,0-0.004,0c-11.048,0-19.996,8.957-19.996,20
		c0,5.344-2.078,10.363-5.855,14.145c-3.777,3.777-8.797,5.855-14.141,5.855h-20.066V236.973c0-11.047-8.953-20-20-20
		c-11.043,0-19.996,8.953-19.996,20v235.02h-41.996c-11.043,0-19.996,8.953-19.996,20c0,11.043,8.953,19.996,19.996,19.996h61.992
		c11.047,0,20-8.953,20-19.996v-20h20.066c16.026,0,31.094-6.242,42.426-17.574s17.57-26.402,17.566-42.43
		C511.995,400.945,503.043,391.996,492.004,391.996z"/>
	<path fill="#A7001E" d="M305.305,254.059l-6.59-15.191l111.323-74.25c8.048-5.367,11.103-15.723,7.25-24.598l-17.707-40.801
		l27.531-28.758c16.609,5.691,32.375,11.227,44.824,15.656l0.047,225.898c0,11.043,8.953,19.996,19.996,19.996h0.004
		c11.047-0.005,19.996-8.957,19.996-20.005l-0.05-239.968c0-8.422-5.277-15.941-13.199-18.805
		c-13.551-4.898-133.32-47.992-165.727-53c-0.181-0.027-0.363-0.039-0.543-0.059c-0.263-0.035-0.523-0.066-0.789-0.09
		c-0.431-0.035-0.859-0.055-1.293-0.063C330.239,0.02,330.098,0,329.952,0H181.969c-0.137,0-0.27,0.02-0.41,0.02
		c-0.44,0.012-0.883,0.031-1.328,0.07c-0.258,0.02-0.508,0.051-0.762,0.082c-0.184,0.023-0.367,0.035-0.555,0.063
		c-32.402,5.008-152.105,48.105-165.648,53C5.348,56.098,0.071,63.617,0.071,72.039L0,411.988
		c-0.004,16.026,6.233,31.098,17.565,42.43s26.398,17.574,42.427,17.574H80.98v20c0,11.043,8.953,19.996,20,19.996h125.984
		c44.104,0,79.991-35.883,79.991-79.992V262.02c0-2.819-0.59-5.496-1.641-7.926C305.313,254.082,305.309,254.07,305.305,254.059z
		 M300.543,39.996L258.535,146.25L212.445,39.996H300.543z M170.223,43.168l71.435,164.672l-100.685-67.219l16.348-37.672
		c3.203-7.387,1.668-15.977-3.901-21.793l-24.387-25.469C144.785,50.586,159.278,46.121,170.223,43.168z M266.961,431.996
		c0,22.055-17.941,39.996-39.996,39.996H120.977V238.969c0-11.043-8.953-19.996-19.996-19.996c-11.047,0-20,8.953-20,19.996v193.027
		H59.992c-5.341,0-10.363-2.078-14.142-5.855c-3.778-3.776-5.854-8.801-5.854-14.145l0.065-325.883
		c12.996-4.625,29.605-10.457,47.017-16.414l28.262,29.52L97.633,140.02c-3.848,8.871-0.801,19.223,7.242,24.594L266.961,272.82
		V431.996z M282.539,201.582l-1.504-3.465l61.202-154.805c11.414,3.098,26.566,7.789,42.945,13.113l-23.68,24.73
		c-5.57,5.816-7.105,14.406-3.902,21.793l16.348,37.668L282.539,201.582z"/>
	<circle fill="#A7001E" cx="217.965" cy="320.961" r="19.996"/>
	<circle fill="#A7001E" cx="217.965" cy="400.951" r="19.998"/>
</g>
</svg>
