<?xml version="1.0" encoding="utf-8"?>
<!-- Generator: Adobe Illustrator 16.0.0, SVG Export Plug-In . SVG Version: 6.00 Build 0)  -->
<!DOCTYPE svg PUBLIC "-//W3C//DTD SVG 1.1//EN" "http://www.w3.org/Graphics/SVG/1.1/DTD/svg11.dtd">
<svg version="1.1" id="Слой_1" xmlns="http://www.w3.org/2000/svg" xmlns:xlink="http://www.w3.org/1999/xlink" x="0px" y="0px"
	 width="512px" height="512px" viewBox="0 0 512 512" enable-background="new 0 0 512 512" xml:space="preserve">
<path fill="#A7001E" d="M458.571,240.992c-0.401,0-0.803,0.004-1.208,0.013c-1.866,0.042-3.734,0.064-5.605,0.064
	c-27.072,0-54.642-4.494-81.939-13.359c-48.549-15.767-94.663-44.24-137.067-84.623c-5.687-5.44-13.112-8.436-20.905-8.436
	c-6.697,0-13.073,2.177-18.428,6.292l-33.404,25.167c-13.318,10.223-31.115,15.853-50.112,15.854
	c-16.366,0-32.125-4.363-44.369-12.288l-14.68-9.511c-1.75-1.133-3.774-1.732-5.853-1.732c-3.372,0-6.596,1.609-8.621,4.303
	C16.106,189.72,4.94,223.161,4.94,256.901v88.397c0,5.941,4.833,10.773,10.775,10.773h143.004c5.939,0,10.775-4.832,10.775-10.773
	v-2.345c18.298,4.606,43.398,11.546,74.698,20.65c0.255,0.057,0.967,0.265,1.951,0.555c36.909,10.902,70.208,13.19,91.642,13.19
	c55.829,0,114.376-14.629,164.852-41.192c3.551-1.867,5.759-5.521,5.759-9.533v-41.602
	C508.395,267.493,488.524,240.992,458.571,240.992z M371.654,250.818c26.696,7.833,53.637,11.803,80.087,11.803
	c2.031,0,4.091-0.023,6.112-0.07c0.208-0.004,0.416-0.008,0.623-0.008c11.748,0,22.378,7.116,26.706,17.791
	c-39.736,24.456-86.104,36.858-137.826,36.86c-47.047,0-82.42-10.692-86.296-11.913c-0.099-0.031-0.167-0.055-0.231-0.067
	l0.001-0.004c-16.333-4.755-43.421-12.643-68.271-19.043c9.745-9.341,20.914-13.703,35.005-13.703
	c12.137,0,25.19,3.185,39.016,6.557c12.886,3.145,28.923,7.06,44.139,7.06c0.002,0,0.003,0,0.005,0
	C336.651,286.081,356.033,274.87,371.654,250.818z M26.489,256.9c0-25.507,7.594-51.382,21.399-72.978l5.93,3.844
	c15.757,10.195,35.692,15.81,56.133,15.81c23.629,0,46.042-7.216,63.105-20.314l33.406-25.166c1.524-1.169,3.432-1.814,5.376-1.814
	c2.279,0,4.423,0.849,6.033,2.388l1.203,1.156c0.9,0.871,1.993,1.93,3.499,3.353l-6.969,8.302c-1.852,2.204-2.729,4.999-2.479,7.865
	c0.251,2.869,1.604,5.464,3.808,7.313c1.938,1.626,4.392,2.523,6.917,2.523c3.2,0,6.211-1.404,8.262-3.848l6.55-7.804
	c4.417,3.716,9.029,7.429,13.736,11.051l-6.782,8.084c-1.85,2.206-2.731,4.999-2.479,7.865c0.251,2.868,1.604,5.465,3.812,7.316
	c1.938,1.623,4.391,2.519,6.913,2.519c3.198,0,6.211-1.402,8.264-3.849l7.728-9.21c4.875,3.364,9.856,6.642,14.836,9.76
	l-9.05,10.784c-1.853,2.203-2.73,4.995-2.479,7.861c0.25,2.867,1.602,5.465,3.805,7.316c1.94,1.626,4.395,2.523,6.918,2.523
	c3.201,0,6.212-1.402,8.265-3.848l11.381-13.559c15.433,8.504,31.177,15.766,46.829,21.599
	c-10.795,14.455-23.167,20.919-39.957,20.919c-11.778,0-24.859-3.19-38.71-6.57c-14.748-3.598-30.369-7.111-45.046-7.111
	c-23.866,0-42.235,9.358-57.756,29.438c-14.026-3.135-23.761-4.658-29.75-4.658H26.489V256.9z M337.959,355.662
	c-21.089,0-53.134-2.125-86.032-12.253c-1.185-0.365-1.586-0.487-1.822-0.524c-3.064-0.887-84.261-24.392-91.385-24.392
	c-5.941,0-10.774,4.833-10.774,10.773v5.258H26.489v-37.22H139.13c11.691,0,49.795,9.384,113.255,27.89l2.502,0.732
	c3.834,1.352,38.905,13.205,89.287,13.205c50.735,0,98.729-11.803,142.67-35.084v15.985h0.003
	C439.454,343.676,389.366,355.662,337.959,355.662z"/>
</svg>
