<?xml version="1.0" encoding="utf-8"?>
<!-- Generator: Adobe Illustrator 16.0.0, SVG Export Plug-In . SVG Version: 6.00 Build 0)  -->
<!DOCTYPE svg PUBLIC "-//W3C//DTD SVG 1.1//EN" "http://www.w3.org/Graphics/SVG/1.1/DTD/svg11.dtd">
<svg version="1.1" id="Layer_1" xmlns="http://www.w3.org/2000/svg" xmlns:xlink="http://www.w3.org/1999/xlink" x="0px" y="0px"
	 width="1000px" height="1000px" viewBox="0 0 1000 1000" enable-background="new 0 0 1000 1000" xml:space="preserve">
<path d="M50,50v900h900V50H50z M500,906.5C275.496,906.5,93.5,724.504,93.5,500S275.496,93.5,500,93.5S906.5,275.496,906.5,500
	S724.504,906.5,500,906.5z"/>
<g>
	<path fill-rule="evenodd" clip-rule="evenodd" d="M738.965,290.22c0,1.244,0,2.489,0,3.733c-0.467,1.803-0.99,3.593-1.395,5.408
		c-14.037,62.976-28.079,125.948-42.084,188.93c-9.686,43.555-19.314,87.122-28.974,130.683
		c-6.259,28.23-12.547,56.453-18.773,84.69c-1.654,7.506-2.025,7.684-8.189,2.813c-0.488-0.387-0.966-0.785-1.451-1.174
		c-16.761-13.404-33.484-26.854-50.29-40.201c-23.624-18.762-47.368-37.372-70.897-56.251c-3.226-2.587-4.904-2.264-7.651,0.506
		c-23.126,23.284-46.391,46.428-69.632,69.595c-4.064,4.052-4.768,3.916-6.902-1.396c-5.451-13.563-10.851-27.146-16.255-40.729
		c-12.418-31.207-24.932-62.377-37.148-93.663c-2.434-6.23-5.96-10.341-12.44-12.637c-14.214-5.036-28.215-10.669-42.294-16.081
		c-21.188-8.146-42.369-16.311-63.553-24.467c0-0.623,0-1.245,0-1.867c7.11-1.878,13.579-5.349,20.316-8.157
		c60.716-25.312,121.439-50.605,182.167-75.891c45.797-19.068,91.607-38.105,137.402-57.176
		c38.476-16.021,76.915-32.13,115.429-48.063C723.796,295.746,731.053,292.103,738.965,290.22z M591.32,419.85
		c-0.249-0.401-0.497-0.802-0.744-1.204c-7.947,4.767-15.877,9.563-23.843,14.298c-52.11,30.983-104.207,61.986-156.385,92.854
		c-3.787,2.24-4.854,4.318-3.124,8.564c9.741,23.893,19.231,47.888,28.854,71.829c0.351,0.873,0.362,2.252,2.248,2.295
		c0.494-1.685,1.059-3.431,1.517-5.204c3.302-12.792,6.993-25.499,9.758-38.407c3.021-14.104,8.02-26.69,20.911-34.696
		c0.26-0.161,0.459-0.419,0.688-0.629c30.292-27.684,60.583-55.371,90.882-83.05C571.818,437.605,581.572,428.732,591.32,419.85z"/>
	<path fill-rule="evenodd" clip-rule="evenodd" fill="none" d="M593.084,413.774c-9.748,8.883-19.502,17.756-29.237,26.65
		c-30.299,27.679-60.59,55.366-90.882,83.05c-0.229,0.21-0.428,0.468-0.688,0.629c-12.892,8.006-17.89,20.593-20.911,34.696
		c-2.765,12.908-6.457,25.615-9.758,38.407c-0.458,1.773-1.022,3.52-1.516,5.204c-1.886-0.043-1.898-1.422-2.249-2.295
		c-9.623-23.941-19.113-47.937-28.854-71.829c-1.73-4.246-0.664-6.324,3.124-8.564c52.177-30.868,104.274-61.871,156.384-92.854
		c7.966-4.735,15.896-9.531,23.843-14.298C592.587,412.973,592.835,413.373,593.084,413.774z"/>
</g>
</svg>
