<?xml version="1.0" encoding="utf-8"?>
<!-- Generator: Adobe Illustrator 16.0.0, SVG Export Plug-In . SVG Version: 6.00 Build 0)  -->
<!DOCTYPE svg PUBLIC "-//W3C//DTD SVG 1.1//EN" "http://www.w3.org/Graphics/SVG/1.1/DTD/svg11.dtd">
<svg version="1.1" id="Layer_1" xmlns="http://www.w3.org/2000/svg" xmlns:xlink="http://www.w3.org/1999/xlink" x="0px" y="0px"
	 width="1000px" height="1000px" viewBox="0 0 1000 1000" enable-background="new 0 0 1000 1000" xml:space="preserve">
<path d="M609.59,287.671c-24.502-5.012-43.337-8.797-69.077-8.797c-74.118,0-103.633,35.179-103.633,97.978v45.831h-46.471V496.8
	h46.471v225.447h90.435V496.8h65.934l6.294-74.117h-72.228v-35.778c0-20.103,1.895-32.66,30.768-32.66
	c10.679,0,27.636,1.88,40.205,4.398L609.59,287.671z"/>
<path d="M50,50.561v900h900v-900H50z M500,907.061c-224.504,0-406.5-181.996-406.5-406.5s181.996-406.5,406.5-406.5
	s406.5,181.996,406.5,406.5S724.504,907.061,500,907.061z"/>
</svg>
