<?xml version="1.0" encoding="utf-8"?>
<!-- Generator: Adobe Illustrator 16.0.0, SVG Export Plug-In . SVG Version: 6.00 Build 0)  -->
<!DOCTYPE svg PUBLIC "-//W3C//DTD SVG 1.1//EN" "http://www.w3.org/Graphics/SVG/1.1/DTD/svg11.dtd">
<svg version="1.1" id="Layer_1" xmlns="http://www.w3.org/2000/svg" xmlns:xlink="http://www.w3.org/1999/xlink" x="0px" y="0px"
	 width="1000px" height="1000px" viewBox="0 0 1000 1000" enable-background="new 0 0 1000 1000" xml:space="preserve">
<path d="M491.345,653.836h30.977c0,0,9.353-1.04,14.142-6.218c4.39-4.761,4.241-13.688,4.241-13.688s-0.602-41.809,18.689-47.973
	c19.023-6.069,43.45,40.409,69.332,58.285c19.57,13.514,34.443,10.552,34.443,10.552l69.21-0.96c0,0,36.208-2.256,19.041-30.883
	c-1.403-2.336-9.993-21.187-51.47-59.898c-43.397-40.518-37.583-33.966,14.688-104.058c31.858-42.676,44.585-68.744,40.595-79.896
	c-3.789-10.646-27.201-7.832-27.201-7.832l-77.936,0.495c0,0-5.775-0.801-10.058,1.787c-4.189,2.508-6.885,8.404-6.885,8.404
	s-12.328,33.032-28.791,61.127c-34.685,59.258-48.558,62.407-54.239,58.71c-13.194-8.577-9.899-34.458-9.899-52.842
	c0-57.444,8.671-81.392-16.862-87.593c-8.47-2.055-14.699-3.416-36.366-3.629c-27.828-0.293-51.349,0.08-64.675,6.644
	c-8.858,4.376-15.716,14.101-11.539,14.662c5.162,0.68,16.821,3.161,22.998,11.619c7.991,10.941,7.698,35.486,7.698,35.486
	s4.603,67.61-10.699,76.016c-10.512,5.763-24.92-6.004-55.856-59.779c-15.848-27.548-27.816-57.991-27.816-57.991
	s-2.307-5.697-6.428-8.739c-4.991-3.695-11.968-4.855-11.968-4.855l-74.053,0.479c0,0-11.125,0.307-15.207,5.177
	c-3.629,4.335-0.295,13.274-0.295,13.274s57.979,136.446,123.641,205.204C422.987,657.971,491.345,653.836,491.345,653.836z"/>
<path d="M50,56.364v900h900v-900H50z M500,912.863c-224.504,0-406.5-181.996-406.5-406.5c0-224.503,181.996-406.5,406.5-406.5
	s406.5,181.996,406.5,406.5C906.5,730.867,724.504,912.863,500,912.863z"/>
</svg>
