<?xml version="1.0" encoding="utf-8"?>
<!-- Generator: Adobe Illustrator 16.0.0, SVG Export Plug-In . SVG Version: 6.00 Build 0)  -->
<!DOCTYPE svg PUBLIC "-//W3C//DTD SVG 1.1//EN" "http://www.w3.org/Graphics/SVG/1.1/DTD/svg11.dtd">
<svg version="1.1" id="Layer_1" xmlns="http://www.w3.org/2000/svg" xmlns:xlink="http://www.w3.org/1999/xlink" x="0px" y="0px"
	 width="1000px" height="1000px" viewBox="0 0 1000 1000" enable-background="new 0 0 1000 1000" xml:space="preserve">
<g>
	<path d="M276.955,414.486c1.477-10.439,2.604-20.938,4.482-31.302c10.65-58.701,52.207-98.639,111.627-100.686
		c71.544-2.458,143.305-2.588,214.838-0.012c64.671,2.33,111.508,50.217,113.527,114.91c2.15,68.696,2.15,137.559,0,206.256
		c-2.021,64.693-48.839,112.575-113.522,114.907c-71.532,2.583-143.31,2.648-214.838-0.035
		c-64.684-2.434-109.397-50.43-113.725-115.22c-0.374-5.604-1.576-11.161-2.393-16.736
		C276.955,529.207,276.955,471.844,276.955,414.486z M500.061,680.223c32.737,0,65.507,0.979,98.201-0.228
		c51.26-1.9,82.79-32.494,83.986-83.706c1.483-63.813,1.483-127.711,0-191.529c-1.196-51.201-32.747-82.507-83.986-83.597
		c-65.035-1.375-130.143-1.365-195.177,0c-50.852,1.068-82.472,31.739-83.853,82.379c-1.754,64.619-1.754,129.351,0,193.971
		c1.38,50.632,33.002,80.599,83.857,82.482C435.371,681.197,467.736,680.223,500.061,680.223z"/>
	<path d="M500.002,386.893c-62.778,0-113.676,50.893-113.676,113.669c0,62.783,50.897,113.677,113.676,113.677
		c62.783,0,113.676-50.894,113.676-113.676C613.678,437.786,562.784,386.893,500.002,386.893z M500.002,575.102
		c-41.167,0-74.538-33.369-74.538-74.537s33.371-74.539,74.538-74.539s74.537,33.371,74.537,74.539S541.169,575.102,500.002,575.102
		z"/>
	<path d="M647.357,381.706c0,14.934-12.106,27.041-27.041,27.041s-27.048-12.107-27.048-27.041
		c0-14.939,12.113-27.046,27.048-27.046C635.248,354.66,647.357,366.767,647.357,381.706z"/>
</g>
<path d="M50.002,50.566v900h900v-900H50.002z M500.002,907.066c-224.504,0-406.5-181.996-406.5-406.5
	c0-224.504,181.996-406.5,406.5-406.5s406.5,181.996,406.5,406.5C906.502,725.07,724.506,907.066,500.002,907.066z"/>
</svg>
