<?xml version="1.0" encoding="utf-8"?>
<!-- Generator: Adobe Illustrator 19.2.0, SVG Export Plug-In . SVG Version: 6.00 Build 0)  -->
<svg version="1.1" id="Слой_1" xmlns="http://www.w3.org/2000/svg" xmlns:xlink="http://www.w3.org/1999/xlink" x="0px" y="0px"
	 viewBox="0 0 518.6 204" style="enable-background:new 0 0 518.6 204;" xml:space="preserve">
<style type="text/css">
	.st0{fill:#FFFFFF;}
</style>
<g>
	<polygon class="st0" points="26.4,55.9 26.4,130.5 39.5,130.5 64.5,130.5 64.5,55.9 39.5,55.9 	"/>
	<polygon class="st0" points="120.3,55.9 120.3,130.5 133.4,130.5 158.4,130.5 158.4,111.4 139.4,111.4 139.4,104.3 158.4,104.3 
		158.4,55.9 133.4,55.9 	"/>
	<path class="st0" d="M321.8,98.9c-7-6.4-20.2-13-39.5-19.6c-2-0.7-3.8-1.4-5.5-2.1h-45.4h-14.3c2.6,6.3,6.5,11.8,11.9,16.4
		c7.2,6.4,18,12.1,32.5,17c15.4,5.3,25.5,10.1,30.2,14.3c1.8,1.7,3.2,3.6,4.4,5.5h13.1h28.8C336.2,117.6,330.9,107,321.8,98.9z"/>
	<path class="st0" d="M252.8,55.9h-26.2h-13.1c0,0.5,0,1,0,1.4c0,3.8,0.3,7.3,1,10.7h14.3h30C255,64.8,253,60.8,252.8,55.9z"/>
	<path class="st0" d="M426.5,79.3c-12.5-4.5-20.3-8.2-23.4-11.1c-3.9-3.3-5.9-7.4-6.1-12.3h-26.2h-13.1c0,0.5,0,1,0,1.4
		c0,15.2,5.2,27.3,15.5,36.3c1.6,1.4,3.4,2.8,5.3,4.2h86.2C457.5,91.8,444.8,85.6,426.5,79.3z"/>
	<path class="st0" d="M473.7,107.5h-76.4c2.7,1.1,5.5,2.1,8.5,3.1c15.4,5.3,25.5,10.1,30.2,14.3c1.8,1.7,3.2,3.6,4.4,5.5h13.1h28.8
		C481,121.7,478.2,114.1,473.7,107.5z"/>
	<polygon class="st0" points="39.5,18.3 52,18.3 52,26.3 39.5,26.3 39.5,55.9 64.5,55.9 77.6,55.9 77.6,4.4 39.5,4.4 	"/>
	<polygon class="st0" points="215.4,4.4 89.5,4.4 89.5,37.2 133.4,37.2 133.4,55.9 158.4,55.9 171.5,55.9 171.5,37.2 215.4,37.2 	
		"/>
	<path class="st0" d="M265.8,55.9c0-0.3,0-0.6,0-0.9c0-6,2.1-11.4,6.4-16c4.3-4.6,11.1-6.9,20.5-6.9c12.9,0,23.5,5.6,31.9,16.7
		l19.9-26.1C329.7,7.6,311.3,0,289.2,0c-20.3,0-35.8,5.6-46.5,16.8c-10.4,10.9-15.8,23.9-16.1,39.1h26.2H265.8z"/>
	<path class="st0" d="M410.1,55.9c0-0.3,0-0.6,0-0.9c0-6,2.1-11.4,6.4-16c4.3-4.6,11.1-6.9,20.5-6.9c12.9,0,23.5,5.6,31.9,16.7
		l19.9-26.1C474,7.6,455.5,0,433.5,0c-20.3,0-35.8,5.6-46.5,16.8c-10.4,10.9-15.8,23.9-16.1,39.1H397H410.1z"/>
	<polygon class="st0" points="39.5,199.7 77.6,199.7 77.6,130.5 64.5,130.5 39.5,130.5 	"/>
	<polygon class="st0" points="133.4,199.7 171.5,199.7 171.5,130.5 158.4,130.5 133.4,130.5 	"/>
	<path class="st0" d="M337.9,130.5h-28.8c2.1,3.6,3.2,7.6,3.2,12c0,8-2.8,14.5-8.5,19.5c-5.7,5-12.9,7.5-21.7,7.5
		c-7.8,0-15.5-2.1-23.1-6.4c-7.6-4.3-13.6-10.8-17.9-19.6l-24.9,23.7c16.8,24.6,39.2,36.9,67.3,36.9c20.1,0,36.4-5.9,49-17.7
		c12.6-11.8,18.9-27.3,18.9-46.4c0-3.3-0.2-6.4-0.6-9.4H337.9z"/>
	<path class="st0" d="M495.2,130.5h-13.1h-28.8c2.1,3.6,3.2,7.6,3.2,12c0,8-2.8,14.5-8.5,19.5c-5.7,5-12.9,7.5-21.7,7.5
		c-7.8,0-15.5-2.1-23.1-6.4c-7.6-4.3-13.6-10.8-17.9-19.6l-24.9,23.7c16.8,24.6,39.2,36.9,67.3,36.9c20.1,0,36.4-5.9,49-17.7
		c12.6-11.8,18.9-27.3,18.9-46.4C495.8,136.7,495.6,133.5,495.2,130.5z"/>
	<path class="st0" d="M276.8,77.3c-9.3-3.6-15.3-6.6-17.9-9.1c0,0-0.1-0.1-0.1-0.1h-14.3h-30c0.6,3.2,1.5,6.3,2.7,9.2h45.4H276.8z"
		/>
	<path class="st0" d="M479.1,98.9c-0.4-0.4-0.8-0.7-1.3-1.1h-86.2c5,3.5,11.3,6.7,18.7,9.7h76.4C484.6,104.4,482.1,101.6,479.1,98.9
		z"/>
	<rect x="249" y="72.7" class="st0" width="134.4" height="4.2"/>
	<rect x="429.8" y="149.1" class="st0" width="87.3" height="1.9"/>
	<rect x="517.7" y="149.1" class="st0" width="1.9" height="1.9"/>
	<rect x="206.3" y="153.7" class="st0" width="2.8" height="2.8"/>
	<rect x="196.2" y="106.1" class="st0" width="2.8" height="2.8"/>
	<rect x="-0.2" y="81" class="st0" width="133.6" height="3.7"/>
	<rect x="205" y="106.1" class="st0" width="113.8" height="2.8"/>
	<rect x="58.5" y="153.7" class="st0" width="146.4" height="2.8"/>
</g>
</svg>
