<svg xmlns="http://www.w3.org/2000/svg" viewBox="0 0 83.11 28.59"><defs><style>.cls-1{fill:#ff448a;}</style></defs><title>вензель справа</title><g id="Слой_2" data-name="Слой 2"><g id="Objects"><path class="cls-1" d="M69.15,14.64a19.68,19.68,0,0,1-4.2-.13c-1.38-.15-2.78-.57-4.22-.8a29.45,29.45,0,0,0-8.81-.58c-1.47.18-2.94.19-4.42.34a22.92,22.92,0,0,0-4.24,1,36.36,36.36,0,0,1-8.41,1.12,19.78,19.78,0,0,1-4.27-.27c-.71-.15-1.4-.38-2.11-.57a14.15,14.15,0,0,0-2.14-.4c-2.9-.32-5.81-.54-8.72-.73-.73,0-1.46-.1-2.19-.15s-1.45-.19-2.19-.24a21,21,0,0,0-4.41,0,26.86,26.86,0,0,0-8.6,2.11.4.4,0,0,0-.19.51.4.4,0,0,0,.44.22h0a43.87,43.87,0,0,1,8.45-1c.71,0,1.42,0,2.14,0s1.42-.06,2.14-.11a23.86,23.86,0,0,1,4.31,0c2.86.24,5.71.72,8.56,1.22a17,17,0,0,0,2.15.24c.73,0,1.47,0,2.19.07,1.46.15,2.91.41,4.39.54a34.38,34.38,0,0,0,8.83-.7,24,24,0,0,0,4.25-.92A22.55,22.55,0,0,1,52,14.19c2.82-.47,5.61.27,8.44.8.71.15,1.42.28,2.14.4a22,22,0,0,0,2.2.31,15,15,0,0,0,4.47-.31.38.38,0,0,0,.29-.46.4.4,0,0,0-.41-.29Z"/><path class="cls-1" d="M68.84,14.85l.19,0a4.77,4.77,0,0,0,.53,0,9,9,0,0,0,1.11-.21c.74-.19,1.46-.45,2.19-.7,1.44-.52,2.9-1,4.3-1.64a9.43,9.43,0,0,0,3.6-2.7,6.74,6.74,0,0,0,1.09-1.91,3.39,3.39,0,0,0,.19-2A1,1,0,0,0,80.84,5a5.85,5.85,0,0,0-1.93.83,23.5,23.5,0,0,0-3.58,2.84c-1.12,1.06-2.2,2.16-3.32,3.24L70.3,13.44c-.28.27-.57.53-.82.82a5.08,5.08,0,0,0-.38.43l-.17.21-.07.1,0,0a.18.18,0,0,0,0-.16C68.81,14.82,68.79,14.83,68.84,14.85Zm-.62-.1,0-.09.09-.15.18-.25.35-.49.7-1c.48-.63,1-1.27,1.47-1.86a32.1,32.1,0,0,1,3.41-3.29A33.41,33.41,0,0,1,78.32,4.8a6.63,6.63,0,0,1,2.38-.94,2.23,2.23,0,0,1,1.49.35A2.1,2.1,0,0,1,83,5.46a4.32,4.32,0,0,1-.35,2.59,7.57,7.57,0,0,1-1.35,2.06,14.55,14.55,0,0,1-3.78,3,18.57,18.57,0,0,1-4.39,1.84,20.68,20.68,0,0,1-2.34.49,12.1,12.1,0,0,1-1.21.13,3.55,3.55,0,0,1-.65,0,1.37,1.37,0,0,1-.37-.08.68.68,0,0,1-.41-.42A.58.58,0,0,1,68.22,14.75Z"/><path class="cls-1" d="M55.92,12.7a8,8,0,0,0,1.14-1.43c.7-1,1.38-2.1,2-3.22a13.8,13.8,0,0,0,1.39-3.54,9,9,0,0,0,.25-1.84,2.15,2.15,0,0,0-.35-1.46.47.47,0,0,0-.41-.13,1.35,1.35,0,0,0-.57.34,6.72,6.72,0,0,0-1.07,1.4,18.8,18.8,0,0,0-1.57,3.44c-.42,1.2-.8,2.41-1.2,3.62-.2.6-.44,1.2-.62,1.8a7.64,7.64,0,0,0-.24.91,3.29,3.29,0,0,0-.05.44.86.86,0,0,0,0,.17v.05s0-.06-.07-.06C54.93,13.4,55.5,13.11,55.92,12.7ZM54,13.53,54,13.35c0-.12,0-.21,0-.31a4.68,4.68,0,0,1,0-.53c0-.34,0-.68.06-1a14.17,14.17,0,0,1,.29-2,19.62,19.62,0,0,1,1.27-3.74,29,29,0,0,1,1.78-3.57A7.68,7.68,0,0,1,58.64.59,2.48,2.48,0,0,1,59.76,0,1.48,1.48,0,0,1,61.1.5a2,2,0,0,1,.49,1.15,3.84,3.84,0,0,1,0,1.07,11.4,11.4,0,0,1-.42,2c-.37,1.28-.86,2.49-1.34,3.72a13.19,13.19,0,0,1-2,3.46,8.31,8.31,0,0,1-1.47,1.43,3.93,3.93,0,0,1-.95.52,1.53,1.53,0,0,1-1.22-.05A.77.77,0,0,1,54,13.53Z"/><path class="cls-1" d="M54.9,15.29a8.42,8.42,0,0,0,.86,1.62C56.43,18,57.14,19,57.91,20a14,14,0,0,0,2.69,2.69,9.34,9.34,0,0,0,1.59,1,2.1,2.1,0,0,0,1.47.26.48.48,0,0,0,.29-.32,1.5,1.5,0,0,0-.08-.66A6.58,6.58,0,0,0,63,21.42a18.56,18.56,0,0,0-2.52-2.81c-.94-.86-1.9-1.7-2.85-2.54-.47-.43-.92-.89-1.4-1.3a8.2,8.2,0,0,0-.74-.58,2.88,2.88,0,0,0-.38-.22L55,13.91l-.05,0s.08,0,.09,0C54.65,14.11,54.69,14.74,54.9,15.29Zm0-2.08.19,0a1.79,1.79,0,0,1,.3.09c.17.07.33.13.49.21l.9.46a17.07,17.07,0,0,1,1.69,1,21.06,21.06,0,0,1,2.92,2.66,27.94,27.94,0,0,1,2.55,3.06,7.53,7.53,0,0,1,1,1.87A2.45,2.45,0,0,1,65,23.88a1.51,1.51,0,0,1-1,1,2.11,2.11,0,0,1-1.25,0,4.23,4.23,0,0,1-1-.43,11.65,11.65,0,0,1-1.65-1.17c-1-.85-1.94-1.79-2.87-2.72a13.08,13.08,0,0,1-2.39-3.17,8.64,8.64,0,0,1-.72-1.92,4.18,4.18,0,0,1-.1-1.08,1.6,1.6,0,0,1,.53-1.1A.68.68,0,0,1,54.9,13.21Z"/><path class="cls-1" d="M37.46,15.4a7.89,7.89,0,0,0,1.32-1.27c.82-.94,1.63-1.91,2.39-2.93A14.09,14.09,0,0,0,43,7.87a10,10,0,0,0,.48-1.8,2.17,2.17,0,0,0-.16-1.49.48.48,0,0,0-.39-.18,1.39,1.39,0,0,0-.61.26,6.74,6.74,0,0,0-1.24,1.26,18.33,18.33,0,0,0-2,3.2c-.56,1.14-1.1,2.29-1.65,3.44-.28.57-.59,1.13-.85,1.7a6.33,6.33,0,0,0-.35.87,2.47,2.47,0,0,0-.11.43,1.21,1.21,0,0,0,0,.18v0s0-.07-.07-.07C36.39,16,37,15.76,37.46,15.4Zm-2,.58,0-.19c0-.12,0-.2,0-.31s0-.35.07-.52c.06-.34.12-.67.19-1A16.1,16.1,0,0,1,36.23,12,20.75,20.75,0,0,1,38,8.5,28.52,28.52,0,0,1,40.2,5.2a7.57,7.57,0,0,1,1.52-1.46,2.44,2.44,0,0,1,1.18-.42A1.52,1.52,0,0,1,44.17,4a2.18,2.18,0,0,1,.34,1.2,4.54,4.54,0,0,1-.14,1.07,10.78,10.78,0,0,1-.67,1.91c-.53,1.22-1.17,2.36-1.8,3.52a13.61,13.61,0,0,1-2.39,3.17,8.78,8.78,0,0,1-1.64,1.23,3.6,3.6,0,0,1-1,.39,1.53,1.53,0,0,1-1.2-.2A.64.64,0,0,1,35.47,16Z"/><path class="cls-1" d="M36.12,17.84a8,8,0,0,0,.64,1.72c.53,1.13,1.1,2.26,1.73,3.37a14.21,14.21,0,0,0,2.32,3,9.41,9.41,0,0,0,1.46,1.16,2.19,2.19,0,0,0,1.43.45.49.49,0,0,0,.32-.29,1.3,1.3,0,0,0,0-.66A6.79,6.79,0,0,0,43.37,25a17.93,17.93,0,0,0-2.14-3.11c-.82-1-1.66-1.93-2.49-2.89-.41-.48-.8-1-1.23-1.46a8.25,8.25,0,0,0-.65-.67,4.11,4.11,0,0,0-.35-.27s-.12-.07-.16-.08l0,0s.07,0,.09,0C36,16.64,36,17.27,36.12,17.84Zm.27-2.06.18.05a2,2,0,0,1,.29.12l.45.27c.29.19.57.38.84.58a15.39,15.39,0,0,1,1.54,1.26,20.47,20.47,0,0,1,2.56,3,29.5,29.5,0,0,1,2.14,3.36,7.69,7.69,0,0,1,.72,2A2.42,2.42,0,0,1,45,27.66a1.5,1.5,0,0,1-1.1.9,2,2,0,0,1-1.23-.17,4.47,4.47,0,0,1-.93-.55,11.45,11.45,0,0,1-1.48-1.38c-.91-1-1.7-2-2.51-3.06a13.64,13.64,0,0,1-2-3.45,8.86,8.86,0,0,1-.46-2,3.65,3.65,0,0,1,0-1.09,1.54,1.54,0,0,1,.67-1A.66.66,0,0,1,36.39,15.78Z"/><path class="cls-1" d="M19,13.7a8.38,8.38,0,0,0,1.32-1.28c.82-.93,1.63-1.9,2.39-2.93a13.53,13.53,0,0,0,1.83-3.33,9.18,9.18,0,0,0,.49-1.79,2.19,2.19,0,0,0-.16-1.5.49.49,0,0,0-.39-.18A1.35,1.35,0,0,0,23.9,3a6.79,6.79,0,0,0-1.25,1.26,19.3,19.3,0,0,0-2,3.2c-.57,1.14-1.1,2.29-1.65,3.44-.28.57-.59,1.13-.85,1.71a5.75,5.75,0,0,0-.35.86,2.47,2.47,0,0,0-.11.43,1.41,1.41,0,0,0,0,.18,0,0,0,0,1,0,.05s0-.07-.06-.07C18,14.26,18.56,14.05,19,13.7Zm-2,.58,0-.2a1.5,1.5,0,0,1,0-.3,4.51,4.51,0,0,1,.07-.53c.06-.34.11-.67.19-1a15.59,15.59,0,0,1,.54-1.92,20.48,20.48,0,0,1,1.74-3.55,28.43,28.43,0,0,1,2.22-3.3A7.32,7.32,0,0,1,23.29,2a2.25,2.25,0,0,1,1.18-.42,1.48,1.48,0,0,1,1.26.65,2,2,0,0,1,.34,1.2,4.05,4.05,0,0,1-.13,1.06,10.5,10.5,0,0,1-.67,1.91C24.74,7.66,24.1,8.8,23.46,10a13.56,13.56,0,0,1-2.38,3.18,8.33,8.33,0,0,1-1.64,1.22,4,4,0,0,1-1,.4,1.54,1.54,0,0,1-1.2-.21A.79.79,0,0,1,17,14.28Z"/><path class="cls-1" d="M17.69,16.13a7.71,7.71,0,0,0,.64,1.73c.53,1.12,1.09,2.26,1.73,3.36a14.21,14.21,0,0,0,2.32,3,9.83,9.83,0,0,0,1.45,1.16,2.17,2.17,0,0,0,1.43.45.47.47,0,0,0,.33-.28,1.49,1.49,0,0,0,0-.67,6.74,6.74,0,0,0-.65-1.64,19.55,19.55,0,0,0-2.14-3.11c-.82-1-1.67-1.92-2.49-2.88-.42-.49-.8-1-1.23-1.47a5.88,5.88,0,0,0-.66-.66,2.79,2.79,0,0,0-.34-.28l-.16-.08-.05,0a.11.11,0,0,0,.1,0C17.59,14.93,17.55,15.56,17.69,16.13Zm.26-2,.19,0a2.61,2.61,0,0,1,.28.12c.16.1.32.18.46.28s.56.37.83.57a15.77,15.77,0,0,1,1.55,1.26,20.93,20.93,0,0,1,2.55,3A27.73,27.73,0,0,1,26,22.72a7.29,7.29,0,0,1,.73,2A2.48,2.48,0,0,1,26.59,26a1.52,1.52,0,0,1-1.1.9,2.09,2.09,0,0,1-1.24-.17,4.15,4.15,0,0,1-.92-.55,10.23,10.23,0,0,1-1.48-1.37c-.91-1-1.7-2-2.51-3.06a13.57,13.57,0,0,1-2-3.46,9.18,9.18,0,0,1-.47-2A3.68,3.68,0,0,1,17,15.16a1.52,1.52,0,0,1,.66-1A.68.68,0,0,1,18,14.08Z"/></g></g></svg>