<svg xmlns="http://www.w3.org/2000/svg" viewBox="0 0 377.53 72.55"><defs><style>.cls-1{fill:#ff488c;}</style></defs><title>Ресурс 2</title><g id="Слой_2" data-name="Слой 2"><g id="Слой_1-2" data-name="Слой 1"><path class="cls-1" d="M368,50.34c-5.06-.21-7.94,2.89-11,5.66l-.33-.13c-6.73-2.32-15.06-1.29-22.07-1.46-8.7-.21-17.43-.2-26.12-.65A32.64,32.64,0,0,1,296.89,51c3.12-2.11,5.75-5.62,5.2-9.53-.7-4.9-5.74-5.59-9.81-5-8,1.17-7,8.76-3.25,14.14-2.24.66-4.51,1.24-6.76,1.8a158.92,158.92,0,0,1-21.77,3.82c-15.14,1.57-30.73,1.1-45.52-2.69a92.51,92.51,0,0,1-14.73-5.07,55.26,55.26,0,0,0,17.28-14,27.68,27.68,0,0,0,6.11-17.2c0-5.75-1.84-13.94-7.32-16.92a5.71,5.71,0,0,0-.67-.3h-6a24.59,24.59,0,0,0-8.5,5.7,30.64,30.64,0,0,0-6.65,9.59C191,7,184.64-1.58,174.79,3.23c-9.34,4.56-11.27,16.3-6.72,24.88,4.84,9.11,12.87,16,22.19,21-19.38,7-41.14,5.78-61.37,5.17-5.9-.18-12.44.43-18.21-1A16.75,16.75,0,0,1,107.26,52a11.31,11.31,0,0,0,3.45-3.12c2.15-3,3.23-7.83.19-10.59s-7.7-1-10.26,1.51a9,9,0,0,0-1.87,10.82c-4.69,0-9.86-.85-12.67-1.05-7.6-.54-15.18-1.31-22.78-1.71a140,140,0,0,0-20.68.25c-4.65.46-9.82,1-14.31,2.72-6.52-3.93-15.72-3.06-23.84-.71H0v4c1,.06,2.15.1,3.45.1,4.77,0,9.38-1.82,14.14-1.5a21.33,21.33,0,0,1,5.6,1.06A11.2,11.2,0,0,0,19.28,60c-.69,3.4.55,7.47,4.28,8.34,3.55.82,6.92-2.18,8.49-5a8.61,8.61,0,0,0-.49-9.66c1-.21,2.08-.37,3.07-.54A96.08,96.08,0,0,1,49.1,51.8c8.22-.16,16.42.47,24.61,1.13s16.55,1.78,24.74,1.43a25,25,0,0,0,3-.3c3.46,3,8.47,3.86,13.06,4.07,12.79.59,25.72,1,38.52.65,13.68-.35,28.43-2.16,41.38-7.55a109.12,109.12,0,0,0,33,9.07,145.2,145.2,0,0,0,35.23-.42,163.73,163.73,0,0,0,18-3.31,104.53,104.53,0,0,0,11-3,12,12,0,0,0,2.42,1.7c6.94,3.57,15.77,2.77,23.33,3l26.61.64c3,.07,6.72-.1,9.79.94a21.35,21.35,0,0,0-2,4.07c-1.22,3.47-1.67,7.59,2.75,8.5,3.57.73,7.44-1.79,8.65-5.11,1.37-3.78-.41-7.36-3.33-9.6,1.91-1.56,5.9-2.72,8.56-3.37h9.11v-4H368ZM27.19,62.78c-1.73,1.13-2.38,1.6-3.5-.43-.94-1.69-.41-3,.46-4.52a6.64,6.64,0,0,1,2.19-2.34,8.39,8.39,0,0,1,1.24,1.14A7,7,0,0,1,29,59C29.62,61.15,28.92,61.65,27.19,62.78Zm77.13-12.87a8.59,8.59,0,0,1-2.06-3.12c-1-2.62.79-6.57,4-5.37,2.57,1,3.15,4.06,1.45,6.36A6.41,6.41,0,0,1,104.32,49.91Zm72.39-18.19v0c-5.31-5.94-11.57-17.91-3-24.22,9.95-7.28,16.58,9,18.58,15.76.62,2.1,3.78-.85,4-1.92,1.17-6.33,4.35-12.16,9.77-15.83,9.72-6.58,13.66,7.49,13.43,14.41-.42,12.91-12.3,21.62-23.08,26.68A66.92,66.92,0,0,1,176.71,31.72Zm116.9,17.22a8.08,8.08,0,0,1-3.25-8.41,8.64,8.64,0,0,1,4.73,0v0C300.24,42.54,297.29,47.08,293.61,48.94Zm63.82,19.35c-3.28.24-1.88-5.1-1-6.7.06-.11.13-.21.19-.31a7.72,7.72,0,0,1,1.63,1.84,5.15,5.15,0,0,1,1.26,3Z"/></g></g></svg>