<svg xmlns="http://www.w3.org/2000/svg" viewBox="0 0 83.11 28.59"><defs><style>.cls-1{fill:#ff448a;}</style></defs><title>вензель слева</title><g id="Слой_2" data-name="Слой 2"><g id="Objects"><path class="cls-1" d="M14,14.64a19.68,19.68,0,0,0,4.2-.13c1.38-.15,2.78-.57,4.22-.8a29.45,29.45,0,0,1,8.81-.58c1.47.18,2.94.19,4.41.34a23,23,0,0,1,4.25,1,36.29,36.29,0,0,0,8.41,1.12,19.65,19.65,0,0,0,4.26-.27c.71-.15,1.41-.38,2.12-.57a14.15,14.15,0,0,1,2.14-.4c2.89-.32,5.8-.54,8.72-.73.73,0,1.45-.1,2.18-.15s1.46-.19,2.19-.24a21.07,21.07,0,0,1,4.42,0,26.87,26.87,0,0,1,8.59,2.11.39.39,0,0,1-.25.73h0a43.88,43.88,0,0,0-8.46-1c-.71,0-1.42,0-2.13,0s-1.42-.06-2.14-.11a23.86,23.86,0,0,0-4.31,0c-2.87.24-5.72.72-8.56,1.22a17.19,17.19,0,0,1-2.16.24c-.72,0-1.46,0-2.18.07-1.46.15-2.91.41-4.39.54a34.45,34.45,0,0,1-8.84-.7,23.68,23.68,0,0,1-4.24-.92,22.77,22.77,0,0,0-4.15-1.12c-2.82-.47-5.61.27-8.45.8-.7.15-1.41.28-2.13.4s-1.47.25-2.21.31a15,15,0,0,1-4.47-.31.38.38,0,0,1-.28-.46.39.39,0,0,1,.4-.29Z"/><path class="cls-1" d="M14.27,14.88a.18.18,0,0,0,0,.16l0,0-.07-.1L14,14.69c-.12-.15-.25-.29-.38-.43s-.55-.55-.82-.82L11.1,11.86C10,10.78,8.9,9.68,7.78,8.62A23.5,23.5,0,0,0,4.2,5.78,5.85,5.85,0,0,0,2.27,5a1,1,0,0,0-1.2.78,3.32,3.32,0,0,0,.19,2A6.51,6.51,0,0,0,2.35,9.63,9.36,9.36,0,0,0,6,12.33c1.4.62,2.86,1.12,4.3,1.64.72.25,1.45.51,2.19.7a8.67,8.67,0,0,0,1.11.21,4.6,4.6,0,0,0,.52,0l.2,0S14.29,14.82,14.27,14.88Zm.66.17a.68.68,0,0,1-.41.42,1.44,1.44,0,0,1-.38.08,3.43,3.43,0,0,1-.64,0,12.1,12.1,0,0,1-1.21-.13A20.23,20.23,0,0,1,10,14.94,18.39,18.39,0,0,1,5.56,13.1a14.55,14.55,0,0,1-3.78-3A7.57,7.57,0,0,1,.43,8.05,4.25,4.25,0,0,1,.07,5.46,2.17,2.17,0,0,1,.92,4.21,2.21,2.21,0,0,1,2.4,3.86a6.49,6.49,0,0,1,2.38.94A32.56,32.56,0,0,1,8.63,7.66,31.28,31.28,0,0,1,12.05,11c.52.59,1,1.23,1.46,1.86l.71,1,.35.49.18.25.09.15,0,.09A.58.58,0,0,1,14.93,15.05Z"/><path class="cls-1" d="M28.55,13.19a.11.11,0,0,0-.08.06.09.09,0,0,1,0-.05s0-.12,0-.17a3.32,3.32,0,0,0-.06-.44,6.07,6.07,0,0,0-.23-.91c-.19-.6-.42-1.2-.63-1.8-.4-1.21-.78-2.42-1.19-3.62a19.5,19.5,0,0,0-1.57-3.44,6.72,6.72,0,0,0-1.07-1.4,1.35,1.35,0,0,0-.57-.34.49.49,0,0,0-.42.13,2.16,2.16,0,0,0-.34,1.46,9,9,0,0,0,.24,1.84,14.2,14.2,0,0,0,1.4,3.54c.62,1.12,1.3,2.18,2,3.22a8.1,8.1,0,0,0,1.15,1.43C27.61,13.11,28.18,13.4,28.55,13.19Zm.32.59a1.53,1.53,0,0,1-1.22.05,4.2,4.2,0,0,1-1-.52,8.67,8.67,0,0,1-1.47-1.43,13.44,13.44,0,0,1-1.95-3.46c-.48-1.23-1-2.44-1.34-3.72a10.54,10.54,0,0,1-.42-2,4.26,4.26,0,0,1,0-1.07A2.18,2.18,0,0,1,22,.5,1.49,1.49,0,0,1,23.34,0a2.38,2.38,0,0,1,1.12.57,7.38,7.38,0,0,1,1.32,1.63,29,29,0,0,1,1.79,3.57,21.12,21.12,0,0,1,1.27,3.74,18,18,0,0,1,.29,2c0,.33,0,.67.06,1,0,.17,0,.35,0,.53a1.88,1.88,0,0,1,0,.31l-.06.18A.64.64,0,0,1,28.87,13.78Z"/><path class="cls-1" d="M28.11,13.85s.08.05.09,0l-.05,0L28,14l-.38.22c-.26.17-.49.38-.74.58-.48.41-.93.87-1.4,1.3-.94.84-1.9,1.68-2.84,2.54a18.56,18.56,0,0,0-2.52,2.81A6.58,6.58,0,0,0,19.24,23a1.36,1.36,0,0,0-.08.66.47.47,0,0,0,.28.32,2.13,2.13,0,0,0,1.48-.26,9.34,9.34,0,0,0,1.59-1A14.28,14.28,0,0,0,25.2,20c.77-1,1.48-2.07,2.15-3.12a7.85,7.85,0,0,0,.85-1.62C28.42,14.74,28.45,14.11,28.11,13.85Zm.41-.53a1.52,1.52,0,0,1,.53,1.1A3.79,3.79,0,0,1,29,15.5a8.64,8.64,0,0,1-.72,1.92,13.61,13.61,0,0,1-2.39,3.17c-.94.93-1.85,1.87-2.88,2.72a11.54,11.54,0,0,1-1.64,1.17,4.42,4.42,0,0,1-1,.43,2.12,2.12,0,0,1-1.25,0,1.51,1.51,0,0,1-1-1,2.35,2.35,0,0,1,.07-1.25,7.19,7.19,0,0,1,1-1.87,29.12,29.12,0,0,1,2.55-3.06A21.64,21.64,0,0,1,24.63,15a17.23,17.23,0,0,1,1.7-1c.29-.16.59-.31.9-.46.15-.08.32-.14.49-.21a2,2,0,0,1,.29-.09l.2,0A.65.65,0,0,1,28.52,13.32Z"/><path class="cls-1" d="M47.06,15.71s-.07.07-.07.07v0s0-.12,0-.18-.07-.28-.11-.43-.23-.58-.35-.87c-.26-.57-.58-1.13-.86-1.7-.55-1.15-1.08-2.3-1.64-3.44a18.94,18.94,0,0,0-2-3.2,6.74,6.74,0,0,0-1.24-1.26,1.39,1.39,0,0,0-.61-.26.51.51,0,0,0-.4.18,2.17,2.17,0,0,0-.15,1.49,9.23,9.23,0,0,0,.48,1.8,14.42,14.42,0,0,0,1.83,3.33c.76,1,1.57,2,2.4,2.93a7.53,7.53,0,0,0,1.32,1.27C46.11,15.76,46.71,16,47.06,15.71Zm.39.55a1.53,1.53,0,0,1-1.2.2,3.66,3.66,0,0,1-1-.39,9.12,9.12,0,0,1-1.64-1.23,13.3,13.3,0,0,1-2.38-3.17c-.63-1.16-1.28-2.3-1.8-3.52a10.78,10.78,0,0,1-.67-1.91,4.07,4.07,0,0,1-.14-1.07A2,2,0,0,1,38.94,4a1.5,1.5,0,0,1,1.26-.65,2.48,2.48,0,0,1,1.19.42A7.84,7.84,0,0,1,42.91,5.2a28.52,28.52,0,0,1,2.23,3.3A21.52,21.52,0,0,1,46.88,12,18.18,18.18,0,0,1,47.41,14c.08.33.14.66.2,1,0,.17,0,.34.07.52s0,.19,0,.31l0,.19A.64.64,0,0,1,47.45,16.26Z"/><path class="cls-1" d="M46.71,16.43s.08,0,.09,0l0,0-.15.08a3,3,0,0,0-.35.27,8.36,8.36,0,0,0-.66.67c-.42.47-.81,1-1.22,1.46-.83,1-1.68,1.92-2.5,2.89A18.44,18.44,0,0,0,39.74,25a6.41,6.41,0,0,0-.66,1.64,1.45,1.45,0,0,0,0,.66.53.53,0,0,0,.33.29,2.19,2.19,0,0,0,1.43-.45,9.83,9.83,0,0,0,1.45-1.16,13.59,13.59,0,0,0,2.32-3c.64-1.11,1.21-2.24,1.74-3.37A8.51,8.51,0,0,0,47,17.84C47.13,17.27,47.08,16.64,46.71,16.43Zm.34-.58a1.54,1.54,0,0,1,.67,1,4,4,0,0,1,0,1.09,8.37,8.37,0,0,1-.47,2,13.06,13.06,0,0,1-2,3.45c-.81,1.05-1.6,2.09-2.5,3.06a11.45,11.45,0,0,1-1.48,1.38,4.47,4.47,0,0,1-.93.55,2.07,2.07,0,0,1-1.24.17,1.53,1.53,0,0,1-1.1-.9A2.41,2.41,0,0,1,38,26.4a7.69,7.69,0,0,1,.72-2,28.18,28.18,0,0,1,2.14-3.36,20.4,20.4,0,0,1,2.55-3A14.45,14.45,0,0,1,45,16.8c.27-.2.55-.39.84-.58.13-.09.29-.18.45-.27a1.47,1.47,0,0,1,.28-.12l.19-.05A.66.66,0,0,1,47.05,15.85Z"/><path class="cls-1" d="M65.49,14s-.07.06-.07.07V14a1.21,1.21,0,0,0,0-.18,2.47,2.47,0,0,0-.11-.43,7,7,0,0,0-.35-.86c-.26-.58-.57-1.14-.85-1.71C63.55,9.7,63,8.55,62.45,7.41a18.71,18.71,0,0,0-2-3.2A6.74,6.74,0,0,0,59.21,3a1.39,1.39,0,0,0-.61-.26.48.48,0,0,0-.39.18,2.19,2.19,0,0,0-.16,1.5,9.9,9.9,0,0,0,.48,1.79,13.9,13.9,0,0,0,1.84,3.33c.76,1,1.57,2,2.39,2.93a8.38,8.38,0,0,0,1.32,1.28C64.55,14.05,65.15,14.26,65.49,14Zm.39.54a1.53,1.53,0,0,1-1.2.21,3.94,3.94,0,0,1-1-.4A8.33,8.33,0,0,1,62,13.14,13.88,13.88,0,0,1,59.64,10c-.63-1.16-1.27-2.3-1.8-3.52a10.5,10.5,0,0,1-.67-1.91A4.52,4.52,0,0,1,57,3.47a2.16,2.16,0,0,1,.34-1.2,1.49,1.49,0,0,1,1.27-.65A2.25,2.25,0,0,1,59.82,2a7.26,7.26,0,0,1,1.52,1.45,28.52,28.52,0,0,1,2.23,3.3,21.23,21.23,0,0,1,1.74,3.55,15.59,15.59,0,0,1,.54,1.92c.07.32.13.65.19,1,0,.17,0,.35.07.53a3,3,0,0,1,0,.3l0,.2A.67.67,0,0,1,65.88,14.55Z"/><path class="cls-1" d="M65.14,14.72s.09,0,.09,0l0,0-.16.08a2.86,2.86,0,0,0-.35.28,8.22,8.22,0,0,0-.66.66c-.42.47-.81,1-1.22,1.47-.83,1-1.67,1.91-2.49,2.88a18.31,18.31,0,0,0-2.14,3.11,6.79,6.79,0,0,0-.66,1.64,1.34,1.34,0,0,0,0,.67.48.48,0,0,0,.32.28,2.14,2.14,0,0,0,1.43-.45,9.41,9.41,0,0,0,1.46-1.16,14.21,14.21,0,0,0,2.32-3c.63-1.1,1.2-2.24,1.73-3.36a8.23,8.23,0,0,0,.64-1.73C65.56,15.56,65.51,14.93,65.14,14.72Zm.34-.58a1.54,1.54,0,0,1,.67,1,4,4,0,0,1,0,1.09,8.62,8.62,0,0,1-.46,2,13.6,13.6,0,0,1-2,3.46c-.8,1-1.59,2.08-2.5,3.06a11.39,11.39,0,0,1-1.48,1.37,4.47,4.47,0,0,1-.93.55,2,2,0,0,1-1.23.17,1.5,1.5,0,0,1-1.1-.9,2.38,2.38,0,0,1-.09-1.25,7.63,7.63,0,0,1,.72-2,30.41,30.41,0,0,1,2.14-3.36,20.38,20.38,0,0,1,2.56-3,16.91,16.91,0,0,1,1.54-1.26c.27-.2.55-.38.84-.57.14-.1.3-.18.45-.28l.28-.12.19,0A.65.65,0,0,1,65.48,14.14Z"/></g></g></svg>