<?xml version="1.0" encoding="utf-8"?>
<!-- Generator: Adobe Illustrator 19.2.0, SVG Export Plug-In . SVG Version: 6.00 Build 0)  -->
<svg version="1.1" id="Capa_1" xmlns="http://www.w3.org/2000/svg" xmlns:xlink="http://www.w3.org/1999/xlink" x="0px" y="0px"
	 viewBox="0 0 512 512" style="enable-background:new 0 0 512 512;" xml:space="preserve">
<style type="text/css">
	.st0{display:none;fill:#015673;}
	.st1{fill:#015673;}
</style>
<path class="st0" d="M342.7,181.6l-114,106c-4,3.7-6.6,8.7-7.3,14.1l-3.9,28.8c-0.5,3.8-5.9,4.2-7,0.5l-14.9-52.5
	c-1.7-6,0.8-12.4,6.1-15.7l138.2-85.1C342.3,176.2,344.9,179.6,342.7,181.6z M512,95.5v321c0,52.8-42.8,95.5-95.5,95.5h-321
	C42.8,512,0,469.2,0,416.5v-321C0,42.8,42.8,0,95.5,0h321C469.2,0,512,42.8,512,95.5z M398.1,123L107.9,234.9
	c-7.2,2.8-7.1,12.9,0.1,15.6l26.8,10c27.7,10.3,49,32.9,57.8,61.1l13.5,43.3c1.8,5.6,8.6,7.7,13.2,4l39.4-32.1
	c4.1-3.4,10-3.5,14.3-0.4l71.1,51.6c4.9,3.6,11.8,0.9,13.1-5l52.1-250.4C410.6,126,404.2,120.6,398.1,123z"/>
<g>
	<path class="st1" d="M407.7,0H104.3C46.7,0,0,46.7,0,104.3v303.5C0,465.3,46.7,512,104.3,512h303.5c57.6,0,104.3-46.7,104.3-104.3
		V104.3C512,46.7,465.3,0,407.7,0z M202.1,287.1c0,36.7,0,73.3,0,110c0,4.4,0,4.4-4.2,3.3c-31.3-7.8-62.6-15.6-94-23.4
		c-2.9-0.7-4-1.8-4-5c0.1-73.4,0.1-146.9,0.1-220.3c0-4.5,0-4.5,4.3-3.4c31.3,7.8,62.6,15.8,93.9,23.5c3.2,0.8,4,2.2,3.9,5.2
		C202.1,213.8,202.1,250.4,202.1,287.1z M302.1,324.3c-0.8,1.2-2.4,0.1-3.6-0.2c-24.7-6.1-49.4-12.3-74.1-18.4
		c-2.9-0.7-3.7-2-3.7-4.9c0.1-31.7,0.1-63.4,0.1-95.1c0-1-0.3-2,0.7-3.4c4.1,6.1,8,11.9,11.9,17.8c22.4,33.7,44.9,67.3,67.3,101
		C301.4,322,302.9,323.1,302.1,324.3z M311.1,302.8c-20.7-31-41.3-62-62-93c-1.1-1.6-1-2.9-0.2-4.6c17.7-35.4,35.4-70.8,53.1-106.1
		c0.5-1,0.7-2.7,2.2-2.2c8.9,2.2,17.5,4.3,26,6.5c23.5,5.9,46.9,11.8,70.4,17.6c4.3,1.1,4.3,1.1,2.4,4.9
		c-10.4,20.9-20.7,41.8-31.2,62.7c-13.8,27.5-27.7,54.9-41.4,82.4c-5.2,10.5-10.3,21.2-15.8,31.6
		C313.1,305.4,312.9,305.5,311.1,302.8z M401.7,349.9c-12-3.1-24.1-6.1-36.2-9.1c-13.5-3.4-27-6.8-40.5-10.1
		c-2.5-0.6-2.9-1.4-1.7-3.8c26.5-52.9,53-105.9,79.5-158.8c0.4-0.8,0.7-1.8,2.2-2.8c0,1.7,0,2.8,0,3.8c0,58.9,0,117.7,0,176.6
		c0,0.5,0,1,0,1.5C405.2,349.8,404.4,350.6,401.7,349.9z"/>
</g>
</svg>
