<?xml version="1.0" encoding="utf-8"?>
<!-- Generator: Adobe Illustrator 19.2.0, SVG Export Plug-In . SVG Version: 6.00 Build 0)  -->
<svg version="1.1" id="Слой_1" xmlns="http://www.w3.org/2000/svg" xmlns:xlink="http://www.w3.org/1999/xlink" x="0px" y="0px"
	 viewBox="0 0 512 512" style="enable-background:new 0 0 512 512;" xml:space="preserve">
<style type="text/css">
	.st0{fill:#015673;}
</style>
<g>
	<path class="st0" d="M350.6,186.8c10.6-14.1,0.8-29.4-12.4-29.4c-9.3,0-16.9,7.6-17,17C321.2,187.6,336.6,197.4,350.6,186.8z"/>
	<path class="st0" d="M416.4,0H95.6C42.8,0,0,42.8,0,95.6v320.9C0,469.2,42.8,512,95.6,512h320.9c52.8,0,95.6-42.8,95.6-95.6V95.6
		C512,42.8,469.2,0,416.4,0z M372.1,293.1c-4.2,42.1-54.2,75.5-115.2,75.5c-60.6,0-110.4-32.9-115.2-74.7c-11.8-7-19.7-20-19.7-34.9
		c0-22.3,17.6-40.5,39.2-40.5c7.9,0,15.2,2.4,21.3,6.5c-0.3,0.3-0.6,0.5-1,0.8c18.2-11.1,41.4-18.2,66.9-19.5l20.4-58.5l43.7,10.5
		c8.8-14.2,28.7-21,48.1-6.6c19.7,25.3,1.8,53.2-22.2,53.2c-16.9,0-30.6-13.8-30.6-30.6c0-1,0.2-2,0.3-3l-30.6-7.3l-14.8,42.4
		c25.6,0.9,49,7.6,67.6,18.4c6-3.8,13-6.1,20.6-6.1c21.6,0,39.2,18.2,39.2,40.5C390.1,273.5,382.8,286.1,372.1,293.1L372.1,293.1z"
		/>
	<path class="st0" d="M169.8,234c-2.7-1-5.6-1.7-8.7-1.7c-14.1,0-25.6,12.1-25.6,26.8c0,6.9,2.5,13.2,6.6,18
		C145.1,260.7,155,245.9,169.8,234z"/>
	<path class="st0" d="M350.9,232.3c-2.7,0-5.2,0.6-7.7,1.4c14.5,11.6,24.5,26,27.8,42c3.4-4.6,5.5-10.3,5.5-16.5
		C376.5,244.4,365,232.3,350.9,232.3L350.9,232.3z"/>
	<path class="st0" d="M256.7,219.8c-56.3,0-102.1,30.4-102.1,67.7s45.8,67.7,102.1,67.7s102-30.4,102-67.7S313,219.8,256.7,219.8z
		 M202.8,287.1c-14.8-19.4,7.1-41.3,26.5-26.5C244.1,279.9,222.2,301.8,202.8,287.1z M298.4,325.4c-15.5,10.3-30.3,13.7-43,13.7
		c-25.6,0-43.2-13.9-43.5-14.1c-2.9-2.4-3.3-6.7-1-9.6s6.6-3.4,9.5-1c1.3,1.1,32.2,24.9,70.5-0.4c3.1-2.1,7.3-1.2,9.4,2
		C302.4,319.1,301.5,323.3,298.4,325.4z M307.1,287.1c-19.4,14.8-41.3-7.1-26.5-26.5C299.9,245.8,321.8,267.7,307.1,287.1z"/>
</g>
</svg>
