<?xml version="1.0" encoding="utf-8"?>
<!-- Generator: Adobe Illustrator 19.2.0, SVG Export Plug-In . SVG Version: 6.00 Build 0)  -->
<svg version="1.1" id="Capa_1" xmlns="http://www.w3.org/2000/svg" xmlns:xlink="http://www.w3.org/1999/xlink" x="0px" y="0px"
	 viewBox="0 0 512 512" style="enable-background:new 0 0 512 512;" xml:space="preserve">
<style type="text/css">
	.st0{fill:#015673;}
</style>
<path class="st0" d="M342.7,181.6l-114,106c-4,3.7-6.6,8.7-7.3,14.1l-3.9,28.8c-0.5,3.8-5.9,4.2-7,0.5l-14.9-52.5
	c-1.7-6,0.8-12.4,6.1-15.7l138.2-85.1C342.3,176.2,344.9,179.6,342.7,181.6z M512,95.5v321c0,52.8-42.8,95.5-95.5,95.5h-321
	C42.8,512,0,469.2,0,416.5v-321C0,42.8,42.8,0,95.5,0h321C469.2,0,512,42.8,512,95.5z M398.1,123L107.9,234.9
	c-7.2,2.8-7.1,12.9,0.1,15.6l26.8,10c27.7,10.3,49,32.9,57.8,61.1l13.5,43.3c1.8,5.6,8.6,7.7,13.2,4l39.4-32.1
	c4.1-3.4,10-3.5,14.3-0.4l71.1,51.6c4.9,3.6,11.8,0.9,13.1-5l52.1-250.4C410.6,126,404.2,120.6,398.1,123z"/>
</svg>
