<svg xmlns="http://www.w3.org/2000/svg" viewBox="0 0 217.53 182.52"><defs><style>.cls-1{fill:#ffdce0;fill-rule:evenodd;}</style></defs><title>2 мазок</title><g id="Слой_2" data-name="Слой 2"><g id="Ўар_1" data-name="Ўар 1"><path class="cls-1" d="M69.31,7.07c-2.25-.85-3.52-3.5-6.52-1.76V7.07c2.9.52,3.47,1.11,6.09,1.42C68.78,7.82,69.36,7.71,69.31,7.07Z"/><path class="cls-1" d="M80.61,12c-.68-1.38,1.13-.73,1.31-1.41C79.55,10.3,77,7.17,74.53,9.2c-.82-1.68-3.25-1.5-4.78-1.77V9.2C73.58,7.94,76.69,11.24,80.61,12Z"/><path class="cls-1" d="M63.23,12c1-.15,1.38-.75,2.17-1.06-.59-.11-.83-.5-1.74-.35A1.73,1.73,0,0,1,63.23,12Z"/><path class="cls-1" d="M89.74,11.32c-1.23.29-1.13-.5-2.18-.36.47,1.32-1.62.56-1.29,1.77h2.6C88.55,11.77,89.73,12,89.74,11.32Z"/><path class="cls-1" d="M129.29,12.38c-.75.72.32.7-.43,1.42,1.58.34.2-1.73,2.17-1.07.68-1.88-4.57-.46-3.91-.35Z"/><path class="cls-1" d="M182.32,15.21c-1.68,0-3.82-.28-4.34.71,1.67-.29,2.23,2.16,3.47,1.06C180.09,16.41,182.34,15.86,182.32,15.21Z"/><path class="cls-1" d="M64.09,18.39c.31-1.31-.74-1.52-.43-2.83-1.4-.07-1.06,1.26-1.74,1.77C63,17.44,62.73,18.56,64.09,18.39Z"/><path class="cls-1" d="M115.38,16.63c.31-1-2.16-1.5-2.6-.71C114.15,15.75,113.76,17,115.38,16.63Z"/><path class="cls-1" d="M96.69,20.16a15.35,15.35,0,0,0,4.79.36c.7-2.24-4.67-1.38-5.22-1.42C97.4,19.51,97.77,19.54,96.69,20.16Z"/><path class="cls-1" d="M191.88,19.1c-4.11,1.37-9.08,2-12.6,3.89C184.49,22.6,192.48,21,191.88,19.1Z"/><path class="cls-1" d="M111.47,22.64c-3.56.62-1.08-1.9-2.61-2.48-1.07.19-4.29-.67-5.65,0,1.83.64,5,.22,4.78,2.48-4.4.19-9.39-2.61-12.16-1.42a55.09,55.09,0,0,0,12.6,2.12C109.59,23.36,111.64,25.06,111.47,22.64Z"/><path class="cls-1" d="M171.45,24.05c1.24,2.49,5.42-.42,8.27,0C178.45,21.75,174.65,24.61,171.45,24.05Z"/><path class="cls-1" d="M64.09,27.94c.21-1.1-.92-1.13-2.17-1.06C61.86,27.88,63,27.9,64.09,27.94Z"/><path class="cls-1" d="M108,27.59c.69.15.38,1.11,1.74.71V27.24C109.08,27.3,108.13,27.11,108,27.59Z"/><path class="cls-1" d="M31.06,29c2.85,1.19,9.1,2.44,14.78,2.48C43,29.19,36,28.4,31.06,29Z"/><path class="cls-1" d="M59.32,34.31c-1.07-.79-1.7-1.92-3-2.48-1.58.37-1.94,1.72-2.17,3.19,2,0,2.63,1.15,4.78,1.06C58.52,35.08,59.49,35.16,59.32,34.31Z"/><path class="cls-1" d="M39.75,39.61a8,8,0,0,0-3.47-.7C36.18,40,39.09,40.36,39.75,39.61Z"/><path class="cls-1" d="M37.14,43.15c.55-1,2.74-.6,2.61-2.12a87.11,87.11,0,0,0-12.6-1.77C28.61,42.08,32.78,42.69,37.14,43.15Z"/><path class="cls-1" d="M44.54,40c.87.51.91,1.79,2.6,1.06C47.4,40,45.31,39,44.54,40Z"/><path class="cls-1" d="M45,48.46c1,1.27.36,2.48,3,2.83C49,50.25,46.64,47.34,45,48.46Z"/><path class="cls-1" d="M57.14,48.1v1.42c1.09.06,1.06-.79,1.74-1.06C58.29,48.35,58.05,48,57.14,48.1Z"/><path class="cls-1" d="M36.28,48.81c-1.36.07-3.19-.24-3.92.36,1,1.87,3.08,2.92,6.09,3.18C38.76,50.33,36,50.84,36.28,48.81Z"/><path class="cls-1" d="M217.53,48.81c-1.86,0-4-1.38-3.91,0-1.37-.66-3.61-.6-4.35-1.77,0-1.41.87-2.12.87-3.53-4.86-3.61-1.09-10.07-2.17-14.15.51-.53,1.8-.42,1.74-1.42-2.47,1.71-2.86-2.64-7-1.77-.36,1,.61.92.43,1.77-9.16,1.57-19.77,1.51-29.11,3.19-3.57.63-9.1.46-13,1.41-1.8.43-2.94,2.55-5.21,1.06.33-.08.86,0,.87-.35-2.44-.1-4.73-.07-6.09.7-1.76-2.14-8.43,2-10-1.41,3.71-1.47,10.56-.37,13-2.83,5.67,0,9.86-.36,13.91.35.65-.42.68-1.33,1.31-1.76,6.91-.15,13.23-2.67,18.69-2.83-.73.6-4.16.84-3.48,1.41,1.88-.6,5.38-.94,5.22-2.12,6.15-.3,13.6-.4,18.69-.71-.58-1.06-.45-2.71-.44-4.24-1.63.27-1.47-.93-2.17-1.42,2.43-.73,3.11-2.89,3.91-5-2.48-1,.32-3.35-2.17-4.95-6,.19-4.84,5-10.87,5.66,1.17-2-.71-2.12-1.74-2.13.86-.6,2.17-.82,2.61-1.77-2.86.28-3.68,2.2-7.39,1.77-.19,2.32-3.15,2.4-5.65,2.83-.67,1.49,2.25.06,2.17,1.07-2.55,1.34-6.23,1.77-8.69,3.18,8.26,2.93,14.74-5,23-4.25.25,1.13-.82,1.1,0,1.78a3.44,3.44,0,0,1,4.35,1.76c-13.12,2.21-24.27,7.41-36.52,9.2-1-2.25,2.55-.76,2.61-2.12-6.53-.89-13.92.16-17.39,2.47.34.08.86,0,.87.36-1.47-.1-2.66-.43-2.6-1.77-4.26-.05-8.28.1-10.87,1.41-.09-.45-1.27-1.73-.44-1.77a199,199,0,0,0,29.56-3.53c1-.38-.93-1.63.44-2.12h1.3c.36,1-.61.91-.44,1.77,1.52-.08,3.35.12,3.48-1.07,0-2-3.1-1-3.91-1.41,2,0-.47-.51,0-1.42,1.23-.06,3,.31,3-.71-1.26-.91-2.7.17-4.35,0-.42.66,1.3,1.19,0,1.42-6-2.38-11.45,2.27-12.61,4.95H154.5c1.37-1-1.6-1.32-.43-2.12-4.74-.47-8.18,1.28-13.48,0-.43,1-.63.88-.87,1.41h-2.17a6.91,6.91,0,0,0-.87-2.12c-3.27,0-5.06,1.34-7.82,0,.26,1.61-1,1.46-2.17,1.07-1.07.47.47,1.31-.44,1.41-1.3,1.06-5.89-.56-6.52,1.06,2-.23,4.2.56,3.48,1.41a12.42,12.42,0,0,1,6.52,1.42c-5.77-.95-8.22,2.15-13,0-.73,0,.49,1.51-1.31,1.41-1.55-.77-2.71-2.53-4.78-1.06.16.91.45.14,1.1.83a9.75,9.75,0,0,0-1.55.11,1.59,1.59,0,0,0,.15.29.36.36,0,0,0-.13.19l.32.06c.65.75,1.75,1.34.35,2.28,1.61,1.21,3,.2,5.47.4a2,2,0,0,0,.13-1.33c4.14,1,7.64,2,11.55,1.77-1.65,1.38-6.55.09-7.39,2.12,1.88,0,2.88-.74,3.48.71-1.08,0-2.11-.07-2.18.71,1.66,1,3.26-.14,4.35,1.06-2.76.23-6.66-.47-8.69.35,2.68,1.12,9.06-.77,9.56,2.12a173.71,173.71,0,0,1-19.77-.73,2.48,2.48,0,0,0-.55-.81,4.43,4.43,0,0,0,3.8-.58,13.21,13.21,0,0,0-4.79-1.09c0-.09-.07-.17-.1-.27a5.94,5.94,0,0,1-3.89-.65,38.3,38.3,0,0,0,9.22.25c-.47-1.38-2.14-1.52-3.78-1.59.85-.14,1.71-.3,2.55-.43-.8-1.58-.17-.47,0-2.41-1.15-.42-2.74-1.15-4.35-1.71.51,0,1.07.07,1.67.12a20.82,20.82,0,0,0,.43-2.47c-1.25,0-2.06-.45-1.74-1.77a8.37,8.37,0,0,0-5.65.7c.24-1.25-1.54-.87-1.3-2.12-1.7-.06-4.4.72-2.61,1.42H94.09V24.05c-1.33.26-1.28-.61-2.61-.35-.52,2.57-.06,3.08,1.3,4.6,2.08.39,1.83-1.1,3.91-.71.94.72,2.74.74,1.74,2.12.78.15,1.52.34,2.26.53-3.52.35-7.13-2.13-11.75-2.17-.7.71-.29,1.25-.68,1.61-1.78-.86-4-3.28-6.5-2,1.84.31-1,.23-.68,1.21,1.39.58,2.58,1.88,4,2.44a1.76,1.76,0,0,0,.54,1.52c-2-.29-4.42-1.25-7-.74-.2-1.37-1.12-1.9-2.73-1.61-.76.58.43,1-.35,1.21-.64,0-.23-1.33-1-1.21-.08.31,0,.8-.35.81v.8H77c-.38,2.21,2.26.84,2.4,2.42a47.6,47.6,0,0,1-8.9-1.21c-.1,1.73,1.62,1.33,1.71,2.82a7.75,7.75,0,0,0-3.59.21c-2.08-.76-5.05-1.53-5.36.09,1.9.32,4.11.66,6.45,1a3.78,3.78,0,0,0,2.14.34c4.72.75,9.78,1.6,14,2.52.07,1.08,1.57,2.64,2.85,1.87,1.93,1.05,6.07.63,4.71-.42a21.81,21.81,0,0,0,3.23.81c.14.17.3.35.51.57,14.33-.32,27.2,1.4,40.42,1.77-2.71,2.18-8.58.81-13.47.71-8.8-.19-17.07-.86-26.5-1.06-4.49-.53-9-1.14-13.08-2.8.32,1.46-1.35.56-2,.81V41c-.6.23-2-.49-2.06.4.54,0,1.19,0,1,.81-.66,1-3.53-1.67-2.4-1.21-3.39-1.39-10.31.08-7.52-1.61-2.17-1.06-3,1.15-5.47.8.06-1.15,0-2.2-1-2-.33,3.05-3.15.7-4.45,2.42,3.38,2.33,9.25,3.35,13.86,6.55-.25.09-.5.17-.75.28,1.41-1.53-7.61-2.95-5.22-1.06-1.92,1-4.29-.31-6.09.35-.07,2.3,3.26,1.83,5.22,2.48-.73,1.16-3.89-.7-3.48.7.74,2.05,4.45.9,6.52,1.07,1.39.11,2.89.28,4.29.46a7,7,0,0,1-2.38,2.46c-1.33.15-2.12-1.1-1-1.61-3.38-1-3.71,1.12-5.82,2.42-.88-1.06.56-.32.35-1.61-1,.33-.89-.57-1.72-.41a7.45,7.45,0,0,1,.35,2.82,3.84,3.84,0,0,0,1,.46c0,.2,0,.4-.07.59a5.5,5.5,0,0,0-3.29-.24c.19.55.14.88,0,1.09-.68-.6-1.25-1.19-.29-1.48-4-.37-11.53-.41-13.47-3.54a6.47,6.47,0,0,1-5.65-2.48c-.12.82-1.16.82-1.74.36v2.82c3.44,1.86,6.87,4.62,11.73,2.48-1.29,2.22,3.53,2.24,5.65,2.83-2,1.25-3.49-.92-6.08-.35.13.93-1.69.28-1.31,1.41,2.12-.3,2.24,1,4.35.71a1,1,0,0,1,0,.17,78.45,78.45,0,0,0-12.61-.39c.7-.13.9.34,1.07.85-1.68-.57-3.39-1.1-5.21-1.56-.18-1.28-1.64-1.06-2.36-1.71-.36-1.5.72-1.3,1-2-2.59-.7-3.78.51-5.47,0,.4-.06,1,.07,1-.4-.92-.67-2.64-.4-4.16-.37-.08-.07-.15-.16-.23-.23s0,.15,0,.23a6.61,6.61,0,0,1-.78,0c-.06.6.12,1.48-.34,1.61-1.94.39-3.64-1.15-5.13,0-.36,1.5,1.15.79,1.37,1.61-3.38,1.1-8-1.35-10.27.4,3.8,1.57,10,.38,13,2.83-.21.69-1.62,0-1.71.8a15.58,15.58,0,0,0,3.06,1.43.72.72,0,0,0-.11.32,1.37,1.37,0,0,0,.76-.1l.54.15a4.21,4.21,0,0,1-.11.88L27,64.34c-1.53-.22-6.3-.49-4.11.8-.71.24-2.25-.49-2.39.41,3.1.3,5,1.63,7.48.84a3.28,3.28,0,0,0-.09,1.6c-1.46-.22-3.09-.21-5-.43a2.07,2.07,0,0,1-.34,1.21c.61,1,3.19-.27,3.76.8-.51.08-1.26-.14-1.37.41,1,0,2.24.22,2.74-.41-.26,1.66,1.1,1.4,2.05,1.62-.27-1.1.28-1.24.77-1.44,1.69,1,3.12,2.13,5.31,2-.51.06-1.23-.06-1.3.36l.25,0a7.69,7.69,0,0,0-.81.27c2,1.12,5.45.72,7.19,2.08-1,.87-4.36-1.24-4.57.7l4.27.51c0,1,.29,1,.77,2-.71.07-1.46.07-2.21.08a1.27,1.27,0,0,1-.09-.55,2.55,2.55,0,0,1-.79.56,15,15,0,0,0-1.52.08,1.34,1.34,0,0,1-.77-.64c-1-.14-1.39.53-1.88,1l-1-.34a1.72,1.72,0,0,0-.19-1.1,20.2,20.2,0,0,0-2.45.1c-1.69-.71-3.31-1.49-4.89-2.3a18.76,18.76,0,0,0-2.6-5.31c-.81,3.77,1.19,6.1,3.94,7.92-.55,0-1.15,0-1.87,0,.43,1,.7,2.14,2.06,2,.49-.18.35-1.09.65-1.49.27.17.55.33.84.49,0,1.1-.86,2.08.22,3.41-6.3.82-15.84-2.18-22.92-.8,1.37,4.65,7.6,1.87,12,2.82,3,.65,4.19,3.69,6.5,2.42.53-1.44-1.16-.25-1-1.21,1.46.31,1.39-.06,2.73.4-.86.84.87,1.57,0,2.42,2.05.48,2.14.81,4.11,0,.08,1.11,1.69.43,2.05,1.2-.86,2-2.68,2.76-4.79,3.23,1.25-.26,1.35.83,1.37,2-1.76.52-1.27,1.67-1.71,3.22-2.52,0-7.19.2-9.58-1.21.4-.07,1,.07,1-.4-2.57-.47-3.59.87-5.82.8.43,4.92,5.55,2.83,7.53,1.61,1,2.38,7.39-.8,8.55,2.42-1.37.47-2.64,1.32-3.93,1.91-.35-.18-.26-.64-.26-1.28-1.51-.14-1.18,0-2.1-.64a4.11,4.11,0,0,0-.59,2.56,3.77,3.77,0,0,1-1-.23.71.71,0,0,0-.61-.27h0a4.88,4.88,0,0,1-.74-.45c.92,0,1.64-.92,1-1.61-3.73,2.39-9.35,1-14.71,2,2.56.34,4.64,1.25,7.52,1.2a3.87,3.87,0,0,0,6.5,1.62,7.07,7.07,0,0,0,1.39.44,2.57,2.57,0,0,0,.87.9.79.79,0,0,1,0-.74c2.3.36,4.85.43,5.59,2.62-2.51,2.11-1.72,5.42-1.71,8.46-1,.54-2.61.41-4.1.4,2.63,3.2,8.89,2.36,13,2.83-.15,1.44-2,.88-2.06,2.41.52.07,1.27-.14,1.37.41-.78-.11-1.28.09-1.37.8.27.09.68,0,.69.41-.21,0-.41.06-.34.4.63-.88,4-.59,3.76-1.21-.5-.22-1.77.47-1.71-.4,1.09-.6,1.2-2.35,2.05-3.23,2.5.45,4.52-.49,6.32-.61a11.83,11.83,0,0,0,2.67,2c.13.88.65,2-.09,2.63,1,.08,1.73-.1,2-.8-.62-.35-.5-.67-.11-1a15.25,15.25,0,0,0,1.57.5c-.42,1.25.7,1.29.64,1.56-2.23.79-4.06,2.69-5.86,3.76-6.24-2.4-11.17,4-16.42.81-1.55-.31.52,1.1-1,.81-1.1.08-.56-1.77-1.71-1.62-.8,1.34-1.26,3.09-3.08,3.23-.18,1.81,1.28,1.72,2.73,1.61,4.34-2.76,11.76-1.68,16.61-2.71a1,1,0,0,1,.5-.11l-.5.11a1.08,1.08,0,0,0-.53.69c2.9.52,8.51-1.49,7.53-2.82,2.5-1,4.45-.78,5.47.64a5.42,5.42,0,0,0,0,.57c-1.15-.14-.54,1.78-2,1.21.72,1.27-.31,2.25.34,3.22a30.83,30.83,0,0,1,3.48-.68,1.12,1.12,0,0,0-.14,1.62l-.93.29c-.14-1.36-2.62-.65-2.75.38H54a18.6,18.6,0,0,1-1.88.55,8.12,8.12,0,0,1-1.37,3.91c-1.28.43-2.35,1-2.12,1.19-7.19,1.06-15.32,1-20.87,4,7,.38,14.18.39,21.32.13l-.12.79c-.42.54-1.93-.23-2.79-.21.93,2.08-4.76.24-3.56,2.64-.8-.31-2.47-.08-2.7-.74-1.8.6-2.23,1.7-5,1.59a2.43,2.43,0,0,1-.59-2.28c-1.21.42-1.35,2.15-3.38,1.59.57,1.67-2,.34-1.17,1.43-1,0-.48-.83-1.44-.8.82,1-1.11.27-1.92.21-.31,1.23,1.65,1.07,1.54,2.17.6-.12,1.29-.13,1.65-.53,1.12.12.52,1.28,1,1.8a3.27,3.27,0,0,1,2.58,1.53c1.54-1,2.86.07,4.28.74.29-.65,0-1-.79-.95,1.48-1.57,5.63.06,7.4-1.16-.33,1,3.87.68,3.72,2.27,2.41-.22,6.77-.22,7.56,1.85-1.3.83-4.39.2-3.56,2.65,1,.68,2.67.92,2.11,2.53,2,.33,2.38.42,3.53-.47.46.17-.34.42.22.58,1.78-.75,4.3-1.59,6.24.26a36.13,36.13,0,0,1-7.58.32,6.49,6.49,0,0,1-2.09,1.27c1.61,1.73,5.86,1.85,6.22,4.33-1,0-.6,1.8-1.55,1.91.77,1.43,4.42,1.12,4.55,3,1.05,0,1.69-.49,3.14,0-1.08,1.79-5.58.92-6.16-.8a3.72,3.72,0,0,1-3.66-.63c.57.69-.17.55-1,.37,1.39,4.13,2.54,7.83,5.91,10.25,0-.47.32-.45.7-.42-.27-.55-.16-1.33-1.36-1.32.16-.53,1.35.16,1.61-.27-.32-.84-1.28-1.29-2.24-1.74.55-.39.72-1.24,2-.74-.22-1.32,1.23-1.57.68-2.32,3.24-.2,5-2.18,8.75-1.75.55.62,1,1.28,1.59,1.91,2.44-.21,3.48-2.1,7-1,0,1-1.06.62-1.17,1.43,4.81.95,8.08.07,11.68-.42,1.45,2.78,6.4,0,7.34,1.27a12.31,12.31,0,0,0,6.76.9c-.4-1.8,1.43-1.1,1-2.54-1.41-.65-1.38.44-2.53.1-1.24-.76-1.14-2.33-3.72-2.27,0-.35.11-.7.16-1,1.3-.16.88.74,1.75.84.61-.43.93-1.2,1.78-1.32,1.62.58,2.55,1.19,4.28.74,1,.46-.86-.06-.43.74,2.32-1.88,9.06-.43,13.07-1.27.6.27,2.18-.06,1.74.85,1.93-1.24,6,.39,8.67-1.22-2.34-.41-5.39-2-6.89-.1-2-1.63-3.92-.49-7-1.22.43.61-.07.33-.16,1.06a7.38,7.38,0,0,1-4.81-1.38c-1.23-.34.14.71-.77,1-3.72-.52-6.33-.55-10.08-1.75-2,1.69-5.89,2.11-9.2.58.16-.75,1.35-.26,2.22-.16,1-.24-1.28-.46-1.79-.58.85-.56,2.19-.51,3.8-.16,0,.26-.41.14-.66.16.36.81,1.54,0,1.65-.53,2.15.38,5.18.15,5.71-.37.78.68,2.51.26,3.79-.16-.79-.6-.65-.45-.74-1.21-1.08.39-3.2-.48-3.58.74-4.81-3.53-12.21-2.41-17.77-4.71,8.14,1.09,14,0,21.76,1.33,1.59-.36,3.34-1.06,4.36.21.74-.93,3,.1,3.67.63.1,1-.75,1-.25,1.59a3,3,0,0,0,1.87,0,3.3,3.3,0,0,0-1.58-1.9c3.71-1.72,10.23-.07,14.86-.69-.33-.18-1.56-.23-2.06-.9-2.49.46-6.34-.09-10.59-.47,0-.44.36-.41.43-.74,4.42.45,7.06-4.44,11.84-1.48A88,88,0,0,1,141,162.87c0-1.27-2.27-1.17-3.15-1.91,6.82-.67,11.71,1.49,18.64,3.23.63-.58-.31-1.11.77-.95a3.1,3.1,0,0,0-2-.9c-.05.17.35.38.57.37-3.36.18-9-4.58-13.29-5.29,1.87-5.23,10.18.63,14.57,1.17.29.25,1.27,1.25.75,1.21,1,1.14,4-.25,4.15,1.53-.35.53-1.41.2-2,.48,2.45.59,4.25,0,6.68,1.43-.45-3.66,3-4.06,3.39-7.56-8.86.77-17.11-3.75-24.66-6.73,7.57-.68,15-1.63,22-2.94.33.13,1,.06,1.29.21,1.67.1,4.12,1,4.89.84l.61.11c1.79-.42,3.58-.47,4.83-.79.12-.47-.28-.62-.14-1.11-1.68-.35-2.35.52-4.36-.21,0,.35-.11.7-.16,1.05-1.73,0-3.6-.12-5.32-.1l-.85-.15a129.66,129.66,0,0,0,27-7.91c-.24-.36-1-.22-.78-1,.86-.45,2.09-.44,2.44-1.57-.46-.33-1.33-.26-1.59-.8-2.62-6.2,3.93-7.19,7.42-8.42-.55-.82-1.19.13-1.6-.5,2.3-2.4,2.21-3.63,5.47-4.94-.8-.9-2.25.22-2.39-.89.67-1.45,2.76-1,3-3.06-7.29-3.71-12.35,2.36-18.27,2.18.39-2.24,1.45-3.6,2-5.65a8.41,8.41,0,0,0,3.29-3.77,6.26,6.26,0,0,0,1.74-.39,25.06,25.06,0,0,1,.12-3.45c1.52-1.38,3.34-2.39,4.48-4.26.44-1.05-.9-.29-.78-1,2.5-3.12,3.59-6.13,5.84-9.54-.32,0-.32-.33-.28-.7.45-.1.9-.19,1.34-.3,0-2.49,3.9-1.78,3.48-4.59a6,6,0,0,0-2.07-1c2.29-3.6,3.15-8.29,5.17-12.32a1.4,1.4,0,0,1-1.32-.78c3.59-1.13,2.24-5.7,2.37-10.57-1.41-.4-2.61-.41-3.74-.74a4.6,4.6,0,0,0,3.55-2.69c-1.95-.43-.55-3.26-2-4.58-2.15.44-4.29,1-6.43,1.65a2.63,2.63,0,0,1,1-3.27c.65-.5,2,.19,1.74-.71,1.88.14,1.26.65,2.61.71C212,48,215.62,51.24,217.53,48.81ZM203.62,20.87c.39,2.08-3.67,2-5.22,1.42A14.75,14.75,0,0,1,203.62,20.87ZM88.25,32.49h0ZM72.87,36.13c1.9.42.68-.63,1.36-1.21.59.4,1.28.67,1.83,1.1-1.12.09-2.29.27-3.4.44C72.7,36.3,72.76,36.17,72.87,36.13ZM86.7,40.32a5.57,5.57,0,0,1,1.16,0,1.41,1.41,0,0,0,0,1C87.36,41.13,86.86,40.87,86.7,40.32ZM64.09,47.75c.61-.81,3-.13,4.35-.35,0,0,0,.05,0,.08a.75.75,0,0,0-.69.34,1.91,1.91,0,0,1,.32.17C67.1,48.49,64.58,48,64.09,47.75ZM58.62,163.81c1.56.06,5.23.2,2.75.48C61.11,164.32,59.3,164.92,58.62,163.81Zm4.88,4.92c-1.63-.57,0,.91-1.65.53,0-.64-1-.68-.71-1.48C61.79,167.4,64.08,167.14,63.5,168.73ZM170.15,35c1-.82,3.9-.13,5.65-.36-.89.63-.38,1.1-.87,1.42-.75-1.37-4.17-.33-6.52,0C167.48,34.69,171.79,35.82,170.15,35Zm5.65,1.77c10.48.68,17.3-4.8,27.38-2.13.24.52-.5,1.83.44,1.77-5.43,5.26-26.53,3.12-36.51,3.18C167.9,36.9,172.5,38.59,175.8,36.79ZM156.31,139.56c-.15,0-.33.05-.49.08a.65.65,0,0,1-.09-.16A5.77,5.77,0,0,1,156.31,139.56Zm-88.1,23.19c-.23.57-1.53-.15-2.18-.1,0-.51.43-.52.47-1C67.41,161.81,68.36,161.94,68.21,162.75ZM37.75,71c-.11-.54-.31-1.15-.41-1.74,2.43-.11,3.44.94,5.89.81a22.78,22.78,0,0,0,4,1.69,69.59,69.59,0,0,0-7.52-.29C39.06,71.27,38.4,71.13,37.75,71Zm-9-11.86a3.16,3.16,0,0,1,2.09-.6A18.17,18.17,0,0,0,33.06,60C31.72,59.72,30.23,59,28.74,59.1Zm92.29,7c-.53.17-1,.31-1.58.44l-1,0-.46-.18c.63-.16,1.25-.32,1.87-.46ZM149.17,66c-.78.12-1.57.22-2.36.32C147.24,65.9,148.75,65.45,149.17,66ZM118,54.6a1,1,0,0,1,0,.47h1a3.17,3.17,0,0,1,0-.47c1.43,0,2.74-.09,4.12-.13l0,.1c-1.76.18-3.75,1.58-6.52.9a1.42,1.42,0,0,0,0-.88Zm-5.27,11.6-.9,0h-.09a1.86,1.86,0,0,1-.89-1,1.59,1.59,0,0,1,.23-.43c1,0,2,.1,3,.21A2.13,2.13,0,0,1,112.72,66.2Zm12.83-10.73a4.88,4.88,0,0,0-.43-.38c.44-.05.88-.12,1.28-.13A5,5,0,0,0,125.55,55.47ZM101,56.59c.67-.51,2-.47,2.61-1.06l-.15-.06A22.17,22.17,0,0,1,109,56.8C106.37,57.48,103.85,57.85,101,56.59ZM82.9,58.11c.23-.42.7-.57.91-1,.78-.25.82.36,1,.81C84.2,58,83.56,58.05,82.9,58.11ZM59.17,71.51a11.85,11.85,0,0,0-1.65.49c-.35,0-.7.07-1.07.09.11-.4,0-.62.39-1.07Zm56.58,70.42c-2,.43-5.85-.31-8.48-1.06,2.61.18,5.22.32,7.8.42A3.72,3.72,0,0,1,115.75,141.93Zm-1.67-87.46,1.21.07v.73a25.26,25.26,0,0,0-3.66.78,8.44,8.44,0,0,1,1.59-1.63Zm-5.22-.31a1.3,1.3,0,0,1-.42.1.47.47,0,0,1-.29-.14ZM34.55,89.32c.28-.35.94-.24,1-.8a8.53,8.53,0,0,0,6.16,1.2c-1.53,1.64-4.12,1.33-6.16,2C36.54,90.56,34.23,91,34.55,89.32ZM36.26,93c.12,1.54.51,1.5,2.4,1.21-.79,1.75-4.46.11-5.48,1.61V93.35C34.56,93.63,35.14,93,36.26,93ZM165.8,43.86a17.58,17.58,0,0,1,6.09-1.42c.07-.76-1.54-.15-2.17-.35-.32-.74,4.69-.18,6.52-.35-2.22,1.34,4.24.45,6.08.7C177.83,43.75,172,43.94,165.8,43.86Zm30.87,5.66a24.92,24.92,0,0,1,1.73,3.18c-4.6-1.68-11.58-1.41-16.08-3.18ZM185.8,42.8c1.43-.77,10.89-1.54,13,.71C196,45.05,189.53,41.68,185.8,42.8Zm-20.43-7.43c-.4,1.23-3.44,1.35-3.91,0Zm.43,3.89c-1,1.1-4.79,2.41-8.25,1.42A11.7,11.7,0,0,1,165.8,39.26Zm-10.86-3.89c2.42.16,3.35.41,5.65,0-.91,1.38-4.85.3-5.65,1.77C153.92,37.05,154.69,35.59,154.94,35.37Zm-9.56,29.36c-.74,1.39-3.36,1.24-4.75,2.1-.93,0-1.87.09-2.8.12a24.23,24.23,0,0,0-3,0c-3.44,0-6.9,0-10.4-.17-.32-.46-.57-.92,0-1.39-3.36.18,1.31-.93,2.61-1.06,2.69-.29,6,.22,7.82,0,1.11,0,.53.26.44.71C138,62.62,140.63,64.9,145.38,64.73Zm-4.79-10.26c-.57,1.65,1.45,1.19.88,2.83-1.12,0-.54-.26-.44-.71-2-.16-2.45,1.94-5.22.71C135.6,54.89,137.82,54.45,140.59,54.47Zm-20.43-7.78c2.94-.66,7.66.09,10.87.35l-.23.05c-3.22.09-6.89.54-10,.32a3.05,3.05,0,0,0-.13.4l-.47-.06C119.64,47.29,120,47.19,120.16,46.69ZM111.47,46c-.2.44-1,.69-1.69.7,0,0,0,0,0-.07-.44-.13-.88-.25-1.33-.36C108.81,45.62,110.62,46.18,111.47,46Zm-38,10.17c-1.57-.16-3.16-.44-4.39.06L68.57,56C70.31,55.8,72.06,55.35,73.5,56.15Zm-12.88,4a2.32,2.32,0,0,0,.87.55l-1.65-.07A.93.93,0,0,1,60.62,60.13Zm-35-2.24c.7.25,2.38-.65,2.05.81C27,58.45,25.33,59.35,25.66,57.89Zm1.71,2.82c1.46-.24,2.26.29,3.42.41,0,.46-.62.78-1.3.89-.53-.37-1.19-.55-1.45-.13A1,1,0,0,1,27.37,60.71Zm7.15,3.83a31.17,31.17,0,0,1,8.76,1.38c.16.32.62.39,1.09.46.26.12.52.23.78.37a50.9,50.9,0,0,1-7-.65A14.86,14.86,0,0,1,34.52,64.54Zm-5.16,1.61h0a0,0,0,0,0,0,0Zm.26.2a3.72,3.72,0,0,1,.65.67,1.69,1.69,0,0,1-.95.19C29.26,66.8,29.61,66.52,29.62,66.35Zm4.05,1.92a2,2,0,0,0,1.61.21,1.65,1.65,0,0,1,.3.29,4.32,4.32,0,0,0,.27,1.59A3.56,3.56,0,0,1,33.67,68.27Zm.55,12.81a.61.61,0,0,0,0,.18,1,1,0,0,1-1.05-.77C33.53,80.68,33.88,80.88,34.22,81.08Zm-2.75,32c2.08-.77,5.37-.42,7.19-.4C37.32,114.51,33.5,113.07,31.47,113.09Zm8.9,1.21a.76.76,0,0,0,.15-.26l.12.27Zm15.25,16.42c.12.09.23.19.34.29a2.09,2.09,0,0,0-.54.22A.68.68,0,0,0,55.62,130.72ZM65.35,171c.6,0,.85-.44,1.61-.27C67.41,171.79,65.4,171.49,65.35,171Zm1-2.54c.63-.17-1.49-.66-1.36-1.32,1.28-.13,0-.56.21-1.32.38,0,.73,0,.7-.42l4.88.84c-1.2,1.13.75,1.13,1.28,1.85C70.39,168.06,66.93,169.11,66.37,168.41ZM84.63,168c1.9.18,4.81-.08,6.46.85-1.06.49-4.16.44-6.62.21C84.52,168.75,84.58,168.39,84.63,168ZM163,156.63c-2.17-.35-3.36-1.3-5-1.95C159.92,155.17,162,155.6,163,156.63Zm1,1.27c-2.77,3.55-8.52-.52-13.75-2.38-2.46-.88-5.07-.66-5.55-2.59,1.36.06,3.4.94,4.32.48-.35-.11-.88-.11-.88-.43C152.61,154.24,159.07,155.47,164.07,157.9Zm3.22-17.67A49.33,49.33,0,0,1,152.76,144a23,23,0,0,0-5.49-.66,20.07,20.07,0,0,0,2.19,1c-2.05.21-4.14.38-6.26.55,1.19-1.12,4.16.17,4-1.6a10.81,10.81,0,0,1-3.36-.6,4.38,4.38,0,0,0,1.57-.95,6.51,6.51,0,0,0,1.19-.58,1.28,1.28,0,0,1-.41,0,3.23,3.23,0,0,1,1.77-.69c-.33-.43-.45-.41-.36-.64l1.22-.15a2.71,2.71,0,0,0,1.41.36,2.34,2.34,0,0,0,.07-.53,24.78,24.78,0,0,1,5.08-.07,1.23,1.23,0,0,1,.12.26c-2.32.29-5.29-.27-6.49,1.49,2.44,1.76,4.14-.47,6.54-1.11,0,0,0,0,0,.07.67.14.65,0,.49-.18a4.48,4.48,0,0,1,1.84.09c.24-.05.35-.25.45-.49a6.65,6.65,0,0,0,2.88.47c-2-1,2-.53,3.23-.52a12.55,12.55,0,0,0-2.34-.89c5.78-.26,11.16-1.77,16.21-1.73C175.51,139.12,171.21,139.43,167.29,140.23Z"/><path class="cls-1" d="M99.3,14.15c-1.09-1.48-4.11-1.38-6.09-2.13C91.63,14.7,98.19,14.54,99.3,14.15Z"/><path class="cls-1" d="M42.36,39.26c-4.09-1.63-3.33.82,0,0Z"/><path class="cls-1" d="M102.78,15.56a2,2,0,0,1-.44,1.77c6.28,2.16,11.75.64,17.39,3.19-1.36,2.15-5.6-1-7.39.35.18,1.39,2.44,1.07,4.35,1.06.68,1.77,4.85,1.73,6.52.71-1.38-2.12.09-3.58,2.61-4.25,1.41,1.4,6.51,2.11,8.69.71,3.64,1.75,6.5-.37,10-.71,1.28-.12,2.32.73,3.92.71.88,0,2.58-1,3.91-1.06,5.32-.44,6.62.61,7.82-2.48,16.45.06,24.94-6.35,34.34-12a5.1,5.1,0,0,1,.87,3.53c5.21-.22,2-5.87.87-7.07h-.87V1.06c-.46.8-2.73.13-3.91.35-4.68,3.88-11.73,6.79-17.38,8.84-2.29.84-4.93,2.21-6.09,2.48s-2.88-.16-4.35,0c-1.83.2-3.5,1.16-5.21,1.42-2.13.32-4.95-.43-7,0s-3.55,2.09-5.65,2.48c-5.88,1.06-10.71-.75-16.95-1.07A23,23,0,0,1,114.08,17C110.13,19,106.14,16.26,102.78,15.56Z"/><path class="cls-1" d="M56.79,29.71c-.07,1.15.77,1.22.68,2.39a2.07,2.07,0,0,0,1.08-.74c1.13.88,2.13,1.69,3.8.83a1.4,1.4,0,0,0,0-.29c.82,2.15,2.89,2.83,5,3.43.64-2.63-1.76-1.69-1.36-4a11.77,11.77,0,0,1-3.69.4,5.89,5.89,0,0,0-.85-2.34c.89-.22,3,.57,2.6-.71a4.05,4.05,0,0,0-2.6-.71c.56-2-1.73-1.66-1.74-3.18-2-.3-2.43.62-3.48,1.06,1.64.76.1,2.49-.43,3.89C56.35,29.87,56.61,29.83,56.79,29.71ZM58,29a.56.56,0,0,1-.14.69,2.35,2.35,0,0,0-1,0C57.17,29.41,57.13,28.83,58,29Z"/><path class="cls-1" d="M50.19,46.69c-1.52.38-1.91-1.95-3-.71,1.88,2.46,6.78,1.11,8.7-.35-.52-.06-1.24.06-1.31-.35,2-1.33,4.14-.2,5.22-1.07-1-.27-2.36-.2-2.61-1.06V41.38c2,.19,2.84-.51,2.61-2.12a10.35,10.35,0,0,1-6.52-2.83c-2.77.93-2.52,4.32-5.22,5.31.05,2.08,2.79,2,4.78,2.47C51.9,45.69,50.82,45.85,50.19,46.69Z"/><path class="cls-1" d="M75.28,177.56c.85,1,2.07-.23,3.41.31C78.39,176.73,76.24,177.54,75.28,177.56Z"/><path class="cls-1" d="M80.21,178.14c1.21.64,3.32-.37,2.8.21.4.87,1.2-.4,1.12-1.16C82.77,177.43,80.88,177.05,80.21,178.14Z"/><path class="cls-1" d="M105.64,174.12c.54.83,2.25.42,2.79.21C108.24,173.21,106.81,174.49,105.64,174.12Z"/><path class="cls-1" d="M124.93,177.19c1.1.06,2.88.94,2.88-.32C126.81,176.61,125.32,176,124.93,177.19Z"/><path class="cls-1" d="M111.92,168.15c.07-.68-.28-1.1-1-1.27-.06.36-.11.7-.17,1.06l-.92-.16C109.89,168.38,111.62,168.35,111.92,168.15Z"/><path class="cls-1" d="M122.6,168.1c.35-.5-1.47-.8-.48-.9-.63-.73-2.73-.57-3.93-.95a1.41,1.41,0,0,1-.21,1.32C119.37,168.35,121.18,167.68,122.6,168.1Z"/><path class="cls-1" d="M111.46,165.09a1.31,1.31,0,0,0-1.38.84C111,166.22,111.47,165.93,111.46,165.09Z"/><path class="cls-1" d="M161.29,165.57l-4-.69c.47,1,3,.72,3.85,1.48-1.18,1.1-1.3,3.48-3.91,2.85,1.93.95,2.22,1.94,4.34,2.38.15,1.66-1.9.66-1.65,2.43l3.06.53c2.07-1.23,1.11-3.2,1.1-5a24.89,24.89,0,0,1,4.73-2.17C169.2,164.65,162.49,163.42,161.29,165.57Z"/><path class="cls-1" d="M147.23,143.33h0l0,0Z"/><path class="cls-1" d="M107.49,176.34c1.12.64.75.1,1.44.79-.09.53-.88.2-.77,1a16.29,16.29,0,0,0-2.8-.21c.73.54,2.1.38,3.28,1.1,1-1,.45-2.06,1.46-3.27C108.81,175.42,108.42,176.21,107.49,176.34Z"/><path class="cls-1" d="M172.64,149.34c1.47.15,1.72-.46,3.1.26.57-.59,1-1.06.64-2.06l-2.14-.37C173.84,148.7,173.34,148.17,172.64,149.34Z"/><path class="cls-1" d="M27.05,149.12c-.35-.7-.57-.61-.09-1.38.9-.12,2,.8,2.13.37-.36-1.21-3.55-.7-3.41-2.22-1.08,1-2.89.93-3.36-.58-.13,1.71-.47,2.07.11,3.28a2.51,2.51,0,0,1,2.22-.16c-.42-.46-1-.85-1-1.54,1.26.27,1.42,1.21,1.54,2.17C26.08,149.42,26.33,149,27.05,149.12Z"/><path class="cls-1" d="M3.76,54.67c-1.15-.72-2,.07-3.76-.41C-.08,55.61,3.58,56.24,3.76,54.67Z"/><path class="cls-1" d="M38.66,56.28c1.12.34,2.45,1.13,3.51.52-.4.35-1.66.62-2,.86,1.61.2,5.7,1.81,6.08.7-.63-.19-2.25.42-2.17-.35,1.83.07,3.64.12,3.91-1.06a40.27,40.27,0,0,0-5.31-.61.34.34,0,0,0,.06-.06C41.8,55.93,39.34,54.45,38.66,56.28Z"/><path class="cls-1" d="M3.76,57.49c2.74.06,3.41.37,5.82,0C9.05,56.24,7,56.8,5.82,56.28,6.47,58,2.54,56.41,3.76,57.49Z"/><path class="cls-1" d="M9.58,62.32c1.61.72,6.13,2.09,7.18.81C15.65,63,11.09,61.93,9.58,62.32Z"/><path class="cls-1" d="M13,64.74c1.41.09,4.17,1,6.16,0C17.6,64.41,14.46,63.84,13,64.74Z"/><path class="cls-1" d="M18.82,67.56c-2.61-.26-6.19-2.38-8.56-.4C12.88,67.17,17.52,68.63,18.82,67.56Z"/><path class="cls-1" d="M16.42,69.17c-1.08-.64-3.38-.19-5.13.4C12.91,70.8,15.17,71.06,16.42,69.17Z"/><path class="cls-1" d="M19.16,72.39c-.29-.37-2.18-.86-2.4,0C17,73.41,18.44,73,19.16,72.39Z"/><path class="cls-1" d="M11.29,78c2.19.51,2.33-.21,3.76-1.21C13.69,76.56,10.83,75,11.29,78Z"/><path class="cls-1" d="M27.37,121.15c.17,1.41.15,3,.68,4,.44-1,2.63.14,2.4-1.61-.6-.23-2,.49-2.05-.4-.31-.84,2.33-.11,1-.81-.5-.22-1.77.47-1.71-.4C28.24,121.86,27.76,121.29,27.37,121.15Z"/><path class="cls-1" d="M44.13,134.45c3.07,0,6-.15,7.87-1.61C49.27,132,45.48,131.77,44.13,134.45Z"/><path class="cls-1" d="M27,140.09c.55-.69,1.92-.42,2-1.61-1.14.06-6-.67-6.16,2.82C24.5,140.86,25.33,138.07,27,140.09Z"/><path class="cls-1" d="M23.26,139.28H19.85c.26.9.19,2.19,1,2.42C21.7,140.93,23.1,140.83,23.26,139.28Z"/><path class="cls-1" d="M20.18,62.32c.81,0,1,.7,2.06.41-.35-1.36,1.06-.63,1.71-.81.35-1.35-1.06-.63-1.71-.8C22.72,62.89,20.19,61.12,20.18,62.32Z"/><path class="cls-1" d="M1.71,80.45c.9.31,2.83,1.48,3.76.41C4.8,79.54,2.35,80.6,1.71,80.45Z"/><path class="cls-1" d="M37.29,127.6c1.16-.12,4.7-1.24,3.76-1.21C39.71,126.69,37.14,125.54,37.29,127.6Z"/><path class="cls-1" d="M36.26,138.48c2.81,0,5.24-.55,5.82-3.23A13.14,13.14,0,0,0,36.26,138.48Z"/></g></g></svg>