<svg xmlns="http://www.w3.org/2000/svg" viewBox="0 0 218.67 177.99"><defs><style>.cls-1{fill:#ffdce0;fill-rule:evenodd;}</style></defs><title>3 мазок</title><g id="Слой_2" data-name="Слой 2"><g id="Ўар_1" data-name="Ўар 1"><path class="cls-1" d="M16.55,45c-.69-.6-1.4-.25-2.51-.77C13.82,45.05,16.23,45.94,16.55,45Z"/><path class="cls-1" d="M16.2,46.72a20.07,20.07,0,0,0,4,.81c-.21-.83-1.69-.78-2.41-1.26C18,47.42,15.5,45.9,16.2,46.72Z"/><path class="cls-1" d="M24.34,51.93c-.74-.23-3.71-1.51-4.78-1.49C20.57,51.11,23.47,52.56,24.34,51.93Z"/><path class="cls-1" d="M21.58,52.38c1,.25,2.71,1.19,4.19.86C24.76,52.83,22.69,52,21.58,52.38Z"/><path class="cls-1" d="M25.19,54.89c-1.74-.52-3.91-2.29-5.76-1.43C21.2,53.83,24.17,55.36,25.19,54.89Z"/><path class="cls-1" d="M33.37,57.59C32,56.32,30.26,56.19,28,55.47a1.15,1.15,0,0,1-.38.68c.29.7,2.21.29,2.46,1-.36,0-.84-.26-1,.05.68.11,1.5.45,1.91.14-.38,1,.58,1,1.2,1.26C32.11,57.52,33.1,58.12,33.37,57.59Z"/><path class="cls-1" d="M19.82,55.06a2.56,2.56,0,0,0,3.54.47C22.71,55,21.08,55,19.82,55.06Z"/><path class="cls-1" d="M24.83,57.86c-.15-.27-1.38-.83-1.63-.34C23.2,58.16,24.27,58.1,24.83,57.86Z"/><path class="cls-1" d="M18.78,60.16c1.42.62,1.61.2,2.71-.2C20.59,59.6,18.84,58.26,18.78,60.16Z"/><path class="cls-1" d="M24.37,88.41a7.2,7.2,0,0,0,0,2.53c.41-.52,1.77.45,1.83-.64-.38-.22-1.43,0-1.35-.53-.11-.55,1.6.26.8-.34-.31-.2-1.26,0-1.12-.48C24.87,89,24.62,88.55,24.37,88.41Z"/><path class="cls-1" d="M21.79,99.79c.47-.34,1.36,0,1.6-.69-.78-.12-4-1.24-4.54.85C20,99.9,20.89,98.33,21.79,99.79Z"/><path class="cls-1" d="M17.41,99.9c.65-.35,1.62-.21,1.92-1.12L17,98.3C17.08,98.88,16.87,99.64,17.41,99.9Z"/><path class="cls-1" d="M26.77,51.93c.55.1.6.56,1.35.53-.08-.87.8-.23,1.26-.25.41-.77-.65-.53-1.06-.72C28.42,52.62,26.92,51.2,26.77,51.93Z"/><path class="cls-1" d="M12,60.28c.58.31,1.75,1.29,2.51.77C14.18,60.16,12.37,60.46,12,60.28Z"/><path class="cls-1" d="M206.18,18.68c-.66-.56-1.34-1.69-2-1A1.32,1.32,0,0,0,206.18,18.68Z"/><path class="cls-1" d="M208.18,20.59l-1.33-1.27C206,20.29,207.41,21.65,208.18,20.59Z"/><path class="cls-1" d="M204.31,22.48c.89.79,2.94,2.48,3.09,2C206.08,23.56,205.78,21.43,204.31,22.48Z"/><path class="cls-1" d="M200.13,20.34c0-.28.19-1.71-.68-1.11.13.14.23.29,0,.47-.44-.51-.88-.46-1.3.15C198.82,20.12,199.49,20.86,200.13,20.34Z"/><path class="cls-1" d="M218.67,52.56a11.38,11.38,0,0,0-1.14-2,1.36,1.36,0,0,0-.82,2C217.34,51.64,218,52.71,218.67,52.56Z"/><path class="cls-1" d="M166.23,1.85c-1-.1-2.06-1.63-3-.12l2,1.92C165.88,2.9,166.91,2.61,166.23,1.85Z"/><path class="cls-1" d="M201.36,36.91c-.65-.54-.44-1.14.19-1.22l-.67-.63c-.55,1.2-1.16-.39-1.72.67C199.84,36.71,200.29,37.68,201.36,36.91Z"/><path class="cls-1" d="M199.05,40.76c.6-1.26-.47-2.33.57-3.65a4.73,4.73,0,0,1-2.57,1.74C197.43,40.05,198.15,39.83,199.05,40.76Z"/><path class="cls-1" d="M172.58,13.53l-.89-.85c-.45.45-.22.82-.63,1.26C171.59,14.58,172.08,14.28,172.58,13.53Z"/><path class="cls-1" d="M213.25,53.43c.58.28,1.2,1.9,1.75.75C214.41,53.62,213.81,52.78,213.25,53.43Z"/><path class="cls-1" d="M169.09,13c-1,.82.24,1.89.91,1.8.21-.34.63-.71.41-1C170,14.39,169.52,13.15,169.09,13Z"/><path class="cls-1" d="M160.81,12.51l-1.27,1.58c1,.42,4,.57,3.45-1.35A1.36,1.36,0,0,1,160.81,12.51Z"/><path class="cls-1" d="M150.16,2.77c-1.84-1-3.64-.81-5.45-.55A25,25,0,0,1,143.25,5l1.11,1.07C146.15,5.1,149.13,5.66,150.16,2.77Z"/><path class="cls-1" d="M139.56,5.21l-1.33-1.28c-.46.45-.22.82-.63,1.27C138.26,5.56,138.92,6.06,139.56,5.21Z"/><path class="cls-1" d="M151.43,21.25c-.94.21-1.89-.33-2.81.57a3.53,3.53,0,0,1,2.21,1.65c.5-.13,1-.76,1.5-.89C151.22,22.33,151.32,22.54,151.43,21.25Z"/><path class="cls-1" d="M149.8,26.22l1.27-1.58c-.52-.85-1-.51-1.54-1A1.64,1.64,0,0,0,149.8,26.22Z"/><path class="cls-1" d="M122.8,5c.51-.53.5-1,0-1.43-1.45,0-2.88,1-4.31,1.94C119.93,6,121.36,5.21,122.8,5Z"/><path class="cls-1" d="M133,25.07c.36-.29.72-.2,1.07-.84-.37-.27-.75-.88-1.1-.59C133.4,24.07,132.45,24.66,133,25.07Z"/><path class="cls-1" d="M102.08,1.94c.45-.28,2,.21,1.71-1.16-.28.28-.58-.05-.87-.37C102.73.91,101.56,1.52,102.08,1.94Z"/><path class="cls-1" d="M125,27.67c-.47-.72-2,0-1.73.68C123.88,27.8,124.48,28.6,125,27.67Z"/><path class="cls-1" d="M94.26,12.16l-.85,1.06c2.19,1.18,1,2.75,1.83,4.08C96.58,16.28,95.8,13.62,94.26,12.16Z"/><path class="cls-1" d="M211.27,102.37a1.69,1.69,0,0,1-.28.12C211,102.59,211.11,102.59,211.27,102.37Z"/><path class="cls-1" d="M208.12,97.48c.35-.58.72-.23,1.08-.36a14,14,0,0,1-4-4.31c.48,0-.11-.91,1.07-.84-.11-3-4.63-4.46-5.38-7,2.44-.74,4-.74,6.8,2.31-.53-2.65-4.72-4.86-6.69-7.34,2.16-2-1.76-3.3-1.41-5.09.55-.41,1.08.13,1.06-.84-.83-.68-2.09-4.28-2.22-2.13l-1.11-1.06c.34-1.16.86-1.23,1.7-2.11-.3-.36-.9-.69-.68-1.11,1.1-.76,1-.51,2.17-.25-1.09-1.24-.46-3.65-1.86-5.52,1.56-1.49,4-5.18,6.06-1.19-.33.7-1.08-.29-1.94.47a18.06,18.06,0,0,1,2.64,1.6c1-.91,0-1.59,1.25-2.53-2-2.28-6.27-2.94-5.37-7-.6-1-1.69-.42-1.12-1.54,3.3-1.65,6.71,2,10,.26-.2-.61-1-1.15-.91-1.81,2.14-1.62,4.36.47,6.54.68-1.9-1.68-2.53-2.25-4.18-2.14,0-.56-.55-1-1.12-1.54-3.22-1.53-6.41-1.21-9.65-3.65-3.31,1.11-6.73-2.45-10.13-6-.83.38.21,1.66-.63,1.26-1.4-.93-4-1.93-4.65-4a14.31,14.31,0,0,0,4.38,1.4c-4.54-4.32-8.73-5.49-11.94-8.64.52.51,1,.18,1.55,1,6.23-.78,11.42,8,17.18,9.93.54-1.42-2.69-2.39-2-3.82.74.57,1.48,1.49,2.19.7l-2.22-2.13c-.29.28-.57.78-.86.58-.68-.72-1.91-1.37-.92-2.28a73.31,73.31,0,0,1,6.18,4.05c-.32-4.79-8.49-3.31-8-8.61-.62-1.25-2.32-.89-2.22-2.13,1.54,1,3.06.67,4.61,2.09,1-2.1,2.05.7,3-.36-2.5-4.11-7.29-4.69-11-6.35.25.29.47.58,0,.95-1-.62-3.05-.63-3.3-1.76.35-.4.73.33,1.07-.37-8.46-2.45-16.91-4.61-25.26-1.82,2.62,1.07,5.92,1,7.82-.44,4.94,3.66,11.69,4.49,17.29,4.91-.25-.29-.47-.59,0-1,.6.69,1.17.06,1.76.75-.1,3.31,4.66,1.58,3.36,4.63-.8-.07-1.61-1-2.4-.44.23.29.67.56.45.9-2.4-.59-4.79-.72-7.23-2.73.28-.29.88-.22.64-.8-3.89-2.08-7.72-1.22-11.57-1.75-1.07.92-.57,1.66-1.25,2.53.21.46,1.4.8.9,1.33-.71.49-1.43,1.13-2.17.25-.83.84,1,.88.26,2.12-.74-.83-1.46-.54-2.2-1.17.22-.27.43-.14.65-.32-1.34-1.54-3.76.27-4.39-1.87,1.44-.46,2.91.3,4.34-.51-2.27-2.93-6.08-2.61-9-2.06,1.08,2,4.48,2.49,4.25,5.48-.73-.21-1.43.77-2.18-.23a1.69,1.69,0,0,1,.4-1.48c-2.61-1.21-2.22-.63-4.15-.71-.3,1.25,1,.83.7,2.07a12.3,12.3,0,0,1-8.7.06c.26,0,1.53-.75,1.06-1.32-1.52-.16-3.05-.17-4.57-.18a15.78,15.78,0,0,0,3.43-2.31c.11-1.08-.32-2-2-1.91a14.73,14.73,0,0,0-1,2.27c-2-.46-1.5-1.2-3.3-1.77-1.3.89-2.86,3.73-.36,3.39-.36.84,1.25,1.44.49,2.33-.79-1.67-.72-1-2.22-2.13-1.29,2.17-4.83,3-4,4.53-2.08-2.28-4,.29-6.09-.24-.17.65-1.15,1.4-.39,1.95a6.16,6.16,0,0,1,3.48.07,6.88,6.88,0,0,1-2.14,1.68c-.52-.55-1-1.06-1.55-1L123.89,35c-.81-.82-1.59.18-2.4-.43-.62-.61,1.11-.22,0-1-.44-.18-.87-.15-1.31-.32-1.45,1.49-1.58,2.3-3,2.73.75-.8.76-1.52.17-2.16-.66-.38-1.29.56-2-.49a2.15,2.15,0,0,0,.62-1.27c.57.29,1.07-.38,1.1.59.69-1.82,3.94-1.67,3.6-4.48-1.3.21-2.58,1.38-3.91,0,.63-.87,1.29-.32,1.92-1.42-1.24-.35-3.59,1.25-4.12.24,1.15-.65,4.51-1.55,3.64-2.57a50.86,50.86,0,0,1,13.63-3.26c-.28.43-.86.89-.63,1.26.42-.52.88.25,1.29-.63.64-.64-1.42-.12-.24-1.16.44.17.9,1.41,1.32.8.35-2.22,4.45-.89,6.3-.5a1.84,1.84,0,0,1,0-1.42c.37.24.72-.08,1.09.11.5.34.15.78.24,1.16,3.51-1.48,7.37-3.7,11.48-2.06.73-1.9,3.89.81,4.53-1.72-3.08-.4-4.73-2.2-7-3-.08-.62.45-1.32.39-2-1.22.64-1.49-.39-2.42-1.39-.71,1-1.45.15-2.16.73.81.7-.05,1.6.05,2.38a4,4,0,0,0-2.42-1.39c.29.36-.31.83-.63,1.27a5.38,5.38,0,0,1,.71,2.54c-3,.17-5.87,3.55-8.89,1.28-2.49,2.18-6.15,3.66-8,2.6.94-.2,1.86-1.34,2.79-2a17.18,17.18,0,0,0-3.68,1.15c-.52.7.73,1.19-.39,2-4,0-7.89,4-11.91,2.1-.93.94-1.87.69-2.83.09-1.06,1.76-2.81.54-3.89,1.41.33.36.81.71.25,1.17-.11-.93-1.46-1.35-1.34-1.76,1.25.77.46-2.66-.06-2.38-.5.45-.44,1.44-.38,2.44-.85-1.22-.56.19-1.09-.11l-.89-.86c.35-.54.72-.34,1.07-.84-1.34-1.79-2.59.59-3.92-.49-.48-2.15-2.64-1.16-3.1-2.51-1.56,2.05,3.1,2.48,1.62,4.83,1,.58,1.9.28,2.85.86.78-.57.24-1,.84-1.53.88.77,1.61,1.56,1.57,2.44-1.21,1.35-1.18-1.53-2.4-.44-.34.44.5.74.24,1.17l-.05,0a1.13,1.13,0,0,0-.63.19l.31.08-.34.28a1.09,1.09,0,0,0-.36-.12,1.52,1.52,0,0,0,0,.38c-2.44,2-4.88,3.53-7.39,2.27-.44-2.57,2.76-2.94,3.38-4.69a38.26,38.26,0,0,0-7.86,4.19c-5.45-1.44-11.17-3.1-15.9-3.34A1.48,1.48,0,0,1,72.8,24c-1.26.08-.55,1.12-2.07.22,0,1.6,2.37,1.75,2.34,3.38-1.15.88-3.45,1.07-4.9,2.53.82.65,1.24,1.56,2.66,1.83.62,0-.08-.54.45-.55,1,.21,2,.38,1.74,1.33-2.58.56-8.17.83-10.15-1.44.71-.05,2.14,1,2.07-.22a18.77,18.77,0,0,0-4.66-3.54c-.18,1,1.32,1,.52,2.36-4.42.92-9.47,0-13.77-1.86a13.38,13.38,0,0,0-.31,3.15c1.05.69,2.68,1,2.91,2.21-3.29-.56-7.82-1.88-9.76-1.68,1.64,1.18-.82.49-1,1.41.36,2.5,4.14,1.2,5.83,2.81-.87.25-.32.57-.83.79-1.86-.82-2.51.12-4-.18,0,1.83-1.5,1.57-1.93,2.82,1.11.5,0,2.11-.89,2.71.25.89,2,.16,1.87.71-.41.61-1.33.47-2.38.15,1.36-.52-1.32-1.22-1.56-.64,1.25.2.07.28.13,1,2.17.34,2,2.14,3.44,3-.59,1.11,0,2.48-.31,3.6-1.1-.25-1.88,0-2.73-.43.28,0,.65.18.75-.1-.66-.65-2.33-.61-3.44-1a3.75,3.75,0,0,0-.09.39,1.93,1.93,0,0,0-1.61.22c-.77-.32-1.45-.72-2.22-.4-.43.85.68.64.73,1.16-2.44.19-5.25-1.92-7-1.19C25,50,29.33,50.16,31.11,52.06c-.23.39-1.1-.25-1.26.24,3.64,3.08,8.09,2.84,11.87,4.84a2.81,2.81,0,0,0-.87.33l-.53-.16s0,0,0-.07c.13-.56-1.91-1.6-2.22-.65-2.64-.91-5.42-2-7-2.49-1-.35-4.22-1.18-2.89-.09-.51,0-1.46-.61-1.68-.09,2.36.7,3.45,2,5.77,1.44,1.21,1,.73,2,2.06,3,.76,0,.35-1.12.72-1.12a1.87,1.87,0,0,1,1.29.78,2.45,2.45,0,0,0,.46,2,.82.82,0,0,0-.28.66c1.38-.23-.16,1.36.72,1.43.88-.72,1.28-2.15,3-1.62-.08-1.21-1.68-1.57-2.72-1.53.23.17.16.31,0,.46a4,4,0,0,1,0-1.43c.63.51,1.68-.42,1.34.53.7.37.61-.53,1.08-.54.63.31,1.28.61,1.94.9a4.14,4.14,0,0,0-1.65,0A18.1,18.1,0,0,0,45,60.1c1.47.59,3,1.16,4.46,1.74-2.34.25-4.46.53-6.53-.85a2.24,2.24,0,0,1-2.84.7c-.12.78.42,1.09-.58,1.17s0-1-1.17-.88c-.31,1.68-2.87.11-3.61,1.19l.21,0c-.23.11-.42.28-.66.4.36.39-.36,1.57-.35,1.7-1.49-.35.25-2-.14-2.82-2.07-.46-3-.26-5.41-.85.17.65.21,1.38,1.15,1.5.51-.06.32-1.22,1.13-.78.21.9-.93,1.35-.27,2.47-4.38-.38-10.5-3.53-15.48-3.68.35,3,4.94,2.19,7.79,3.37,1.94.81,2.39,2.81,4.12,2.36.54-.78-.76-.3-.55-.87,1,.4,1,.16,1.81.63-.69.39.4,1.07-.29,1.46,1.33.57,1.35.79,2.79.57-.08.68,1.09.49,1.24,1C31,70.74,29.69,71,28.2,71c.87,0,.81.69.68,1.41-1.26.07-1.07.83-1.56,1.71C25.61,73.69,22.4,73.19,21,72c.28,0,.65.17.75-.1-1.69-.64-2.55,0-4.06-.33-.32,3,3.42,2.48,4.92,2,.42,1.58,5.13.55,5.52,2.66-2.25.2-4.41,1.68-6.48-.32.63.11,1.23-.33.89-.83-2.83.92-6.48-.68-10.25-.84,1.7.56,3,1.4,5,1.78a2.83,2.83,0,0,0,4.22,1.88C23,79,26.06,79,26.38,81c-2,.93-1.84,3-2.21,4.87a7.62,7.62,0,0,1-2.84-.33c1.23,2,4.76,2.54,7.45,3.23-.14.36-.27.71-.37,1a.67.67,0,0,0-.28.42l.17,0c0,.13-.07.27-.1.4a.52.52,0,0,0-.22.29l.17.07a2.7,2.7,0,0,0-.06.41,4,4,0,0,0-.79.52l.73.13C28,92.75,28,93.48,28,94.3a5.36,5.36,0,0,1-3.85-1.13c-1-.39.22.75-.8.35-.75-.11-.16-1.14-1-1.21-.71.69-1.24,1.68-2.49,1.51-.35,1.07.65,1.22,1.66,1.35,1.82-.58,4.14-.32,6.43,0,0,.41,0,.84-.05,1.3.92,0,1.08.53,1.53.85a4.37,4.37,0,0,0,.43,2.09,6.44,6.44,0,0,0-1.59.67,11.06,11.06,0,0,0,1.74.2c-1.35,1.85-4.27.58-6.28,1.13-1.17-2-3.83-2-5.16.3-2.17-.48-3.88-.06-5.87-.18,3.87,1.63,8.33,1.4,10.74,3.91.58-.46.18-1.3-.5-1.47,3.05-1.48,4.51,1.4,6.68,2.74-1.41,2.45-5.66-1.12-6.84.65-1.29-1.3-4.8-3.79-5.94.14,1.69.29,2.24,1.54,4.25,1.56,0-.4-.42-.37-.71-.49,2-.77,5.51.15,7.42.5.07,1.33-.49,2.19.74,2.89a2.35,2.35,0,0,1-.63,1.42,22.93,22.93,0,0,0-2.63-.14c-.42-.58-.53-1.38-1.42-1.64-1.32,2.69,3.53,2.54,4.58,4.3-4.65.16-6.26-1.73-7.6-3.8-1.1-.08-.66,1.07-1.66.47.2,2.11,1.54,3.45,3.57,4.33a.63.63,0,0,0,.24.48c-1.24-.17-2.54,1.35-4.44,1.4-3.44.1-7.67-3.12-9.48.44,4,1.75,9.61,1.52,14.07,2.15a16.75,16.75,0,0,0,1,2.43c-.54.17-.85.79-1.21,1.33a15.43,15.43,0,0,1,2.08.46,13.43,13.43,0,0,1,.64,1.58c.16.54-.05,1.15.07,1.68.34,1.48,1.8,2.89,3.73,4.09a3.67,3.67,0,0,0-.2.66,1.9,1.9,0,0,1-1.68.34c-.36-.18.56-1.32-.18-1.74-1.82.6-1.81,2-3.5,2.69-2.08-1.8-3.8-.74-6.51-1,0,.76,1.24.4,1.74.7-1.87.71,1.77,1.23,3,1.29,3.15.16,10.8.12,14.06.84-5.56,1.88-10.41-1.61-16.27.76-.07.69,1.12.32,1.16.92-2.71,1.51-7.14-.41-10.26.28,1.44,1.78,5.3.5,7.66,1.92-.3.63-1.32-.18-1.3,1.09.93,1.17,2.47.18,3.87.8.32.17,0,.86,0,1.36,1.29.11,2.95,1,3.94.47,0-.4-.42-.38-.71-.49,1.36-.15,2.05,1,4.12.85-.11-.63-1-.64-.44-1.8.7-.45,1.89.07,2.14-1.27l-1.8-.37a6.07,6.07,0,0,1,6.26-.42c-.4.42-.52,1.42-1.3,1.1,3.62,1.13,8.27,1.39,12.85,2.05.51.22,1.06.44,1.64.65a3.14,3.14,0,0,1-1.74.6c-.09,1.6,2.24,1.05,1.33,2.66,2.78,1.24,3.86-.9,6.45,0,.25-1.39-2-.86-2.51-.86.7-.66,1.81-.49,2.93-.31l1.42.37.07,0c.14.59-.27,1.66.92,1.36-.06.58-.61.76-.2,1-2.37,1.65-4.83-1.68-7.41-.5a6.93,6.93,0,0,1-.73,2.24c.59.26.68-.48,1.36-.07.37-1-.84-.63,0-1.36,1.36,1.38,1.26,3.13,4,2.87-.74-.59.07-1.49,1-1.16,1,.87,1.73,3,2,4.85-4.33,2.86-9.85,2.55-13.19,4.11.69,1.6,3.2.13,2.94,2.66.78.31,1-.53,1.11-1.48,2,.11,2.18,2,4,1.5-1.81-1.81,3.15.45,5.93-.15-.92.2,1.69-1.55,2-.61,0,.73-.5.55-.91.5-.11.73,1.07.36,1.48.64l.27-1.31c.49.31,1.9-.16,1.41,1,6.51-1.38,13.54.67,19.87,0,.13-1.56-2.32-.93-2.17-2.5a15.44,15.44,0,0,0-2.07.94c-.33-.17,0-.86,0-1.36-.8-.06-1.93-.77-2.2.23-.27-.76-.21-1.8-.88-2.23-1.16.31-2.95-.65-3.62.62-.69-1.39-1.23.22-2.83-.58,1.62-4.08,6.18.32,9.23-.49.1,1.1.9,1.91,1.66,1,.21-.53-.07-.66-.37-.76.25-.72,1.59.38,1-.82,1.07-.28.31,1,1.15.92.9.4.64-1.5,1.37-1.43,1.34.34.25,2.49.42,3.16,1.53.88,5.38-.21,4.89,2.37,2,.58.55.74,2.83.58.33.37-.17.48,0,1.36,4.86.63,10.86,3.82,13.4,1.39-3.39-1.91-8.57-3.31-12.73-4.66-.58-.23-.37-1.13-.76-1.52l-2.83-.59c.13-1.12,1.24-.28,1.17-1.8,3.24-.19,4.46,3,6.7,1.37,1.63,2,6.48,3.2,8.63,2.46a39.55,39.55,0,0,1-9.43-6.38,1.44,1.44,0,0,1,1.74-.66c.64,1,4.16,2.18,5.15,1L98,154.24a2.75,2.75,0,0,1,2.08-.94c-2.43-2-5.79-3.18-9.19-5,3.87-1,6.48,1.36,10.76,1.19a1.59,1.59,0,0,1-.09-.55c19.53,2,40.6,2.93,59.12,5.6-.13-.79-2-.38-2.41-1,1.93-.34,3.89.42,5-.13-10.71-1.94-21.56-4.2-34.25-4.56-8.18-.24-16.71-.14-25.3-.4.39-.72-.27-1.61.29-1.54-.41-1.85-3.14-.08-4-1.5.88-.4,2.19.07,3.22,0-.46-3.11,7.11,0,8.51.38-.68.48-1.51.67-2,1.65,2.89,1.71,6.29.58,9.41,1.25,1-.37.11-2,1.37-1.43-.64-1.12-.15-1.64.13-2.56,5.34.65,10.6,1.4,15.94,1.85,3.45.29,7.38,1.57,10.87,1.82a104.92,104.92,0,0,0,10.88.61,113.37,113.37,0,0,0,25.75.62c.35-1.79,2.28-.87,2.48-2.93-1.22-2.06-5.37-2.25-8.19-2.48,1.17-1.13-1.31-1.07-.65-2.51,1-.26,1.28-1.67,2.61-1.32,1-1.85,1.9-3.83,3.35-4.87-.3-3.57,2.45-6.41,4.31-8.37.57.22.46.94,1.47.83,0-2.21-1.76-4.78.35-6.28.41-.29,1,.36,1-.32,1,.3.56.6,1.24.78.93-2,2.35.72,3.7-.83-1-.22-1.86-1.41-2-.41-.61-.62-1.78-.82-2-1.74.21-1,.76-1.43,1-2.44a4.94,4.94,0,0,1-.66-3.23c.43.07.86.15,1.29.26.71,1.72,5.09,1.93,7.22,2.26-1.44-1.19-.64-1.39.39-2-.38-.92-.73-1.68-1.56-2,.64-.68,1.31.19,2,0a64,64,0,0,0-4.15-10.5c2.33.48,4.68,1.73,7,1.09-.23-.29-.67-.56-.46-.9.59.51,1.17.26,1.75.28-.47-.75-2-1.36-1.79-2.18,2.19-.07,5.48,3.08,7.17,2.59-.1-.29.23-1.4.48-.86.27.21,0,.71.44.43C210.67,100.15,209.17,98.89,208.12,97.48ZM209,49.86A2.1,2.1,0,0,1,206.6,48C207.7,47.17,208.37,49.2,209,49.86ZM19.92,140.94c0-1.23,1.11-.25,1.69-.34C21.61,141.84,20.5,140.85,19.92,140.94Zm1.76-2c0-1.54,2.77-.79,2.65.2A7.26,7.26,0,0,1,21.68,138.91Zm.77,1.52c1.74.55,3.85-.74,5,.68C25.67,141.09,23.63,141.88,22.45,140.43ZM178.57,113a14.86,14.86,0,0,1-4.18.06,7.38,7.38,0,0,1,1-.71C176.07,112.64,177.94,112.74,178.57,113Zm5.77-8.93a16.47,16.47,0,0,1,1.78.52l-1.64-.15C184.43,104.32,184.38,104.21,184.34,104.08Zm-10.13,9a43.06,43.06,0,0,1-4.42-.79,7.41,7.41,0,0,1,3.37-.37c.15-.54-.77-.27-1.07-.48,0-.28.59-.19,1.34,0C173.73,111.94,173.57,112.54,174.21,113.05Zm-8.23-4a3.48,3.48,0,0,1,.87-.39,7.24,7.24,0,0,1,1.08,1A3.88,3.88,0,0,1,166,109.1ZM37.72,74.18c.15-.61.88-.32,1.5-.19C39.26,74.91,38.23,74.14,37.72,74.18Zm70.66-38a.89.89,0,0,1-.54.19c.15-.24-.12-.44-.24-.65l.37-.23C107.83,35.69,107.93,35.92,108.38,36.14ZM36.63,84.73c.18.12.37.23.56.34-.69.19-1.33.29-1.82-.23C36,85,36.38,85,36.63,84.73Zm-2.16-.58a.65.65,0,0,0,.79-.34l.89.61A3.93,3.93,0,0,1,34.47,84.15Zm-.41,1.95a.57.57,0,0,0,.22-.46c.64.14,1-.18,1.6,0a.62.62,0,0,1,.11.35c-.28,0-.57-.1-.9-.14C36.48,86.61,35.38,86.4,34.06,86.1ZM97.31,47.57l.1-.2,0,.2ZM38.86,98.39l-.3,0,.25,0S38.85,98.36,38.86,98.39Zm1.66,2.39a1.08,1.08,0,0,0,0-.19l.42.08Zm1-.27c0-.56-.88-.68-1.45-.47a.54.54,0,0,0-.19-.07,3.81,3.81,0,0,1,.1-.7.83.83,0,0,0,.06.21,22,22,0,0,1,4.84.42s0,.07,0,.09A12.07,12.07,0,0,0,41.52,100.51ZM90,40.72c-.46-.18-.82-.44-.89-.83a4.7,4.7,0,0,0,1.09-.15C90.11,40.06,90,40.39,90,40.72Zm18.21,3.74a3.23,3.23,0,0,0,2.88,3c-.28.2-.51.45-.76.64a44.85,44.85,0,0,0-8.83-.91l.92-1.14c-1-1.85-2.52.21-4.06-.31.22,0,.45,0,.66,0-.28-.1-.67-.13-.83-.3l.14-.17c1.88.39,2.74-.68,4.56-.34,0,.56-.64,1.48.4,1.37A7.14,7.14,0,0,1,105.39,45C106.27,44.91,107.16,44.62,108.18,44.46ZM94.28,33.17c-.2.09-.37.19-.55.29-.45-.2-.83-.53-.8-.82a.64.64,0,0,1,.27-.19C93.77,32.74,94.34,32.94,94.28,33.17ZM87.38,35c-.59,1.72-4.56,0-3.69-1.72C85.24,33.69,86.07,34.52,87.38,35Zm-.7,115.51c-.12-1.07-1.28-1.26-1.4-2.33C86.75,146,89.05,149.51,86.68,150.55Zm-.63.66s0-.05,0-.07l.22,0a3.57,3.57,0,0,1,1,.24A4.25,4.25,0,0,1,86.05,151.21Zm70.73-25c.46-.24,1.38-.3,1.12.49l-1-.2C156.87,126.45,156.82,126.36,156.78,126.26ZM183,112c-.84-.11-1.7-.26-2.56-.44A22.84,22.84,0,0,1,183,112Zm9.46-11.41a2.09,2.09,0,0,1,.09-.78h0c.07.07.15.12.23.19A1.1,1.1,0,0,1,192.42,100.57Zm6.5-25.89c-.64.44-1.33-1.09-2-1.44C198,72.75,198.82,73.62,198.92,74.68ZM187.7,38.74c-.21.27-.43.53-.64.79-.55-.33-.44-.74-.67-1.11C186.81,38,187.25,38.19,187.7,38.74ZM181.29,34c-.35.5-.72.29-1.07.84-.76-1.1-2.14-1.42-2.22-2.13C179,32.54,180.93,32.6,181.29,34Zm-7,8.22c.3.32.59.65.88.37a2.07,2.07,0,0,1-.39,2c-.53-.85-1,.65-1.54-.54C173.54,43.16,173.62,43.38,174.29,42.22ZM165.1,40c-.8-.39-.27-.93-.89-1.33C164.87,38.23,166.09,39,165.1,40Zm.89-9.42c-1.12,1-2.76.16-3.28-.81A5.92,5.92,0,0,1,166,30.53Zm-4.42-3.3c.73,1.08.73.77,1.77,1.7a10.43,10.43,0,0,1-2.62-.65Zm-3.19,3.47c1.08-.32,2.14-1.63,3.25-.61-.45,1.22-.06.86-.83,2-1-.32-2.06-1.74-3-.12l-1.56-1.49C156.9,29.17,157.64,29.87,158.38,30.7Zm-4.86,6.54c0-1-.24-.67.64-.79.88.37-.08,1-.41,1.48-1.17-.84-2.33-.82-3.52-2C151.28,34.26,152.42,36.4,153.52,37.24Zm-6.92-8.5c.86.7.26,1.56.91,2.28-.48,1-1-.08-1.5.89-.85-.78,0-1.75-.71-2.54C145.73,29.09,146.16,29,146.6,28.74Zm.58,7.09.67.64c-.42.81-.85.86-1.3.15-.36.52.62.88.46,1.38-1.78,1.12-3.68-2.75-5.52-3.89C143.54,34.28,145.76,37.8,147.18,35.83Zm-6.44-6.17c.62.64,1.57,1.25,1.57,2-.49.45-2.75.23-1.27,1.58-.65.43-1.33-1.09-2-1.44C140.09,30.7,139.79,30.16,140.74,29.66Zm.34-4.34-.89-.85C140.83,23.29,142.07,24.48,141.08,25.32ZM113,34.81a2.15,2.15,0,0,1,.62-1.27c.65.8.36,1.71.71,2.54-.56.89-1.66.78-1,1.8,1.63-1.8,3.37,1.5,5,1.08.39.51-.14,1.13.25,1.64-2.35.07-4.76-.75-6.51.76-.3,1.12,1.15.72,1.56,1.49-.63-1,1.06-1,.18-1.69.84-.79,1.39.62,1.77,1.23-.43.61-.86.66-1.31.15-.73.56,1.2.81.47,1.38-1.1.74-2.23-.08-3.34.1a1.65,1.65,0,0,1,.18-.47c-.24,0-.5-.09-.77-.15.17-.25.48-.52.64-.77-1.24-.23-2.49-.93-3.71-.76-.2-.3.26-.67,0-.95-.86.33-1.75-.6-2.6.3.93-3.86,3.55.1,5.82-.83a2.27,2.27,0,0,0,.25.18,3.39,3.39,0,0,0,1.74-1.89c-1.08-.22-1.18-1.06-1.68-1.64.39-.62,1.6-.09,1.86-.9a7.85,7.85,0,0,1-3.54-2.51c.1-.24.22-.5.37-.85C111.31,33.19,111.65,35.23,113,34.81Zm-7.35-8c-.57.54-1.14,1.1-1.74.2C104.49,26.11,105.07,26,105.67,26.83ZM86.51,31.32l-.74.54c-1.61-.09-3.11-.6-3.77-1.78C83.64,29.56,85.24,30.55,86.51,31.32ZM80.77,29.5c-1.44-.17-2.13-.82-2.34-1.76C78.86,28.55,80.9,28.34,80.77,29.5Zm-.5,5.69c-1,1.48-2.16-2.19-3.81-1.11-.69-.46-.83-1.27-.53-2.36C78.27,32.32,78.34,34.34,80.27,35.19Zm-4.94-7.13a5.67,5.67,0,0,1,2.14,1.09c-.83.9-2-1-2.65-.23C73.78,28.37,75.74,29,75.33,28.06ZM70.4,39c-3.54-.76-5.3-1.11-7.12-3.08C65.56,36.28,69.18,36.79,70.4,39Zm-9.59-5.84c.29,0,.28.19.26.38l-.12.62c-.81,0-.59-.71-1.56-.64C59.66,32.33,60.66,33.72,60.81,33.12Zm-9.83-3c1.65.41.27,2.2.14,2.6C50.13,32.47,50.89,31.09,51,30.14ZM31,50c.45.24,1.7-.06,1.3.77C31.89,50.55,30.64,50.85,31,50ZM31.86,52a8,8,0,0,1,2.27.72C33.91,53.39,31.38,53,31.86,52ZM33,51.18c1.46-.59,2.91.6,4.37,1.15C36,52.93,34.62,51.37,33,51.18Zm5.52.26a5,5,0,0,0,2.61.48c.21,1.67,5.63,1.13,8.89,1.94a1.28,1.28,0,0,1,.22.54c-1-.06-2-.83-2.7.18a1.49,1.49,0,0,1,1.3.36l-.57-.06a42.73,42.73,0,0,0-5.83-1.26.54.54,0,0,1,.51.29l-.2,0a2,2,0,0,1-.68.87,6.15,6.15,0,0,1-4-2.26l1.62.34C39.88,52,39,51.81,38.51,51.44ZM40.19,63c3.15.88,6-.43,7.31,2.15a4.55,4.55,0,0,1,.43-.28c.06.55.54.36-.2.74l.93.19c.11-.66.48-.41.2-1l-.62-.13c1.88-.94,4.94-1.21,6.71-.3-.92,0-.51.49-1.11,1-.58-.08-.64-.53-1.06-.73-.46.5-.14,1.07-.48,1.17-.77-.36-1,.18-1.68-.09-.49.73-.88,1.61-1.8,1.65a3.94,3.94,0,0,0-4.24-.61c-.16.46.22.54.32.82-2.15-.44-4.47-.11-7-1,.67-.54,2.76,1,3.23.17l.45-.35c.51.07,1,.2,1.58.32a1.06,1.06,0,0,0-.46-1.15,21.82,21.82,0,0,0,2-1.62,19.5,19.5,0,0,1-4.71,0c-.18,1-1,1.09-1.9,1.11a1.52,1.52,0,0,0,.35-.32c-.08-.35-.47-.49-.5-.88C39,64,39.85,63.85,40.19,63Zm-2.61.77A1.46,1.46,0,0,1,36,63.43C36.55,63.55,37.08,63.67,37.58,63.76ZM33.2,70.22c.23-.17.67,0,.8-.35a6.36,6.36,0,0,0,3.12,1.49l.45.33c-1.18.43-2.67,0-4,.13C34.4,71.24,32.78,71.16,33.2,70.22Zm.71,2.42c-.11,1,.16,1,1.48,1.07-.5.63-1.69.18-2.68,0a2.84,2.84,0,0,0-.92-1,2.37,2.37,0,0,0,0,1l-.16.07a1.17,1.17,0,0,0-.11-.33l.21-1C32.67,72.81,33.14,72.5,33.91,72.64Zm-2,12a3.78,3.78,0,0,0-.08.56,34.75,34.75,0,0,1-3.64-1A12,12,0,0,1,31.88,84.6Zm-.37,28.67c.14-.65.27-1.31.41-2a1.13,1.13,0,0,0,.56.58,6.28,6.28,0,0,0,.21,1,3.05,3.05,0,0,1-.89.43Zm-8.62,5.4s0,0,0,0a0,0,0,0,1,0,0Zm7.54,15.55a2.48,2.48,0,0,1,.15-.58c.47.25,1,.48,1.45.71C31.88,135.43,31.28,133.91,30.43,134.22Zm2.17.37c.59.26,1.2.49,1.81.7-.51,0-1,.06-1.54.12C32.62,135.28,32.65,134.89,32.6,134.59Zm30.55,14.2s.07,0,.11,0l.75.14a2.26,2.26,0,0,1,.81.94c-.53,0-.47,1.23-1.24.77C63.46,150,62.74,149.86,63.15,148.79ZM65.7,159.9c-2.32-.59-3.57.6-4.5-1.61,1.16-1.52,4.75-1,5.87.18C66.47,158.72,65.26,159,65.7,159.9Zm18.65-.61c.19.12.5.11.45.44l-1.29-.27c0-1.41,2-1.2,2.26-.56C85.5,159.43,84.55,158.63,84.35,159.29Zm2.39-1.21c-2.54-.58-1.7-2.68-3.58-3.47-2,.29-6,1.09-7.6-.88,3.15-1.06,6.88-.27,10.19,0,.57,1.3-.35,2.22,1.4,2.34C87,156.77,86.88,157.42,86.74,158.08Zm-.17-6,2.06.23a6,6,0,0,0,.55.45A5.34,5.34,0,0,1,86.57,152.09Zm3.64.89c.78.33,1-.4,1.87.05C92.17,154.18,90.17,153.47,90.21,153Zm.6-2.94c-.21,0-.35.21-.39.6l-1.29-.27C89.33,149.42,90.81,148.66,90.81,150Zm12.37-1.57-1.55,0a2.34,2.34,0,0,1,0-.26Zm-1.64-1c-.87-.27-.47.38-.47.95l-.67,0c-.63,0-1.31-.1-2-.19a1.16,1.16,0,0,1-.32-.78c1,.44,2.09.05,1.23-.76C99.92,146.2,101.48,146.61,101.54,147.46Zm76-29.38,7.44,1.53a21.19,21.19,0,0,1,.43,2.47C183.26,120.39,179.6,119.83,177.53,118.08Zm2.79-4.45c.85-.4,5.88.05,6.66,1.9C185.29,116.33,182.42,113.23,180.32,113.63Zm13-11.26,1.22.16a4.68,4.68,0,0,1,.06-1.47,2.74,2.74,0,0,1,1.41,1.65A2.09,2.09,0,0,1,193.36,102.37Z"/><path class="cls-1" d="M172.79,13.26c2,1.18,5.11,1.61,6.33.94C177,14.28,174.88,13,172.79,13.26Z"/><path class="cls-1" d="M134.51,3.17c-2.63-.86-5.16,2.46-7.81.91-.24.59-1.51,1.29-1,1.79C128.46,5.08,133.8,6.24,134.51,3.17Z"/><path class="cls-1" d="M91.85,11.73c0-1.27.6-2.62-.95-3.71,1.44-1.57-.88-1.77.37-2.91.89,1.41.83,2.93,2,4.3a7.76,7.76,0,0,1,2.79-2c.8.63.37,1.39.69,2.07-1.27.53-.49,1.24-1,2.27,1.63.9,1.21,1.87,2.22,2.13-.06-.82.83-.69.61-1.74.37.24.73-.08,1.09.11a6.62,6.62,0,0,1,.51,3.28c-.81-1-.36.65-1.28,1.1,1.51.62.33,1.56.92,2.28,1.63-.62,1-1.86,2.78-2,.08-.65-.28-1.24.39-2-2.11-1.9-4.05-3.82-3.82-6,1.85-1,5.86.21,6.23-3.35a8.51,8.51,0,0,1-3.48-.07c.45-1.93-1.22-2.28-2.67-2.56.8-.07.36-.84,1.27-1.58-3.1-.67-6.5-2.7-8.91-.15.89,1.86-1.19,2.09-2.34,2.9.59.56,1.43,1.11.92,1.8s-1.17-.1-1.73.68c.13.22.08.47-.2.74C90.46,7.56,91.27,10,91.85,11.73Z"/><path class="cls-1" d="M121.75,26.39c.58-.41,2.3-.06,2.15-1.21-.59.52-1.55-.24-1.5.89C122.1,25.65,121.51,25.85,121.75,26.39Z"/><path class="cls-1" d="M158.87,5.53c-.78-.86-2.55-.17-2.54.82.84-1.1,1.73.1,2.58-.77a3.92,3.92,0,0,1,.47.89c2.54.41,5.06-.3,7.6-.17.58,1-1.13,1-.18,1.69,2.48-.36,5.81-.4,7.67,2.69,1.52-.24,3-.83,4.57.18,0-.58,3-.94,3.06.6a15.62,15.62,0,0,0-3.89.93c2.08,2.33,4-.68,6.12,1.68.51-.86,2.16.35,1.94-1-.57.38-1.16.14-1.75-.27.26-.35,0-.64.42-1,3.92.45,7.91,4,11.82,3.39-1.52-.86-1.11-2.1.16-2.64C188.12,8,179.33,4.25,170.6,2.78c-.07,1-2.68,2.46-4.07,2.62-.69-1.34-3.21-1.13-4.59-1.14-3.37-1.18-8.57-3.17-10.88-.16C153.35,4.54,157.21,3.31,158.87,5.53Zm36.52,7a1.34,1.34,0,0,1-2-.49C194.08,12.08,194.72,11.72,195.39,12.54Z"/><path class="cls-1" d="M177,157.39a101.22,101.22,0,0,1-30.25.93c-4.79-.58-9.36-2.48-14.19-1.85,15.34,3.8,30,3.88,43.3,3.07-.11-1.71,1.47-.95,2.44-1.62C177.54,158,177.7,157.35,177,157.39Z"/><path class="cls-1" d="M128.53,155.38c1,.18,2.7,1.45,3.43.44C130.87,155.77,129.33,154.94,128.53,155.38Z"/><path class="cls-1" d="M79.7,175.41c1.1,1.2-.55,1.39-1,2.19,3,1.1,1.93-.55,4.51.24.51-.79.77-.87.67-1.91C82,175.71,81.11,174.67,79.7,175.41Z"/><path class="cls-1" d="M39.58,166.83c-.13,1-.79.88-.92,1.86a1.75,1.75,0,0,0,1.94-.29A2.64,2.64,0,0,0,39.58,166.83Z"/><path class="cls-1" d="M43.11,167.9a7.79,7.79,0,0,1,2.77.91c.1-2,1.75-.83,1.71-3.07C45.81,165.89,44.08,166.13,43.11,167.9Z"/><path class="cls-1" d="M82.14,168.74c-.14-.7-2-1-1.94.28C81,169.3,81.78,169.4,82.14,168.74Z"/><path class="cls-1" d="M49.93,155.64c.44,1,1.7-.26,2.45-.18,0-.54-.75-.45-.24-1.42l-1.29-.26C51,154.82,50.74,155.44,49.93,155.64Z"/><path class="cls-1" d="M111.44,167.25c.94.17,2,.6,2.45-.19C114.12,165,111.81,166.34,111.44,167.25Z"/><path class="cls-1" d="M88.62,158.12c-.19.7.88.33,1.21.59a1.91,1.91,0,0,1,0-1l-.77-.16C89,157.91,88.83,158.09,88.62,158.12Z"/><path class="cls-1" d="M0,139.92c1.37-.12,1.91.66,2.9.26C3,138.87.17,138.82,0,139.92Z"/><path class="cls-1" d="M29.44,144.26c.22,1.59,2.31.77,3.1.64C32,143.51,30.52,144.14,29.44,144.26Z"/><path class="cls-1" d="M3.37,137.88c-1.1.69,2.13,0,1.34,1.3,1-.24,2.43.54,3-.4C6,138.11,5.44,138.26,3.37,137.88Z"/><path class="cls-1" d="M100.39,154.39a8.64,8.64,0,0,1,3.15.31c-.38-1-1.87-1.12-2.88-1.62Z"/><path class="cls-1" d="M8.56,134.85c1.07.56,4.68.39,5.54.46C13.52,134.1,9.89,134.51,8.56,134.85Z"/><path class="cls-1" d="M116.17,157.29c.79.19,1-.83,1.18-1.81-1.85,0-3.87-.33-5.43.26C112,157.13,115.72,155.13,116.17,157.29Z"/><path class="cls-1" d="M11.54,133.42c1,1,3.41,1,4.63,1C14.84,133.24,12.61,133.56,11.54,133.42Z"/><path class="cls-1" d="M16.39,132c-.8-1.07-4.54-.6-6.51-1C11.33,133,14.38,131.83,16.39,132Z"/><path class="cls-1" d="M19.42,131.62a1.93,1.93,0,0,1,.06,1c2.64.2,4.5.9,6.45,0,0-.79-1.3-.52-.69-1.85-.76,0-1.74-.38-1.82,1-.27-.59-1.26-.56-2-.75,0,.46.59.4,1,.54C21.78,132.33,20.05,130.88,19.42,131.62Z"/><path class="cls-1" d="M14.85,130.34c-.63-1.72-2.37-1.87-3.79-1.12C12.27,130,13.94,130.69,14.85,130.34Z"/><path class="cls-1" d="M17.45,128.14c-.44-.57-1.49-1.16-1.8-.37C15.67,128.51,17.17,128.4,17.45,128.14Z"/><path class="cls-1" d="M12.47,122.34c-.85,2.41,1.56,1.58,2.63,1.56C14.19,122.87,14.21,122.26,12.47,122.34Z"/><path class="cls-1" d="M72,172.46c.9-1.74,2.47-2.15,4.59-1.45.8-1.55,1.7-1.45,1.83-2.36.06-.41-1.93-.45-.31-1.09-1.62-.61-3.48-.61-4.83-1.33a1.11,1.11,0,0,1,1.16-.44c-1.52-1.67-3.94-1.55-6.18-1.27,1.68-.89-5-2.49-4.39.46-3.16.57-5.05,1-8.65.28-.42,1.46-1.59,1.43-2.53,1.87-.42-.58.68-1.24-.83-1.2-.22-.14-.06-.93.2-1-.8-1.12-2.81-.71-3.48,0-.13.31,1.39.85,2.77.91-.33,1.2-1.55.6-1.76,2a33.7,33.7,0,0,1,6.9.39c-.37,1.26-2.13-.26-2.21,1.59l-2.06-.42c-.05.22-.09.44-.14.66.25.06.12.44.13.7.57.23.48-.88,1-.82.55.3-.41.44.06,1,1.17.48,2,.2,2.33-.89,2.74,1.21,5.86-.32,7.28,1.15a1.89,1.89,0,0,0-.46.93c-2-1.43-3.75.5-5.56.91-.39.75,1.75,1.12.32,1.09,1.64,1.41,3.74-.21,5.23-.63.23.35-.17.73.24,1.41,3.79.74,7.15-1,9.87.32.06,1-.69.46-1.16.44,1.48,1.52,5.47.2,7.55-.15.19-1.61-.47-.81.4-2C76.86,172.69,74.32,171.31,72,172.46Z"/><path class="cls-1" d="M16.54,136.49c-.19,1,2-.07,1.35,1.3.52,0,1.46.77,1.42-.39-.46-.24-1.64.13-1.15-.92C17.42,136.08,17.15,136.62,16.54,136.49Z"/><path class="cls-1" d="M8.56,119.15c-.52-1-2.17-.36-2.9-.26C6.16,118.87,7.83,120.12,8.56,119.15Z"/><path class="cls-1" d="M71.17,22.06c.29-1.17-.51-1.65-.46-2.67.84.15.61-1.25,1.81-.59,1.26-2.6-5.28-4.38-3.5-2.65a1.93,1.93,0,0,0-1.36,0c.56,1.66-1,2.21-1.67,3.2C67.19,20.79,68.47,22.34,71.17,22.06Z"/><path class="cls-1" d="M34.55,42.85c0-1.14-1.76-1.23-3-1.59.24-1.1-1.81-1.58-.27-2-.93-1.11-1.34.22-2.46-1.15a9.06,9.06,0,0,0-.57,2.78C30.85,40.53,30.76,42.75,34.55,42.85Z"/><path class="cls-1" d="M97.37,29.05c-1.1.13-3-1.4-2.58-.53.38.12.74.25.52.75C95.93,29.1,96.94,29.49,97.37,29.05Z"/><path class="cls-1" d="M41.28,29.76c1.06.72.41-1,1.16-.73.07,1,1.12,1.46,2.79,1.22C45.35,28.11,42,28.18,40.5,27,40.63,28,42.35,28,41.28,29.76Z"/><path class="cls-1" d="M28.75,48.1c.83-1.49-1.9-1.81-.2-2.3-.43-.62-2.4-.28-2.07-1.39,1.17.31,1.15.68,2.26.47.9-1.74-2.15-2.4-3.3-2,.39.12.74.25.52.75-1.28-1.07-2.08.3-2.9,1,.58.27,2,0,1.49.95L22,45.09c-.13.62-.26,1.24-.38,1.86C24.42,45.71,26.32,49.14,28.75,48.1Z"/></g></g></svg>