<svg xmlns="http://www.w3.org/2000/svg" viewBox="0 0 166.55 43.23"><defs><style>.cls-1{fill:#4b4b4b;}</style></defs><title>стрелка вниз</title><g id="Слой_2" data-name="Слой 2"><g id="Object"><path class="cls-1" d="M164.94,42.6a1.17,1.17,0,0,1-.78.29c-7.87.56-18.57,1.22-24.58-5.07-2.07-2.17-3.89-5.66-2.42-8.6s4.74-3.06,7.66-3c.52,0,1,0,1.32,0-7-9.64-17.71-13.81-29.56-12.85C104,14.35,93,21.25,80.66,23.53a120.93,120.93,0,0,1-33.32,1.4c-.43,1.73-2.22,3.34-3.25,4.59l-7.25,8.8C35.58,39.85,32,36.4,33.3,34.78c2.18-2.64,6.66-6.59,8.53-10.47-3.23-.43-6.45-1-9.66-1.62C31.37,24,29.77,25,28.82,26a94.23,94.23,0,0,0-7.27,8.2c-1.23,1.55-4.84-1.89-3.54-3.53,1.52-1.91,3.07-3.79,4.73-5.58.83-.88,2.77-2.28,4.05-3.57-2.82-.68-5.63-1.42-8.42-2.25A27.75,27.75,0,0,1,14.5,22a70.28,70.28,0,0,0-8.08,7.14c-1.43,1.46-5-2.06-3.54-3.53a71.87,71.87,0,0,1,5.26-4.92c1.24-1,3.16-2.06,4.65-3.18q-5.49-1.8-10.9-4c-2-.79-3-4.81.05-3.61,4.27,1.68,8.6,3.22,13,4.59.56-3.71-2.87-10.32-3.87-13.19s3.4-.76,4,1c1.14,3.28,4.42,9.26,4.44,13.54,2.83.8,5.69,1.52,8.55,2.16-.31-2-1.65-4.27-2.24-5.77L23,5.08C21.82,2,25.83,3,26.62,5l4.2,10.8c.34.88.94,2,1.36,3.09q5.2,1,10.45,1.62c-.23-2.09-2-4.83-2.74-6.77L37.13,6.88c-1.21-3,2.81-2.06,3.62,0l4.14,10.34c.43,1.08,1.17,2.42,1.74,3.78a106.19,106.19,0,0,0,45.45-5.58c10.9-3.95,21.51-7.71,33.26-5.7A36.65,36.65,0,0,1,148.5,24.19c.12-.48.25-1.06.42-1.78a10.15,10.15,0,0,1,2-4.52,6.18,6.18,0,0,1,7.68-1.61c2.74,1.46,3.86,4.34,4.64,7.16a135.43,135.43,0,0,1,3.31,17.78C166.71,42.61,165.89,42.88,164.94,42.6Z"/></g></g></svg>