<svg xmlns="http://www.w3.org/2000/svg" viewBox="0 0 166.55 43.23"><defs><style>.cls-1{fill:#4b4b4b;}</style></defs><title>стрелка вверх</title><g id="Слой_2" data-name="Слой 2"><g id="Object"><path class="cls-1" d="M164.94.64a1.22,1.22,0,0,0-.78-.3c-7.87-.56-18.57-1.22-24.58,5.08-2.07,2.16-3.89,5.65-2.42,8.59s4.74,3.07,7.66,3c.52,0,1,0,1.32,0-7,9.65-17.71,13.81-29.56,12.86C104,28.89,93,22,80.66,19.7a121.32,121.32,0,0,0-33.32-1.4c-.43-1.72-2.22-3.33-3.25-4.59q-3.63-4.4-7.25-8.8C35.58,3.38,32,6.83,33.3,8.45c2.18,2.64,6.66,6.6,8.53,10.48q-4.84.64-9.66,1.62c-.8-1.31-2.4-2.36-3.35-3.3a91.38,91.38,0,0,1-7.27-8.2C20.32,7.5,16.71,10.94,18,12.58c1.52,1.92,3.07,3.79,4.73,5.58.83.89,2.77,2.28,4.05,3.57q-4.23,1-8.42,2.25a26.86,26.86,0,0,0-3.87-2.74,69.43,69.43,0,0,1-8.08-7.15c-1.43-1.45-5,2.07-3.54,3.54C4.57,19.34,6.29,21,8.14,22.54c1.24,1,3.16,2.06,4.65,3.18q-5.49,1.82-10.9,4c-2,.8-3,4.82.05,3.62q6.4-2.53,13-4.6c.56,3.71-2.87,10.32-3.87,13.19s3.4.76,4-1c1.14-3.28,4.42-9.26,4.44-13.54,2.83-.8,5.69-1.52,8.55-2.16-.31,2-1.65,4.27-2.24,5.77L23,38.15c-1.19,3.05,2.82,2.08,3.61.05l4.2-10.8c.34-.87.94-2,1.36-3.09q5.2-1,10.45-1.62c-.23,2.09-2,4.84-2.74,6.77l-2.76,6.89c-1.21,3,2.81,2.07,3.62,0l4.14-10.34c.43-1.07,1.17-2.42,1.74-3.77a106,106,0,0,1,45.45,5.57c10.9,4,21.51,7.71,33.26,5.7A36.65,36.65,0,0,0,148.5,19c.12.48.25,1.06.42,1.78a10.15,10.15,0,0,0,2,4.52A6.16,6.16,0,0,0,158.57,27c2.74-1.45,3.86-4.34,4.64-7.16A135.43,135.43,0,0,0,166.52,2C166.71.63,165.89.35,164.94.64Z"/></g></g></svg>