<svg xmlns="http://www.w3.org/2000/svg" viewBox="0 0 38.35 54.76"><defs><style>.cls-1{fill:#5a5a5a;}</style></defs><title>Геолокация</title><g id="Слой_2" data-name="Слой 2"><g id="Capa_1" data-name="Capa 1"><path class="cls-1" d="M19.35,12a7,7,0,1,0,7,7A7,7,0,0,0,19.35,12Zm0,12a5,5,0,1,1,5-5A5,5,0,0,1,19.35,24Z"/><path class="cls-1" d="M32.74,5.62a19.17,19.17,0,0,0-27.12,0c-6.71,6.7-7.54,19.31-1.81,27L19.18,54.76,34.52,32.6C40.27,24.93,39.44,12.32,32.74,5.62Zm.16,25.81L19.18,51.24,5.44,31.4C.24,24.47,1,13.08,7,7A17.18,17.18,0,0,1,31.32,7C37.37,13.08,38.12,24.47,32.9,31.43Z"/></g></g></svg>