<svg xmlns="http://www.w3.org/2000/svg" xmlns:xlink="http://www.w3.org/1999/xlink" viewBox="0 0 89.8 89.8"><defs><style>.cls-1{fill:url(#Безымянный_градиент_3);}.cls-2{fill:url(#Безымянный_градиент_3-2);}.cls-3{fill:url(#Безымянный_градиент_3-3);}</style><linearGradient id="Безымянный_градиент_3" x1="12.62" y1="8.78" x2="74.51" y2="80.54" gradientTransform="matrix(1, 0, 0, -1, 0, 91.21)" gradientUnits="userSpaceOnUse"><stop offset="0.1" stop-color="#ffd87a"/><stop offset="0.14" stop-color="#fcce78"/><stop offset="0.23" stop-color="#f5b471"/><stop offset="0.34" stop-color="#eb8d65"/><stop offset="0.45" stop-color="#e36058"/><stop offset="0.68" stop-color="#cd3694"/><stop offset="1" stop-color="#6668b0"/></linearGradient><linearGradient id="Безымянный_градиент_3-2" x1="12.62" y1="8.78" x2="74.51" y2="80.54" xlink:href="#Безымянный_градиент_3"/><linearGradient id="Безымянный_градиент_3-3" x1="12.57" y1="8.82" x2="74.46" y2="80.58" xlink:href="#Безымянный_градиент_3"/></defs><title>instagram</title><g id="Слой_2" data-name="Слой 2"><g id="Layer_1" data-name="Layer 1"><path class="cls-1" d="M58.3,23.9H31.5a7.7,7.7,0,0,0-7.7,7.7V58.4a7.7,7.7,0,0,0,7.7,7.7H58.3A7.7,7.7,0,0,0,66,58.4V31.6A7.77,7.77,0,0,0,58.3,23.9Zm-13.4,35A13.9,13.9,0,1,1,58.8,45,13.87,13.87,0,0,1,44.9,58.9ZM59.2,34a3.3,3.3,0,1,1,3.3-3.3A3.33,3.33,0,0,1,59.2,34Z"/><path class="cls-2" d="M44.9,37a8,8,0,1,0,8,8A8,8,0,0,0,44.9,37Z"/><path class="cls-3" d="M44.9,0A44.9,44.9,0,1,0,89.8,44.9,44.9,44.9,0,0,0,44.9,0Zm27,58.4A13.61,13.61,0,0,1,58.3,72H31.5A13.61,13.61,0,0,1,17.9,58.4V31.6A13.61,13.61,0,0,1,31.5,18H58.3A13.61,13.61,0,0,1,71.9,31.6Z"/></g></g></svg>