<svg xmlns="http://www.w3.org/2000/svg" viewBox="0 0 203.45 184.01"><defs><style>.cls-1{fill:#ffdce0;}.cls-2{fill:#4b4b4b;}</style></defs><title>Доставка</title><g id="Слой_2" data-name="Слой 2"><g id="Слой_1-2" data-name="Слой 1"><g id="Слой_2-2" data-name="Слой 2"><g id="Ўар_1" data-name="Ўар 1"><path class="cls-1" d="M191.73,79.75c.12-.25.56-.13,1,0-.08-.37.69-1.08,0-1.21C192.45,78.85,190.74,79,191.73,79.75Z"/><path class="cls-1" d="M191.11,66.82c-.72,1,1.38,2.52,3.57,3,.09-.31.16-.61.25-.91C192.28,68.79,192.58,67.45,191.11,66.82Z"/><path class="cls-1" d="M169.72,39.42c.69-.25,0-.69,0-1.21-.49,0-1.57-.66-1.64-.16A4.93,4.93,0,0,1,169.72,39.42Z"/><path class="cls-1" d="M82.24,4.39a3.55,3.55,0,0,1-2.26.9A6.57,6.57,0,0,0,80.19,7c1.87.24,3.06-.35,4.54-.58C82.2,6.44,83.29,5,82.24,4.39Z"/><path class="cls-1" d="M89.25,4.65C84.44,4,82.3,2.12,80,0,76.6,3.65,87.24,4.89,89.25,4.65Z"/><path class="cls-1" d="M39.19,43.37a.75.75,0,0,1,.2-.15C39.31,43.16,39.23,43.18,39.19,43.37Z"/><path class="cls-1" d="M203.45,73.68c-.84-.21-1.9-.33-1.78-.92s1.13-.25,1.25-.9a.35.35,0,0,1-.25-.43.31.31,0,0,1,.05-.1c-2.12.46-4.13-.88-5.58-1.84.67.82.8,1.84,2.81,2.13-.52,1.39,1.74.9,1.16,2C199.56,73,198.82,72,197,71.41c-.24,1-1,1.42-1.55,2-1.07-.18-1.07-.79-1.71-1.13a1.65,1.65,0,0,0,.86-1.7h-1.07v-.1c-2-.14-2.09-.87-3.16-.77.44.46-.26.64.18,1.14l-1.22.15a4.87,4.87,0,0,1-1.87-1.76c1.27.42,0-.51.61-1-1.73,0-1.11-.91-2-1.22-1.2.84,0,1.47-1.55,2,.25.44.9.73.65,1.37,1.07.24,2.12.48,3.07.77a38.51,38.51,0,0,1-5.57.37c-.33-1.85,1-1.54,1-3-.35-.51-.62-1.14-1.24-1.31a3.64,3.64,0,0,1,1.05-1.67h.11a3.55,3.55,0,0,1,.31-.23c1.54,1.18,3,0,4.12.74.22-1-1.18-1.1-2.38-1.37,2.77-.53,6.32.24,7.27-3.27-.33-.33-.93-.31-1-1a39.48,39.48,0,0,1-4-.27,40.61,40.61,0,0,0,4.9-5.74c-3.77-.92-5,2.06-5.83,2.93-.16-1.2-3-.64-3.11-1,3.61-2.82-1.52-6.61-1-10.14-.84,0-1.11-.27-1.15-.62a6.7,6.7,0,0,0,5-.55,34.32,34.32,0,0,1-4.71-.9.6.6,0,0,0-.43-.66c.08.84-1.16.12-1.88,0h-.13c.56-.55-.44-1.91-1-2.64a2.69,2.69,0,0,1-1.14,2,64,64,0,0,0-9.9-2.66,4.05,4.05,0,0,1,.07-2.46c-2.67-.62-3.5-2-5.28-3,.45-.58,2-1.92.72-2.72-.11.67-.28,1.25-1.25.9s-.77-2.13,0-2.64c-1.07-.46-1-1.34-.73-2.35.88-.05,1,1.36,1.27.31a11.11,11.11,0,0,0-7-5.55c.76-.95-3.11-2.12-4.82-2.14-6.07-3.09-15-2.86-21.22-5.17.83-.75-.56-1.6-1.8-2.12.15,1.08-.89.73-1.57.82-.52.75,1.37.54,1,1.22C124.38,14,120,13.39,117.64,12c0-.4,2-.45.55-.83-.12-.41-1.23.5-1.82.52-1.05-1-3.93-1.93-5.78-2.37C108.68,6,99.82,6.09,94.6,3.54c-2,2-3.19,6-5.06,8.9.51,2.15,3.77,2,5.48,3.51,1.78-1.45,5.89-.44,7.43-1.33a9,9,0,0,1,4.26,1.76c-3.31,4.67,1.24,7.85,1.61,11.73-6-.74-14.5.1-18.48-2.81-1.19,1.67-3.33,2.21-7,.95-.11.57-.25,1.1-.68,1.28-3.3,0-5.94.19-9-1.7-1.44,0-1.5,1.59-2.82,1.72-1.3-.15-1.11-.9-2.41-1.06-2.2,3.78-10.57,2.68-14.28,4.24-1.34.1-2.53.38-3.84.51-1.57-.91-5.74.14-7.89.5,2,.37,1.32.72.65,1.36a4.4,4.4,0,0,0,2.47.84c-.24.61-1.31.23-1.82.53,2.07,1.37,4.11,2.76,6.36,4.07a2.89,2.89,0,0,0-2.91,1.26c1.1,0,2.3-1,2.81,0a4.83,4.83,0,0,0-2.29.87,5.85,5.85,0,0,0-1.73.61,3.24,3.24,0,0,1,.79.28l-.11.16A3.54,3.54,0,0,0,44.6,42a6.08,6.08,0,0,0,1.19.29v.06c-.55.06-1.08.15-1.59.25-.67-.33-1.11-1-.94-2.33-1.15.4-.29,1.48-1.88.78.2,1.14,1.06,1.46,1.79,2-1.59-.11-3.1-.2-3.75.19.23.15.51,1,0,.68-.36-.06-.41-.45-.64-.15a47.49,47.49,0,0,0,4.78,1.54c-1,1-2.57,1.83-3.43,3.55.89.58,1.45,1.57,2.82,1.55.59-.09-.18-.64.31-.78.93,0,1.91,0,1.88,1.17-2.29,1.31-7.44,3-9.71.77.65-.23,2.17.63,1.88-.77a16.53,16.53,0,0,0-5-3.11c0,1.26,1.42.83.94,2.72-3.93,2.2-8.8,2.35-13.16,1.16a21,21,0,0,0,.31,3.88c1.11.57,2.69.55,3.14,1.94-3.17.14-7.64-.33-9.4.39,1.75,1-.67.8-.63,1.94.81,2.93,4.07.42,6,1.94-.76.52-.19.78-.62,1.16-1.89-.52-2.31.77-3.76.78.33,2.22-1.09,2.27-1.26,3.88,1.13.32.39,2.55-.31,3.5.4,1,1.87-.3,1.88.38-.27.84-1.15.9-2.19.78,1.17-1-1.46-1.15-1.57-.39,1.2-.07.12.32.32,1.17,2.07-.12,2.28,2.08,3.75,2.71-.48,2.13,1.36,4.3-.31,6.21,1.74-.11,2.32.62,3.76,0,.69,2.59,9.09-1.74,11,1.16a30.81,30.81,0,0,1-9.08.78c-.11,1-.78,1.36-.94,2.33,2.26-.15,5.41,0,7.21,0-1.06,1.58-6.08.44-7.52,2.71,2.11.32,4.12-.77,6.57.39-1.29,1.51-4.91.12-6.57,1.16C26,92,30.19,88.24,35.22,90.76c-5.32-1.19-8.45,3.72-12.54,1.55-.44,1-1,1.85-2.5,1.56,0,1,.6,1.21-.31,1.55s-.24-1.26-1.26-.78c0,2.12-2.65.85-3.13,2.33,2-.12,4.71.66,5-1.55,3.1.28,5.5-2,7.21.78,1.51-2.22,5.61-3.91,7.52-2.33-.08,2-2,1.66-2.51,3.1.84-.16,2-.59,3-.82a12,12,0,0,1-.17,4.88h0a8.52,8.52,0,0,1-2,4c.47.07,1.16-.14,1.25.39A3.22,3.22,0,0,1,33.52,107c-.17-1.47-2.41-.38-2.82-1.55-1.14.91-.74,2.12-2.19,3.1-1.8.54-1.57-1.42-2.82-1.55,0,.73-1,.27-.94,1.17.54,1.87-3.19,3.36-5.5,3.22a.31.31,0,0,1,.17.27c-2.5-.69-4.24,2-5.64,3.88,3.35,1.27,7.89,0,12.66-1a10.64,10.64,0,0,0-1.34,4.18H25c-.17.45-.5,2.88-1.53,1.48-.07.74.35.86.31,1.56-1.39,0-2.61,2.18-3.76,1.16.72.11,1.18-.09,1.25-.78-1.35,0-2.41.92-2.82-.77.25-1.38,1.16-1.93,1.57-3.11-1-1.53-2.34-1.08-3.76-.38,1.31,2.6-.22,5.88.94,7.76-.67.58-.93,1.68-2.19,1.55a18.06,18.06,0,0,0-.31,7.32,1.52,1.52,0,0,1-1.58.11,1.89,1.89,0,0,1-1.4,1.22c-.22.38.3,1.11-.37,1.27a1.83,1.83,0,0,0-1.1-.23c.21.73-1,.77-.68,1.56.5-.1,1.61-.72,1.22,0,.61-.05.19-.59.8-.64-.4.79,1.05-.29.91.87,1.19-.53,1.49.61,2.31.8a1.66,1.66,0,0,1,.06-1.56h.33c0,.3.08.62.12,1,1.15-.26,1.2.84,2.19.77,1.17-.91,2.83-.82,4.52-.78.21.08.33.25.26.58.54,0,1.38-.68,1.71-.35l.18.52c-.84.43-1.3.15-1.95.23.45.86-1.41,1.18-.61,1.74a7.56,7.56,0,0,1,3.34.28c.78,1.13,1.77,1.86,2.25,3.55-.75.35-1.47.67-2.16.93.28,1,1.44.47,2.14.75-.63.34-.81.67-.79,1,.66.05,1.62-.46,2.28-.43.25.32-.93.67-.79,1,.91-.29,1.95-.54,3-.83h0c-.62.33-.6,1-1.41,1.22a3.61,3.61,0,0,0,.07.73.44.44,0,0,0-.1.19l.12-.07c.45,2.23,2.74,2,3.61,3.94.19.2.71-.2.85.11-.52,1.44,1.48,1.82,1.32,3.23,1.14-.3.79.78,1.15,1.56.31.19.83,0,1,.46.37-.06.28-.35.42-.52.08.34.34.32.43.63-.56.58-2.31,0-2.44,1.17a7.9,7.9,0,0,0,3.35-.3c0-1,.44-.54-.55-1,2.4-1.53,4.08-.35,6.15-.42-.6.29-1.82.3-1.71.93a41.48,41.48,0,0,0,11-2.91c-.12.32,0,.78-.24,1-2.36.79-4.36.8-6.4,2-.12.48.69.51.24.7-2.54.19-5.79,1.73-8.17,1.63,1.19-.66,3-1.09,3.72-1.57-3-.05-6.83,1.18-10.11,1.87-2,.43-4.39.17-5.18,2,2.86-.33,6.24-1.64,9.44-2.62-.26.85,1.69-.43,2,.34a75,75,0,0,1-15.78,3.09c.39.48.25.44.12.93,2.4.06,5.11-.47,7.43-.25-2.05,1.53-5.56.63-6.71,2.33a3.22,3.22,0,0,1-.91-.29c.41-.09.53-.32.37-.69-.5.14-1-.12-.79-.52a3.09,3.09,0,0,0-1.34.81c-.16-.31.07-.45-.06-.75-.52.19-1.23.29-1.4.64,0,.57.61.17.66.75-.66.36-.88.48-1.52.29.56.62-.51,1.19-.92.87a1.72,1.72,0,0,1,1.27-1.72c-.51.1-.45-.58-.65-.59-.07.54-.73.81-1.47,1,.12.85-1.08,2.64.6,2.89.5.41.15-.79.73-.81.89,0,.76.73.67,1.32.78,0,1.21.58,1.64,1.22,1.27-.16,1.74-1.22,2.43-.59.13.44-.6.25-.73.24a11.9,11.9,0,0,0,5,3.22c0,.39-1.13.24-.73.81,1.54,1.8,8-3,7.79.22a11.06,11.06,0,0,0,1.82,0c1.26-1.26,3.79-1.27,5.73-1.63-.13.09-.36.12-.3.29,4.55-1.71,7.9-1.2,12.79-2.91,0,.63.64-.06.61.57,3.29-1.69,8-1.83,12.73-3.66.07.17-.07.25-.06.4.76-.19,3.61-1.92,4.33-1,1.79-.62,3.66-1.23,5.57-1.83h.08l2.28-.7a3,3,0,0,0,1.41.86c-2.54,2.49.79,3.44,2.59,4.68l.25.2a415.06,415.06,0,0,1-42.2,9.83c-1.46,1-4,1.05-6.1,2.32C52,181.66,69,177.55,85.88,173c.88,1,1.79,2,3.69,1.06-.75-.7.28-1.44.27-2.16,5.34-1.51,10.57-3.2,15.57-4.89a.69.69,0,0,1,.64.63c1.73-.69,3.72-1.84,4.56-.88l1.83-1c-.23-1.35-2.18.48-2.78-.17l5.68-2a.92.92,0,0,1,.23.09l.37-.29c2-.67,3.93-1.33,5.81-1.94v-.24H122c-.4.81.72,1.45,1.36,1.75,4-2.7,10-.93,11.13-4.55-2,1.67-2.3.59-4.26,1.26,1.84-1.34,4.44-1.61,5.48-3.06-1.43.3-2.95.74-4,.28.48-.34.36-.67.79-1,4.11-2.1,8.11-4,11.49-4.75,0,.77.28,1.41,1.86.36.69-.41-1.42-.4.64-1.2-.47-1-2.29-2-1.9-3.11.56-.24.86,0,1.4-.22a4.63,4.63,0,0,1,1.14-2.4,1.56,1.56,0,0,0,.23.34c3.66,0,6.45-2.41,9.23-1.64.25,1-.55.58-1,.66,1.66,1.16,5.12-.89,7-1.64-.12-1.53-.55-.74,0-1.86.31-.14.64-.3,1-.5l-.9-1.17c-2.45.74-4.77,1.26-6.58.83a3.46,3.46,0,0,1,3.51-1.23,4.51,4.51,0,0,1,.38-.94,19.13,19.13,0,0,0,2.06-.81c-.32-.34-.89-.21-1.49,0a1.24,1.24,0,0,0,.3-.86c0-.32-1.17-.17-1-.55.45,0,1.45-1,1.48-.15a18.32,18.32,0,0,1,3.09-2.07,19.66,19.66,0,0,0,5.3-1.91c-.22,0-.43-.06-.5-.26.23-.08.45-.17.66-.26.08,1.51-2.51,3.55-4.21,4,.8.68-1.92,2.14-3.63,3.42,2,2.2,7.16-3.48,8.58-3.13-1.22,1.67-4.12,3.37-5.52,5,2,.49,1.61,1.32,4.31,1.49-2.83,1.77-.81,3.43-2.79,5.18-2.73.16-6.06,1.46-8.32.75-1.24.86-3.15,2.27-4.32,1.86-1.41.68-.34,1.32-2.1,2-.77-.42-2.06.18-2.86,1,1.22.2,0,2.42,2.82.93.76-.54-.88-1,.34-1.58,1.11-.32,1.84,0,2.94-.26-.78,1.61-2.67,1-3.35,2.43,1.58-1.06,2.2-1.07,2.07,0,5.22-1,9.69-.61,14.51-.87-.8,1.34-2.17.88-3.22,1.25-3.57,5.24-14,5.56-19.23,9.63.91.83,3.32-1.11,4.56-.88-2.27,1.26.32.2.81.38-3,1-6.64,3.18-8.66,2.33-2.17.77-3.63,2.94-4.9,2.46,1.73-1.33-.3-.43-.69-1.56-1.47,1.31-2,.95-3.8,1.85.34.94,1.71,0,2.58,0a1.62,1.62,0,0,1-.28,1c-1.46.24-.57,1.08-3.5,2.23,4.2-.93,12.54-1.81,14.38-4.41.43.14,1.43-.76,1.76-.43,0,.39-1.38.81-1.16,1.2.78,0,1.81-.51,2.43-.24-1.29.36-1.31.66-3.07,1.44-.21-.24-.68,0-.82-.38-6.57,2.57-12.36,3.67-18.63,5.68-5.84.73-11.91,1.87-17.8,2.71-1.73-1.07-5.14,1-6.43-.86-1.23.48-1.18.94-2,1.42,1.19-1.3-1.11-.92-.7-1.57,2-.32,2.88.4,6-1.1-1.68-.68-4.38.56-6.19.12-.48-1.06,2.27-2.63.1-2.56a20.71,20.71,0,0,1,5.44-1.1q-3-1.32-7.38,0c1.07.7.21,1.44-1.43,2.19-.68,1.66,1.69,2.3.59,4.13,6.72,2.15,12.92,2.43,22,0,1.8.94,5.14-1,6.86.07,1.68-.75,3.33-1.44,4.2-.68,4.18-2.39,6.49-1.3,10-2.55.36.2.7.08.45.58,19.35-4.62,38.41-8.72,57.74-13.33-.45-1.37-1.94-.81-2.54-1.92-2.91.83-4.81-.23-7.59.34-4.44,1.61-8.78,3-12.34,3l-1.83,1c-.55-.87-1.83-.39-2.66-.74-1.63.82-3.65,2.36-4.69,2.06a5.68,5.68,0,0,1,4.08-2.83c-.4-.32.2-.66.28-1-1,.15-2.44,1-3.16.65.41-.27,1.07-.55,1-.81-1.35,0-3.36,1.18-4.78,1.28,1.6-1.33,2.64-1,4.24-2.65,1.72-.42,1.21.51,2.88.34-.45.4-2.06.83-1.68,1.22,1.38-.12,1.62-.58,3.59-1.45a1.17,1.17,0,0,0,1,.57,11.86,11.86,0,0,1,4.17-2.05c-.12-.26-.49-.52-.09-.79a3.49,3.49,0,0,1,2.65-.64c-1,1.28.41,1.3-.62,2.57,2.88,0,4.94-3,6.42-3.86-.44.91-1.78,2.05-.26,2.37,4.2-2.89,6.18-1.67,9-2-1.19-3.71-5.75-3.37-10-2.76.38-1.81-2.42-3.41-4.85-2.86.69-3,7.66-7.08,3.23-9.33a12.38,12.38,0,0,1-6.51,3.08c-1.27-.9.54-2.32-.8-3.73,3.3-2.89-.72-5.63,3.84-8.54-1.19-1-.65-1.93-.19-2.9a4.6,4.6,0,0,0,3-1.15,23.23,23.23,0,0,0,4.27-1c-.92-.89-2.84.08-4.46.48-.67-.2-1.37-.38-2.12-.53.82-1.09-.21-2.15-.59-3.22a6.14,6.14,0,0,0,2.48-.69c-.92-.26-1.82-.54-2.7-.85.37-.26.6-.52.43-.78a5.81,5.81,0,0,1-1.54.39,29.53,29.53,0,0,1-2.79-1.15c5-3.78,9.47-2.1,13-4.92-1-1.64-5.19.8-7.16-.45-1.28-.82-1.09-2.53-1.46-4h.21c.33-.81-.56-1.58,0-1.63-.33-.76-.95-.73-1.63-.58a7.15,7.15,0,0,0-.7-.53,6.68,6.68,0,0,0,1.33-.2c-1-2.89,6.61-1.39,8-1.31-.55.6-1.28.94-1.5,2,3,1.08,5.95-.67,9-.65.89-.56-.27-1.89,1-1.64-1.15-1.36.07-2-.5-3.93-2.47-.47-4.95.65-6.49.33,2.91-2,7.77-1.09,9.74-2.29-.53-1.46-1.73.7-3.25,0-.39-.33.31-2,.25-3-.7.27-.64-.46-1.24-.33-.19-1.15.94-1.9.49-3.27-1.18-.13-1.71.58-3,.33a6.81,6.81,0,0,1,3.49-1.64c-.77-.38.14-1-.74-1,.59-.64,1.53-.83,2.24-1.31-.82-1.15-2.75-.51-4-.33-.27-1.38-.41-2.64-1.75-3.27-.06-1.18.75-1.2.75-2.3-.91-1.2-.62-3.4-2.75-3.6.48-1.69-.52-3.34-.84-4.6a8.54,8.54,0,0,1,2.49-.59c.58,1.36,2.32,1.14,3.8.93-.7.26.11.64-.36,1.36,3.23-.41,7.44,0,8.37-2.31C201,75.21,202.81,74.51,203.45,73.68ZM24.75,56.21c-1-.09-.53-1.93-.63-3.11C25.74,53.19,24.8,55.68,24.75,56.21Zm131.4,95.67-.6-.77c.91-.74,1.16-.26,2-.83-.08.3-.17.6.31.39C158.22,151.06,156.6,151.48,156.15,151.88Zm4.34,7.61c.86.57-1.54,1.21-2.26,1.81.48-1,.93-.79,2.26-1.81Zm-6.29,7.41c-.91-.05-.16-.27-.6-.78a7.69,7.69,0,0,1-3.23,1.24c2-1.7,6-1.45,8.28-3.5.35,1.49-3.42,1.41-4.45,3Zm1.12.76c1.32-.4,2.37-.29,4.1-1.45a4,4,0,0,1-4.1,1.45Zm10.85-3.55c-.75,2-4.39,2.57-6.51,3.08C160,166.07,164.41,164.74,166.17,164.11Zm-5.37.49c1.22-1.08.33-.76-.75-1,.17-.59,2.41-1,3.65-2-.31.73.22.23.6.78C162.94,163.1,162.58,164.47,160.8,164.6Zm16.78-40.68.61.07c-.29.13-.54.2-.69.09A.48.48,0,0,1,177.58,123.92ZM170,125.28a1.42,1.42,0,0,0-.42-.68h-1.75c.42-.2.87-.43,1.36-.68a.65.65,0,0,1,.39,0,1.42,1.42,0,0,1-.08-.18L171,123a8.29,8.29,0,0,0,1.2.36C172.23,124.47,171.34,125,170,125.28ZM133.4,27.46c1.37,0,.87.74,1.78.92-.11.57-.24,1.1-.68,1.28l-.95-.23c.37-1-.46-.72-.11-2Zm-.83-.68.24-.91c1.06.05.88.6,1.46.84-.13.48-.88.29-1.66.07ZM75.37,146.6a2.36,2.36,0,0,1-2.5.41C73.11,146,74.53,146.91,75.37,146.6Zm91.48-104c-.44.72-1-.09-1.58-.39a1,1,0,0,0,.5-.6l1.26.31c-.14.22-.67,0-.75.29s.34.27.57.38Zm6.65,5.47c-1.19-.88-.53-.83-1.91-.46-.09-.71.6-.48.62-1.06.49.58.61,0,1.59.39-.41.63-.34.37-.3,1.12Zm-13.37,13.8a2,2,0,0,1,.28-.62H161c0,.44.4.75,1.05.94a1.41,1.41,0,0,0,.41,0c0,.07.07.14.1.23Zm8.52-6.21h0ZM169.78,46a1.73,1.73,0,0,0,.32.11,1.15,1.15,0,0,1,.6,1l-.6-.07A7.79,7.79,0,0,0,169.78,46ZM63.49,137.11a13.68,13.68,0,0,0,1.8.37c-1,.61-2.49.62-3.89,1.64-.29-.41-.8-.4-1.09-.81A19,19,0,0,1,63,137.2Zm-3.85,1.6c-.1.39.07.91-.68,1C58.75,139.16,59.23,139,59.64,138.71Zm7.93,9.41c1.09,0,3.08-1.37,4.45-1.22-.29,1.19-3.43,1.9-4.45,1.22Zm41.61,12.75c-1,.36-1.9.69-2.43.24,1.19-.78,2.13-1.11,2.43-.24ZM166,52h.79l-.39.2Zm6.88-2.52a2.59,2.59,0,0,1,1-.11,3.42,3.42,0,0,1-.13.34c-.36-.09-.64-.16-.92-.25Zm-4.22-7.36,1.71.5a2.65,2.65,0,0,1-1.76-.52Zm-12.85-7.28c-1.26-.11-1.1-.78-1.34-1.29-.44-.39.61.5,1.9.46-.12.4-.56.37-.61.81ZM165,43.11l.07.07h-.17ZM53.55,38.7a2.08,2.08,0,0,1,.73-.23A3.65,3.65,0,0,1,53.55,38.7ZM37.27,146.22c.1.39-.33.52-.8.63l-.24-.69C36.68,146,36.89,146.25,37.27,146.22Zm1.15-.18c.83-.25,1.62-.51,2.42-.76l-.4.39-2,.33Zm27.69,16.15c.2.17.4.35.62.51a12.23,12.23,0,0,1-1.47.39A1.82,1.82,0,0,1,66.11,162.19Zm35.76-1.12,1.61-.29c-.7.28-1.4.54-2.1.83A1.34,1.34,0,0,1,101.87,161.07Zm2.2,2.65c1.25.12.79.65,2.58-.05-1.87,1.26-5.35,1.41-7.57,1.73C100.25,164.12,102.4,165.68,104.07,163.72Zm9.25-1.21-1.09.41A6,6,0,0,1,113.32,162.51Zm4.49-2a.52.52,0,0,0,.19.14l-.86.35a1.74,1.74,0,0,1,.67-.5ZM159,134.64h-.75a3.52,3.52,0,0,1,1.12-.14Zm26.9-76.32a1.25,1.25,0,0,1,.41,1.68c-1.37-.18-2.7-.39-4-.63l.41-.29h.82c-.12-.08-.26-.14-.39-.21a5.61,5.61,0,0,1,2.79-.55ZM159.27,28c.58.24,1.34.41,1.09,1a.83.83,0,0,1-1.07-.49A.81.81,0,0,1,159.27,28Zm-1.47,3c.62.06.92-.29,1.7-.06-.22.09-1,.89-.3,1.13C158.57,32.53,157.48,31.52,157.8,31Zm-2.69-2.58c1.22.19,1.37.81,2,1.22-.77.41-2.11-.64-2-1.25Zm1.11-1.66c-.43.19-1,.19-.93,1-1-.59,0-2.13.93-1Zm-27.37-7.38c.69.13-.07.84,0,1.21,1,.49,3.57.34,3.36,1.3a4,4,0,0,0,1.75-1.5c1.67.59,2.64.34,4.17.77,0,.39-.4.32-.49.61,2.73,1.43,7.37,1.34,11.72,2.85-.9-2.42-5.61-1.3-7.3-3,3.21.74,6.38.41,8.8,2.39-.93.41-.38.72-1.31,1.13,2.31.07,4.63,1.59,5.28,3a2.13,2.13,0,0,1-2-.24c.9,1.34-.07.72-.1,1.67.73.58,2.24.86,1.48,2L153,31.25c-.25.58,1.18.48.71,1.14-1.54-.56-.56.69-1.63,1.06l-1.9-.47c.19-.61-.4-.58.24-.9-6.16,1-14.18-2.55-13.72-6.72a11.76,11.76,0,0,0-4.56-.63c.14-.72,1-.55,1.05-1.43-.39-.58-1.81-.76-2-1.44-.39.73-1.75.31-2.78.29.44-.5,1-1.57-.53-1.82.44-.22.57-.76,1-1ZM56.12,34.22c.08-.6-.63.18-1.27-.31,2.34-1.34,5.74-.84,8.48,1.1a66.65,66.65,0,0,1-9.79,0C54.29,34.64,55.43,34.7,56.12,34.22ZM43.86,58.93c-3.43,0-5.14,0-7.21-1.94C38.85,56.9,42.31,56.61,43.86,58.93Zm-10-4.66c.27-.07.3.15.32.39v.77c-.76.16-.68-.71-1.57-.39,0-1.44,1.19,0,1.22-.77Zm-8.77,55.1c1.58-.26,2.53.49,3.45,0-.5,1.32-2.31,1-3.45,1.55ZM36.34,114a39.55,39.55,0,0,0-7.63,3.49,1.2,1.2,0,0,1-.51-.92c-.73.42-.94-.13-1.33-.35.53-.37,1.07-.74,1.16-1.33-.22-.26-.86.29-1,0a.54.54,0,0,0,.6-.47A24.08,24.08,0,0,1,36.34,114ZM18.8,124.11c.95.29,1.14-.39,1.88-.39.78,1-1.22,2.72-2.2,1.56A2.11,2.11,0,0,0,18.8,124.11ZM20.05,133c.58,0,.38.66.17,1.38-.13.1-.2.2-.13.33a3.89,3.89,0,0,0-2.34,0c.12-.45.27-.87.42-1.29C18.72,133.2,20,133.89,20.05,133Zm22.12,12.4a1.24,1.24,0,0,1-.44-.41c3.4-1.08,6.66-2.15,10-3.19a7.3,7.3,0,0,1-1.88,1.53c-1,.17-1.91.33-2.73.41a10.32,10.32,0,0,1,1.48.18A29.56,29.56,0,0,1,42.17,145.4ZM47,158.51c-.11-.84,1.6-.69,2.13-.87C48.91,158.15,47.65,158.18,47,158.51Zm-4.77,5c.63,1.09-2.34,1.63-2.81,1.27.66-.9,1.87-.66,2.83-1.29Zm-5.61,1.4c.7-.18,2.35.6,2.25.05a.89.89,0,0,1,.91.86l2.93-.92c.78,1.11,2.79-.11,3.58,1,.7-.43.79-.3,1.65-.52-.16.62-2.21.68-1.77,1.33a31.79,31.79,0,0,1-9.27,2.56c.3-.54,1.62-.59,2.32-.93a1.42,1.42,0,0,0-.67-.17c1.48-.68,3.92-.69,6-1.52a5.83,5.83,0,0,0-2.2.12c-.06-.41,1-.29.74-.81-.65-.49-2,.38-3.05.59,0-.26.41-.29.67-.41-2.45-.11-6.18,1.12-9.13,1.18.71-1.32,4.35-1.18,5.06-2.43Zm5,4.38a5.51,5.51,0,0,1-2.68,1c.17-.68,1.94-1,2.67-1Zm-8.28.71c-.51.1-.68.26-1.46.47.93-.91,4-1,1.45-.47Zm-1.83,1.74c1.71-1,3.65-.24,5-1.4-.74.77.9.08,1.33.34-1.35.56-4.75,1.7-6.34,1Zm20.58-3.28c.23-.38.9-.55,1.35-.81l.24.69c-.76.43-1,0-1.6.1Zm6.28-.65c-.19-.13,2.75-1.44,3.17-.82a16.64,16.64,0,0,0-3.18.8ZM70,165.05c0-.32,2.1-.83,2.8-1.28-2.14-.38-3.93,2.1-6.16,2.15,0-.57,0-.37-.3-.86a3,3,0,0,0-1.89,1c-.58.33-.52-.54-1-.46a21.16,21.16,0,0,1-6.89,1.81c-.39-.52.48-.45.8-.64-.17-.09-1-.3-.18-.52-1.73-.16-5.13.53-6.28,1.81-5.84,1.7-8.8,2.76-13.59,3.55,1.52-1.59,4.24-1.29,6.46-2.44a35.27,35.27,0,0,1,6.28-2.38A58.24,58.24,0,0,1,58.19,165c1.19-.1,3-1.58,4-.7-.5.58-2,.67-2.63,1.21.18.25.63,0,.61.58,1.8-.46,4.63-1.79,7.32-2.77a12,12,0,0,0,1.17.73c1.2-1,1.41-.1,2.49-.83a1.08,1.08,0,0,1,0-.93,5.84,5.84,0,0,1,1.67,0,1.44,1.44,0,0,0,.52-.84,3.22,3.22,0,0,1,1.75,1.16c0,.22-.13.42-.51.66a2.34,2.34,0,0,0,.87-.14q.15.24.27.48C73.74,164.18,71.69,165,70,165.05Zm30.34-3.69a6.72,6.72,0,0,1-2.49,1.1c.41-.4.34-.54.24-.65Q99.22,161.57,100.34,161.36Zm-5.43,6.09c2,0,4.1-.72,5.76-.37-3,1-6.12,2-9.23,3C92.57,169.23,93.73,168.31,94.91,167.45Zm32.19-7.12c.13.3-2,1-2.29.44,1.53-.78.77-.54.28-1,.84-.85,2.46-.51,1.68-1.21a26.17,26.17,0,0,1,2.86-1C128.79,158.31,126,159.86,127.1,160.33Zm51.26-58.65a2.9,2.9,0,0,1-1.75,0c0-.92,1.18-1.91,1.75-1-.43.16,0,.44,0,1Zm.74-.33c1.27-.42,4-.63,5.24,0-1.34.33-4,.7-5.24,0Zm9-26.3c-1-.86-1.59-.26-3-.54,1.26-1.44,3.78-1.28,6-1.64l.33-.05a2.86,2.86,0,0,1,.35.43c-.78.69-2.61,1.08-3.65,1.8Z"/><path class="cls-1" d="M28.32,159.64a4.71,4.71,0,0,0,3,.4c-.3-.53-.15-.84-.23-1.27A5,5,0,0,0,28.32,159.64Z"/><path class="cls-1" d="M42.2,159.85A1.78,1.78,0,0,0,41,160C41,160.66,42.29,160.11,42.2,159.85Z"/><path class="cls-1" d="M19.81,167.77a1,1,0,0,0,.32-.13Z"/><path class="cls-1" d="M15.56,169.67a4.82,4.82,0,0,1-1.27-1.91c-.44-.27-1.78.5-1.64-.63-.78.7-.49,1.9-.62,2.89,1-.11-.36-2,.8-1.79.05.84.15,2.34.83,3,.5-.47.31-.37,1.22-.58C14.75,170,14.54,169.62,15.56,169.67Z"/><path class="cls-1" d="M10.15,139.46c-.39-.49-.25-.44-.12-.93-.43.14-.64-.13-1.16.17.05.66.08,1.3-.67,1.57-.06-.46.23-.76.43-1.1a1.57,1.57,0,0,1-1.4.06c-.21.85,0,1.06.35,2.19.1-1,1.23-1.19,2-.63-.29-1,1.76-.91,1.83-1.74C11.3,138.77,10.73,139.47,10.15,139.46Z"/><path class="cls-1" d="M153.59,148.58c-.25-.32-.51-.64-.76-1-1.43,1.07-1.63-.13-2.79.45,0,.33-.17.66-.79,1C150,150.78,152.23,149.06,153.59,148.58Z"/><path class="cls-1" d="M145,155.06c.08.39-1,.8-.13,1.18a4.56,4.56,0,0,0,2.65-.64c.7-.48.3-.93,1-1.4-.52-.75-2.75-.19-1.57-1.35-2.42,1.58-3.61-1-5.95,1.1.31-.11.72-.4.88-.22-1.67.42-2.83,1.68-4.23,2.65C140.21,156.77,142.53,154.9,145,155.06Z"/><path class="cls-1" d="M127.43,171.55a4.67,4.67,0,0,0-3.07,1.44C125.43,172.83,127.3,172.58,127.43,171.55Z"/><path class="cls-1" d="M177.54,160.54c.41.89,2.35-.9,2.19-1.23C178.83,159.73,177.93,159.77,177.54,160.54Z"/><path class="cls-1" d="M172.07,176.41a37.2,37.2,0,0,0-11,3.36A72.73,72.73,0,0,0,172.07,176.41Z"/><path class="cls-1" d="M114.81,170.81c1.42-.4,1.62-.75,1.85.36,8-3.95,14.53-1.84,20.85-5.53-1.57.68-.73-.9-1.63-.75-1.76,1.29-3.91,1.56-3.47.26-6.11,2.51-11,2.66-16.8,4.66.2-.11.29-.39-.15-.2C115.7,170,114.35,170.42,114.81,170.81Z"/><path class="cls-1" d="M167.13,143.59c.31-.85.54-1,.25-2-1.8.16-2.82-.66-4,.33,1.26.93-.24,1.44-.5,2.29C165.92,144.71,164.57,143.34,167.13,143.59Z"/><path class="cls-1" d="M164.38,135.08c-.27-.65-2.07-.56-1.75.65C163.46,135.84,164.17,135.78,164.38,135.08Z"/><path class="cls-1" d="M191.33,127.88c.91,0,2,.18,2.25-.66C193.38,125.15,191.5,126.93,191.33,127.88Z"/><path class="cls-1" d="M194.58,115.44c-1.72.37-3.66.44-5,1.3.32,1.34,3.41-1.32,4.25.66C194.6,117.43,194.57,116.41,194.58,115.44Z"/><path class="cls-1" d="M41.35,38.36c0-1.48-.79-1.87-.94-3.1.81,0,.33-1.67,1.57-1.17.68-3.45-5.74-4-3.76-2.33a1.53,1.53,0,0,0-1.26.39c.85,1.86-.47,2.9-.93,4.27C37.41,37.81,38.89,39.36,41.35,38.36Z"/><path class="cls-1" d="M11.28,72.51c-.26-1.37-1.87-1.05-3.13-1.17,0-1.39-2-1.46-.63-2.32-1.08-1.11-1.21.6-2.51-.78a14.55,14.55,0,0,0,0,3.49C7.39,70.62,7.74,73.33,11.28,72.51Z"/><path class="cls-1" d="M9.09,81c1.12.4,3.12.86,3.44-.39C11.34,79.93,9.69,79.64,9.09,81Z"/><path class="cls-1" d="M15,81c-1.25.39-.94-1.16-2.19-.77C12.2,82,14.82,81.66,15,81Z"/><path class="cls-1" d="M19.42,88.41c0-.74-2.33-1.54-2.19,0C17.44,89.24,19.33,89.69,19.42,88.41Z"/><path class="cls-1" d="M16.6,93.46c1.24-.62.11,1.68.94,1.55.68-1.09.78-2.91,2.51-2.72-.31-1.43-1.86-1.47-2.82-1.16C17.94,91.54,16.33,92.31,16.6,93.46Z"/><path class="cls-1" d="M16.92,100.05c1.08-.3,1.32.44,1.88.78-.16-1.88,2.81.12,3.13-1.16.65-1.09,1.9-2.62,2.82-4.27-1.2.72-2.87.84-4.39,1.16,0,2-1.84,1.61-2.82,2.33C19.13,99.06,16.9,99.44,16.92,100.05Z"/><path class="cls-1" d="M21.3,100.83c.39,1.26-1,.3-.62,1.55,1,.28.92-.67,1.87-.39C22.65,101,22.12,100.72,21.3,100.83Z"/><path class="cls-1" d="M17.54,103.16c.89-.45,2.08-.54,2.51-1.55C18.7,101.49,17.52,101.58,17.54,103.16Z"/><path class="cls-1" d="M22.24,103.93a1.83,1.83,0,0,0-2.17,1.42s0,.09,0,.14C21.35,105.67,22.35,105.49,22.24,103.93Z"/><path class="cls-1" d="M19.25,111.43a2.53,2.53,0,0,0-.77-.12A3.34,3.34,0,0,0,19.25,111.43Z"/><path class="cls-1" d="M25,118.75a.09.09,0,0,1,0-.07Z"/><path class="cls-1" d="M15,55c1.11.61.19-1.31.94-1.16.25,1.21,1.31,1.49,2.82.78-.3-2.61-3.45-1.68-5-2.72C14.1,53.1,15.7,52.68,15,55Z"/><path class="cls-1" d="M23.81,103.93c1.47.41,1.21-1.34,2.82-.77.32-1.3-1-.6-1.57-.78C25.36,103.79,23.66,102.71,23.81,103.93Z"/><path class="cls-1" d="M6.27,77.55c-.53-.64-2.29.25-2.2-1.16,1.15.08,1.21.53,2.2,0,.5-2.32-2.47-2.36-3.45-1.56.38,0,.74.12.63.78-1.39-1-1.88.87-2.51,1.94.59.17,1.89-.53,1.57.78H0v2.32c2.41-2.19,4.83,1.47,6.89-.38C7.37,78.26,4.78,78.56,6.27,77.55Z"/></g></g><g id="Слой_2-3" data-name="Слой 2"><g id="Layer_1" data-name="Layer 1"><path class="cls-2" d="M156.55,86.8l-3.3-13.21a2,2,0,0,0,1.58-2V69.5a8.41,8.41,0,0,0-8.39-8.39H131.39V56.72a4.13,4.13,0,0,0-4.13-4.13H50.57a4.13,4.13,0,0,0-4.13,4.13V92.94a2,2,0,0,0,4,0V56.72a.15.15,0,0,1,.13-.14h76.7a.14.14,0,0,1,.14.14h0V92.94a2,2,0,1,0,4,0V90.67H155a6.53,6.53,0,0,1,6.21,4.52H155a2,2,0,0,0-2,2v4.26a6.27,6.27,0,0,0,6.26,6.26h2.26v8.78h-5.23a12.65,12.65,0,0,0-23.92,0h-1v-15a2,2,0,1,0-4,0v15H86a12.65,12.65,0,0,0-23.92,0H50.57a.13.13,0,0,1-.13-.13V112H59.1a2,2,0,0,0,0-4H39.91a2,2,0,0,0,0,4h6.53v4.39a4.14,4.14,0,0,0,4.13,4.13H61.36v.13a12.65,12.65,0,0,0,25.3,0v-.13h45v.13a12.65,12.65,0,0,0,25.3,0v-.13h6.53a2,2,0,0,0,2-2V97.19A10.53,10.53,0,0,0,156.55,86.8ZM131.39,65.11h15a4.4,4.4,0,0,1,4.4,4.39v.13H131.39Zm0,21.57V73.63h17.75l3.26,13.05ZM74,129.28a8.66,8.66,0,1,1,8.65-8.66h0A8.67,8.67,0,0,1,74,129.29Zm70.3,0a8.66,8.66,0,1,1,8.66-8.65h0a8.67,8.67,0,0,1-8.66,8.66Zm17.19-25.56h-2.26a2.27,2.27,0,0,1-2.26-2.27V99.19h4.52Z"/><path class="cls-2" d="M74,116.5a4.13,4.13,0,1,0,4.12,4.13h0A4.14,4.14,0,0,0,74,116.5Z"/><path class="cls-2" d="M144.3,116.5a4.13,4.13,0,1,0,4.13,4.13A4.13,4.13,0,0,0,144.3,116.5Z"/><path class="cls-2" d="M120.88,108H91.05a2,2,0,1,0,0,4h29.83a2,2,0,1,0,0-4Z"/><path class="cls-2" d="M69.74,99.46H44.18a2,2,0,0,0,0,4H69.74a2,2,0,1,0,0-4Z"/><path class="cls-2" d="M107.37,72.35a2,2,0,0,0-2.82,0h0L86.79,90.11l-9.24-9.24a2,2,0,1,0-2.83,2.83h0L85.37,94.35a2,2,0,0,0,2.82,0h0l19.18-19.18A2,2,0,0,0,107.37,72.35Z"/></g></g></g></g></svg>