<svg xmlns="http://www.w3.org/2000/svg" viewBox="0 0 217.53 182.37"><defs><style>.cls-1{fill:#ffdce0;}.cls-2{fill:#4b4b4b;}</style></defs><title>оплата</title><g id="Слой_2" data-name="Слой 2"><g id="Слой_1-2" data-name="Слой 1"><g id="Слой_2-2" data-name="Слой 2"><g id="Ўар_1" data-name="Ўар 1"><path class="cls-1" d="M69.31,7.05c-2.25-.85-3.52-3.5-6.52-1.76V7.05c2.9.52,3.47,1.11,6.09,1.42C68.78,7.8,69.36,7.69,69.31,7.05Z"/><path class="cls-1" d="M80.61,12c-.68-1.38,1.13-.73,1.31-1.41-2.37-.29-4.92-3.42-7.39-1.39-.82-1.68-3.25-1.5-4.78-1.77V9.18C73.58,7.92,76.69,11.22,80.61,12Z"/><path class="cls-1" d="M63.23,12c1-.15,1.38-.75,2.17-1.06-.59-.11-.83-.5-1.74-.35A1.7,1.7,0,0,1,63.23,12Z"/><path class="cls-1" d="M89.74,11.3c-1.23.29-1.13-.5-2.18-.36.47,1.32-1.62.56-1.29,1.77h2.6C88.55,11.75,89.73,12,89.74,11.3Z"/><path class="cls-1" d="M129.29,12.36c-.75.72.32.7-.43,1.42,1.58.34.2-1.73,2.17-1.07.68-1.88-4.57-.46-3.91-.35Z"/><path class="cls-1" d="M182.32,15.19c-1.68,0-3.82-.28-4.34.71,1.67-.29,2.23,2.16,3.47,1.06C180.09,16.39,182.34,15.84,182.32,15.19Z"/><path class="cls-1" d="M64.09,18.37c.31-1.31-.74-1.52-.43-2.83-1.4-.07-1.06,1.26-1.74,1.77C63,17.42,62.73,18.54,64.09,18.37Z"/><path class="cls-1" d="M115.38,16.61c.31-1-2.16-1.5-2.6-.71C114.15,15.73,113.76,17,115.38,16.61Z"/><path class="cls-1" d="M96.69,20.14a15.45,15.45,0,0,0,4.79.36c.7-2.24-4.67-1.38-5.22-1.42C97.4,19.49,97.77,19.52,96.69,20.14Z"/><path class="cls-1" d="M191.88,19.08c-4.11,1.37-9.08,2-12.6,3.89C184.49,22.58,192.48,21,191.88,19.08Z"/><path class="cls-1" d="M111.47,22.62c-3.56.62-1.08-1.9-2.61-2.48-1.07.19-4.29-.67-5.65,0,1.83.64,5,.22,4.78,2.48-4.4.19-9.39-2.61-12.16-1.42a55.44,55.44,0,0,0,12.6,2.12C109.59,23.34,111.64,25,111.47,22.62Z"/><path class="cls-1" d="M171.45,24c1.24,2.49,5.42-.42,8.27,0C178.45,21.73,174.65,24.59,171.45,24Z"/><path class="cls-1" d="M64.09,27.92c.21-1.1-.92-1.13-2.17-1.06C61.86,27.86,63,27.88,64.09,27.92Z"/><path class="cls-1" d="M108,27.57c.69.15.38,1.11,1.74.71V27.22C109.08,27.28,108.13,27.09,108,27.57Z"/><path class="cls-1" d="M31.06,29c2.85,1.19,9.1,2.44,14.78,2.48C43,29.17,36,28.38,31.06,29Z"/><path class="cls-1" d="M59.32,34.29c-1.07-.79-1.7-1.92-3-2.48-1.58.37-1.94,1.72-2.17,3.19,2,0,2.63,1.15,4.78,1.06C58.52,35.06,59.49,35.14,59.32,34.29Z"/><path class="cls-1" d="M39.75,39.59a8,8,0,0,0-3.47-.7C36.18,40,39.09,40.34,39.75,39.59Z"/><path class="cls-1" d="M37.14,43.13c.55-1,2.74-.6,2.61-2.12a86.25,86.25,0,0,0-12.6-1.77C28.61,42.06,32.78,42.67,37.14,43.13Z"/><path class="cls-1" d="M44.54,40c.87.51.91,1.79,2.6,1.06C47.4,40,45.31,39,44.54,40Z"/><path class="cls-1" d="M45,48.44c1,1.27.36,2.48,3,2.83C49,50.23,46.64,47.32,45,48.44Z"/><path class="cls-1" d="M57.14,48.08V49.5c1.09.06,1.06-.79,1.74-1.06C58.29,48.33,58.05,48,57.14,48.08Z"/><path class="cls-1" d="M36.28,48.79c-1.36.07-3.19-.24-3.92.36,1,1.87,3.08,2.92,6.09,3.18C38.76,50.31,36,50.82,36.28,48.79Z"/><path class="cls-1" d="M217.53,48.79c-1.86,0-4-1.38-3.91,0-1.37-.66-3.61-.6-4.35-1.77,0-1.41.87-2.12.87-3.53-4.86-3.61-1.09-10.07-2.17-14.15.51-.53,1.8-.42,1.74-1.42-2.47,1.71-2.86-2.64-7-1.77-.36,1,.61.92.43,1.77C194,29.49,183.37,29.43,174,31.11c-3.57.63-9.1.46-13,1.41-1.8.43-2.94,2.55-5.21,1.06.33-.08.86,0,.87-.35-2.44-.1-4.73-.07-6.09.7-1.76-2.14-8.43,2-10-1.41,3.71-1.47,10.56-.37,13-2.83,5.67,0,9.86-.36,13.91.35.65-.42.68-1.33,1.31-1.76,6.91-.15,13.23-2.67,18.69-2.83-.73.6-4.16.84-3.48,1.41,1.88-.6,5.38-.94,5.22-2.12,6.15-.3,13.6-.4,18.69-.71-.58-1.06-.45-2.71-.44-4.24-1.63.27-1.47-.93-2.17-1.42,2.43-.73,3.11-2.89,3.91-5-2.48-1,.32-3.35-2.17-4.95-6,.19-4.84,5-10.87,5.66,1.17-2-.71-2.12-1.74-2.13.86-.6,2.17-.82,2.61-1.77-2.86.28-3.68,2.2-7.39,1.77-.19,2.32-3.15,2.4-5.65,2.83-.67,1.49,2.25.06,2.17,1.07-2.55,1.34-6.23,1.77-8.69,3.18,8.26,2.93,14.74-5,23-4.25.25,1.13-.82,1.1,0,1.78a3.43,3.43,0,0,1,4.35,1.76c-13.12,2.21-24.27,7.41-36.52,9.2-1-2.25,2.55-.76,2.61-2.12-6.53-.89-13.92.16-17.39,2.47.34.08.86,0,.87.36-1.47-.1-2.66-.43-2.6-1.77-4.26-.05-8.28.1-10.87,1.41-.09-.45-1.27-1.73-.44-1.77a199.75,199.75,0,0,0,29.56-3.53c1-.38-.93-1.63.44-2.12h1.3c.36,1-.61.91-.44,1.77,1.52-.08,3.35.12,3.48-1.07,0-2-3.1-1-3.91-1.41,2,0-.47-.51,0-1.42,1.23-.06,3,.31,3-.71-1.26-.91-2.7.17-4.35,0-.42.66,1.3,1.19,0,1.42-6-2.38-11.45,2.27-12.61,4.95H154.5c1.37-1-1.6-1.32-.43-2.12-4.74-.47-8.18,1.28-13.48,0-.43,1-.63.88-.87,1.41h-2.17a6.78,6.78,0,0,0-.87-2.12c-3.27,0-5.06,1.34-7.82,0,.26,1.61-1,1.46-2.17,1.07-1.07.47.47,1.31-.44,1.41-1.3,1.06-5.89-.56-6.52,1.06,2-.23,4.2.56,3.48,1.41a12.41,12.41,0,0,1,6.52,1.42c-5.77-.95-8.22,2.15-13,0-.73,0,.49,1.51-1.31,1.41-1.55-.77-2.71-2.53-4.78-1.06.16.91.45.14,1.1.83a10,10,0,0,0-1.55.11,1.59,1.59,0,0,0,.15.29.36.36,0,0,0-.13.19l.32.06c.65.75,1.75,1.34.35,2.28,1.61,1.21,3,.2,5.47.4a2,2,0,0,0,.13-1.33c4.14,1,7.64,2,11.55,1.77-1.65,1.38-6.55.09-7.39,2.12,1.88,0,2.88-.74,3.48.71-1.08,0-2.11-.07-2.18.71,1.66,1,3.26-.14,4.35,1.06-2.76.23-6.66-.47-8.69.35,2.68,1.12,9.06-.77,9.56,2.12a174,174,0,0,1-19.77-.73,2.48,2.48,0,0,0-.55-.81,4.45,4.45,0,0,0,3.8-.58,13.17,13.17,0,0,0-4.79-1.09c0-.09-.07-.17-.1-.27a6,6,0,0,1-3.89-.65,38.45,38.45,0,0,0,9.22.25c-.47-1.38-2.14-1.52-3.78-1.59.85-.14,1.71-.3,2.55-.43-.8-1.58-.17-.47,0-2.41-1.15-.42-2.74-1.15-4.35-1.71.51,0,1.07.07,1.67.12a20.57,20.57,0,0,0,.43-2.47c-1.25,0-2.06-.45-1.74-1.77a8.37,8.37,0,0,0-5.65.7c.24-1.25-1.54-.87-1.3-2.12-1.7-.06-4.4.72-2.61,1.42H94.09V24c-1.33.26-1.28-.61-2.61-.35-.52,2.57-.06,3.08,1.3,4.6,2.08.39,1.83-1.1,3.91-.71.94.72,2.74.74,1.74,2.12.78.15,1.52.34,2.26.53-3.52.35-7.13-2.13-11.75-2.17-.7.71-.29,1.25-.68,1.61-1.78-.86-4-3.28-6.5-2,1.84.31-1,.23-.68,1.21,1.39.58,2.58,1.88,4,2.44a1.77,1.77,0,0,0,.54,1.52c-2-.29-4.42-1.25-7-.74-.2-1.37-1.12-1.9-2.73-1.61-.76.58.43,1-.35,1.21-.64,0-.23-1.33-1-1.21-.08.31,0,.8-.35.81v.8H77c-.38,2.21,2.26.84,2.4,2.42a47.64,47.64,0,0,1-8.9-1.21c-.1,1.73,1.62,1.33,1.71,2.82a7.78,7.78,0,0,0-3.59.21c-2.08-.76-5.05-1.53-5.36.09,1.9.32,4.11.66,6.45,1a3.77,3.77,0,0,0,2.14.34c4.72.75,9.78,1.6,14,2.52.07,1.08,1.57,2.64,2.85,1.87,1.93,1.05,6.07.63,4.71-.42a22.78,22.78,0,0,0,3.23.81c.14.17.3.35.51.57,14.33-.32,27.2,1.4,40.42,1.77-2.71,2.18-8.58.81-13.47.71-8.8-.19-17.07-.86-26.5-1.06-4.49-.53-9-1.14-13.08-2.8.32,1.46-1.35.56-2,.81V41c-.6.23-2-.49-2.06.4.54,0,1.19,0,1,.81-.66,1-3.53-1.67-2.4-1.21-3.39-1.39-10.31.08-7.52-1.61-2.17-1.06-3,1.15-5.47.8.06-1.15,0-2.2-1-2-.33,3-3.15.7-4.45,2.42,3.38,2.33,9.25,3.35,13.86,6.55-.25.09-.5.17-.75.28,1.41-1.53-7.61-3-5.22-1.06-1.92,1-4.29-.31-6.09.35-.07,2.3,3.26,1.83,5.22,2.48-.73,1.16-3.89-.7-3.48.7.74,2,4.45.9,6.52,1.07,1.39.11,2.89.28,4.29.46a7,7,0,0,1-2.38,2.46c-1.33.15-2.12-1.1-1-1.61-3.38-1-3.71,1.12-5.82,2.42-.88-1.06.56-.32.35-1.61-1,.33-.89-.57-1.72-.41a7.3,7.3,0,0,1,.35,2.82,3.77,3.77,0,0,0,1,.46,1.68,1.68,0,0,1-.07.59,5.52,5.52,0,0,0-3.29-.24,1.2,1.2,0,0,1,0,1.09c-.68-.6-1.25-1.19-.29-1.48-4-.37-11.53-.41-13.47-3.54A6.47,6.47,0,0,1,43,49.89c-.12.82-1.16.82-1.74.36v2.82c3.44,1.86,6.87,4.62,11.73,2.48-1.29,2.22,3.53,2.24,5.65,2.83-2,1.25-3.49-.92-6.08-.35.13.93-1.69.28-1.31,1.41,2.12-.3,2.24,1,4.35.71a.49.49,0,0,1,0,.17A78.08,78.08,0,0,0,43,59.93c.7-.13.9.34,1.07.85-1.68-.57-3.39-1.1-5.21-1.56-.18-1.28-1.64-1.06-2.36-1.71-.36-1.5.72-1.3,1-2-2.59-.7-3.78.51-5.47,0,.4-.06,1,.07,1-.4-.92-.67-2.64-.4-4.16-.37-.08-.07-.15-.16-.23-.23s0,.15,0,.23a5.08,5.08,0,0,1-.78,0c-.06.6.12,1.48-.34,1.61-1.94.39-3.64-1.15-5.13,0-.36,1.5,1.15.79,1.37,1.61-3.38,1.1-8-1.35-10.27.4,3.8,1.57,10,.38,13,2.83-.21.69-1.62,0-1.71.8a15.22,15.22,0,0,0,3.06,1.43.76.76,0,0,0-.11.32,1.41,1.41,0,0,0,.76-.1l.54.15a3.72,3.72,0,0,1-.11.88L27,64.32c-1.53-.22-6.3-.49-4.11.8-.71.24-2.25-.49-2.39.41,3.1.3,5,1.63,7.48.84a3.34,3.34,0,0,0-.09,1.6c-1.46-.22-3.09-.21-5-.43a2,2,0,0,1-.34,1.21c.61,1,3.19-.27,3.76.8-.51.08-1.26-.14-1.37.41,1,0,2.24.22,2.74-.41-.26,1.66,1.1,1.4,2.05,1.62-.27-1.1.28-1.24.77-1.44,1.69,1,3.12,2.13,5.31,2-.51.06-1.23-.06-1.3.36h.25c-.27.07-.54.17-.81.27,2,1.12,5.45.72,7.19,2.08-1,.87-4.36-1.24-4.57.7l4.27.51c0,1,.29,1,.77,2-.71.07-1.46.07-2.21.08a1.28,1.28,0,0,1-.09-.55,2.32,2.32,0,0,1-.79.56c-.51,0-1,0-1.52.08a1.39,1.39,0,0,1-.77-.64c-1-.14-1.39.53-1.88,1l-1-.34a1.69,1.69,0,0,0-.19-1.1,20.08,20.08,0,0,0-2.45.1c-1.69-.71-3.31-1.49-4.89-2.3a18.73,18.73,0,0,0-2.6-5.31c-.81,3.77,1.19,6.1,3.94,7.92H25.29c.43,1,.7,2.14,2.06,2,.49-.18.35-1.09.65-1.49.27.17.55.33.84.49,0,1.1-.86,2.08.22,3.41-6.3.82-15.84-2.18-22.92-.8,1.37,4.65,7.6,1.87,12,2.82,3,.65,4.19,3.69,6.5,2.42.53-1.44-1.16-.25-1-1.21,1.46.31,1.39-.06,2.73.4-.86.84.87,1.57,0,2.42,2.05.48,2.14.81,4.11,0,.08,1.11,1.69.43,2.05,1.2-.86,2-2.68,2.76-4.79,3.23,1.25-.26,1.35.83,1.37,2-1.76.52-1.27,1.67-1.71,3.22-2.52,0-7.19.2-9.58-1.21.4-.07,1,.07,1-.4-2.57-.47-3.59.87-5.82.8.43,4.92,5.55,2.83,7.53,1.61,1,2.38,7.39-.8,8.55,2.42-1.37.47-2.64,1.32-3.93,1.91-.35-.18-.26-.64-.26-1.28-1.51-.14-1.18,0-2.1-.64A4.12,4.12,0,0,0,22.2,103a3.82,3.82,0,0,1-1-.23.68.68,0,0,0-.61-.27h0a5,5,0,0,1-.74-.45c.92,0,1.64-.92,1-1.61-3.73,2.39-9.35,1-14.71,2,2.56.34,4.64,1.25,7.52,1.2a3.87,3.87,0,0,0,6.5,1.62,7.49,7.49,0,0,0,1.39.44,2.5,2.5,0,0,0,.87.9.81.81,0,0,1,0-.74c2.3.36,4.85.43,5.59,2.62-2.51,2.11-1.72,5.42-1.71,8.46-1,.54-2.61.41-4.1.4,2.63,3.2,8.89,2.36,13,2.83-.15,1.44-2,.88-2.06,2.41.52.07,1.27-.14,1.37.41-.78-.11-1.28.09-1.37.8.27.09.68,0,.69.41-.21,0-.41.06-.34.4.63-.88,4-.59,3.76-1.21-.5-.22-1.77.47-1.71-.4,1.09-.6,1.2-2.35,2.05-3.23,2.5.45,4.52-.49,6.32-.61a11.87,11.87,0,0,0,2.67,2c.13.88.65,2-.09,2.63,1,.08,1.73-.1,2-.8-.62-.35-.5-.67-.11-1,.52.19,1,.36,1.57.5-.42,1.25.7,1.29.64,1.56-2.23.79-4.06,2.69-5.86,3.76-6.24-2.4-11.17,4-16.42.81-1.55-.31.52,1.1-1,.81-1.1.08-.56-1.77-1.71-1.62-.8,1.34-1.26,3.09-3.08,3.23-.18,1.81,1.28,1.72,2.73,1.61C29.59,129.91,37,131,41.86,130a1,1,0,0,1,.5-.11l-.5.11a1.11,1.11,0,0,0-.53.69c2.9.52,8.51-1.49,7.53-2.82,2.5-1,4.45-.78,5.47.64a5.42,5.42,0,0,0,0,.57c-1.15-.14-.54,1.78-2,1.21.72,1.27-.31,2.25.34,3.22a31.91,31.91,0,0,1,3.48-.68,1.12,1.12,0,0,0-.18,1.57l0,0-.93.29c-.14-1.36-2.62-.65-2.75.38H54a17.58,17.58,0,0,1-1.88.55,8.07,8.07,0,0,1-1.37,3.91c-1.28.43-2.35,1-2.12,1.19-7.19,1.06-15.32,1-20.87,4,7,.38,14.18.39,21.32.13l-.12.79c-.42.54-1.93-.23-2.79-.21.93,2.08-4.76.24-3.56,2.64-.8-.31-2.47-.08-2.7-.74-1.8.6-2.23,1.7-5,1.59a2.42,2.42,0,0,1-.59-2.28c-1.21.42-1.35,2.15-3.38,1.59.57,1.67-2,.34-1.17,1.43-1,0-.48-.83-1.44-.8.82,1-1.11.27-1.92.21-.31,1.23,1.65,1.07,1.54,2.17.6-.12,1.29-.13,1.65-.53,1.12.12.52,1.28,1,1.8a3.25,3.25,0,0,1,2.58,1.53c1.54-1,2.86.07,4.28.74.29-.65,0-1-.79-.95,1.48-1.57,5.63.06,7.4-1.16-.33,1,3.87.68,3.72,2.27,2.41-.22,6.77-.22,7.56,1.85-1.3.83-4.39.2-3.56,2.65,1,.68,2.67.92,2.11,2.53,2,.33,2.38.42,3.53-.47.46.17-.34.42.22.58,1.78-.75,4.3-1.59,6.24.26a36.27,36.27,0,0,1-7.58.32,6.59,6.59,0,0,1-2.09,1.27c1.61,1.73,5.86,1.85,6.22,4.33-1,0-.6,1.8-1.55,1.91.77,1.43,4.42,1.12,4.55,3,1,0,1.69-.49,3.14,0-1.08,1.79-5.58.92-6.16-.8a3.71,3.71,0,0,1-3.66-.63c.57.69-.17.55-1,.37,1.39,4.13,2.54,7.83,5.91,10.25,0-.47.32-.45.7-.42-.27-.55-.16-1.33-1.36-1.32.16-.53,1.35.16,1.61-.27-.32-.84-1.28-1.29-2.24-1.74.55-.39.72-1.24,2-.74-.22-1.32,1.23-1.57.68-2.32,3.24-.2,5-2.18,8.75-1.75.55.62,1,1.28,1.59,1.91,2.44-.21,3.48-2.1,7-1,0,1-1.06.62-1.17,1.43,4.81.95,8.08.07,11.68-.42,1.45,2.78,6.4,0,7.34,1.27a12.34,12.34,0,0,0,6.76.9c-.4-1.8,1.43-1.1,1-2.54-1.41-.65-1.38.44-2.53.1-1.24-.76-1.14-2.33-3.72-2.27a6,6,0,0,1,.16-1c1.3-.16.88.74,1.75.84.61-.43.93-1.2,1.78-1.32,1.62.58,2.55,1.19,4.28.74,1,.46-.86-.06-.43.74,2.32-1.88,9.06-.43,13.07-1.27.6.27,2.18-.06,1.74.85,1.93-1.24,6,.39,8.67-1.22-2.34-.41-5.39-2-6.89-.1-2-1.63-3.92-.49-7-1.22.43.61-.07.33-.16,1.06a7.38,7.38,0,0,1-4.81-1.38c-1.23-.34.14.71-.77,1-3.72-.52-6.33-.55-10.08-1.75-2,1.69-5.89,2.11-9.2.58.16-.75,1.35-.26,2.22-.16,1-.24-1.28-.46-1.79-.58.85-.56,2.19-.51,3.8-.16,0,.26-.41.14-.66.16.36.81,1.54,0,1.65-.53,2.15.38,5.18.15,5.71-.37.78.68,2.51.26,3.79-.16-.79-.6-.65-.45-.74-1.21-1.08.39-3.2-.48-3.58.74-4.81-3.53-12.21-2.41-17.77-4.71,8.14,1.09,14,0,21.76,1.33,1.59-.36,3.34-1.06,4.36.21.74-.93,3,.1,3.67.63.1,1-.75,1-.25,1.59a3,3,0,0,0,1.87,0,3.31,3.31,0,0,0-1.58-1.9c3.71-1.72,10.23-.07,14.86-.69-.33-.18-1.56-.23-2.06-.9-2.49.46-6.34-.09-10.59-.47,0-.44.36-.41.43-.74,4.42.45,7.06-4.44,11.84-1.48A88.75,88.75,0,0,1,141,162.85c0-1.27-2.27-1.17-3.15-1.91,6.82-.67,11.71,1.49,18.64,3.23.63-.58-.31-1.11.77-.95a3.11,3.11,0,0,0-2-.9c0,.17.35.38.57.37-3.36.18-9-4.58-13.29-5.29,1.87-5.23,10.18.63,14.57,1.17.29.25,1.27,1.25.75,1.21,1,1.14,4-.25,4.15,1.53-.35.53-1.41.2-2,.48,2.45.59,4.25,0,6.68,1.43-.45-3.66,3-4.06,3.39-7.56-8.86.77-17.11-3.75-24.66-6.73,7.57-.68,15-1.63,22-2.94.33.13,1,.06,1.29.21,1.67.1,4.12,1,4.89.84l.61.11c1.79-.42,3.58-.47,4.83-.79.12-.47-.28-.62-.14-1.11-1.68-.35-2.35.52-4.36-.21a7.62,7.62,0,0,1-.16,1.05c-1.73,0-3.6-.12-5.32-.1l-.85-.15a129.65,129.65,0,0,0,27-7.91c-.24-.36-1-.22-.78-1,.86-.45,2.09-.44,2.44-1.57-.46-.33-1.33-.26-1.59-.8-2.62-6.2,3.93-7.19,7.42-8.42-.55-.82-1.19.13-1.6-.5,2.3-2.4,2.21-3.63,5.47-4.94-.8-.9-2.25.22-2.39-.89.67-1.45,2.76-1,3-3.06-7.29-3.71-12.35,2.36-18.27,2.18.39-2.24,1.45-3.6,2-5.65a8.37,8.37,0,0,0,3.29-3.77,6.46,6.46,0,0,0,1.74-.39,24.87,24.87,0,0,1,.12-3.45c1.52-1.38,3.34-2.39,4.48-4.26.44-1-.9-.29-.78-1,2.5-3.12,3.59-6.13,5.84-9.54-.32,0-.32-.33-.28-.7.45-.1.9-.19,1.34-.3,0-2.49,3.9-1.78,3.48-4.59a6.12,6.12,0,0,0-2.07-1c2.29-3.6,3.15-8.29,5.17-12.32a1.4,1.4,0,0,1-1.32-.78c3.59-1.13,2.24-5.7,2.37-10.57-1.41-.4-2.61-.41-3.74-.74a4.6,4.6,0,0,0,3.55-2.69c-1.95-.43-.55-3.26-2-4.58-2.15.44-4.29,1-6.43,1.65a2.63,2.63,0,0,1,1-3.27c.65-.5,2,.19,1.74-.71,1.88.14,1.26.65,2.61.71C212,48,215.62,51.22,217.53,48.79ZM203.62,20.85c.39,2.08-3.67,2-5.22,1.42A14.86,14.86,0,0,1,203.62,20.85ZM72.87,36.11c1.9.42.68-.63,1.36-1.21.59.4,1.28.67,1.83,1.1-1.12.09-2.29.27-3.4.44C72.7,36.28,72.76,36.15,72.87,36.11ZM86.7,40.3a5.62,5.62,0,0,1,1.16,0,1.43,1.43,0,0,0,0,1A1.67,1.67,0,0,1,86.7,40.3ZM64.09,47.73c.61-.81,3-.13,4.35-.35v.08a.76.76,0,0,0-.69.34,2,2,0,0,1,.32.17C67.1,48.47,64.58,48,64.09,47.73ZM58.62,163.79c1.56.06,5.23.2,2.75.48C61.11,164.3,59.3,164.9,58.62,163.79Zm4.88,4.92c-1.63-.57,0,.91-1.65.53,0-.64-1-.68-.71-1.48C61.79,167.38,64.08,167.12,63.5,168.71ZM170.15,35c1-.82,3.9-.13,5.65-.36-.89.63-.38,1.1-.87,1.42-.75-1.37-4.17-.33-6.52,0C167.48,34.67,171.79,35.8,170.15,35Zm5.65,1.77c10.48.68,17.3-4.8,27.38-2.13.24.52-.5,1.83.44,1.77-5.43,5.26-26.53,3.12-36.51,3.18.79-2.69,5.39-1,8.69-2.8ZM156.31,139.54a2.94,2.94,0,0,0-.49.08.51.51,0,0,1-.09-.16A5.4,5.4,0,0,1,156.31,139.54Zm-88.1,23.19c-.23.57-1.53-.15-2.18-.1,0-.51.43-.52.47-1C67.41,161.79,68.36,161.92,68.21,162.73ZM37.75,71c-.11-.54-.31-1.15-.41-1.74,2.43-.11,3.44.94,5.89.81a22.63,22.63,0,0,0,4,1.69,69.92,69.92,0,0,0-7.52-.29A19.91,19.91,0,0,0,37.75,71Zm-9-11.86a3.2,3.2,0,0,1,2.09-.6A18.08,18.08,0,0,0,33.06,60c-1.34-.28-2.83-1-4.32-.9Zm92.29,7c-.53.17-1,.31-1.58.44h-1l-.46-.18c.63-.16,1.25-.32,1.87-.46ZM149.17,66c-.78.12-1.57.22-2.36.32C147.24,65.88,148.75,65.43,149.17,66ZM118,54.58a.94.94,0,0,1,0,.47h1a3.69,3.69,0,0,1,0-.47c1.43,0,2.74-.09,4.12-.13v.1c-1.76.18-3.75,1.58-6.52.9a1.47,1.47,0,0,0,0-.88Zm-5.27,11.6h-1a1.86,1.86,0,0,1-.89-1,1.78,1.78,0,0,1,.23-.43,27.49,27.49,0,0,1,3,.21,2.14,2.14,0,0,1-1.36,1.22Zm12.83-10.73a5.3,5.3,0,0,0-.43-.38c.44,0,.88-.12,1.28-.13a5,5,0,0,0-.86.51ZM101,56.57c.67-.51,2-.47,2.61-1.06l-.15-.06A22,22,0,0,1,109,56.78C106.37,57.46,103.85,57.83,101,56.57ZM82.9,58.09c.23-.42.7-.57.91-1,.78-.25.82.36,1,.81C84.2,58,83.56,58,82.9,58.09ZM59.17,71.49a12,12,0,0,0-1.65.49c-.35,0-.7.07-1.07.09.11-.4,0-.62.39-1.07Zm56.58,70.42c-2,.43-5.85-.31-8.48-1.06,2.61.18,5.22.32,7.8.42A3.74,3.74,0,0,1,115.75,141.91Zm-1.67-87.46,1.21.07v.73a25.35,25.35,0,0,0-3.66.78,8.77,8.77,0,0,1,1.59-1.63Zm-5.22-.31a1.18,1.18,0,0,1-.42.1.47.47,0,0,1-.29-.14ZM34.55,89.3c.28-.35.94-.24,1-.8a8.51,8.51,0,0,0,6.16,1.2c-1.53,1.64-4.12,1.33-6.16,2C36.54,90.54,34.23,91,34.55,89.3ZM36.26,93c.12,1.54.51,1.5,2.4,1.21-.79,1.75-4.46.11-5.48,1.61V93.33C34.56,93.61,35.14,93,36.26,93ZM165.8,43.84a17.76,17.76,0,0,1,6.09-1.42c.07-.76-1.54-.15-2.17-.35-.32-.74,4.69-.18,6.52-.35-2.22,1.34,4.24.45,6.08.7C177.83,43.73,172,43.92,165.8,43.84Zm30.87,5.66a25.73,25.73,0,0,1,1.73,3.18c-4.6-1.68-11.58-1.41-16.08-3.18ZM185.8,42.78c1.43-.77,10.89-1.54,13,.71C196,45,189.53,41.66,185.8,42.78Zm-20.43-7.43c-.4,1.23-3.44,1.35-3.91,0Zm.43,3.89c-1,1.1-4.79,2.41-8.25,1.42a11.73,11.73,0,0,1,8.25-1.42Zm-10.86-3.89c2.42.16,3.35.41,5.65,0-.91,1.38-4.85.3-5.65,1.77-1-.09-.25-1.55,0-1.77Zm-9.56,29.36c-.74,1.39-3.36,1.24-4.75,2.1-.93,0-1.87.09-2.8.12a25,25,0,0,0-3,0c-3.44,0-6.9,0-10.4-.17-.32-.46-.57-.92,0-1.39-3.36.18,1.31-.93,2.61-1.06,2.69-.29,6,.22,7.82,0,1.11,0,.53.26.44.71,2.7-2.42,5.33-.14,10.08-.31Zm-4.79-10.26c-.57,1.65,1.45,1.19.88,2.83-1.12,0-.54-.26-.44-.71-2-.16-2.45,1.94-5.22.71C135.6,54.87,137.82,54.43,140.59,54.45Zm-20.43-7.78c2.94-.66,7.66.09,10.87.35l-.23,0c-3.22.09-6.89.54-10,.32,0,.13-.09.26-.13.4l-.47-.06C119.64,47.27,120,47.17,120.16,46.67ZM111.47,46c-.2.44-1,.69-1.69.7v-.07c-.44-.13-.88-.25-1.33-.36C108.81,45.6,110.62,46.16,111.47,46Zm-38,10.17c-1.57-.16-3.16-.44-4.39.06L68.57,56c1.74-.2,3.49-.65,4.93.15Zm-12.88,4a2.34,2.34,0,0,0,.87.55l-1.65-.07a.94.94,0,0,1,.81-.52Zm-35-2.24c.7.25,2.38-.65,2.05.81-.64-.29-2.31.61-2-.85Zm1.71,2.82c1.46-.24,2.26.29,3.42.41,0,.46-.62.78-1.3.89-.53-.37-1.19-.55-1.45-.13a1,1,0,0,1-.6-1.21Zm7.15,3.83a31,31,0,0,1,8.76,1.38c.16.32.62.39,1.09.46.26.12.52.23.78.37a51.46,51.46,0,0,1-7-.65,14.6,14.6,0,0,1-3.56-1.6Zm-4.9,1.81a3.74,3.74,0,0,1,.65.67,1.73,1.73,0,0,1-.95.19c0-.45.36-.73.37-.9Zm4.05,1.92a2,2,0,0,0,1.61.21,1.64,1.64,0,0,1,.3.29,4.33,4.33,0,0,0,.27,1.59,3.56,3.56,0,0,1-2.11-2.13Zm.55,12.81a.54.54,0,0,0,0,.18,1,1,0,0,1-1-.77,6.15,6.15,0,0,1,1.12.55Zm-2.75,32c2.08-.77,5.37-.42,7.19-.4-1.27,1.79-5.09.35-7.12.37Zm8.9,1.21a.68.68,0,0,0,.15-.26l.12.27Zm15.25,16.42c.12.09.23.19.34.29a2.11,2.11,0,0,0-.54.22.68.68,0,0,0,.27-.54ZM65.35,171c.6,0,.85-.44,1.61-.27C67.41,171.77,65.4,171.47,65.35,171Zm1-2.54c.63-.17-1.49-.66-1.36-1.32,1.28-.13,0-.56.21-1.32.38,0,.73,0,.7-.42l4.88.84c-1.2,1.13.75,1.13,1.28,1.85-1.67,0-5.13,1-5.69.32ZM84.63,168c1.9.18,4.81-.08,6.46.85-1.06.49-4.16.44-6.62.21C84.52,168.73,84.58,168.37,84.63,168ZM163,156.61c-2.17-.35-3.36-1.3-5-2C159.92,155.15,162,155.58,163,156.61Zm1,1.27c-2.77,3.55-8.52-.52-13.75-2.38-2.46-.88-5.07-.66-5.55-2.59,1.36.06,3.4.94,4.32.48-.35-.11-.88-.11-.88-.43,4.47,1.26,10.93,2.49,15.93,4.92Zm3.22-17.67A49.62,49.62,0,0,1,152.76,144a23.1,23.1,0,0,0-5.49-.66,19.64,19.64,0,0,0,2.19,1c-2.05.21-4.14.38-6.26.55,1.19-1.12,4.16.17,4-1.6a10.71,10.71,0,0,1-3.36-.6,4.35,4.35,0,0,0,1.57-.95,6.24,6.24,0,0,0,1.19-.58,1.41,1.41,0,0,1-.41,0,3.29,3.29,0,0,1,1.77-.69c-.33-.43-.45-.41-.36-.64l1.22-.15a2.7,2.7,0,0,0,1.41.36,2.33,2.33,0,0,0,.07-.53,24.65,24.65,0,0,1,5.08-.07,1.23,1.23,0,0,1,.12.26c-2.32.29-5.29-.27-6.49,1.49,2.44,1.76,4.14-.47,6.54-1.11v.07c.67.14.65,0,.49-.18a4.4,4.4,0,0,1,1.84.09c.24,0,.35-.25.45-.49a6.6,6.6,0,0,0,2.88.47c-2-1,2-.53,3.23-.52a13,13,0,0,0-2.34-.89c5.78-.26,11.16-1.77,16.21-1.73-2.8,2.22-7.1,2.53-11,3.33Z"/><path class="cls-1" d="M99.3,14.13c-1.09-1.48-4.11-1.38-6.09-2.13C91.63,14.68,98.19,14.52,99.3,14.13Z"/><path class="cls-1" d="M102.78,15.54a2,2,0,0,1-.44,1.77c6.28,2.16,11.75.64,17.39,3.19-1.36,2.15-5.6-1-7.39.35.18,1.39,2.44,1.07,4.35,1.06.68,1.77,4.85,1.73,6.52.71-1.38-2.12.09-3.58,2.61-4.25,1.41,1.4,6.51,2.11,8.69.71,3.64,1.75,6.5-.37,10-.71,1.28-.12,2.32.73,3.92.71.88,0,2.58-1,3.91-1.06,5.32-.44,6.62.61,7.82-2.48,16.45.06,24.94-6.35,34.34-12a5.09,5.09,0,0,1,.87,3.53c5.21-.22,2-5.87.87-7.07h-.87V1c-.46.8-2.73.13-3.91.35-4.68,3.88-11.73,6.79-17.38,8.84-2.29.84-4.93,2.21-6.09,2.48s-2.88-.16-4.35,0c-1.83.2-3.5,1.16-5.21,1.42-2.13.32-5-.43-7,0s-3.55,2.09-5.65,2.48c-5.88,1.06-10.71-.75-16.95-1.07A23,23,0,0,1,114.08,17C110.13,19,106.14,16.24,102.78,15.54Z"/><path class="cls-1" d="M56.79,29.69c-.07,1.15.77,1.22.68,2.39a2,2,0,0,0,1.08-.74c1.13.88,2.13,1.69,3.8.83a1.41,1.41,0,0,0,0-.29c.82,2.15,2.89,2.83,5,3.43.64-2.63-1.76-1.69-1.36-4a11.79,11.79,0,0,1-3.69.4,5.8,5.8,0,0,0-.85-2.34c.89-.22,3,.57,2.6-.71a4,4,0,0,0-2.6-.71c.56-2-1.73-1.66-1.74-3.18-2-.3-2.43.62-3.48,1.06,1.64.76.1,2.49-.43,3.89C56.35,29.85,56.61,29.81,56.79,29.69ZM58,29a.57.57,0,0,1-.14.69,2.41,2.41,0,0,0-1,0C57.17,29.39,57.13,28.81,58,29Z"/><path class="cls-1" d="M50.19,46.67c-1.52.38-1.91-2-3-.71,1.88,2.46,6.78,1.11,8.7-.35-.52-.06-1.24.06-1.31-.35,2-1.33,4.14-.2,5.22-1.07-1-.27-2.36-.2-2.61-1.06V41.36c2,.19,2.84-.51,2.61-2.12a10.34,10.34,0,0,1-6.52-2.83c-2.77.93-2.52,4.32-5.22,5.31,0,2.08,2.79,2,4.78,2.47C51.9,45.67,50.82,45.83,50.19,46.67Z"/><path class="cls-1" d="M75.28,177.54c.85,1,2.07-.23,3.41.31C78.39,176.71,76.24,177.52,75.28,177.54Z"/><path class="cls-1" d="M80.21,178.12c1.21.64,3.32-.37,2.8.21.4.87,1.2-.4,1.12-1.16C82.77,177.41,80.88,177,80.21,178.12Z"/><path class="cls-1" d="M105.64,174.1c.54.83,2.25.42,2.79.21C108.24,173.19,106.81,174.47,105.64,174.1Z"/><path class="cls-1" d="M124.93,177.17c1.1.06,2.88.94,2.88-.32C126.81,176.59,125.32,176,124.93,177.17Z"/><path class="cls-1" d="M111.92,168.13a1.1,1.1,0,0,0-1-1.27c-.06.36-.11.7-.17,1.06l-.92-.16C109.89,168.36,111.62,168.33,111.92,168.13Z"/><path class="cls-1" d="M122.6,168.08c.35-.5-1.47-.8-.48-.9-.63-.73-2.73-.57-3.93-1a1.39,1.39,0,0,1-.21,1.32C119.37,168.33,121.18,167.66,122.6,168.08Z"/><path class="cls-1" d="M111.46,165.07a1.31,1.31,0,0,0-1.38.84C111,166.2,111.47,165.91,111.46,165.07Z"/><path class="cls-1" d="M161.29,165.55l-4-.69c.47,1,3,.72,3.85,1.48-1.18,1.1-1.3,3.48-3.91,2.85,1.93.95,2.22,1.94,4.34,2.38.15,1.66-1.9.66-1.65,2.43l3.06.53c2.07-1.23,1.11-3.2,1.1-5a25,25,0,0,1,4.73-2.17C169.2,164.63,162.49,163.4,161.29,165.55Z"/><path class="cls-1" d="M107.49,176.32c1.12.64.75.1,1.44.79-.09.53-.88.2-.77,1a16.35,16.35,0,0,0-2.8-.21c.73.54,2.1.38,3.28,1.1,1-1,.45-2.06,1.46-3.27C108.81,175.4,108.42,176.19,107.49,176.32Z"/><path class="cls-1" d="M172.64,149.32c1.47.15,1.72-.46,3.1.26.57-.59,1-1.06.64-2.06l-2.14-.37C173.84,148.68,173.34,148.15,172.64,149.32Z"/><path class="cls-1" d="M27.05,149.1c-.35-.7-.57-.61-.09-1.38.9-.12,2,.8,2.13.37-.36-1.21-3.55-.7-3.41-2.22-1.08,1-2.89.93-3.36-.58-.13,1.71-.47,2.07.11,3.28a2.49,2.49,0,0,1,2.22-.16c-.42-.46-1-.85-1-1.54,1.26.27,1.42,1.21,1.54,2.17C26.08,149.4,26.33,149,27.05,149.1Z"/><path class="cls-1" d="M3.76,54.65c-1.15-.72-2,.07-3.76-.41C-.08,55.59,3.58,56.22,3.76,54.65Z"/><path class="cls-1" d="M38.66,56.26c1.12.34,2.45,1.13,3.51.52a20.42,20.42,0,0,1-2,.86c1.61.2,5.7,1.81,6.08.7-.63-.19-2.25.42-2.17-.35,1.83.07,3.64.12,3.91-1.06a41.1,41.1,0,0,0-5.31-.61l.06-.06C41.8,55.91,39.34,54.43,38.66,56.26Z"/><path class="cls-1" d="M3.76,57.47c2.74.06,3.41.37,5.82,0-.53-1.25-2.58-.69-3.76-1.21C6.47,58,2.54,56.39,3.76,57.47Z"/><path class="cls-1" d="M9.58,62.3c1.61.72,6.13,2.09,7.18.81C15.65,63,11.09,61.91,9.58,62.3Z"/><path class="cls-1" d="M13,64.72c1.41.09,4.17,1,6.16,0C17.6,64.39,14.46,63.82,13,64.72Z"/><path class="cls-1" d="M18.82,67.54c-2.61-.26-6.19-2.38-8.56-.4C12.88,67.15,17.52,68.61,18.82,67.54Z"/><path class="cls-1" d="M16.42,69.15c-1.08-.64-3.38-.19-5.13.4C12.91,70.78,15.17,71,16.42,69.15Z"/><path class="cls-1" d="M19.16,72.37c-.29-.37-2.18-.86-2.4,0C17,73.39,18.44,73,19.16,72.37Z"/><path class="cls-1" d="M11.29,78c2.19.51,2.33-.21,3.76-1.21C13.69,76.54,10.83,75,11.29,78Z"/><path class="cls-1" d="M27.37,121.13c.17,1.41.15,3,.68,4,.44-1,2.63.14,2.4-1.61-.6-.23-2,.49-2.05-.4-.31-.84,2.33-.11,1-.81-.5-.22-1.77.47-1.71-.4C28.24,121.84,27.76,121.27,27.37,121.13Z"/><path class="cls-1" d="M44.13,134.43c3.07,0,6-.15,7.87-1.61C49.27,132,45.48,131.75,44.13,134.43Z"/><path class="cls-1" d="M27,140.07c.55-.69,1.92-.42,2-1.61-1.14.06-6-.67-6.16,2.82C24.5,140.84,25.33,138.05,27,140.07Z"/><path class="cls-1" d="M23.26,139.26H19.85c.26.9.19,2.19,1,2.42C21.7,140.91,23.1,140.81,23.26,139.26Z"/><path class="cls-1" d="M20.18,62.3c.81,0,1,.7,2.06.41-.35-1.36,1.06-.63,1.71-.81.35-1.35-1.06-.63-1.71-.8C22.72,62.87,20.19,61.1,20.18,62.3Z"/><path class="cls-1" d="M1.71,80.43c.9.31,2.83,1.48,3.76.41C4.8,79.52,2.35,80.58,1.71,80.43Z"/><path class="cls-1" d="M37.29,127.58c1.16-.12,4.7-1.24,3.76-1.21C39.71,126.67,37.14,125.52,37.29,127.58Z"/><path class="cls-1" d="M36.26,138.46c2.81,0,5.24-.55,5.82-3.23A13.15,13.15,0,0,0,36.26,138.46Z"/></g></g><g id="Слой_2-3" data-name="Слой 2"><g id="Layer_1" data-name="Layer 1"><path class="cls-2" d="M166.69,91.87h-.13v-28a6.31,6.31,0,0,0-6.3-6.29h-1.12L156.57,44.1a4.14,4.14,0,0,0-4.85-3.3l-9.56,1.81-3.55-10.1a4.16,4.16,0,0,0-5.3-2.54h0L54.87,57.6A6.3,6.3,0,0,0,49,63.88v81.44a6.31,6.31,0,0,0,6.29,6.31h105a6.31,6.31,0,0,0,6.3-6.31v-28h.13a4.16,4.16,0,0,0,4.16-4.15V96a4.17,4.17,0,0,0-4.15-4.17Zm-32-58.11h.1a.18.18,0,0,1,.07.08l3.35,9.53-4,.76a2,2,0,0,0,.75,3.94l17.55-3.33a.12.12,0,0,1,.1,0,.15.15,0,0,1,.06.09l2.42,12.74H84.9l41.45-7.88a2,2,0,0,0-.75-4L71.23,56.1Zm27.89,111.56a2.28,2.28,0,0,1-2.28,2.28h-105A2.29,2.29,0,0,1,53,145.32v-2.26H57.4a2,2,0,0,0,0-4H53V70.18H57.4a2,2,0,0,0,0-4H53V63.88a2.28,2.28,0,0,1,2.28-2.27h105a2.28,2.28,0,0,1,2.28,2.27v28h-13a12.73,12.73,0,0,0,0,25.45h13Zm4.29-32.14a.14.14,0,0,1-.14.14H149.55a8.71,8.71,0,0,1,0-17.42h17.14a.14.14,0,0,1,.14.14v17.14Z"/><path class="cls-2" d="M70.25,139H66a2,2,0,1,0,0,4h4.28a2,2,0,0,0,0-4Z"/><path class="cls-2" d="M70.25,66.16H66a2,2,0,1,0,0,4h4.28a2,2,0,0,0,0-4Z"/><path class="cls-2" d="M83.11,139H78.83a2,2,0,1,0,0,4h4.28a2,2,0,1,0,0-4Z"/><path class="cls-2" d="M83.11,66.16H78.83a2,2,0,0,0,0,4h4.28a2,2,0,0,0,0-4Z"/><path class="cls-2" d="M96,139H91.69a2,2,0,1,0,0,4H96a2,2,0,1,0,0-4Z"/><path class="cls-2" d="M96,66.16H91.69a2,2,0,1,0,0,4H96a2,2,0,0,0,0-4Z"/><path class="cls-2" d="M108.83,139h-4.29a2,2,0,0,0,0,4h4.29a2,2,0,1,0,0-4Z"/><path class="cls-2" d="M108.83,66.16h-4.29a2,2,0,0,0,0,4h4.29a2,2,0,0,0,0-4Z"/><path class="cls-2" d="M121.69,139H117.4a2,2,0,1,0,0,4h4.29a2,2,0,1,0,0-4Z"/><path class="cls-2" d="M121.69,66.16H117.4a2,2,0,0,0,0,4h4.29a2,2,0,0,0,0-4Z"/><path class="cls-2" d="M134.55,139h-4.29a2,2,0,1,0,0,4h4.29a2,2,0,0,0,0-4Z"/><path class="cls-2" d="M134.55,66.16h-4.29a2,2,0,1,0,0,4h4.29a2,2,0,0,0,0-4Z"/><path class="cls-2" d="M147.41,139h-4.29a2,2,0,1,0,0,4h4.29a2,2,0,0,0,0-4Z"/><path class="cls-2" d="M147.41,66.16h-4.29a2,2,0,1,0,0,4h4.29a2,2,0,0,0,0-4Z"/><path class="cls-2" d="M156,134.74a2,2,0,0,0-2,2h0V141a2,2,0,0,0,4,0h0v-4.28a2,2,0,0,0-2-2Z"/><path class="cls-2" d="M156,66.16a2,2,0,0,0-2,2h0v4.28a2,2,0,0,0,4,0V68.17a2,2,0,0,0-2-2Z"/><path class="cls-2" d="M156,79a2,2,0,0,0-2,2h0v4.28a2,2,0,0,0,4,0V81a2,2,0,0,0-2-2Z"/><path class="cls-2" d="M156,121.88a2,2,0,0,0-2,2h0v4.29a2,2,0,0,0,4,0h0v-4.29a2,2,0,0,0-2-2Z"/><path class="cls-2" d="M149.55,100.44a4.16,4.16,0,1,0,4.16,4.16,4.16,4.16,0,0,0-4.16-4.16Z"/><path class="cls-2" d="M106.55,103.06V87.4c6.57.52,11,3.57,11,6.35a2,2,0,0,0,4,0c0-5.45-6.44-9.79-15-10.38V81a2,2,0,0,0-4,0v2.35c-8.56.59-15,4.94-15,10.38,0,7.28,6.93,10.12,15,12.37v15.67c-6.57-.53-11-3.57-11-6.35a2,2,0,1,0-4,0c0,5.44,6.44,9.78,15,10.38v2.34a2,2,0,1,0,4,0v-2.34c8.56-.6,15-4.94,15-10.38C121.57,108.16,114.62,105.32,106.55,103.06Zm-4-1.12c-8.15-2.41-11-4.59-11-8.19,0-2.77,4.42-5.83,11-6.35Zm4,19.85V107.25c8.15,2.4,11,4.59,11,8.19,0,2.78-4.42,5.83-11,6.36Z"/></g></g></g></g></svg>