<?xml version="1.0" encoding="utf-8"?>
<!-- Generator: Adobe Illustrator 19.2.0, SVG Export Plug-In . SVG Version: 6.00 Build 0)  -->
<svg version="1.1" id="Слой_1" xmlns="http://www.w3.org/2000/svg" xmlns:xlink="http://www.w3.org/1999/xlink" x="0px" y="0px"
	 viewBox="0 0 1119.7 331.7" style="enable-background:new 0 0 1119.7 331.7;" xml:space="preserve">
<style type="text/css">
	.st0{fill:#F63234;}
	.st1{fill:#B2785B;}
	.st2{fill:#F8B864;}
	.st3{fill:#C68D6D;}
	.st4{fill:#F6C477;}
	.st5{fill:#F69293;}
	.st6{fill:#F96667;}
	.st7{fill:#57565C;}
	.st8{fill:#F0C477;}
	.st9{fill:#F4AEC3;}
	.st10{fill:#F7A4B9;}
	.st11{fill:#F79AAF;}
	.st12{fill:#F490A5;}
	.st13{fill:#F4869B;}
	.st14{fill:#F47C91;}
	.st15{fill:#F67387;}
	.st16{fill:#F76378;}
	.st17{fill:#F54F64;}
	.st18{fill:#D24150;}
</style>
<g>
	<path class="st0" d="M74.5,178.3c1.6,0,2.9,0.3,3.9,1c2.3-0.5,4.2,0.1,5.7,1.6s2.3,3.3,2.3,5.3c0,1.7-0.6,3.1-1.8,4.2
		c-1.2,1.1-2.9,1.7-5.2,1.7c-1.5,0-2.6-0.1-3.4-0.3c-1.2,1-3,1.5-5.3,1.5c-2.5,0-4.8-0.5-6.8-1.5c-0.7,0.5-1.9,0.8-3.7,1.2
		c-1.8,0.3-3.6,0.5-5.3,0.5c-1.1,0-2.1-0.1-3.1-0.3c0.9,1.5,1.4,3.3,1.4,5.6c0,2.4-0.5,4-1.5,4.9c1.7,2,2.5,4.7,2.5,8
		c0,2.2-0.5,4.1-1.4,5.9c1.1,3.1,1.7,6.1,1.7,9c0,1.9-0.2,3.6-0.7,5.1c0.6,0.7,1,1.8,1.4,3.2c0.4,1.5,0.6,2.9,0.6,4.4
		c0,1.7-0.3,3.2-1,4.4c1.7,1.6,2.5,4.1,2.5,7.5c0,2.3-0.3,4.1-0.8,5.4c1,1.6,1.5,3.6,1.5,6.1c0,1.5-0.3,2.8-0.8,3.9
		c0.6,1,0.8,2.4,0.8,4.2c0,1.7-0.2,3-0.7,3.9c1.1,1.1,1.7,2.9,1.7,5.4c0,1-0.2,2-0.5,2.9c1.5,1.7,2.1,3.4,1.9,5.1
		c0.6,1.4,0.8,2.5,0.8,3.4c0,1.9-0.7,3.5-2.2,4.8c-1.5,1.2-3.2,1.9-5.1,1.9c-1.5,0-2.7-0.4-3.8-1.3c-1.1-0.8-1.8-2.2-2.1-4
		c-0.8-0.8-1.4-1.9-1.9-3.4c-0.5-1.5-0.7-2.9-0.7-4.2c0-0.8,0.1-1.6,0.3-2.5c-1.2-1.2-1.9-3.4-1.9-6.6c0-1.5,0.1-2.5,0.3-3.1
		c-1-1.6-1.5-2.9-1.5-4.1c0-1.6,0.6-3,1.9-4.2c-1.6-1.1-2.4-2.9-2.4-5.3c0-1.9,0.5-3.4,1.4-4.4c-1.6-0.9-2.4-3.3-2.4-7.1
		c0-2.1,0.2-3.8,0.7-5.1c-0.6-0.7-1-1.7-1.4-3.1c-0.4-1.4-0.6-2.9-0.6-4.3c0-1.6,0.2-2.8,0.7-3.6c-1-2-1.5-4.5-1.5-7.3
		c0-1.7,0.2-4.1,0.7-7.3c-0.8-2.1-1.2-4.5-1.2-7c0-2.3,0.3-4.1,1-5.6c-1.4-1.4-2-3.8-2-7.5c0-1.7,0.2-3.2,0.5-4.6
		c-1.2,0.7-2.5,1-3.7,1c-1.2,0-2.4-0.3-3.6-0.8c-0.8,0.5-1.9,0.7-3.2,0.7c-2.3,0-3.8-0.5-4.8-1.5c-0.6,0.6-1.4,1-2.5,1.4
		c-1.1,0.3-2.3,0.5-3.6,0.5c-2.8,0-4.7-0.7-5.8-2c-0.7,0.1-1.6,0.2-2.7,0.2c-2.8,0-4.9-0.5-6.3-1.5s-2-2.4-2-4.1
		c0-1.9,0.9-3.8,2.7-5.5c1.8-1.8,4-2.6,6.4-2.6c1.1,0,2.4,0.3,3.9,0.8c0.9-1,2.7-1.5,5.3-1.5c2.1,0,3.8,0.4,4.9,1.2
		c0.9-0.8,2.5-1.2,4.7-1.2c1.5,0,2.9,0.2,4.3,0.5c1.4,0.3,2.5,0.8,3.1,1.4c0.8-1.1,2.9-1.7,6.3-1.7c3.1,0,5,0.5,5.8,1.5
		c0.9-0.9,2.5-1.4,4.8-1.4c2.1,0,3.5,0.5,4.1,1.5c1.4-1,3.3-1.5,5.9-1.5c2.9,0,5.2,0.6,6.8,1.9C70.6,178.8,72.4,178.3,74.5,178.3z"
		/>
	<path class="st0" d="M157.3,236c1.1,2.1,1.6,4.4,1.6,6.6c0,3.8-1.7,6.4-5.1,7.8c-0.9,1.6-2.1,2.8-3.6,3.7c-1.5,0.9-3.2,1.4-5,1.4
		c-1.5,0-3-0.3-4.6-1c-0.9,0.6-2.1,1.1-3.7,1.5c-1.6,0.5-3.2,0.7-4.7,0.7c-2.7,0-4.6-0.6-5.6-1.7c-1.1,0.9-2.9,1.4-5.4,1.4
		c-1.8,0-3.5-0.3-4.9-1c-1.6,0.8-3.4,1.2-5.4,1.2c-1.9,0-3.5-0.3-4.8-0.8c-1.1,1-3.5,1.5-7,1.5c-1.9,0-3.2-0.2-3.9-0.5
		c0.3,3.3-0.1,5.7-1.4,7.3c2.1,2.2,3,4.5,2.5,7c0.1,0.1,0.7,0.6,1.9,1.4c1.1,0.8,1.9,2.1,2.4,3.9c1.2,0,2.4,0.5,3.5,1.5
		c1.1,1,1.7,2,2,3.1c0.5-0.5,1.4-0.7,2.7-0.7c1,0,1.9,0.2,2.7,0.5c0.8,0.3,1.2,0.7,1.4,1.2c0.8-0.5,1.7-0.7,2.7-0.7
		c1.5,0,2.8,0.5,4.1,1.5c1.1-0.2,2-0.3,2.5-0.3c1.1,0,2.1,0.2,2.9,0.5c0.3-0.9,1.2-1.8,2.7-2.6c1.5-0.8,3-1.2,4.6-1.1
		c0.9-1.1,2.1-2,3.7-2.7c1.6-0.7,3.2-1,4.8-1c3.1,0,5.3,1.2,6.6,3.7c0.5,0.9,0.7,2,0.7,3.2c0,2.7-1.2,4.9-3.7,6.4
		c-0.6,0.3-1.5,0.9-2.9,1.8c-1.4,0.8-2.6,1.5-3.7,1.9c-1.1,0.5-2.2,0.7-3.1,0.7c-1.7,2-4,3.1-7,3.1c-1.4,0-2.4-0.1-3.1-0.3
		c-1.4,1.1-3.3,1.7-5.9,1.7c-2.4,0-4-0.5-4.9-1.4c-0.8,0.3-1.6,0.5-2.4,0.5c-1.6,0-3.1-0.6-4.4-1.7c-5.8,0.3-9.7-1.5-11.7-5.4
		c-1.6,0-3.4-1-5.3-3c-2-2-3.1-3.7-3.3-5.2c-2.6-1-4.2-2.9-4.9-5.6c-0.1-0.9-0.1-1.8,0-2.5c-0.5-0.1-0.8-0.6-1.1-1.4
		c-0.3-0.8-0.4-1.7-0.4-2.6c0-0.7,0.1-1.1,0.2-1.4c-0.9-2.7-1.4-5.2-1.4-7.5c0-2.3,0.5-4.3,1.4-6.1c-0.7-1.2-1-2.6-1-4.1
		c0-1.8,0.4-3.6,1.2-5.4c0.8-1.8,1.5-3,2.2-3.6c-0.2-0.6-0.1-1.6,0.5-3c0.6-1.4,1.3-2.7,2.3-3.9c1-1.2,2-1.9,3-2.1l-0.2-1.9
		c0-4.4,2.4-7.2,7.1-8.3c0-1.9,1.1-3.8,3.4-5.6c2.3-1.8,4.2-2.6,5.9-2.4c0.2-1.2,1.3-2.2,3.3-3c2-0.7,3.5-0.9,4.5-0.6
		c0.9-1.5,2.7-2.5,5.4-3.1c1-1.1,2.5-1.7,4.4-1.7c0.6,0,1.3,0.1,2.2,0.3l1.5-0.2c1.4,0,2.5,0.3,3.5,0.8c1,0.5,1.4,1.1,1.3,1.8
		c2.5,0.2,4.6,0.8,6.3,1.7c1.7,0.9,2.7,2.5,3.1,4.9c1.5-0.3,3.3,0,5.6,1.1c2.3,1.1,4.2,2.7,5.9,4.9c1.6,2.2,2.5,4.8,2.5,7.7
		c0,0.7-0.1,1.7-0.3,3.1C155.1,232.5,156.2,233.8,157.3,236z M137.2,240.6c2.5,0,4.4,0.2,5.8,0.7c-0.9-0.5-1.7-1.4-2.5-3
		c-0.7-1.5-1.1-3-1.1-4.3c0-0.9,0.2-1.6,0.5-2c-1.6,0.1-2.9-0.3-4-1.3c-1.1-1-2-2.1-2.9-3.3c-0.8-1.2-1.5-2.1-2-2.7
		c-0.6,0.3-1.7,0-3.5-0.9c-1.8-1-2.7-2-2.8-3c-0.5,0.6-1.4,1-2.9,1.4c-1.5,0.4-2.6,0.5-3.4,0.4c-0.3,0.6-1.1,1.1-2.4,1.7
		c-1.2,0.6-2.5,0.7-3.9,0.5c-1.1,2.1-2.3,3.9-3.6,5.3c-1.2,1.4-2.8,2.4-4.8,3.1c-0.2,1.6-0.9,3.3-2.1,5.3c-1.2,1.9-2.4,3.4-3.6,4.4
		l0.7,0.2c1.6-1.1,3.7-1.7,6.4-1.7c1.6,0,3.1,0.2,4.5,0.5c1.4,0.3,2.4,0.7,3,1.2c2.7-1.7,5.7-2.5,9-2.5c2.7,0,5.1,0.8,7.1,2.5
		C130,241.4,132.8,240.6,137.2,240.6z"/>
	<path class="st0" d="M215.6,290.8c-1.5,0.7-3.1,1-4.8,1c-0.8,0-1.4-0.1-1.7-0.2c-0.6,0.9-1.8,1.8-3.6,2.7c-1.8,0.9-3.4,1.4-4.8,1.4
		c-0.7,0-1.3-0.2-1.9-0.5c-1.1,0.2-2.1,0.3-2.9,0.3c-1.6,0-3.1-0.3-4.7-0.8c-1.5-0.6-2.7-1.3-3.5-2.2c-1.9,0.2-3.7,0-5.3-0.8
		c-1.6-0.7-2.6-1.7-2.8-3c-1.2,0.2-2.6-0.3-4.2-1.5c-1.5-1.2-2.3-2.9-2.5-5.1c-1.7-0.9-2.9-2.3-3.7-4.1c-0.8-1.8-1.2-3.7-1.2-5.8
		c0-1.5,0.2-2.6,0.5-3.4c-0.9-0.8-1.6-2.5-2.2-5c-0.6-2.5-0.8-5.2-0.8-8.1c0-3.4,0.4-5.9,1.2-7.5c-0.6-1.1-0.8-2.4-0.8-3.9
		c0-1.2,0.2-2.4,0.6-3.6c0.4-1.1,1-2,1.8-2.7c-0.3-0.6-0.5-1.1-0.5-1.5c0-0.8,0.3-1.6,0.8-2.5c0.6-0.9,1.2-1.6,1.9-2
		c-0.1-1.8,0.4-3.5,1.4-5c1.1-1.5,2.2-2.5,3.3-2.8c-0.1-1.1,0.3-2.5,1.2-4.1c0.9-1.6,2.1-2.9,3.6-3.9c1.5-1,3.1-1.5,4.7-1.4
		c2.3-3.2,5.4-4.8,9.3-4.8c1.7,0,3,0.2,3.9,0.7c1.2-0.6,2.8-0.8,4.6-0.8c1.8,0,3.8,0.5,5.9,1.4c0.7-0.3,1.5-0.5,2.5-0.5
		c1.1,0,2.2,0.2,3.3,0.6c1.1,0.4,1.8,0.9,2.1,1.6c-0.1-0.5-0.2-1.1-0.2-2c0-1.8,0.5-3.4,1.4-4.7c-0.8-1.4-1.2-2.7-1.2-4.1
		c0-0.7,0.1-1.2,0.2-1.5c-0.1-0.6-0.3-1.3-0.7-2.3c-0.3-1-0.5-1.8-0.5-2.5c0-0.9,0.2-1.8,0.7-2.7c-0.6-1.1-0.8-2.3-0.8-3.4
		c0-1.2,0.3-2.4,1-3.6c-0.8-1.6-1.2-3.2-1.2-4.9c0-2.3,0.6-4.3,2-6.1c1.3-1.8,3.1-2.7,5.3-2.7c1.9,0,3.6,0.7,5,2.1
		c1.4,1.4,2.1,3,2.1,4.8c0,0.7-0.1,1.2-0.2,1.5c1.7,1.4,2.5,3.2,2.5,5.6c0,1.2-0.4,2.5-1.2,3.9c0.3,0.8,0.5,1.6,0.5,2.5
		c0,1.2-0.3,2.4-0.8,3.6c0.6,1.1,0.8,2.3,0.8,3.6c0,1.6-0.4,2.9-1.2,4.1c1.1,1.4,1.7,2.7,1.7,3.9c0,0.9-0.3,1.9-1,2.9
		c0.3,0.7,0.5,1.5,0.5,2.5c0,0.8-0.2,1.6-0.5,2.5c0.9,1.2,1.4,2.6,1.4,4.1c0,1.1-0.3,2.3-0.8,3.4c0.7,1.1,1,2.5,1,4.1
		c0,2.6-0.6,4.4-1.9,5.4c1.1,1.4,1.7,3.4,1.7,6.1c0,1.6-0.2,3.2-0.6,4.7c-0.4,1.6-0.8,2.7-1.1,3.4c1.1,1.7,1.7,3.8,1.7,6.4
		c0,1.2-0.3,2.4-0.8,3.6c1.2,1.2,1.9,3.1,1.9,5.6c0,2.7-0.6,4.9-1.7,6.6c1.1,1.5,1.7,3.6,1.7,6.3c0,1.8-0.3,3.4-0.8,4.8
		c-0.5,1.4-1.2,2.3-2,2.8c0.1,0.8,0.4,2,0.8,3.6c0.6,2.5,0.8,4.1,0.8,4.7c0,1.8-0.6,3.3-1.7,4.4c-1.4,1.4-2.9,2-4.8,2
		c-1.5,0-2.8-0.5-4-1.6c-1.2-1.1-1.9-2.5-2.1-4.3c-0.6-0.6-1-1.3-1.2-2.3c-0.2-1-0.3-1.6-0.3-1.8
		C217.9,289.3,217.1,290.1,215.6,290.8z M200,280.4c0.8,0,1.5,0.1,2,0.2c0.6,0.1,1,0.2,1.4,0.2c0.1-0.8,0.8-1.5,2.1-2.1
		c1.3-0.6,2.6-0.9,3.8-0.9c0.8,0,1.5,0.2,2,0.5c-0.1-1.1,0.1-2,0.7-2.7c0.6-0.7,1.3-1.3,2.3-2c1-0.6,1.7-1.1,2.1-1.4
		c-0.2-0.5-0.3-1.5-0.3-3.1c0-3.4,0.4-5.5,1.2-6.3c-0.8-0.8-1.2-2.4-1.2-4.8c0-2.7,0.4-5.1,1.2-7.1c-0.7-1.5-1-4-1-7.5
		c0-3.4,0.2-5.7,0.7-6.8c-1-2-1.5-4.4-1.5-7c0-2,0.2-3.5,0.7-4.4c-0.7,0.5-1.7,0.5-3,0.1c-1.3-0.4-2.3-1-3.1-1.8
		c-0.5,0.7-1.4,1-2.7,1c-0.9,0-1.8-0.1-2.7-0.4c-0.9-0.3-1.5-0.6-1.9-0.9c-1.8,0.8-3.6,1.2-5.3,1.2c-0.5,0-1.1-0.1-2-0.3
		c-1.5,1.6-2.6,2.7-3.4,3.4c-0.8,0.7-1.9,1.1-3.2,1.2c-0.3,0.8-0.7,1.7-1,2.8c-0.3,1.1-0.7,1.9-1.2,2.6c-0.5,0.7-1.2,1.2-2.4,1.7
		c-0.2,1.5-0.8,2.7-1.7,3.6c0.1,0.5,0.2,1.1,0.2,1.9c0,1.1-0.3,2.4-0.8,3.7c0.3,0.8,0.5,2.5,0.5,5.3c0,5.2-0.5,8.3-1.4,9.3
		c0.1,0.5,0.5,1.5,1.2,3.2s1,3.3,1,4.9c0,1.2-0.2,2.4-0.7,3.4c2.3,0.9,3.7,2.5,4.2,4.7c1.1,0.3,2.2,1.1,3.2,2.2c2.7-0.1,5,1.1,7,3.6
		C197.3,280.8,198.3,280.4,200,280.4z"/>
	<path class="st0" d="M296.4,290.8c-1.5,0.7-3.1,1-4.8,1c-0.8,0-1.4-0.1-1.7-0.2c-0.6,0.9-1.8,1.8-3.6,2.7c-1.8,0.9-3.4,1.4-4.8,1.4
		c-0.7,0-1.3-0.2-1.9-0.5c-1.1,0.2-2.1,0.3-2.9,0.3c-1.6,0-3.1-0.3-4.7-0.8c-1.5-0.6-2.7-1.3-3.5-2.2c-1.9,0.2-3.7,0-5.3-0.8
		c-1.6-0.7-2.6-1.7-2.8-3c-1.2,0.2-2.6-0.3-4.2-1.5c-1.5-1.2-2.3-2.9-2.5-5.1c-1.7-0.9-2.9-2.3-3.7-4.1c-0.8-1.8-1.2-3.7-1.2-5.8
		c0-1.5,0.2-2.6,0.5-3.4c-0.9-0.8-1.6-2.5-2.2-5c-0.6-2.5-0.8-5.2-0.8-8.1c0-3.4,0.4-5.9,1.2-7.5c-0.6-1.1-0.8-2.4-0.8-3.9
		c0-1.2,0.2-2.4,0.6-3.6c0.4-1.1,1-2,1.8-2.7c-0.3-0.6-0.5-1.1-0.5-1.5c0-0.8,0.3-1.6,0.8-2.5c0.6-0.9,1.2-1.6,1.9-2
		c-0.1-1.8,0.4-3.5,1.4-5c1.1-1.5,2.2-2.5,3.3-2.8c-0.1-1.1,0.3-2.5,1.2-4.1c0.9-1.6,2.1-2.9,3.6-3.9c1.5-1,3.1-1.5,4.7-1.4
		c2.3-3.2,5.4-4.8,9.3-4.8c1.7,0,3,0.2,3.9,0.7c1.2-0.6,2.8-0.8,4.6-0.8c1.8,0,3.8,0.5,5.9,1.4c0.7-0.3,1.5-0.5,2.5-0.5
		c1.1,0,2.2,0.2,3.3,0.6c1.1,0.4,1.8,0.9,2.1,1.6c-0.1-0.5-0.2-1.1-0.2-2c0-1.8,0.5-3.4,1.4-4.7c-0.8-1.4-1.2-2.7-1.2-4.1
		c0-0.7,0.1-1.2,0.2-1.5c-0.1-0.6-0.3-1.3-0.7-2.3c-0.3-1-0.5-1.8-0.5-2.5c0-0.9,0.2-1.8,0.7-2.7c-0.6-1.1-0.8-2.3-0.8-3.4
		c0-1.2,0.3-2.4,1-3.6c-0.8-1.6-1.2-3.2-1.2-4.9c0-2.3,0.6-4.3,2-6.1c1.3-1.8,3.1-2.7,5.3-2.7c1.9,0,3.6,0.7,5,2.1
		c1.4,1.4,2.1,3,2.1,4.8c0,0.7-0.1,1.2-0.2,1.5c1.7,1.4,2.5,3.2,2.5,5.6c0,1.2-0.4,2.5-1.2,3.9c0.3,0.8,0.5,1.6,0.5,2.5
		c0,1.2-0.3,2.4-0.8,3.6c0.6,1.1,0.8,2.3,0.8,3.6c0,1.6-0.4,2.9-1.2,4.1c1.1,1.4,1.7,2.7,1.7,3.9c0,0.9-0.3,1.9-1,2.9
		c0.3,0.7,0.5,1.5,0.5,2.5c0,0.8-0.2,1.6-0.5,2.5c0.9,1.2,1.4,2.6,1.4,4.1c0,1.1-0.3,2.3-0.8,3.4c0.7,1.1,1,2.5,1,4.1
		c0,2.6-0.6,4.4-1.9,5.4c1.1,1.4,1.7,3.4,1.7,6.1c0,1.6-0.2,3.2-0.6,4.7c-0.4,1.6-0.8,2.7-1.1,3.4c1.1,1.7,1.7,3.8,1.7,6.4
		c0,1.2-0.3,2.4-0.8,3.6c1.2,1.2,1.9,3.1,1.9,5.6c0,2.7-0.6,4.9-1.7,6.6c1.1,1.5,1.7,3.6,1.7,6.3c0,1.8-0.3,3.4-0.8,4.8
		c-0.5,1.4-1.2,2.3-2,2.8c0.1,0.8,0.4,2,0.8,3.6c0.6,2.5,0.8,4.1,0.8,4.7c0,1.8-0.6,3.3-1.7,4.4c-1.4,1.4-2.9,2-4.8,2
		c-1.5,0-2.8-0.5-4-1.6c-1.2-1.1-1.9-2.5-2.1-4.3c-0.6-0.6-1-1.3-1.2-2.3c-0.2-1-0.3-1.6-0.3-1.8
		C298.7,289.3,297.9,290.1,296.4,290.8z M280.8,280.4c0.8,0,1.5,0.1,2,0.2c0.6,0.1,1,0.2,1.4,0.2c0.1-0.8,0.8-1.5,2.1-2.1
		c1.3-0.6,2.6-0.9,3.8-0.9c0.8,0,1.5,0.2,2,0.5c-0.1-1.1,0.1-2,0.7-2.7c0.6-0.7,1.3-1.3,2.3-2c1-0.6,1.7-1.1,2.1-1.4
		c-0.2-0.5-0.3-1.5-0.3-3.1c0-3.4,0.4-5.5,1.2-6.3c-0.8-0.8-1.2-2.4-1.2-4.8c0-2.7,0.4-5.1,1.2-7.1c-0.7-1.5-1-4-1-7.5
		c0-3.4,0.2-5.7,0.7-6.8c-1-2-1.5-4.4-1.5-7c0-2,0.2-3.5,0.7-4.4c-0.7,0.5-1.7,0.5-3,0.1c-1.3-0.4-2.3-1-3.1-1.8
		c-0.5,0.7-1.4,1-2.7,1c-0.9,0-1.8-0.1-2.7-0.4c-0.9-0.3-1.5-0.6-1.9-0.9c-1.8,0.8-3.6,1.2-5.3,1.2c-0.5,0-1.1-0.1-2-0.3
		c-1.5,1.6-2.6,2.7-3.4,3.4c-0.8,0.7-1.9,1.1-3.2,1.2c-0.3,0.8-0.7,1.7-1,2.8c-0.3,1.1-0.7,1.9-1.2,2.6c-0.5,0.7-1.2,1.2-2.4,1.7
		c-0.2,1.5-0.8,2.7-1.7,3.6c0.1,0.5,0.2,1.1,0.2,1.9c0,1.1-0.3,2.4-0.8,3.7c0.3,0.8,0.5,2.5,0.5,5.3c0,5.2-0.5,8.3-1.4,9.3
		c0.1,0.5,0.5,1.5,1.2,3.2s1,3.3,1,4.9c0,1.2-0.2,2.4-0.7,3.4c2.3,0.9,3.7,2.5,4.2,4.7c1.1,0.3,2.2,1.1,3.2,2.2c2.7-0.1,5,1.1,7,3.6
		C278.1,280.8,279.1,280.4,280.8,280.4z"/>
	<path class="st0" d="M381.2,270.9c0.2,4.5-1,7.4-3.6,8.5c-0.2,1.8-1,3.7-2.4,5.8s-2.8,3.4-4.4,4.1c0,0.5-0.1,1.4-0.3,2.8
		c-0.2,1.4-0.5,2.6-1,3.5c-0.5,0.9-1.3,1.8-2.3,2.7c0.6,4-1.3,7.9-5.6,11.9c-0.1,2.7-1,4.9-2.6,6.5c-1.6,1.6-3.6,2.6-5.9,3
		c-0.2,1.6-1.4,3.1-3.5,4.7c-2.1,1.5-4.1,2.3-6,2.3c-0.5,1.2-2.3,2.5-5.5,3.8c-3.2,1.3-5.3,1.6-6.4,0.9c-2.7,0.2-4.9-0.5-6.4-2
		c-1.6-1.6-2.4-3.5-2.4-5.6c0-1.6,0.5-2.9,1.4-4.1c0.9-1.1,2.2-1.7,3.9-1.7c0.6,0,1,0.1,1.4,0.2c3.2-2.4,5.7-3.6,7.6-3.6
		c0.7,0,1.2,0.1,1.5,0.2c0.2-1.4,1-2.6,2.4-3.8c1.4-1.2,2.9-2.1,4.8-2.8c0-1.1,0.5-2.3,1.4-3.6c0.9-1.2,2-2.3,3.2-3.1
		c-0.2-0.7-0.3-1.2-0.3-1.5c0-1.7,0.7-3.6,2.2-5.7c1.5-2.1,2.9-3.4,4.4-4c-2.6-1.4-3.9-3.4-3.9-6.3c-1.1-0.1-2.2-0.9-3.1-2.4
		c-1-1.5-1.4-3.1-1.4-4.8c0-1,0.3-2,0.8-2.9c-1.7-0.6-3-1.5-3.8-2.7c-0.8-1.2-1.3-2.7-1.3-4.4c0-1.2,0.2-2.5,0.7-3.7
		c-1.6-0.9-2.8-1.9-3.6-2.9s-1.2-2.2-1.1-3.6c-1.7-1.1-2.5-2.9-2.5-5.3c0-1.1,0.2-2.2,0.5-3.2c-2.8-3.1-4.2-6.3-4.2-9.8
		c0-1,0.1-1.8,0.2-2.4c-1.6-0.8-2.8-1.9-3.6-3.3c-0.8-1.4-1.2-3-1.2-4.8c0-1.7,0.3-3.3,1-4.8c-2.9-2-4.4-4.3-4.4-6.8
		c0-2.8,1.2-5.1,3.7-6.8c1-0.7,2.1-1,3.4-1c1.7,0,3.3,0.6,4.7,1.9c1.4,1.2,2.5,2.8,3.1,4.6c1,0.9,1.9,2.3,2.5,4.2
		c0.7,1.9,1,3.7,1,5.4c0,1-0.1,1.7-0.2,2c3.4,3.6,5.1,7.1,5.1,10.5c0,0.5-0.1,1.2-0.3,2.4c1.5,0.8,2.5,2,3.2,3.5s0.9,3.1,0.7,4.7
		c1.1,0.9,2,2,2.5,3.4c0.5,1.4,0.7,2.7,0.4,4.1c1,0,2,0.8,2.8,2.3c0.8,1.5,1.2,3.1,0.9,4.7c1.5,0.8,2.4,1.8,2.9,3.1
		c0.5,1.3,0.6,2.9,0.3,4.7c1.5,0.5,2.2,1.9,2.2,4.2c0.3-1.9,0.7-3.3,1.2-4.2c0.5-0.9,1.1-1.9,2-2.9c-0.2-1.1-0.3-1.9-0.3-2.2
		c0-1.2,0.2-2.2,0.7-3c0.5-0.7,1.1-1.2,1.9-1.3c-0.5-2.1,0.1-4.2,1.7-6.3c-0.3-0.7-0.5-1.4-0.5-2c0-0.8,0.4-1.7,1.1-2.6
		c0.7-1,1.2-1.6,1.4-1.9c-0.7-2-1-3.7-1-5.1c0-1.1,0.2-2.2,0.7-3.2c0.5-1,1.2-2.3,2.2-3.7c-0.7-1.4-1-3.4-1-6.1
		c0-3.6,0.7-6.9,2.2-9.8c-0.5-1.6-0.7-2.8-0.7-3.7c0-1.4,0.3-2.5,1-3.6c0-2.7,0.8-4.9,2.5-6.4c1.7-1.6,3.6-2.4,5.8-2.4
		c1.8,0,3.4,0.7,4.7,1.9c1.3,1.3,1.9,3.1,1.8,5.5c0.8,1.6,1.2,3.5,1.2,5.8c0,4.1-1,7.6-2.9,10.7c0.5,1.5,0.7,3.1,0.7,4.7
		c0,2.8-1,5.5-3.1,8.1c0.1,0.9,0.3,2,0.7,3.2c0.3,1.2,0.5,2.3,0.5,3.1c0,1.7-0.6,3.2-1.7,4.4c0.6,1.6-0.6,4.9-3.6,10
		c0.5,1.4,0.7,2.4,0.7,3.2c0,0.9-0.2,1.8-0.5,2.7C383.7,268.5,382.7,269.8,381.2,270.9z"/>
	<path class="st0" d="M466.1,281.6c0,2.3-0.9,3.8-2.7,4.6c0.2,1.7-0.5,3.4-2,5.1c-1.6,1.7-3.1,2.5-4.4,2.5c-0.6,1-2.3,2-5.1,2.9
		c-2.8,0.9-5.4,1.4-7.8,1.4c-1.7,0-3-0.3-3.9-1c-1.6,0.8-3.8,1.2-6.8,1.2c-2.6,0-4.9-0.4-7-1.2c-2.1-0.8-3.4-2-3.8-3.6
		c-2.3,0.3-4.8-0.3-7.6-2c-2.8-1.7-4.6-3.4-5.3-5.3c-2-0.6-3.7-1.6-5-3.2c-1.3-1.6-2-3.4-2.1-5.6c-0.7-1-1-2-1-3.1
		c0-1.6,0.5-3,1.6-4.2c1.1-1.2,2.3-1.9,3.8-1.9c1.5,0,2.9,0.9,4.2,2.7c2-0.2,3.9,0.5,5.5,2c1.6,1.6,2.5,3.2,2.5,4.7
		c0.3,0,1.2,0.1,2.6,0.3c1.4,0.2,2.7,0.6,3.8,1.3c1.1,0.7,1.9,1.6,2.4,2.9c2,0,4,0.3,6,0.8c2,0.5,3.1,1.1,3.5,1.8
		c0.9-0.6,2.2-1,4-1.4c1.8-0.4,3.3-0.6,4.5-0.6c0.3-0.5,1.2-0.9,2.5-1.4c1.4-0.5,2.5-0.7,3.4-0.9c-0.6-0.8-0.8-2-0.8-3.6
		c0-2.4,0.7-4.1,2.2-5.1c-1.4-0.5-2.4-1.2-3.2-2.1c-0.8-1-1.1-2.1-1-3.3c-0.9,0.2-1.6,0.3-2,0.3c-2.1,0-3.9-0.8-5.3-2.5
		c-2.3,0.2-4.5-0.3-6.7-1.5c-2.2-1.2-3.8-2.9-4.8-4.9c-0.8,0.3-1.6,0.5-2.5,0.5c-1.9,0-3.9-0.6-6-1.8c-2.1-1.2-3.4-2.3-4-3.5
		c-1.6,0.5-3.5-0.1-5.6-1.5c-2.1-1.5-3.2-3.1-3.2-4.9c-1.4-0.7-2.4-1.8-3.2-3.5c-0.8-1.6-1.2-3.1-1.2-4.5c0-1,0.2-1.7,0.7-2
		c-0.6-1.1-0.8-2.3-0.8-3.4c0-2,0.7-3.8,2-5.3c-0.3-1.2-0.5-2.4-0.5-3.4c0-1.9,0.4-3.5,1.3-4.8c0.8-1.3,1.9-1.8,3.1-1.6
		c-0.2-1.8,0.2-3.4,1.3-4.7c1.1-1.4,2.4-2.3,4.1-3c1.6-0.6,3.1-0.8,4.3-0.6c0.7-1,1.6-1.8,2.7-2.4c1.1-0.6,2.3-0.8,3.4-0.8
		c1.9,0,3.3,0.6,4.1,1.7c0.1-0.6,0.5-1,1.3-1.4c0.7-0.3,1.6-0.5,2.6-0.5c0.9,0,1.8,0.2,2.7,0.5c0.9,0.3,1.6,0.7,2,1.2
		c0.7-0.7,1.9-1,3.6-1c1.4,0,2.7,0.3,4.1,0.8c1.4,0.5,2.3,1.2,2.7,2.1c0.7-0.3,1.4-0.5,2.2-0.5c1.4,0,2.6,0.5,3.8,1.4
		c1.2,1,2,2.2,2.5,3.6c1.7-0.2,3.4,0.3,5.3,1.7c1.8,1.4,2.5,2.7,2,4.1c3.1,1.7,4.6,4,4.6,7c0,1.8-0.6,3.4-1.9,4.7
		c-1.2,1.4-2.8,2-4.7,2c-1.7-0.1-3.1-0.6-4.2-1.4c-1.1-0.8-1.8-1.8-2-2.9c-1.5-0.2-2.9-0.8-4.2-1.8c-1.3-1-2-2.2-2.1-3.8
		c-2.1,0.2-3.8,0-4.8-0.7c-1.1-0.7-2-1.8-2.8-3.2c-0.8,0.6-1.8,0.8-3.1,0.8c-1.2,0-2.6-0.3-4.1-1c-0.8,0.7-1.8,1.2-3,1.7
		c-1.2,0.5-2.3,0.7-3.5,0.7c-1.2,0-2.3-0.3-3.2-0.8c0.2,1.4-0.1,2.4-1,3.2c-0.9,0.8-2.1,1.1-3.7,0.8c0.3,0.8,0.5,1.6,0.5,2.5
		c0,2-0.9,3.7-2.7,5.1c1.2,0.6,2.1,1.5,2.7,2.8c0.6,1.3,0.8,2.6,0.7,3.8l1.4-0.2c3.4,0,5.5,1.1,6.4,3.2l1.4-0.2
		c1.8,0,3.5,0.5,5.2,1.4c1.6,0.9,2.9,2.4,3.6,4.6c1.8-0.1,3.6,0.1,5.3,0.6c1.7,0.5,2.9,1.4,3.6,2.8c0.9-0.3,1.8-0.5,2.5-0.5
		c1.9,0,3.6,0.6,5.2,1.7c1.5,1.1,2.3,2.4,2.5,3.9c1,0,2,0.6,2.8,1.7c0.8,1.1,1.2,2.4,0.9,3.9c0.8-0.1,1.5,0.3,2.2,1.3s1,2.1,1,3.3
		c0,0.7-0.2,1.3-0.5,1.9c1.6,1.1,2.4,2.7,2.4,4.6c0,1-0.2,1.9-0.6,2.7c-0.4,0.8-1,1.4-1.8,1.7C465.9,279.4,466.1,280.5,466.1,281.6z
		"/>
	<path class="st0" d="M614.4,282c0,0.8-0.3,1.5-0.8,2c0.6,1,0.8,2,0.8,3.1c0,0.9-0.2,1.8-0.7,2.7c0.2,1.4,0.3,2.2,0.3,2.5
		c0,1.6-0.9,3.1-2.7,4.4c-1.4,1-2.9,1.5-4.6,1.5c-2.1,0-4.1-0.7-5.8-2.2c-1.6-0.2-2.9-1.1-4-2.6c-1.1-1.5-1.4-3.3-1.1-5.2
		c-0.6-0.5-1.2-0.9-2-1.4c-0.8-0.5-1.4-1.1-2-1.7c-0.5-0.6-0.9-1.4-1.1-2.3c-1.4-0.5-2.4-1.3-3.2-2.5c-0.8-1.2-1.2-2.5-1.2-4
		c0-0.6,0.1-1,0.2-1.4c-1.5-0.2-2.7-0.9-3.6-2.1c-1-1.2-1.5-2.5-1.6-4c-2.3-1.1-3.9-2.1-4.9-2.9c-1-0.8-1.6-2-1.9-3.7
		c-1.1-0.6-2.3-1.7-3.4-3.4c-1.1-1.7-1.8-3.2-2-4.6c-2-1-3.2-2.7-3.6-5.1c-1-0.5-2.2-1.6-3.4-3.3c-1.2-1.8-1.9-3.3-2-4.7
		c-1.6-0.6-3.1-1.9-4.6-4c-1.5-2.1-2.3-4.2-2.5-6.4c-0.9-0.5-2-1.6-3.2-3.5c-1.2-1.9-2-3.4-2.4-4.7c-0.9-0.9-1.9-2.4-3.1-4.5
		c-1.1-2.1-1.9-3.9-2.2-5.5c-0.9-0.7-1.9-1.9-2.9-3.7c-1-1.8-1.7-3.4-2-4.7c0.2,0.7,0.3,1.6,0.3,2.9c0,1.5-0.2,2.4-0.5,2.7
		c0.7,2.7,1,5,1,6.8c0,0.7-0.1,1.5-0.3,2.4c0.5,1,0.7,2.5,0.7,4.6c0,1.8-0.2,3.2-0.5,4.2c0.7,0.8,1,2.1,1,4.1c0,1.7-0.3,3.1-0.8,4.2
		c0.7,1.1,1,2.3,1,3.4c0,1.2-0.3,2.5-0.9,3.9c-0.6,1.4-1,2.2-1.1,2.5c1,1.5,1.5,4,1.5,7.5c0,2-0.3,3.8-0.8,5.3
		c0.9,1.5,1.4,2.9,1.4,4.4c0,1.6-0.6,3.8-1.9,6.8c1.1,1.1,1.7,2.7,1.7,4.7c0,2.3-0.6,4.5-1.9,6.8c0.1,1,0.3,2.4,0.6,4.2
		c0.3,1.8,0.4,3.3,0.4,4.4c0,4.9-2.3,7.3-6.8,7.3c-1.8,0-3.3-0.6-4.5-1.9c-1.2-1.2-1.9-2.8-2.1-4.6c-0.7-1.6-1-3.3-1-5.1
		c0-1.8,0.3-3.4,0.8-4.9c-0.6-2-0.8-4-0.8-5.8c0-1.5,0.2-2.7,0.5-3.7c-0.3-1.2-0.5-2.3-0.5-3.2c0-1.7,0.3-3.4,1-5.1
		c-0.9-1.5-1.4-3.3-1.4-5.6c0-2.5,0.6-4.4,1.7-5.8c-0.9-2.1-1.4-4.2-1.4-6.1c0-2.3,0.5-4.3,1.5-6.1c-0.5-1.1-0.7-2-0.7-2.7
		c0-0.3,0.1-1,0.3-1.9c-1.5-1.5-2.2-3.8-2.2-7.1c0-1.7,0.2-3.3,0.6-4.9c0.4-1.6,0.9-2.7,1.4-3.4c-1.2-2.3-1.9-5.1-1.9-8.7
		c0-2.3,0.3-4.1,1-5.4c-0.7-1.2-1-2.8-1-4.7c0-2.4,0.5-4.3,1.4-5.8c-0.3-0.9-0.5-2.2-0.5-3.9c0-1.6,0.2-2.7,0.5-3.2
		c0-2.8,0.9-5,2.7-6.6c1.8-1.6,4-2.4,6.4-2.4c2.5,0,4.6,0.8,6.4,2.5c1.8,1.7,2.5,4,2.3,6.8c2.6,0.3,5,1.9,7.3,4.8
		c2.3,2.8,3.3,5.9,3.2,9.2c1.5,1,2.9,2.5,4.3,4.6c1.4,2,2.2,3.9,2.3,5.6c1.5,1.1,3.1,3.2,4.8,6.1c1.7,2.9,2.6,5.5,2.7,7.8
		c1.4,0.1,2.8,1.4,4.3,3.9c1.5,2.5,2.4,4.6,2.6,6.3c1.1,0.5,2.3,1.6,3.4,3.4c1.1,1.8,1.7,3.4,1.7,4.7c0.9,0.2,1.7,1.1,2.5,2.7
		c0.7,1.6,1,2.8,0.8,3.7c2.8,1.1,4.5,3.1,5.1,5.9c1.2-0.1,2.6,0.6,4.1,2.2c1.5,1.6,2.4,3.2,2.7,4.7c1.1,0.5,2.3,1.4,3.6,3
		c1.3,1.5,2.1,3,2.5,4.3c-0.3-1.7-0.5-2.9-0.5-3.7c0-0.8,0.3-1.5,0.8-2c-1.1-1.2-1.7-3.1-1.7-5.4c0-1.2,0.2-2.3,0.5-3.1
		c-0.8-1.4-1.2-2.6-1.2-3.7c0-1,0.3-2.1,0.9-3.2c-1.1-1-1.7-2.8-1.7-5.3c0-1.1,0.2-2,0.5-2.7c-0.9-1.8-1.4-3.8-1.4-6.1
		c0-0.7,0.1-1.7,0.3-3.1c-1.2-1.5-1.9-3.8-1.9-7.1c0-2.7,0.5-4.7,1.4-5.9c-0.6-0.8-1-1.9-1.4-3.3c-0.4-1.4-0.6-2.7-0.6-4
		c0-2.1,0.5-3.8,1.4-4.9c-1-1-1.5-2.4-1.5-4.2c0-1.2,0.3-2.8,0.8-4.8c-1.1-1.7-1.7-3.7-1.7-6.1c0-1.8,0.3-3.2,1-4.2
		c-0.6-1.5-0.8-2.8-0.8-3.9c0-2.3,1.1-3.8,3.4-4.7c1.2-0.5,2.4-0.7,3.4-0.7c1.9,0,3.3,0.7,4.2,2.2c0.8,1.5,1.3,3.2,1.3,5.3
		c0,1.1-0.1,1.9-0.2,2.4c0.9,0.7,1.6,1.9,2.2,3.7c0.6,1.8,0.8,3.7,0.8,5.6c0,1.7-0.2,2.9-0.7,3.7c0.8,1.8,1.2,4.2,1.2,7.1
		c0,2.5-0.3,4.2-0.8,5.3c0.7,1.4,1,3.3,1,5.9c0,2-0.2,3.5-0.7,4.4c0.6,0.9,1,2.1,1.4,3.6c0.4,1.5,0.6,3,0.6,4.3
		c0,1.9-0.4,3.3-1.2,4.1c0.8,0.7,1.4,1.8,1.9,3.4c0.5,1.6,0.7,3.2,0.7,4.9c0,1.5-0.2,2.7-0.5,3.7c0.9,1.5,1.4,3.2,1.4,5.3
		c0,1.7-0.3,2.9-0.8,3.6c0.3,0.7,0.6,1.8,0.8,3.4c0.2,1.6,0.2,2.7,0,3.4c1.1,0.8,1.7,2.4,1.7,4.9c0,1.9-0.4,3.5-1.2,4.6
		c0.6,1.5,0.8,2.7,0.8,3.6c0,0.3-0.1,1.1-0.3,2.2C614,280.1,614.4,281,614.4,282z"/>
	<path class="st0" d="M643.6,181.5c1.2,1.2,1.7,2.8,1.6,4.6c0.2,0.5,0.6,1.1,1.2,2c0.6,0.8,0.9,1.6,1.1,2.4c0.2,0.7,0.2,1.5,0.1,2.3
		c0.2,0.9,0.3,1.5,0.3,1.9c0,1.2-0.3,2.4-1,3.4c0.3,0.8,0.5,1.6,0.5,2.5c0,1.6-0.4,2.8-1.2,3.7c0.3,0.9,0.4,1.9,0.2,2.9
		c0.3,0.7,0.5,1.5,0.5,2.4c0,1.6-0.5,2.9-1.5,3.9c-0.2,1.5-0.9,2.7-2.1,3.6c-1.2,0.9-2.5,1.4-4,1.4c-1.8,0-3.3-0.6-4.4-1.9
		c-1.1-1.2-1.7-2.7-1.7-4.2c0-1.4,0.5-2.7,1.4-3.9c-0.7-2-1-3.7-1-4.9c0-1.1,0.2-2.1,0.7-2.9c-0.5-0.9-0.7-1.9-0.7-3.1
		c0-1.7,0.6-3.2,1.9-4.4c-1.2-1.2-1.9-2.8-1.9-4.6c-0.3-0.9-0.5-1.8-0.5-2.5c0-1.7,0.6-3.2,1.8-4.4c1.2-1.2,2.6-1.9,4.3-1.9
		C640.9,179.7,642.4,180.3,643.6,181.5z"/>
	<path class="st0" d="M781.8,279.9c0.9,1,1.6,2.2,2.1,3.4c0.5,1.2,0.6,2.1,0.4,2.7c1.4,1.4,2,3.1,2,5.1c0,1.7-0.5,3.2-1.6,4.5
		c-1.1,1.3-2.5,2.1-4.2,2.3c-2,0.1-4.1-0.7-6.3-2.5c-2.1-1.8-3.3-3.7-3.6-5.8c-1.4-0.8-2.8-2.5-4.3-5.3s-2.3-4.9-2.3-6.6
		c-1.4-1-2.7-2.7-3.9-5.2c-1.2-2.4-1.6-4.3-1.2-5.7c-1.6-1.2-2.8-2.9-3.6-4.8c-0.8-2-1.3-4-1.3-6c-1.7-0.2-3.1-1.4-4.2-3.4
		c-1.1-2-1.6-4-1.6-5.9c-1-0.6-1.9-1.4-2.5-2.5c-0.7-1.1-1-2.3-1-3.4c0-0.7,0.2-1.4,0.7-2c-1.1,0.7-2.3,1-3.6,1s-2.6-0.3-4.1-0.8
		c-1.6,0.5-3.3,0.7-5.1,0.7c-1.6,0-2.7-0.3-3.2-0.8c-1.7,0-3-0.5-3.8-1.5c-0.9-1-1.3-2.3-1.3-3.9c0-1.5,0.4-2.8,1.1-4.1
		c0.7-1.2,1.6-1.8,2.5-1.7c0.2-0.2,0.8-0.5,1.7-0.7c0.9-0.2,1.9-0.3,2.9-0.3c1.8,0,3.1,0.2,3.9,0.7c1.8-0.3,3.4-0.5,4.9-0.5
		c1.6,0,2.5,0.2,2.9,0.7c1.2-1,2.5-1.5,3.7-1.5c0.9,0,1.6,0.1,2.2,0.3c0.7-0.9,2-1.8,4-2.6c2-0.8,3.6-1.1,4.8-0.8
		c0.5-1,1.2-1.7,2.4-1.9c1.1-0.3,2.2-0.3,3.2-0.1c0-1,0.3-2,1-3.1c0.7-1,1.5-1.6,2.4-1.7c-0.5-1.6-0.7-3.1-0.7-4.4
		c0-1.6,0.2-2.8,0.7-3.7c-0.7-0.6-1.2-1.3-1.4-2.3c-0.3-1-0.3-1.9-0.1-3c-1.5-1.2-2.4-2.4-2.9-3.6c-1.4-0.1-2.5-0.8-3.6-2
		c-1.5,0.2-2.7,0.1-3.6-0.5c-0.9-0.6-1.8-1.2-2.5-2c-0.8-0.8-1.4-1.4-1.9-1.9c-1.8,1.2-3.9,1.9-6.3,1.9c-2.5,0-4.4-0.7-5.8-2.2
		c-0.9,0.9-2.4,1.4-4.6,1.4c-2,0-3.7-0.5-4.9-1.4c-0.9,0.9-2.3,1.4-4.2,1.4c-1.9,0-3.5-0.3-4.6-1c0.6,1.7,0.8,3.7,0.8,5.9
		c0,1.9-0.3,3.6-0.8,4.9c0.9,2,1.4,4.1,1.4,6.3c0,2.2-0.5,3.7-1.4,4.8c0.7,1.4,1,2.8,1,4.2c0,1.6-0.5,2.9-1.4,3.9
		c1.1,1,1.7,2.8,1.7,5.3c0,2.1-0.3,3.7-0.8,4.7c0.6,0.8,1,2.1,1.4,3.9s0.5,3.6,0.5,5.4c0,1.6-0.2,2.8-0.5,3.7
		c0.2,0.5,0.5,1.3,0.7,2.5c0.2,1.2,0.3,2.4,0.3,3.6c0,2.5-0.3,4.2-1,5.1c1.1,2,1.7,4.1,1.7,6.1c0,1.6-0.5,3.1-1.4,4.6
		c1.4,2.4,2,5.2,2,8.5c0,2.8-0.6,4.9-1.7,6.1c0.8,2.1,1.2,4.4,1.2,6.8c0,2.7-0.7,5-2,6.7c-1.4,1.8-3.6,2.6-6.6,2.6
		c-1.8,0-3.3-1-4.3-2.9c-1.1-1.9-1.6-4.1-1.6-6.6c0-2.1,0.3-3.8,0.8-5.1c-0.9-2.1-1.4-4.5-1.4-7.1c0-2.3,0.3-4.1,1-5.4
		c-0.9-3.2-1.4-5.9-1.4-8.3s0.5-4.2,1.4-5.4c-0.9-0.5-1.6-1.2-2.1-2.3c-0.5-1.1-0.8-2.2-0.8-3.5c0-2.3,0.6-4,1.9-5.3
		c-0.5-0.3-0.8-0.9-1.1-1.8c-0.3-0.8-0.4-1.7-0.4-2.6c0-2.3,0.4-3.4,1.2-3.6c-0.3-0.3-0.6-1.2-0.8-2.5c-0.2-1.4-0.3-2.8-0.3-4.2
		c0-2,0.2-3.6,0.5-4.7c-1-1.4-1.5-3.2-1.5-5.4c0-1.8,0.3-3.3,1-4.4c-0.7-1-1-2.4-1-4.1c0-1.7,0.5-3.2,1.5-4.6c-0.7-1.9-1-3.6-1-4.9
		c0-1.6,0.5-2.9,1.5-3.9c-0.7-0.7-1.1-1.6-1.2-2.8c-0.1-1.2-0.2-2.6-0.2-4.2c-1.7-0.3-3-1.1-3.9-2.4c-0.9-1.2-1.4-2.7-1.4-4.2
		c0-1.9,0.6-3.6,2-5c1.3-1.4,3-2.1,5.2-1.9c-0.1-0.6,0.5-1.1,1.9-1.5c1.4-0.5,2.9-0.7,4.5-0.7c2.5,0,4.1,0.6,4.9,1.9
		c0.7-0.2,1.6-0.3,2.7-0.3c1.6,0,2.7,0.2,3.2,0.7c1.4-0.8,3.1-1.2,5.1-1.2c2.4,0,4.1,0.5,5.1,1.5c2.3-0.7,4.1-1,5.6-1
		c2.1,0,3.8,0.6,4.9,1.7c1.6-0.6,3.6-0.8,5.9-0.8c1.8,0,3.4,0.3,4.8,0.8s2.3,1.3,2.7,2.3c0.3-0.1,0.8-0.2,1.5-0.2
		c1.5,0,2.8,0.5,4,1.6s2,2.4,2.5,4c2.1,0.3,3.7,1.5,4.6,3.4c2,0.2,3.5,1.1,4.3,2.6c0.8,1.5,1.3,3.3,1.3,5.3c1.2,2.5,1.9,4.8,1.9,7
		c0,1.7-0.4,3.1-1.2,4.2c0.5,1.4,0.7,2.7,0.7,4.1c0,2-0.7,3.8-2,5.4c0,1.8-0.5,3.6-1.5,5.3c-1,1.8-2.4,2.9-4.1,3.3
		c-0.5,1.5-1.2,2.7-2.4,3.6c-1.1,0.9-2.5,1.4-4.1,1.4c-0.6,0.9-1.4,1.6-2.4,2c-1,0.4-2.2,0.7-3.5,0.9c-1.3,0.2-2.3,0.5-3.1,0.7
		c0.7,0.1,1.2,0.7,1.7,1.8c0.5,1.1,0.5,1.8,0.2,2.1c0.9,0.2,1.8,1.2,2.7,3c0.9,1.8,1.2,3.3,0.8,4.5c1.7,0.5,3,1.5,4,3.2
		c1,1.7,1.4,3.7,1.4,5.9c1.4,1.4,2.5,3.1,3.4,5.1c0.9,2,1.3,4,1.2,5.8c1.8,0.9,3.2,2.3,4.1,4.1c0.9,1.8,1.2,3.8,1,5.9
		C779.9,278.4,780.9,278.9,781.8,279.9z"/>
	<path class="st0" d="M840.3,298.3c-2.1,0-3.9-0.3-5.3-1c-2,0.5-3.8,0.7-5.4,0.7c-4.4,0-7.6-1.1-9.5-3.4c-0.5,0.1-1.1,0.2-1.9,0.2
		c-2.6,0-4.6-1.2-5.9-3.6c-1.1,0.1-2.6-0.5-4.3-1.8c-1.8-1.3-2.5-2.6-2.3-3.8c-1.8-0.5-3.3-1.6-4.5-3.3c-1.2-1.8-1.7-3.8-1.6-6
		c-1.2-0.5-2.2-1.4-2.9-2.7c-0.7-1.4-1-2.9-1-4.6c0-1.8,0.3-3.1,0.8-3.9c-1.2-1.9-1.9-4.1-1.9-6.6c0-2.6,0.8-4.7,2.4-6.3
		c-1.2-0.9-1.9-2.3-1.9-4.1c0-1.1,0.3-2.3,0.8-3.4c0.6-1.1,1.3-1.9,2.2-2.4c-0.2-1.6,0-3.1,0.6-4.5c0.6-1.4,1.5-2.5,2.6-3.1
		c-0.2-0.3-0.3-0.8-0.3-1.5c0-1,0.4-2,1.1-3.1c0.7-1,1.6-1.6,2.5-1.9c-0.1-0.3-0.2-0.8-0.2-1.4c0-2.4,0.9-4.4,2.7-6.2
		c1.8-1.8,3.6-2.5,5.3-2.3c0-1.6,0.7-2.9,2.1-4c1.4-1.1,3.3-1.6,5.5-1.6c1,0,1.8,0.1,2.4,0.2c0.8-1.7,2.1-3.1,4.1-4.2
		c1.9-1.1,3.9-1.6,5.9-1.6c1.4,0,2.5,0.3,3.4,0.8c1.6-1.4,3.6-2,5.9-2c1.9,0,3.6,0.5,5.2,1.4c1.5,0.9,2.5,2.2,2.8,3.7
		c1.8,0,3.7,0.7,5.8,2c2,1.3,3.2,2.6,3.6,4c2.7,0.8,5.3,2.5,7.9,5.2c2.5,2.7,3.8,5.3,3.8,8.1c0,0.5-0.1,1.1-0.3,2
		c4.9,1,7.1,5.9,6.6,14.8c1,1.7,1.5,3.5,1.5,5.4c0,2.3-0.7,4.5-2.2,6.8c0.3,1,0.5,2,0.5,2.9c0,1.4-0.3,2.7-0.8,3.9
		c-0.6,1.2-1.3,2.2-2.2,2.9c0.1,1.8-0.2,3.3-0.9,4.4c-0.7,1.1-2.1,2.7-4,4.6c0.1,0.5,0.2,1.1,0.2,2c0,3.4-1.9,5.6-5.8,6.6
		c-0.3,1.8-1.3,3.3-2.8,4.4c-1.5,1.1-3.4,1.7-5.5,1.7c-1.8,2.5-4,3.7-6.6,3.7c-0.8,0-1.4-0.1-1.9-0.2
		C845.3,297.6,843.2,298.3,840.3,298.3z M835.3,283.2c1.6,0,2.4,0.2,2.5,0.7c0.9-1,2-1.8,3.4-2.4c1.4-0.6,2.6-0.8,3.7-0.7
		c1.9-1.9,4-2.9,6.3-2.9c0.8,0,1.4,0.1,1.7,0.2c-0.1-1,0.2-2,0.8-3c0.7-1,1.5-1.6,2.4-1.9c0-1.5,0.4-2.7,1.1-3.8
		c0.7-1.1,1.7-1.9,2.8-2.5c0-2.3,0.5-4.1,1.4-5.4c-0.3-0.9-0.5-1.8-0.5-2.7c0-1.2,0.3-2.5,0.8-3.6c0.6-1.2,1.4-2.2,2.4-3
		c-1.1-1-1.7-2.3-1.7-3.7c0-1.4,0.4-2.7,1.2-4.1c-2.3-1.4-3.8-2.7-4.5-4c-0.7-1.3-1.1-3.7-1.1-7.2c-1,0.1-2.1-0.5-3.1-1.7
		c-1.1-1.2-1.7-2.7-1.9-4.2c-1.2,0.3-2.7,0-4.5-1.1c-1.8-1.1-2.6-2.5-2.6-4.2c-0.9,0.5-2,0.7-3.2,0.7c-2.4,0-4.3-0.8-5.8-2.5
		c-1.2,1.2-2.9,2.2-4.8,3c-2,0.7-3.7,1-5.2,0.8c-0.1,1.1-1.1,2.5-3,4c-1.9,1.5-3.5,2.5-5,3c0.3,0.7,0.5,1.5,0.5,2.4
		c0,1.1-0.3,2.3-0.8,3.4c-0.6,1.1-1.4,2.1-2.4,2.9c0.1,1.6-0.3,3.1-1.1,4.6c-0.8,1.5-2,2.5-3.5,3.1c0.2,0.9,0.3,1.6,0.3,2.2
		c0,1.6-0.4,2.8-1.2,3.7c0.3,0.8,0.5,1.6,0.5,2.4c0,1.2-0.6,2.6-1.9,4.1c2.8,1.9,4.2,4.7,4.2,8.3c0,1.9-0.3,3.6-1,4.9
		c1.1,0.1,1.9,0.5,2.4,1c0.5,0.6,0.8,1.5,1.2,2.7c2.8,0.3,4.9,1.7,6.3,4.1c1.2,0,2.8,0.4,4.7,1.2c1.9,0.8,3.1,1.7,3.6,2.7
		C831.6,283.6,833.1,283.2,835.3,283.2z"/>
	<path class="st0" d="M953.2,281.6c0,2.3-0.9,3.8-2.7,4.6c0.2,1.7-0.5,3.4-2,5.1c-1.6,1.7-3.1,2.5-4.4,2.5c-0.6,1-2.3,2-5.1,2.9
		c-2.8,0.9-5.4,1.4-7.8,1.4c-1.7,0-3-0.3-3.9-1c-1.6,0.8-3.8,1.2-6.8,1.2c-2.6,0-4.9-0.4-7-1.2c-2.1-0.8-3.4-2-3.8-3.6
		c-2.3,0.3-4.8-0.3-7.6-2c-2.8-1.7-4.6-3.4-5.3-5.3c-2-0.6-3.7-1.6-5-3.2c-1.3-1.6-2-3.4-2.1-5.6c-0.7-1-1-2-1-3.1
		c0-1.6,0.5-3,1.6-4.2c1.1-1.2,2.3-1.9,3.8-1.9s2.9,0.9,4.2,2.7c2-0.2,3.9,0.5,5.5,2c1.6,1.6,2.5,3.2,2.5,4.7c0.3,0,1.2,0.1,2.6,0.3
		c1.4,0.2,2.7,0.6,3.8,1.3c1.1,0.7,1.9,1.6,2.4,2.9c2,0,4,0.3,6,0.8c2,0.5,3.1,1.1,3.5,1.8c0.9-0.6,2.2-1,4-1.4
		c1.8-0.4,3.3-0.6,4.5-0.6c0.3-0.5,1.2-0.9,2.5-1.4c1.4-0.5,2.5-0.7,3.4-0.9c-0.6-0.8-0.8-2-0.8-3.6c0-2.4,0.7-4.1,2.2-5.1
		c-1.4-0.5-2.4-1.2-3.2-2.1c-0.8-1-1.1-2.1-1-3.3c-0.9,0.2-1.6,0.3-2,0.3c-2.2,0-3.9-0.8-5.3-2.5c-2.3,0.2-4.5-0.3-6.7-1.5
		c-2.2-1.2-3.8-2.9-4.8-4.9c-0.8,0.3-1.6,0.5-2.5,0.5c-1.9,0-3.9-0.6-6-1.8c-2.1-1.2-3.4-2.3-4-3.5c-1.6,0.5-3.5-0.1-5.6-1.5
		c-2.2-1.5-3.2-3.1-3.2-4.9c-1.4-0.7-2.4-1.8-3.2-3.5c-0.8-1.6-1.2-3.1-1.2-4.5c0-1,0.2-1.7,0.7-2c-0.6-1.1-0.8-2.3-0.8-3.4
		c0-2,0.7-3.8,2-5.3c-0.3-1.2-0.5-2.4-0.5-3.4c0-1.9,0.4-3.5,1.3-4.8s1.9-1.8,3.1-1.6c-0.2-1.8,0.2-3.4,1.3-4.7
		c1.1-1.4,2.4-2.3,4.1-3c1.6-0.6,3.1-0.8,4.3-0.6c0.7-1,1.6-1.8,2.7-2.4c1.1-0.6,2.3-0.8,3.4-0.8c1.9,0,3.3,0.6,4.1,1.7
		c0.1-0.6,0.5-1,1.3-1.4c0.7-0.3,1.6-0.5,2.6-0.5c0.9,0,1.8,0.2,2.7,0.5c0.9,0.3,1.6,0.7,2,1.2c0.7-0.7,1.9-1,3.6-1
		c1.4,0,2.7,0.3,4.1,0.8c1.4,0.5,2.3,1.2,2.7,2.1c0.7-0.3,1.4-0.5,2.2-0.5c1.4,0,2.6,0.5,3.8,1.4c1.2,1,2,2.2,2.5,3.6
		c1.7-0.2,3.4,0.3,5.3,1.7c1.8,1.4,2.5,2.7,2,4.1c3.1,1.7,4.6,4,4.6,7c0,1.8-0.6,3.4-1.9,4.7c-1.2,1.4-2.8,2-4.7,2
		c-1.7-0.1-3.1-0.6-4.2-1.4c-1.1-0.8-1.8-1.8-2-2.9c-1.5-0.2-2.9-0.8-4.2-1.8c-1.3-1-2-2.2-2.1-3.8c-2.2,0.2-3.8,0-4.8-0.7
		c-1.1-0.7-2-1.8-2.8-3.2c-0.8,0.6-1.8,0.8-3.1,0.8c-1.2,0-2.6-0.3-4.1-1c-0.8,0.7-1.8,1.2-3,1.7c-1.2,0.5-2.3,0.7-3.5,0.7
		c-1.2,0-2.3-0.3-3.2-0.8c0.2,1.4-0.1,2.4-1,3.2c-0.9,0.8-2.2,1.1-3.7,0.8c0.3,0.8,0.5,1.6,0.5,2.5c0,2-0.9,3.7-2.7,5.1
		c1.2,0.6,2.1,1.5,2.7,2.8c0.6,1.3,0.8,2.6,0.7,3.8l1.4-0.2c3.4,0,5.5,1.1,6.4,3.2l1.4-0.2c1.8,0,3.5,0.5,5.2,1.4
		c1.6,0.9,2.9,2.4,3.6,4.6c1.8-0.1,3.6,0.1,5.3,0.6c1.7,0.5,2.9,1.4,3.6,2.8c0.9-0.3,1.8-0.5,2.5-0.5c1.9,0,3.6,0.6,5.2,1.7
		c1.5,1.1,2.3,2.4,2.5,3.9c1,0,1.9,0.6,2.8,1.7c0.9,1.1,1.2,2.4,0.9,3.9c0.8-0.1,1.5,0.3,2.2,1.3s1,2.1,1,3.3c0,0.7-0.2,1.3-0.5,1.9
		c1.6,1.1,2.4,2.7,2.4,4.6c0,1-0.2,1.9-0.6,2.7c-0.4,0.8-1,1.4-1.8,1.7C953,279.4,953.2,280.5,953.2,281.6z"/>
	<path class="st0" d="M1042.3,236c1.1,2.1,1.6,4.4,1.6,6.6c0,3.8-1.7,6.4-5.1,7.8c-0.9,1.6-2.1,2.8-3.6,3.7c-1.5,0.9-3.2,1.4-5,1.4
		c-1.5,0-3-0.3-4.6-1c-0.9,0.6-2.2,1.1-3.7,1.5c-1.6,0.5-3.2,0.7-4.7,0.7c-2.7,0-4.6-0.6-5.6-1.7c-1.1,0.9-2.9,1.4-5.4,1.4
		c-1.8,0-3.5-0.3-4.9-1c-1.6,0.8-3.4,1.2-5.4,1.2c-1.9,0-3.5-0.3-4.7-0.8c-1.1,1-3.5,1.5-7,1.5c-1.9,0-3.2-0.2-3.9-0.5
		c0.3,3.3-0.1,5.7-1.4,7.3c2.1,2.2,3,4.5,2.5,7c0.1,0.1,0.7,0.6,1.9,1.4c1.1,0.8,1.9,2.1,2.4,3.9c1.2,0,2.4,0.5,3.5,1.5
		c1.1,1,1.7,2,2,3.1c0.5-0.5,1.4-0.7,2.7-0.7c1,0,1.9,0.2,2.7,0.5c0.8,0.3,1.2,0.7,1.4,1.2c0.8-0.5,1.7-0.7,2.7-0.7
		c1.5,0,2.8,0.5,4.1,1.5c1.1-0.2,2-0.3,2.5-0.3c1.1,0,2.1,0.2,2.9,0.5c0.3-0.9,1.2-1.8,2.7-2.6c1.5-0.8,3-1.2,4.6-1.1
		c0.9-1.1,2.1-2,3.7-2.7c1.6-0.7,3.2-1,4.8-1c3.1,0,5.3,1.2,6.6,3.7c0.5,0.9,0.7,2,0.7,3.2c0,2.7-1.2,4.9-3.7,6.4
		c-0.6,0.3-1.5,0.9-2.9,1.8c-1.4,0.8-2.6,1.5-3.7,1.9c-1.1,0.5-2.2,0.7-3.1,0.7c-1.7,2-4,3.1-7,3.1c-1.4,0-2.4-0.1-3.1-0.3
		c-1.4,1.1-3.3,1.7-5.9,1.7c-2.4,0-4-0.5-4.9-1.4c-0.8,0.3-1.6,0.5-2.4,0.5c-1.6,0-3.1-0.6-4.4-1.7c-5.8,0.3-9.7-1.5-11.7-5.4
		c-1.6,0-3.4-1-5.3-3c-2-2-3.1-3.7-3.3-5.2c-2.6-1-4.2-2.9-4.9-5.6c-0.1-0.9-0.1-1.8,0-2.5c-0.5-0.1-0.8-0.6-1.1-1.4
		c-0.3-0.8-0.4-1.7-0.4-2.6c0-0.7,0.1-1.1,0.2-1.4c-0.9-2.7-1.4-5.2-1.4-7.5c0-2.3,0.5-4.3,1.4-6.1c-0.7-1.2-1-2.6-1-4.1
		c0-1.8,0.4-3.6,1.2-5.4c0.8-1.8,1.5-3,2.2-3.6c-0.2-0.6-0.1-1.6,0.5-3c0.6-1.4,1.3-2.7,2.3-3.9c1-1.2,1.9-1.9,3-2.1l-0.2-1.9
		c0-4.4,2.4-7.2,7.1-8.3c0-1.9,1.1-3.8,3.4-5.6c2.3-1.8,4.2-2.6,5.9-2.4c0.2-1.2,1.3-2.2,3.3-3c2-0.7,3.5-0.9,4.5-0.6
		c0.9-1.5,2.7-2.5,5.4-3.1c1-1.1,2.5-1.7,4.4-1.7c0.6,0,1.3,0.1,2.2,0.3l1.5-0.2c1.4,0,2.5,0.3,3.5,0.8c1,0.5,1.4,1.1,1.3,1.8
		c2.5,0.2,4.6,0.8,6.3,1.7c1.7,0.9,2.7,2.5,3.1,4.9c1.5-0.3,3.3,0,5.6,1.1c2.3,1.1,4.2,2.7,5.9,4.9s2.5,4.8,2.5,7.7
		c0,0.7-0.1,1.7-0.3,3.1C1040,232.5,1041.2,233.8,1042.3,236z M1022.2,240.6c2.5,0,4.4,0.2,5.8,0.7c-0.9-0.5-1.7-1.4-2.5-3
		c-0.7-1.5-1.1-3-1.1-4.3c0-0.9,0.2-1.6,0.5-2c-1.6,0.1-2.9-0.3-4-1.3c-1.1-1-2-2.1-2.9-3.3c-0.8-1.2-1.5-2.1-2-2.7
		c-0.6,0.3-1.7,0-3.5-0.9c-1.8-1-2.7-2-2.8-3c-0.5,0.6-1.4,1-2.9,1.4c-1.5,0.4-2.6,0.5-3.4,0.4c-0.3,0.6-1.1,1.1-2.4,1.7
		c-1.2,0.6-2.5,0.7-3.9,0.5c-1.1,2.1-2.3,3.9-3.6,5.3c-1.2,1.4-2.8,2.4-4.7,3.1c-0.2,1.6-0.9,3.3-2.1,5.3c-1.2,1.9-2.4,3.4-3.6,4.4
		l0.7,0.2c1.6-1.1,3.7-1.7,6.4-1.7c1.6,0,3.1,0.2,4.5,0.5c1.4,0.3,2.4,0.7,3,1.2c2.7-1.7,5.7-2.5,9-2.5c2.7,0,5.1,0.8,7.1,2.5
		C1015,241.4,1017.8,240.6,1022.2,240.6z"/>
	<path class="st0" d="M1115,281.6c0,2.3-0.9,3.8-2.7,4.6c0.2,1.7-0.5,3.4-2,5.1c-1.6,1.7-3.1,2.5-4.4,2.5c-0.6,1-2.3,2-5.1,2.9
		c-2.8,0.9-5.4,1.4-7.8,1.4c-1.7,0-3-0.3-3.9-1c-1.6,0.8-3.8,1.2-6.8,1.2c-2.6,0-4.9-0.4-7-1.2c-2.1-0.8-3.4-2-3.8-3.6
		c-2.3,0.3-4.8-0.3-7.5-2c-2.8-1.7-4.6-3.4-5.3-5.3c-2-0.6-3.7-1.6-5-3.2c-1.3-1.6-2-3.4-2.1-5.6c-0.7-1-1-2-1-3.1
		c0-1.6,0.5-3,1.6-4.2c1.1-1.2,2.3-1.9,3.8-1.9c1.5,0,2.9,0.9,4.2,2.7c2-0.2,3.9,0.5,5.5,2c1.6,1.6,2.5,3.2,2.5,4.7
		c0.3,0,1.2,0.1,2.6,0.3c1.4,0.2,2.7,0.6,3.8,1.3c1.1,0.7,1.9,1.6,2.4,2.9c2,0,4,0.3,6,0.8c2,0.5,3.1,1.1,3.5,1.8
		c0.9-0.6,2.2-1,4-1.4c1.8-0.4,3.3-0.6,4.5-0.6c0.3-0.5,1.2-0.9,2.5-1.4c1.4-0.5,2.5-0.7,3.4-0.9c-0.6-0.8-0.8-2-0.8-3.6
		c0-2.4,0.7-4.1,2.2-5.1c-1.4-0.5-2.4-1.2-3.2-2.1c-0.8-1-1.1-2.1-1-3.3c-0.9,0.2-1.6,0.3-2,0.3c-2.1,0-3.9-0.8-5.3-2.5
		c-2.3,0.2-4.5-0.3-6.7-1.5c-2.2-1.2-3.8-2.9-4.8-4.9c-0.8,0.3-1.6,0.5-2.5,0.5c-1.9,0-3.9-0.6-6-1.8c-2.1-1.2-3.4-2.3-4-3.5
		c-1.6,0.5-3.5-0.1-5.6-1.5c-2.1-1.5-3.2-3.1-3.2-4.9c-1.4-0.7-2.4-1.8-3.2-3.5c-0.8-1.6-1.2-3.1-1.2-4.5c0-1,0.2-1.7,0.7-2
		c-0.6-1.1-0.8-2.3-0.8-3.4c0-2,0.7-3.8,2-5.3c-0.3-1.2-0.5-2.4-0.5-3.4c0-1.9,0.4-3.5,1.3-4.8s1.9-1.8,3.1-1.6
		c-0.2-1.8,0.2-3.4,1.3-4.7c1.1-1.4,2.4-2.3,4.1-3c1.6-0.6,3.1-0.8,4.3-0.6c0.7-1,1.6-1.8,2.7-2.4c1.1-0.6,2.3-0.8,3.4-0.8
		c1.9,0,3.3,0.6,4.1,1.7c0.1-0.6,0.5-1,1.3-1.4c0.7-0.3,1.6-0.5,2.6-0.5c0.9,0,1.8,0.2,2.7,0.5c0.9,0.3,1.6,0.7,2,1.2
		c0.7-0.7,1.9-1,3.6-1c1.4,0,2.7,0.3,4.1,0.8s2.3,1.2,2.7,2.1c0.7-0.3,1.4-0.5,2.2-0.5c1.4,0,2.6,0.5,3.8,1.4c1.2,1,2,2.2,2.5,3.6
		c1.7-0.2,3.4,0.3,5.3,1.7c1.8,1.4,2.5,2.7,2,4.1c3.1,1.7,4.6,4,4.6,7c0,1.8-0.6,3.4-1.9,4.7c-1.2,1.4-2.8,2-4.7,2
		c-1.7-0.1-3.1-0.6-4.2-1.4c-1.1-0.8-1.8-1.8-2-2.9c-1.5-0.2-2.9-0.8-4.2-1.8c-1.3-1-2-2.2-2.1-3.8c-2.2,0.2-3.8,0-4.8-0.7
		c-1.1-0.7-2-1.8-2.8-3.2c-0.8,0.6-1.8,0.8-3.1,0.8c-1.2,0-2.6-0.3-4.1-1c-0.8,0.7-1.8,1.2-3,1.7c-1.2,0.5-2.3,0.7-3.5,0.7
		c-1.2,0-2.3-0.3-3.2-0.8c0.2,1.4-0.1,2.4-1,3.2c-0.9,0.8-2.1,1.1-3.7,0.8c0.3,0.8,0.5,1.6,0.5,2.5c0,2-0.9,3.7-2.7,5.1
		c1.2,0.6,2.1,1.5,2.7,2.8c0.6,1.3,0.8,2.6,0.7,3.8l1.4-0.2c3.4,0,5.5,1.1,6.4,3.2l1.4-0.2c1.8,0,3.5,0.5,5.2,1.4
		c1.6,0.9,2.9,2.4,3.6,4.6c1.8-0.1,3.6,0.1,5.3,0.6c1.7,0.5,2.9,1.4,3.6,2.8c0.9-0.3,1.8-0.5,2.5-0.5c1.9,0,3.6,0.6,5.2,1.7
		c1.5,1.1,2.3,2.4,2.5,3.9c1,0,2,0.6,2.8,1.7c0.8,1.1,1.2,2.4,0.9,3.9c0.8-0.1,1.5,0.3,2.2,1.3c0.7,1,1,2.1,1,3.3
		c0,0.7-0.2,1.3-0.5,1.9c1.6,1.1,2.4,2.7,2.4,4.6c0,1-0.2,1.9-0.6,2.7c-0.4,0.8-1,1.4-1.8,1.7C1114.8,279.4,1115,280.5,1115,281.6z"
		/>
</g>
<g>
	<g>
		<path class="st1" d="M867.6,55.3c0.2-0.6,0.4-1.2,0.6-1.8c0-0.1,0.1-0.3,0.1-0.4c0.2-0.5,0.3-0.9,0.5-1.4c0.1-0.2,0.2-0.4,0.2-0.7
			c0.1-0.4,0.3-0.8,0.4-1.2c0.1-0.2,0.2-0.5,0.3-0.7c0.1-0.4,0.3-0.7,0.5-1.1c0.1-0.2,0.2-0.5,0.3-0.7c0.2-0.4,0.3-0.8,0.5-1.2
			c0.1-0.2,0.2-0.4,0.3-0.6c0.3-0.6,0.5-1.1,0.8-1.7c0-0.1,0.1-0.2,0.1-0.3c0.2-0.5,0.5-0.9,0.7-1.4c-6.9-0.5-12.5-6.3-12.5-13.4
			c0-7.4,6-13.4,13.4-13.4c5.5,0,10.3,3.4,12.4,8.2c0.1-0.1,0.1-0.1,0.2-0.2c0.2-0.2,0.4-0.5,0.7-0.7c0.2-0.2,0.5-0.5,0.7-0.7
			c0.2-0.2,0.5-0.5,0.7-0.7c0.2-0.2,0.5-0.5,0.7-0.7c0.2-0.2,0.5-0.5,0.7-0.7c0.2-0.2,0.5-0.5,0.7-0.7c0.2-0.2,0.5-0.4,0.7-0.7
			c0.3-0.3,0.6-0.5,0.8-0.7c0.4-0.4,0.9-0.7,1.3-1.1c0.3-0.2,0.5-0.4,0.8-0.6c0.3-0.2,0.5-0.4,0.8-0.7c0.2-0.2,0.5-0.4,0.7-0.6
			c0.3-0.2,0.6-0.4,0.9-0.7c0.2-0.2,0.5-0.4,0.7-0.6c0.2-0.2,0.4-0.3,0.7-0.5C892.9,5.2,884,0,873.9,0C857.9,0,845,12.9,845,28.8
			c0,13.6,9.4,25,22.1,28c0.1-0.3,0.2-0.7,0.3-1C867.5,55.7,867.5,55.5,867.6,55.3z"/>
		<path class="st2" d="M873.9,15.4c-7.4,0-13.4,6-13.4,13.4c0,7.1,5.5,12.9,12.5,13.4c0,0,0-0.1,0-0.1c0.1-0.2,0.2-0.4,0.3-0.6
			c0.2-0.4,0.4-0.7,0.6-1.1c0.1-0.2,0.3-0.5,0.4-0.7c0.2-0.3,0.4-0.7,0.6-1c0.1-0.2,0.3-0.5,0.4-0.7c0.2-0.3,0.4-0.7,0.6-1
			c0.1-0.2,0.3-0.4,0.4-0.7c0.2-0.4,0.5-0.8,0.8-1.2c0.1-0.2,0.2-0.3,0.3-0.5c0.3-0.5,0.7-1,1.1-1.6c0.1-0.2,0.3-0.4,0.4-0.6
			c0.2-0.3,0.5-0.6,0.7-1c0.2-0.2,0.3-0.5,0.5-0.7c0.2-0.3,0.4-0.6,0.7-0.9c0.2-0.2,0.4-0.5,0.5-0.7c0.2-0.3,0.5-0.6,0.7-0.8
			c0.2-0.2,0.4-0.5,0.6-0.7c0.2-0.3,0.5-0.6,0.7-0.9c0.2-0.2,0.3-0.4,0.5-0.6c0.4-0.5,0.8-0.9,1.2-1.4c0.2-0.2,0.4-0.4,0.6-0.6
			c0.2-0.2,0.4-0.4,0.6-0.7C884.2,18.8,879.4,15.4,873.9,15.4z"/>
		<path class="st3" d="M1077.1,28.8c0-15.9-12.9-28.8-28.8-28.8c-10.1,0-19,5.2-24.2,13.1c4.3,3.2,8.2,6.7,11.8,10.5
			c2-4.8,6.8-8.2,12.4-8.2c7.4,0,13.4,6,13.4,13.4c0,7.1-5.5,12.9-12.5,13.4c2.4,4.7,4.4,9.6,5.8,14.7
			C1067.7,53.8,1077.1,42.4,1077.1,28.8z"/>
		<path class="st4" d="M1061.7,28.8c0-7.4-6-13.4-13.4-13.4c-5.5,0-10.3,3.4-12.4,8.2c5.3,5.6,9.8,11.9,13.3,18.6
			C1056.2,41.7,1061.7,35.9,1061.7,28.8z"/>
		<path class="st5" d="M948.4,177.7c-4.2,1.8-8.8,2.9-11.9,2.9c-7.4,0-7.8-6-7.8-13.4c0-5.1,0.2-9.5,2.8-11.8c1.1-1,2.8-1.6,5-1.6
			c2.5,0,6,0.7,9.4,1.9c1.3-2.1,2.9-3.8,4.9-5.2c-8.1-6.1-19.4-10.1-27.9-10.1c-6.3,0-10.8,2.2-13.9,5.8c-4.2,4.9-5.8,12.4-5.8,20.9
			c0,14.8,4.9,26.7,19.7,26.7c9.5,0,22.7-5,30.8-12.5C951.7,180.5,949.9,179.2,948.4,177.7z"/>
		<path class="st0" d="M943.2,165.1c0-2.4,0.5-4.8,1.4-6.9c0.4-0.9,0.8-1.7,1.3-2.5c-3.5-1.2-6.9-1.9-9.4-1.9c-2.3,0-3.9,0.6-5,1.6
			c-2.6,2.3-2.8,6.7-2.8,11.8c0,7.4,0.4,13.4,7.8,13.4c3.1,0,7.7-1.1,11.9-2.9C945.2,174.4,943.2,170,943.2,165.1z"/>
		<path class="st5" d="M1013.2,146.3c-3.1-3.6-7.6-5.8-13.9-5.8c-8.5,0-19.8,3.9-27.9,10.1c2,1.4,3.6,3.2,4.9,5.2
			c3.5-1.2,6.9-1.9,9.4-1.9c2.3,0,3.9,0.6,5,1.6c2.6,2.3,2.8,6.7,2.8,11.8c0,7.4-0.4,13.4-7.8,13.4c-3.1,0-7.7-1.1-11.9-2.9
			c-1.5,1.5-3.3,2.8-5.4,3.7c8.1,7.5,21.3,12.5,30.8,12.5c14.8,0,19.7-12,19.7-26.7C1019,158.7,1017.3,151.2,1013.2,146.3z"/>
		<path class="st0" d="M990.8,155.4c-1.1-1-2.8-1.6-5-1.6c-2.5,0-6,0.7-9.4,1.9c0.5,0.8,0.9,1.6,1.3,2.5c0.9,2.1,1.4,4.4,1.4,6.9
			c0,4.9-2,9.3-5.2,12.5c4.2,1.8,8.8,2.9,11.9,2.9c7.4,0,7.8-6,7.8-13.4C993.6,162.1,993.3,157.7,990.8,155.4z"/>
		<path class="st6" d="M977.6,158.2c-0.4-0.9-0.8-1.7-1.3-2.5c-1.3-2.1-2.9-3.8-4.9-5.2c-2.9-2.1-6.5-3.3-10.3-3.3
			s-7.4,1.2-10.3,3.3c-2,1.4-3.6,3.2-4.9,5.2c-0.5,0.8-0.9,1.6-1.3,2.5c-0.9,2.1-1.4,4.4-1.4,6.9c0,4.9,2,9.3,5.2,12.5
			c1.5,1.5,3.3,2.8,5.4,3.7c2.2,1,4.7,1.6,7.4,1.6c2.6,0,5.1-0.6,7.4-1.6c2-0.9,3.8-2.2,5.4-3.7c3.2-3.2,5.2-7.7,5.2-12.5
			C978.9,162.7,978.4,160.3,977.6,158.2z"/>
		<g>
			<ellipse class="st7" cx="961.1" cy="86.2" rx="15" ry="13"/>
			<path class="st8" d="M1001.8,104.9c0-10.9-7-20.5-17.8-26.2c-6.5-3.5-14.4-5.5-22.9-5.5c8.3,0,15,5.8,15,13c0,7.2-6.7,13-15,13
				s-15-5.8-15-13c0-7.2,6.7-13,15-13c-0.4,0-0.7,0-1.1,0c-6.9,0.1-13.3,1.6-18.9,4.1c-12.4,5.4-20.7,15.8-20.7,27.6
				c0,17.5,18.2,31.7,40.7,31.7c0.4,0,0.9,0,1.3,0c0.1,0,0.1,0,0.2,0c0.4,0,0.8,0,1.2,0c0,0,0,0,0,0l0,0
				C985,135.4,1001.8,121.7,1001.8,104.9z"/>
		</g>
		<path class="st7" d="M998.7,61c-1.9,0-3.5,1.6-3.5,3.5v5.8c0,1.9,1.6,3.5,3.5,3.5c1.9,0,3.5-1.6,3.5-3.5v-5.8
			C1002.2,62.5,1000.7,61,998.7,61z"/>
		<path class="st7" d="M923.4,73.8c1.9,0,3.5-1.6,3.5-3.5v-5.8c0-1.9-1.6-3.5-3.5-3.5c-1.9,0-3.5,1.6-3.5,3.5v5.8
			C919.9,72.2,921.5,73.8,923.4,73.8z"/>
	</g>
	<g>
		<path class="st9" d="M908,15.8l-2.8,7.9c-0.1,0.2,0,0.5,0.2,0.6c0.2,0.1,0.5,0.3,0.7,0.3c0.9,0,1.7-1,2.5-2
			c0.6-0.7,1.3-1.5,1.8-1.7c0.2-0.1,0.4-0.2,0.5-0.7c0.1-0.9-1-3.3-2.3-4.5C908.5,15.4,908.1,15.5,908,15.8z"/>
		<g>
			<path class="st10" d="M888.2,20.5l-0.5-0.8c-0.9-1.5-2.6-2.3-4.3-2.1l-0.5,0.1c-0.2,0-0.3,0.1-0.4,0.3c-0.6,1.2-0.4,2.2-0.1,3.1
				c0.2,0.7,0.4,1.3,0.1,1.9c-0.1,0.2,0,0.3,0,0.5c0.2,0.3,2.5,1.9,4.9,2.2c0,0,0,0,0,0c0.2,0,0.3-0.1,0.4-0.2
				C889.1,24,889.2,22,888.2,20.5z"/>
			<path class="st10" d="M893.8,3c-1.6-1.3-4.2-1.1-4.6-1c-0.2,0.1-0.3,0.2-0.3,0.4c-0.1,0.5-0.5,1-0.8,1.6c-0.6,0.9-1.2,1.8-1,2.8
				c0.1,0.2,0.3,0.4,0.5,0.4c0,0,0,0,0,0l1.3-0.1c2.2-0.1,4.2-1.5,5-3.5l0,0C894.1,3.4,894,3.2,893.8,3z"/>
			<path class="st10" d="M910.5,12.7c-0.8-3.4-4.6-4.7-4.8-4.8c-0.3-0.1-0.6,0-0.7,0.3c0,0.1-1,2.9-0.5,5.6c0.5,2.7,2.4,5.2,2.5,5.4
				c0.1,0.1,0.3,0.2,0.4,0.2c0,0,0.1,0,0.1,0c0.2,0,0.4-0.2,0.4-0.4c0.1-0.6,1-2.5,1.6-3.9C910.6,13,910.6,13,910.5,12.7z"/>
		</g>
		<g>
			<path class="st11" d="M889.6,6.2C889.6,6,889.4,6,889.3,6c-2.2-0.1-6.1,3.5-6.5,3.9c-0.1,0.1-0.1,0.1-0.1,0.2
				c-0.1,0.2-1.6,4.7,0,7.7c0.6,1.2,1.7,2,3.1,2.4c0,0,0.1,0,0.1,0c0.1,0,0.2,0,0.3-0.1c0.1-0.1,0.2-0.2,0.2-0.3l3.4-13.3
				C889.8,6.5,889.7,6.3,889.6,6.2z"/>
			<path class="st11" d="M903.3,5.1c-2.3-1.4-3.3-3.4-3.3-3.4c-0.1-0.2-0.2-0.3-0.4-0.3c-0.1,0-5.2-0.8-6.9,3.2
				c-0.1,0.2,0,0.5,0.2,0.6l12.3,7.6c0.1,0.1,0.2,0.1,0.3,0.1c0.1,0,0.1,0,0.2,0c0.1,0,0.3-0.2,0.3-0.3
				C906.8,10.8,906.7,7.1,903.3,5.1z"/>
			<path class="st11" d="M904.8,24.5c0-0.3-0.2-0.5-0.5-0.5l-16.2-1c-0.2,0-0.4,0.1-0.5,0.3c-0.3,0.6-0.4,1.6,0,2.7
				c0.5,1.3,1.9,2.4,3.9,3.1c1,0.4,1.8,0.8,2.4,1.1c0.8,0.4,1.5,0.7,2.4,0.9c0.3,0.1,0.5,0.1,0.8,0.1c1.2,0,2.6-0.6,3.8-1.6
				c0.2-0.2,0.6-0.4,1-0.6C903.2,28.3,905,27.2,904.8,24.5z"/>
		</g>
		<path class="st12" d="M907.3,17c-0.3-0.8-0.5-1.7-0.7-2.5c-0.2-1.5-0.8-2.5-1.7-3.2c-1.4-1.1-3.2-0.8-3.3-0.8
			c-0.2,0-0.3,0.1-0.4,0.3l-6.9,15.4c-0.1,0.2,0,0.4,0.1,0.6c0.9,0.8,2.1,1.4,3.4,1.4c0.9,0,1.9-0.3,2.7-1c1-0.9,2-1.4,3-1.8
			c1.6-0.8,3.1-1.5,4.1-4C908.3,19.9,907.8,18.5,907.3,17z"/>
		<path class="st13" d="M902,8.6c-0.5-1-1-1.5-3-2.2c-1.1-0.4-2.4-0.6-3.8-1.3c-2.5-1.5-4.6-0.5-5.5,0.3c-1.7,1.3-2.7,3.5-2.3,5
			c0.1,0.2,0.3,0.4,0.5,0.4l13.4,0.4c0,0,0,0,0,0c0.1,0,0.2,0,0.3-0.1C902.1,10.8,902.6,9.7,902,8.6z"/>
		<path class="st14" d="M896.6,24.7l-5.5-15c0-0.1-0.1-0.2-0.2-0.2c-0.8-0.5-1.9-0.4-3.1,0.3c-2.1,1.3-4.3,3.8-3.9,7
			c0.2,1.5,0.9,2.2,1.5,3c0.4,0.5,1.1,1.5,1.4,2.2c1.3,2.8,3.4,4.7,5.6,5c0.2,0,0.3,0,0.5,0c1.3,0,2.5-0.6,3.5-1.8
			C896.7,25.1,896.7,24.9,896.6,24.7z"/>
		<path class="st15" d="M901.8,10.5c-1.1-1-2.3-1.4-3.4-1c-0.1,0-0.1,0.1-0.2,0.1l-8.5,8.4c0,0-0.1,0.1-0.1,0.1
			c-0.4,0.8-0.3,2.3,0.2,3.6c0.4,1,1.5,2.7,3.8,3.4c0.6,0.2,1.1,0.2,1.7,0.2c3.5,0,7.3-2.7,8.5-6.4C905,15.8,903.6,12.3,901.8,10.5z
			"/>
		<path class="st16" d="M896.4,8.5c-2.1-0.8-4.5-0.4-6.2,1.1c-1.1,1-2.8,3.4-2.8,5.6c0,1.1,0.5,2.1,1.4,2.8c1.1,0.9,2.2,1.2,3.1,1.2
			c1.3,0,2.3-0.5,2.8-0.8c0.1,0,0.1-0.1,0.1-0.1l4.8-4.9c0.1-0.1,0.2-0.3,0.1-0.4C899.6,10.8,898.4,9.2,896.4,8.5z"/>
		<path class="st17" d="M899.8,12.7c-1-1.2-2.4-2-3.9-2.1c-1.2-0.1-2.4,0.2-3.2,0.9c-1.4,1.3-2,2.8-1.4,4.3c0.3,0.7,0.8,1.4,1.4,1.8
			l0,0c-0.9,0.1-1.3,1-0.9,1.8c0.6,1.1,1.5,2,2.7,2.3c0.3,0.1,0.6,0.1,0.9,0.1c1.5,0,3.5-0.5,4.6-1.9
			C901.3,18.3,902.1,15.7,899.8,12.7z"/>
		<path class="st18" d="M897.1,16.6c-0.3,0-1.1,0.7-1.9-0.2c-0.4-0.5-0.5-1.2-0.2-1.8c0.1-0.1,0.2-0.3,0.2-0.4
			c0.2-0.2,0-0.5-0.2-0.5c-0.7,0.1-1.4,0.5-1.8,1.2c-0.5,0.8-0.4,1.9,0.2,2.6c1,1.2,2.8,1.2,3.7,0c0.1-0.1,0.2-0.2,0.2-0.4
			C897.5,17,897.5,16.7,897.1,16.6z"/>
	</g>
	<g>
		<path class="st3" d="M1102.4,149.5c-17.4-11-40.3-5.8-51.3,11.6c-7,11.1-7.4,24.4-2.3,35.4c6.4-2.5,13-4.4,19.6-5.7
			c-3.9-5.5-4.3-13.1-0.4-19.1c5.1-8.1,15.8-10.5,23.8-5.4c7.7,4.9,10.2,14.9,6,22.8c6.8,0.6,13.5,1.8,20,3.8
			C1123.2,177,1117.3,158.9,1102.4,149.5z"/>
		<path class="st4" d="M1091.8,166.3c-8.1-5.1-18.8-2.7-23.8,5.4c-3.8,6.1-3.4,13.6,0.4,19.1c9.8-1.9,19.7-2.5,29.4-1.7
			C1102,181.2,1099.5,171.2,1091.8,166.3z"/>
	</g>
	<g>
		<path class="st3" d="M819.7,149.5c17.4-11,40.3-5.8,51.3,11.6c7,11.1,7.4,24.4,2.3,35.4c-6.4-2.5-13-4.4-19.6-5.7
			c3.9-5.5,4.3-13.1,0.4-19.1c-5.1-8.1-15.8-10.5-23.8-5.4c-7.7,4.9-10.2,14.9-6,22.8c-6.8,0.6-13.5,1.8-20,3.8
			C799,177,804.9,158.9,819.7,149.5z"/>
		<path class="st4" d="M830.4,166.3c8.1-5.1,18.8-2.7,23.8,5.4c3.8,6.1,3.4,13.6-0.4,19.1c-9.8-1.9-19.7-2.5-29.4-1.7
			C820.1,181.2,822.7,171.2,830.4,166.3z"/>
	</g>
	<g>
		<path class="st9" d="M880.5,51.9l-2.8,7.9c-0.1,0.2,0,0.5,0.2,0.6c0.2,0.1,0.5,0.3,0.7,0.3c0.9,0,1.7-1,2.5-2
			c0.6-0.7,1.3-1.5,1.8-1.7c0.2-0.1,0.4-0.2,0.5-0.7c0.1-0.9-1-3.3-2.3-4.5C881,51.6,880.6,51.7,880.5,51.9z"/>
		<g>
			<path class="st10" d="M860.8,56.7l-0.5-0.8c-0.9-1.5-2.6-2.3-4.3-2.1l-0.5,0.1c-0.2,0-0.3,0.1-0.4,0.3c-0.6,1.2-0.4,2.2-0.1,3.1
				c0.2,0.7,0.4,1.3,0.1,1.9c-0.1,0.2,0,0.3,0,0.5c0.2,0.3,2.5,1.9,4.9,2.2c0,0,0,0,0,0c0.2,0,0.3-0.1,0.4-0.2
				C861.6,60.1,861.7,58.2,860.8,56.7z"/>
			<path class="st10" d="M866.3,39.2c-1.6-1.3-4.2-1.1-4.6-1c-0.2,0.1-0.3,0.2-0.3,0.4c-0.1,0.5-0.5,1-0.8,1.6
				c-0.6,0.9-1.2,1.8-1,2.8c0.1,0.2,0.3,0.4,0.5,0.4c0,0,0,0,0,0l1.3-0.1c2.2-0.1,4.2-1.5,5-3.5l0,0
				C866.6,39.6,866.5,39.3,866.3,39.2z"/>
			<path class="st10" d="M883,48.9c-0.8-3.4-4.6-4.7-4.8-4.8c-0.3-0.1-0.6,0-0.7,0.3c0,0.1-1,2.9-0.5,5.6c0.5,2.7,2.4,5.2,2.5,5.4
				c0.1,0.1,0.3,0.2,0.4,0.2c0,0,0.1,0,0.1,0c0.2,0,0.4-0.2,0.4-0.4c0.1-0.6,1-2.5,1.6-3.9C883.1,49.1,883.1,49.1,883,48.9z"/>
		</g>
		<g>
			<path class="st11" d="M862.2,42.3c-0.1-0.1-0.2-0.2-0.4-0.2c-2.2-0.1-6.1,3.5-6.5,3.9c-0.1,0.1-0.1,0.1-0.1,0.2
				c-0.1,0.2-1.6,4.7,0,7.7c0.6,1.2,1.7,2,3.1,2.4c0,0,0.1,0,0.1,0c0.1,0,0.2,0,0.3-0.1c0.1-0.1,0.2-0.2,0.2-0.3l3.4-13.3
				C862.3,42.6,862.3,42.4,862.2,42.3z"/>
			<path class="st11" d="M875.8,41.3c-2.3-1.4-3.3-3.4-3.3-3.4c-0.1-0.2-0.2-0.3-0.4-0.3c-0.1,0-5.2-0.8-6.9,3.2
				c-0.1,0.2,0,0.5,0.2,0.6l12.3,7.6c0.1,0.1,0.2,0.1,0.3,0.1c0.1,0,0.1,0,0.2,0c0.1,0,0.3-0.2,0.3-0.3
				C879.3,46.9,879.2,43.2,875.8,41.3z"/>
			<path class="st11" d="M877.4,60.7c0-0.3-0.2-0.5-0.5-0.5l-16.2-1c-0.2,0-0.4,0.1-0.5,0.3c-0.3,0.6-0.4,1.6,0,2.7
				c0.5,1.3,1.9,2.4,3.9,3.1c1,0.4,1.8,0.8,2.4,1.1c0.8,0.4,1.5,0.7,2.4,0.9c0.3,0.1,0.5,0.1,0.8,0.1c1.2,0,2.6-0.6,3.8-1.6
				c0.2-0.2,0.6-0.4,1-0.6C875.7,64.4,877.5,63.4,877.4,60.7z"/>
		</g>
		<path class="st12" d="M879.9,53.1c-0.3-0.8-0.5-1.7-0.7-2.5c-0.2-1.5-0.8-2.5-1.7-3.2c-1.4-1.1-3.2-0.8-3.3-0.8
			c-0.2,0-0.3,0.1-0.4,0.3L867,62.3c-0.1,0.2,0,0.4,0.1,0.6c0.9,0.8,2.1,1.4,3.4,1.4c0.9,0,1.9-0.3,2.7-1c1-0.9,2-1.4,3-1.8
			c1.6-0.8,3.1-1.5,4.1-4C880.8,56.1,880.4,54.6,879.9,53.1z"/>
		<path class="st13" d="M874.5,44.7c-0.5-1-1-1.5-3-2.2c-1.1-0.4-2.4-0.6-3.8-1.3c-2.5-1.5-4.6-0.5-5.5,0.3c-1.7,1.3-2.7,3.5-2.3,5
			c0.1,0.2,0.3,0.4,0.5,0.4l13.4,0.4c0,0,0,0,0,0c0.1,0,0.2,0,0.3-0.1C874.6,46.9,875.1,45.9,874.5,44.7z"/>
		<path class="st14" d="M869.1,60.9l-5.5-15c0-0.1-0.1-0.2-0.2-0.2c-0.8-0.5-1.9-0.4-3.1,0.3c-2.1,1.3-4.3,3.8-3.9,7
			c0.2,1.5,0.9,2.2,1.5,3c0.4,0.5,1.1,1.5,1.4,2.2c1.3,2.8,3.4,4.7,5.6,5c0.2,0,0.3,0,0.5,0c1.3,0,2.5-0.6,3.5-1.8
			C869.2,61.2,869.2,61,869.1,60.9z"/>
		<path class="st15" d="M874.3,46.7c-1.1-1-2.3-1.4-3.4-1c-0.1,0-0.1,0.1-0.2,0.1l-8.5,8.4c0,0-0.1,0.1-0.1,0.1
			c-0.4,0.8-0.3,2.3,0.2,3.6c0.4,1,1.5,2.7,3.8,3.4c0.6,0.2,1.1,0.2,1.7,0.2c3.5,0,7.3-2.7,8.5-6.4
			C877.5,51.9,876.1,48.4,874.3,46.7z"/>
		<path class="st16" d="M869,44.6c-2.1-0.8-4.5-0.4-6.2,1.1c-1.1,1-2.8,3.4-2.8,5.6c0,1.1,0.5,2.1,1.4,2.8c1.1,0.9,2.2,1.2,3.1,1.2
			c1.3,0,2.3-0.5,2.8-0.8c0.1,0,0.1-0.1,0.1-0.1l4.8-4.9c0.1-0.1,0.2-0.3,0.1-0.4C872.1,47,870.9,45.3,869,44.6z"/>
		<path class="st17" d="M872.3,48.9c-1-1.2-2.4-2-3.9-2.1c-1.2-0.1-2.4,0.2-3.2,0.9c-1.4,1.3-2,2.8-1.4,4.3c0.3,0.7,0.8,1.4,1.4,1.8
			l0,0c-0.9,0.1-1.3,1-0.9,1.8c0.6,1.1,1.5,2,2.7,2.3c0.3,0.1,0.6,0.1,0.9,0.1c1.5,0,3.5-0.5,4.6-1.9
			C873.8,54.4,874.6,51.8,872.3,48.9z"/>
		<path class="st18" d="M869.6,52.8c-0.3,0-1.1,0.7-1.9-0.2c-0.4-0.5-0.5-1.2-0.2-1.8c0.1-0.1,0.2-0.3,0.2-0.4
			c0.2-0.2,0-0.5-0.2-0.5c-0.7,0.1-1.4,0.5-1.8,1.2c-0.5,0.8-0.4,1.9,0.2,2.6c1,1.2,2.8,1.2,3.7,0c0.1-0.1,0.2-0.2,0.2-0.4
			C870,53.2,870,52.8,869.6,52.8z"/>
	</g>
	<g>
		<path class="st9" d="M902.6,34.7l-4.5,12.7c-0.1,0.4,0,0.8,0.3,1c0.4,0.2,0.8,0.4,1.1,0.4c1.4,0,2.8-1.6,4.1-3.2
			c1-1.2,2.1-2.5,3-2.8c0.2-0.1,0.7-0.4,0.7-1.1c0.1-1.4-1.6-5.3-3.7-7.3C903.4,34.1,902.8,34.3,902.6,34.7z"/>
		<g>
			<path class="st10" d="M870.6,42.3l-0.7-1.2c-1.5-2.4-4.2-3.7-7-3.3l-0.8,0.1c-0.3,0-0.5,0.2-0.6,0.4c-1,1.9-0.6,3.5-0.2,5
				c0.3,1.1,0.6,2.1,0.2,3c-0.1,0.2-0.1,0.5,0.1,0.7c0.3,0.5,4,3.1,7.9,3.5c0,0,0.1,0,0.1,0c0.3,0,0.5-0.1,0.7-0.3
				C872,47.9,872.1,44.8,870.6,42.3z"/>
			<path class="st10" d="M879.7,14c-2.5-2-6.9-1.8-7.4-1.6c-0.3,0.1-0.5,0.3-0.6,0.6c-0.2,0.8-0.8,1.7-1.3,2.5c-1,1.5-1.9,3-1.6,4.6
				c0.1,0.4,0.4,0.7,0.8,0.7c0,0,0,0,0,0l2.1-0.1c3.6-0.2,6.8-2.4,8.2-5.7l0,0C880.1,14.7,880,14.3,879.7,14z"/>
			<path class="st10" d="M906.7,29.7c-1.3-5.5-7.5-7.7-7.7-7.8c-0.4-0.2-0.9,0.1-1.1,0.5c-0.1,0.2-1.6,4.7-0.7,9
				c0.9,4.3,3.9,8.5,4,8.7c0.2,0.2,0.4,0.3,0.7,0.3c0.1,0,0.1,0,0.2,0c0.3-0.1,0.6-0.3,0.6-0.6c0.2-1,1.6-4,2.6-6.3
				C906.8,30.1,906.8,30.1,906.7,29.7z"/>
		</g>
		<g>
			<path class="st11" d="M872.9,19.1c-0.1-0.2-0.4-0.3-0.6-0.3c-3.6-0.2-9.8,5.7-10.5,6.4c-0.1,0.1-0.2,0.2-0.2,0.3
				c-0.1,0.3-2.6,7.6,0,12.5c1,2,2.7,3.3,5,3.9c0.1,0,0.1,0,0.2,0c0.1,0,0.3,0,0.4-0.1c0.2-0.1,0.3-0.3,0.4-0.5l5.5-21.5
				C873.1,19.6,873.1,19.3,872.9,19.1z"/>
			<path class="st11" d="M895,17.4c-3.8-2.2-5.3-5.5-5.3-5.5c-0.1-0.3-0.3-0.4-0.6-0.5c-0.1,0-8.4-1.3-11.2,5.1
				c-0.2,0.4,0,0.8,0.3,1l19.9,12.3c0.1,0.1,0.3,0.1,0.4,0.1c0.1,0,0.2,0,0.3,0c0.2-0.1,0.4-0.2,0.5-0.5
				C900.6,26.6,900.5,20.6,895,17.4z"/>
			<path class="st11" d="M897.5,48.9c0-0.4-0.4-0.8-0.8-0.8l-26.3-1.6c-0.3,0-0.7,0.2-0.8,0.5c-0.5,1-0.7,2.6,0,4.3
				c0.9,2.1,3,3.9,6.3,5.1c1.7,0.6,2.9,1.2,3.9,1.7c1.3,0.6,2.4,1.2,3.9,1.5c0.4,0.1,0.8,0.1,1.3,0.1c2,0,4.2-0.9,6.1-2.6
				c0.4-0.3,1-0.7,1.6-1C894.9,54.9,897.7,53.2,897.5,48.9z"/>
		</g>
		<path class="st12" d="M901.6,36.6c-0.4-1.3-0.9-2.7-1.1-4c-0.3-2.4-1.2-4.1-2.8-5.2c-2.3-1.7-5.2-1.2-5.3-1.2
			c-0.3,0-0.5,0.2-0.6,0.5l-11.1,24.8c-0.1,0.3-0.1,0.7,0.2,1c1.4,1.3,3.4,2.3,5.4,2.3c1.5,0,3-0.5,4.4-1.7c1.7-1.5,3.3-2.2,4.8-2.9
			c2.6-1.2,5.1-2.4,6.7-6.4C903.1,41.4,902.4,39.1,901.6,36.6z"/>
		<path class="st13" d="M892.9,23c-0.8-1.7-1.7-2.5-4.8-3.5c-1.8-0.6-3.9-0.9-6.1-2.2c-4.1-2.4-7.4-0.8-8.9,0.4
			c-2.7,2-4.4,5.7-3.7,8.1c0.1,0.4,0.4,0.6,0.8,0.6l21.6,0.7c0,0,0,0,0,0c0.2,0,0.3,0,0.4-0.1C893.1,26.5,893.9,24.9,892.9,23z"/>
		<path class="st14" d="M884.2,49.2l-8.9-24.2c-0.1-0.2-0.2-0.3-0.3-0.4c-1.2-0.9-3.1-0.7-5,0.4c-3.5,2.1-6.9,6.2-6.2,11.3
			c0.3,2.4,1.4,3.6,2.4,4.8c0.7,0.8,1.8,2.4,2.3,3.6c2.1,4.5,5.6,7.6,9.1,8.1c0.3,0,0.6,0.1,0.8,0.1c2.1,0,4.1-1,5.6-2.9
			C884.3,49.7,884.3,49.4,884.2,49.2z"/>
		<path class="st15" d="M892.6,26.2c-1.8-1.7-3.7-2.3-5.4-1.6c-0.1,0-0.2,0.1-0.3,0.2l-13.7,13.6c-0.1,0.1-0.1,0.1-0.2,0.2
			c-0.7,1.4-0.6,3.7,0.4,5.8c0.7,1.6,2.4,4.4,6.2,5.5c0.9,0.3,1.8,0.4,2.8,0.4c5.7,0,11.9-4.4,13.8-10.4
			C897.8,34.7,895.5,29,892.6,26.2z"/>
		<path class="st16" d="M883.9,22.8c-3.4-1.3-7.3-0.6-10,1.8c-1.9,1.6-4.6,5.4-4.5,9.1c0,1.8,0.8,3.4,2.2,4.6
			c1.8,1.4,3.5,1.9,5.1,1.9c2.1,0,3.7-0.8,4.5-1.2c0.1,0,0.2-0.1,0.2-0.2l7.8-8c0.2-0.2,0.3-0.4,0.2-0.7
			C889.1,26.7,887,24,883.9,22.8z"/>
		<path class="st17" d="M889.3,29.7c-1.6-2-3.9-3.2-6.3-3.5c-2-0.2-3.9,0.4-5.1,1.5c-2.3,2.1-3.2,4.6-2.3,7c0.4,1.2,1.3,2.2,2.3,2.9
			l0,0c-1.4,0.2-2.2,1.7-1.5,2.9c0.9,1.7,2.5,3.3,4.4,3.6c0.5,0.1,1,0.1,1.4,0.1c2.5,0,5.6-0.8,7.5-3
			C891.8,38.7,893.1,34.5,889.3,29.7z"/>
		<path class="st18" d="M885,36.1c-0.5,0-1.7,1.1-3.1-0.4c-0.7-0.8-0.8-1.9-0.4-2.9c0.1-0.2,0.2-0.4,0.4-0.6
			c0.3-0.3,0.1-0.8-0.4-0.8c-1.2,0.1-2.3,0.8-3,2c-0.8,1.3-0.6,3.1,0.4,4.3c1.6,2,4.5,1.9,6,0c0.2-0.2,0.3-0.4,0.4-0.6
			C885.6,36.7,885.6,36.1,885,36.1z"/>
	</g>
</g>
</svg>
